<?xml version="1.0" encoding="UTF-8"?>
<!DOCTYPE svg PUBLIC "-//W3C//DTD SVG 1.1//EN" "http://www.w3.org/Graphics/SVG/1.1/DTD/svg11.dtd">
<!-- Creator: CorelDRAW X7 -->
<svg xmlns="http://www.w3.org/2000/svg" xml:space="preserve" width="300mm" height="275mm" version="1.1" style="shape-rendering:geometricPrecision; text-rendering:geometricPrecision; image-rendering:optimizeQuality; fill-rule:evenodd; clip-rule:evenodd"
viewBox="0 0 30000 27500"
 xmlns:xlink="http://www.w3.org/1999/xlink">
 <defs>
  <style type="text/css">
   <![CDATA[
    .fil19 {fill:#FEFEFE}
    .fil1 {fill:#FBD7A3}
    .fil23 {fill:#FCD68A}
    .fil10 {fill:#FCDC02}
    .fil9 {fill:#F9CA00}
    .fil14 {fill:#E76E25}
    .fil17 {fill:#E45128}
    .fil20 {fill:#F1D919}
    .fil13 {fill:#E9E1DC}
    .fil0 {fill:#E5E5E5}
    .fil24 {fill:#D36328}
    .fil15 {fill:#DDDCD7}
    .fil8 {fill:#B0BFCC}
    .fil11 {fill:#7F92A4}
    .fil7 {fill:#7F91A0}
    .fil12 {fill:#5C7082}
    .fil18 {fill:#449A9E}
    .fil22 {fill:#3E8D8F}
    .fil16 {fill:#4577A1}
    .fil4 {fill:#455C6D}
    .fil2 {fill:#37444F}
    .fil3 {fill:#2D343A}
    .fil6 {fill:#374B5A}
    .fil5 {fill:#2F3943}
    .fil21 {fill:#2D364C}
   ]]>
  </style>
 </defs>
 <g id="Layer_x0020_1">
  <metadata id="CorelCorpID_0Corel-Layer"/>
  <g id="_2926593200272">
   <path class="fil0" d="M6299 8691c-126,0 -245,-77 -292,-202l-150 -395c-71,11 -142,16 -213,16 -102,0 -204,-11 -303,-32l-174 386c-52,116 -166,185 -285,185 -43,0 -86,-9 -128,-28 -157,-71 -227,-256 -157,-413l174 -386c-138,-102 -258,-228 -355,-375l-395 150c-36,14 -74,20 -111,20 -126,0 -244,-76 -292,-201 -61,-161 20,-342 181,-403l396 -150c-26,-174 -20,-349 16,-516l-387 -174c-157,-70 -227,-255 -156,-412 52,-116 165,-185 285,-185 42,0 86,9 127,28l387 173c101,-137 227,-258 375,-354l-150 -395c-62,-162 20,-342 181,-403 36,-14 74,-21 111,-21 126,0 244,77 292,202l150 395c71,-11 141,-16 212,-16 103,0 204,11 304,32l173 -386c52,-116 166,-185 285,-185 43,0 87,9 128,28 79,35 136,99 164,174 28,75 28,160 -7,239l-174 386c138,102 259,228 355,375l395 -150c36,-14 74,-20 111,-20 126,0 244,77 292,201 61,161 -20,342 -181,403l-395 150c26,174 19,349 -17,516l387 174c78,35 135,99 164,174 28,74 28,160 -7,239 -52,115 -166,184 -285,184 -43,0 -87,-9 -128,-28l-387 -173c-101,137 -227,258 -375,354l150 395c62,162 -19,342 -181,403 -36,14 -74,21 -110,21zm-659 -2882c-99,0 -199,18 -297,55 -432,164 -650,649 -486,1081 127,335 447,541 785,541 99,0 199,-17 297,-55 44,-16 85,-37 124,-60 50,-35 99,-73 143,-115l3 8 14 -13 -9 -3c49,-48 95,-100 136,-156l1 0c134,-215 171,-487 74,-742 -127,-335 -446,-541 -785,-541z"/>
   <path class="fil0" d="M8215 5232c-118,0 -216,-93 -220,-212l-12 -299c-123,-22 -239,-66 -343,-127l-203 220c-44,48 -103,72 -163,72 -54,0 -107,-20 -150,-59 -90,-83 -95,-223 -12,-312l203 -221c-69,-99 -122,-211 -154,-331l-299 12c-3,0 -6,0 -9,0 -118,0 -216,-94 -220,-213 -5,-122 90,-224 212,-229l299 -12c21,-123 65,-239 127,-343l-221 -203c-90,-83 -95,-223 -12,-313 43,-47 103,-71 162,-71 54,0 108,19 150,59l221 203c99,-69 210,-122 331,-154l-12 -299c-5,-122 90,-224 212,-229 3,0 6,-1 9,-1 118,0 216,94 221,213l12 299c123,21 238,65 343,127l203 -221c44,-47 103,-71 163,-71 53,0 107,19 149,59 45,41 69,97 71,153 3,57 -17,114 -58,159l-204 221c70,99 123,210 154,331l299 -12c3,0 6,0 9,0 118,0 216,93 221,212 5,122 -90,225 -212,230l-299 12c-22,123 -66,238 -127,343l220 203c45,41 69,97 71,154 3,56 -17,114 -58,158 -44,48 -103,72 -163,72 -53,0 -107,-20 -150,-59l-220 -204c-99,70 -211,123 -331,154l12 299c4,122 -91,225 -213,230 -3,0 -6,0 -9,0zm-51 -2124c-8,0 -16,0 -24,0 -328,13 -583,290 -570,617 13,319 276,570 593,570 8,0 16,0 24,0 33,-2 66,-6 97,-13 42,-12 83,-27 122,-45l0 6 12 -6 -5 -4c44,-21 86,-46 126,-74l1 0c138,-114 224,-289 217,-481 -13,-319 -277,-570 -593,-570z"/>
   <path class="fil0" d="M25014 14659c-58,0 -104,-46 -104,-104l0 -1156c0,-57 46,-104 104,-104 57,0 104,47 104,104l0 1156c0,58 -47,104 -104,104z"/>
   <path class="fil0" d="M25592 14081l-1156 0c-58,0 -104,-46 -104,-104 0,-57 46,-104 104,-104l1156 0c57,0 104,47 104,104 0,58 -47,104 -104,104z"/>
   <path class="fil0" d="M28524 11854c-26,0 -53,-10 -73,-30 -41,-41 -41,-107 0,-147l817 -818c41,-40 107,-40 147,0 41,41 41,107 0,147l-817 818c-21,20 -47,30 -74,30z"/>
   <path class="fil0" d="M29342 11854c-27,0 -54,-10 -74,-30l-817 -818c-41,-40 -41,-106 0,-147 40,-40 106,-40 147,0l817 818c41,40 41,106 0,147 -20,20 -47,30 -73,30z"/>
   <path class="fil0" d="M6678 21411c-57,0 -104,-47 -104,-104l0 -1156c0,-58 47,-104 104,-104 58,0 104,46 104,104l0 1156c0,57 -46,104 -104,104z"/>
   <path class="fil0" d="M7256 20833l-1156 0c-57,0 -104,-47 -104,-104 0,-58 47,-104 104,-104l1156 0c58,0 104,46 104,104 0,57 -46,104 -104,104z"/>
   <path class="fil0" d="M658 18081c-26,0 -53,-10 -73,-30 -41,-41 -41,-107 0,-147l817 -818c41,-40 107,-40 147,0 41,41 41,107 0,147l-817 818c-20,20 -47,30 -74,30z"/>
   <path class="fil0" d="M1476 18081c-27,0 -53,-10 -74,-30l-817 -818c-41,-40 -41,-106 0,-147 40,-40 106,-40 147,0l817 818c41,40 41,106 0,147 -20,20 -46,30 -73,30z"/>
   <path class="fil0" d="M1684 1596c-58,0 -104,-47 -104,-104l0 -1156c0,-58 46,-105 104,-105 57,0 104,47 104,105l0 1156c0,57 -47,104 -104,104z"/>
   <path class="fil0" d="M2262 1018l-1156 0c-58,0 -104,-47 -104,-104 0,-58 46,-104 104,-104l1156 0c58,0 104,46 104,104 0,57 -46,104 -104,104z"/>
   <path class="fil0" d="M28690 24278c-57,0 -104,-47 -104,-104l0 -1156c0,-58 47,-104 104,-104 58,0 104,46 104,104l0 1156c0,57 -46,104 -104,104z"/>
   <path class="fil0" d="M29268 23700l-1156 0c-57,0 -104,-47 -104,-104 0,-57 47,-104 104,-104l1156 0c58,0 104,47 104,104 0,57 -46,104 -104,104z"/>
   <path class="fil0" d="M5634 14814c-27,0 -54,-10 -74,-31 -41,-40 -41,-106 0,-147l818 -817c40,-41 106,-41 147,0 40,40 40,106 0,147l-818 817c-20,21 -47,31 -73,31z"/>
   <path class="fil0" d="M6451 14814c-26,0 -53,-10 -73,-31l-818 -817c-41,-41 -41,-107 0,-147 41,-41 107,-41 147,0l818 817c40,41 40,107 0,147 -21,21 -47,31 -74,31z"/>
   <path class="fil0" d="M25865 1727c-26,0 -53,-10 -73,-31 -41,-40 -41,-106 0,-147l817 -817c41,-41 107,-41 147,0 41,40 41,106 0,147l-817 817c-21,21 -47,31 -74,31z"/>
   <path class="fil0" d="M26683 1727c-27,0 -54,-10 -74,-31l-817 -817c-41,-41 -41,-107 0,-147 40,-41 106,-41 147,0l817 817c41,41 41,107 0,147 -20,21 -47,31 -73,31z"/>
   <path class="fil1" d="M15418 27269c-5978,0 -10825,-288 -10825,-643 0,-355 4847,-643 10825,-643 5979,0 10826,288 10826,643 0,355 -4847,643 -10826,643z"/>
   <polygon class="fil2" points="15110,1890 17964,6184 23235,7109 20330,2712 "/>
   <polygon class="fil2" points="15110,1890 15033,1967 23158,7186 23235,7109 "/>
   <polygon class="fil3" points="15033,1967 17887,6261 23158,7186 20252,2790 "/>
   <path class="fil2" d="M21024 5875l-572 935 -765 1251 -3934 -2572c31,-73 554,-807 971,-1388 285,-395 520,-720 520,-720 1748,23 3011,849 3780,2494z"/>
   <path class="fil4" d="M18076 3460c-264,-49 -541,-75 -832,-79 0,0 -235,325 -520,720 -417,581 -940,1315 -971,1388l648 424c533,-824 1075,-1676 1675,-2453z"/>
   <path class="fil5" d="M20452 6810c-2,-7 -5,-15 -7,-22 -518,-1728 -2017,-2330 -2945,-2538 187,-269 378,-534 576,-790 -255,-47 -523,-73 -804,-79 1733,32 2987,858 3752,2494l-517 846 -55 89zm-3181 -3429c-2,0 -4,0 -5,0 1,0 3,0 5,0zm-8 0c-2,0 -3,0 -4,0 1,0 2,0 4,0zm-7 0c-1,0 -2,0 -3,0 1,0 2,0 3,0zm-6 0c-2,0 -4,0 -6,0 2,0 4,0 6,0z"/>
   <path class="fil6" d="M17500 4249c-454,-102 -771,-110 -771,-110l-5 -38c285,-395 520,-720 520,-720l0 0c2,0 4,0 6,0 1,0 2,0 3,0 1,0 2,0 3,0 1,0 2,0 3,0 1,0 2,0 4,0 1,0 1,0 3,0 1,0 3,0 5,0 0,0 1,0 1,0 281,6 549,32 804,79 -198,256 -389,521 -576,789z"/>
   <path class="fil7" d="M15297 20853l-1197 0c-442,0 -800,-358 -800,-799l0 -1109c0,-441 358,-799 800,-799l1197 0c442,0 800,358 800,799l0 1109c0,441 -358,799 -800,799z"/>
   <path class="fil8" d="M16043 20378l-2689 0c-341,0 -617,-276 -617,-617l0 -2564c0,-341 276,-617 617,-617l2689 0c341,0 617,276 617,617l0 2564c0,341 -276,617 -617,617z"/>
   <path class="fil9" d="M20279 10466c0,-3170 -2643,-5722 -5845,-5575 -2844,131 -5158,2429 -5309,5272 -125,2377 1238,4450 3241,5373l0 1477c0,368 298,667 666,667l3332 0c368,0 667,-299 667,-667l0 -1477c1917,-883 3248,-2821 3248,-5070z"/>
   <path class="fil10" d="M16125 17362c-501,0 -1234,0 -1234,0 0,0 1408,-347 1794,-1600l0 1253c0,0 -58,347 -560,347z"/>
   <path class="fil10" d="M10273 8309c844,-1813 2639,-2879 4515,-2879 702,0 1416,150 2095,466 -77,-2 -153,-3 -229,-3 -2262,0 -4401,734 -6381,2416z"/>
   <polygon class="fil7" points="16376,17986 12898,17986 12898,17922 16376,17922 "/>
   <polygon class="fil7" points="16376,18217 12898,18217 12898,18154 16376,18154 "/>
   <polygon class="fil7" points="16376,18449 12898,18449 12898,18385 16376,18385 "/>
   <polygon class="fil7" points="16376,18680 12898,18680 12898,18616 16376,18616 "/>
   <polygon class="fil7" points="16376,18911 12898,18911 12898,18848 16376,18848 "/>
   <polygon class="fil7" points="16376,19143 12898,19143 12898,19079 16376,19079 "/>
   <polygon class="fil7" points="16376,19374 12898,19374 12898,19311 16376,19311 "/>
   <polygon class="fil7" points="16376,19606 12898,19606 12898,19542 16376,19542 "/>
   <polygon class="fil7" points="16376,19837 12898,19837 12898,19773 16376,19773 "/>
   <polygon class="fil7" points="16376,20068 12898,20068 12898,20005 16376,20005 "/>
   <path class="fil11" d="M15855 20082l-700 0c-7,0 -13,-6 -13,-13l0 -1 855 0c-43,9 -90,14 -142,14zm308 -77l-1021 0 0 -168 1177 0c-31,59 -80,121 -156,168zm185 -232l-1206 0 0 -167 1234 0 0 -64 -1234 0 0 -168 1234 0 0 -63 -1234 0 0 -168 1234 0 0 -64 -1234 0 0 -168 1234 0 0 -63 -1234 0 0 -168 1234 0 0 -64 -1234 0 0 -167 1234 0 0 -64 -1234 0 0 -168 1234 0 0 -63 -1234 0 0 -162c0,-2 0,-4 1,-6l1233 0 0 -13 0 1673 0 0c0,2 -3,57 -28,127z"/>
   <path class="fil12" d="M16376 17986l-1233 0c3,-4 7,-7 12,-7l1208 -18c0,0 0,0 0,0 7,0 13,5 13,12l0 13z"/>
   <polygon class="fil12" points="16376,18217 15142,18217 15142,18154 16376,18154 "/>
   <polygon class="fil12" points="16376,18449 15142,18449 15142,18385 16376,18385 "/>
   <polygon class="fil12" points="16376,18680 15142,18680 15142,18616 16376,18616 "/>
   <polygon class="fil12" points="16376,18911 15142,18911 15142,18848 16376,18848 "/>
   <polygon class="fil12" points="16376,19143 15142,19143 15142,19079 16376,19079 "/>
   <polygon class="fil12" points="16376,19374 15142,19374 15142,19311 16376,19311 "/>
   <polygon class="fil12" points="16376,19606 15142,19606 15142,19542 16376,19542 "/>
   <path class="fil12" d="M16319 19837l-1177 0 0 -64 1206 0c-8,21 -17,42 -29,64z"/>
   <path class="fil12" d="M15997 20068l-855 0 0 -63 1021 0c-45,28 -100,50 -166,63z"/>
   <path class="fil13" d="M19770 22477l-6864 0c-74,0 -135,-60 -135,-135l0 -1419c0,-74 61,-134 135,-134l6864 0c75,0 135,60 135,134l0 1419c0,75 -60,135 -135,135z"/>
   <path class="fil14" d="M19925 21058l-6865 0c-74,0 -135,-60 -135,-135 0,-74 61,-134 135,-134l6865 0c74,0 134,60 134,134 0,75 -60,135 -134,135z"/>
   <path class="fil14" d="M19925 22215l-6865 0c-74,0 -135,-60 -135,-134 0,-75 61,-135 135,-135l6865 0c74,0 134,60 134,135 0,74 -60,134 -134,134z"/>
   <path class="fil15" d="M21112 26639l-9585 0c-75,0 -135,-61 -135,-135l0 -1419c0,-74 60,-135 135,-135l9585 0c74,0 135,61 135,135l0 1419c0,74 -61,135 -135,135z"/>
   <path class="fil16" d="M21341 25134l-9911 0c-21,0 -38,-17 -38,-38l0 -107c0,-22 17,-39 38,-39l9911 0c21,0 38,17 38,39l0 107c0,21 -17,38 -38,38z"/>
   <path class="fil16" d="M21341 26626l-9911 0c-21,0 -38,-18 -38,-39l0 -107c0,-21 17,-38 38,-38l9911 0c21,0 38,17 38,38l0 107c0,21 -17,39 -38,39z"/>
   <path class="fil13" d="M20460 23452l-8267 0c-75,0 -135,-60 -135,-135l0 -705c0,-74 60,-135 135,-135l8267 0c74,0 135,61 135,135l0 705c0,75 -61,135 -135,135z"/>
   <path class="fil17" d="M20625 22627l-8443 0c-26,0 -47,-21 -47,-47l0 -56c0,-26 21,-47 47,-47l8443 0c26,0 47,21 47,47l0 56c0,26 -21,47 -47,47z"/>
   <path class="fil17" d="M20625 23450l-8443 0c-26,0 -47,-21 -47,-47l0 -56c0,-26 21,-47 47,-47l8443 0c26,0 47,21 47,47l0 56c0,26 -21,47 -47,47z"/>
   <path class="fil15" d="M20450 22208l-8176 0c-19,0 -34,15 -34,34l0 201c0,19 15,34 34,34l8176 0c19,0 34,-15 34,-34l0 -201c0,-19 -15,-34 -34,-34z"/>
   <path class="fil13" d="M20611 24950l-8204 0c-75,0 -135,-60 -135,-135l0 -1063c0,-74 60,-135 135,-135l8204 0c74,0 134,61 134,135l0 1063c0,75 -60,135 -134,135z"/>
   <path class="fil18" d="M20722 24950l-8315 0c-75,0 -135,-60 -135,-135 0,-74 60,-134 135,-134l8315 0c74,0 134,60 134,134 0,75 -60,135 -134,135z"/>
   <path class="fil18" d="M20722 23722l-8315 0c-75,0 -135,-61 -135,-135 0,-75 60,-135 135,-135l8315 0c74,0 134,60 134,135 0,74 -60,135 -134,135z"/>
   <path class="fil14" d="M16395 22477l-6864 0c-74,0 -135,-60 -135,-135l0 -1419c0,-74 61,-134 135,-134l6864 0c75,0 135,60 135,134l0 1419c0,75 -60,135 -135,135z"/>
   <path class="fil16" d="M17870 26639l-9718 0c-74,0 -135,-61 -135,-135l0 -1419c0,-74 61,-135 135,-135l9718 0c74,0 135,61 135,135l0 1419c0,74 -61,135 -135,135z"/>
   <path class="fil17" d="M17085 23452l-8267 0c-75,0 -135,-60 -135,-135l0 -705c0,-74 60,-135 135,-135l8267 0c75,0 135,61 135,135l0 705c0,75 -60,135 -135,135z"/>
   <path class="fil18" d="M17039 22208l-8104 0c-39,0 -70,31 -70,69l0 131c0,38 31,69 70,69l8104 0c39,0 70,-31 70,-69l0 -131c0,-38 -31,-69 -70,-69z"/>
   <path class="fil18" d="M17347 24950l-8315 0c-75,0 -135,-60 -135,-135l0 -1228c0,-75 60,-135 135,-135l8315 0c74,0 134,60 134,135l0 1228c0,75 -60,135 -134,135z"/>
   <polygon class="fil14" points="9618,23437 9223,23437 9223,22483 9618,22483 "/>
   <polygon class="fil19" points="10409,24941 9560,24941 9560,23437 10409,23437 "/>
   <polygon class="fil19" points="10916,24710 10852,24710 10852,23707 10916,23707 "/>
   <polygon class="fil19" points="16091,26001 8853,26001 8853,25810 16091,25810 "/>
   <polygon class="fil19" points="10016,23116 9952,23116 9952,22730 10016,22730 "/>
   <polygon class="fil20" points="9784,22473 9593,22473 9593,22203 9784,22203 "/>
   <polygon class="fil20" points="10234,22177 10043,22177 10043,20802 10234,20802 "/>
   <polygon class="fil19" points="15423,21630 10833,21630 10833,21439 15423,21439 "/>
   <path class="fil21" d="M22613 23358l-476 116 -450 579 675 174c0,0 475,108 483,-123 3,-88 -52,-410 -232,-746z"/>
   <path class="fil22" d="M22377 22879c-110,78 -217,136 -337,187 -118,49 -246,86 -383,87 -34,0 -69,-3 -103,-8 -34,-8 -70,-16 -97,-26 -58,-19 -115,-41 -172,-64 -113,-48 -222,-99 -327,-170 -18,-12 -22,-36 -11,-54 11,-16 33,-21 50,-13l3 2c100,51 213,89 325,120 56,16 113,29 170,41 30,7 53,8 78,11 25,0 50,0 76,-4 102,-14 204,-55 300,-110 94,-54 190,-124 267,-194l2 -2c52,-48 133,-44 180,8 47,52 44,132 -8,179l-13 10z"/>
   <path class="fil18" d="M22694 22981c-14,-102 -13,-207 -9,-311 -11,1 -22,1 -34,-2 -55,-16 -86,-84 -55,-134l0 1 2 -4 -113 9c0,0 -351,237 -382,413 -24,132 7,359 24,464 100,-20 207,-29 306,-27l2 1c2,-22 8,-44 20,-65 21,-37 57,-82 100,-91 23,-4 48,3 65,18 17,-9 36,-11 54,-7l46 -222c-14,-9 -23,-23 -26,-43z"/>
   <polygon class="fil23" points="22442,22728 22644,22728 22644,21956 22442,21956 "/>
   <path class="fil23" d="M22232 21906c-52,198 -8,380 190,432 197,52 400,-66 451,-264 52,-198 -66,-400 -264,-452 -198,-52 -325,86 -377,284z"/>
   <path class="fil21" d="M22420 22307c0,0 289,-414 269,-419 -94,-25 -474,-124 -474,-124 0,0 186,-378 664,-112 298,167 344,619 181,775 -98,93 -640,-120 -640,-120z"/>
   <path class="fil21" d="M22109 24127l-1185 -309 129 -117 70 1172c2,20 -13,37 -33,38 -18,1 -34,-12 -37,-29l-213 -1155c-10,-56 27,-109 83,-120 12,-2 24,-2 35,0l11 2 1207 206c87,15 145,97 130,184 -15,87 -97,145 -184,130l-13 -2z"/>
   <path class="fil21" d="M22648 23967l1 174c0,60 2,113 3,169l7 333 15 697 -11 -45 485 1231c7,20 -2,42 -22,50 -18,7 -39,-1 -48,-18l-634 -1160c-6,-12 -9,-23 -10,-35l-1 -10 -54 -697 -26 -365 -22 -355c-6,-88 61,-163 148,-168 88,-6 163,61 168,148l1 9 0 42z"/>
   <path class="fil18" d="M22812 22607c95,151 183,301 264,461 40,80 79,161 109,255 7,24 14,48 18,77 4,28 10,60 -6,112 -8,25 -32,58 -63,74 -23,11 -36,12 -55,18 -33,6 -55,4 -82,6 -188,-7 -355,-41 -527,-74 -171,-34 -340,-71 -509,-112 -20,-5 -33,-26 -28,-47 4,-19 24,-32 43,-29 170,25 342,47 512,64 170,16 346,34 503,24 16,-3 39,-4 48,-8l6 -1c-13,5 -22,20 -24,24 -3,11 -2,-2 -6,-15 -4,-14 -10,-31 -17,-48 -29,-69 -71,-141 -115,-212 -89,-140 -190,-280 -292,-413l-1 -1c-46,-59 -35,-144 25,-190 59,-46 144,-35 190,24l7 11z"/>
   <path class="fil18" d="M22549 22531c132,0 270,72 270,294 0,222 -206,533 -206,533l-387 0 111 -658 212 -169z"/>
   <path class="fil22" d="M22686 22543l-43 -92 -166 70c0,0 -75,162 -68,159 7,-2 277,-137 277,-137z"/>
   <polygon class="fil22" points="22438,22514 22387,22521 22284,22671 22332,22656 22440,22569 "/>
   <polygon class="fil18" points="22613,23358 22137,23474 22110,23278 22662,23266 "/>
   <path class="fil18" d="M21172 24935c0,-19 -20,-296 -20,-296l-257 -6 109 231c0,0 -90,20 -96,71 -6,51 264,0 264,0z"/>
   <path class="fil18" d="M23184 26484c0,0 -45,-193 -65,-186 -19,6 -257,90 -257,90l212 244c0,0 -109,26 -115,71 -7,45 250,0 250,0l-25 -219z"/>
   <path class="fil23" d="M21999 23350l-9 87 -198 20c0,0 -29,-189 58,-169 87,19 149,62 149,62z"/>
   <path class="fil23" d="M20958 22885c-34,3 -188,-103 -188,-103 0,0 48,-184 140,-131 91,53 90,169 90,169l-42 65z"/>
   <path class="fil23" d="M22232 21906c-21,17 -132,80 -132,80l150 96 48 -168 -66 -8z"/>
   <path class="fil24" d="M11574 18680c83,78 164,136 255,187 89,49 186,85 289,87 26,0 52,-3 78,-8 26,-8 53,-16 73,-26 44,-20 87,-41 130,-64 86,-48 168,-100 248,-171 13,-11 17,-35 8,-53 -9,-16 -25,-22 -38,-13l-2 2c-75,50 -161,89 -246,120 -42,15 -85,29 -128,41 -23,7 -41,7 -59,10 -19,1 -38,0 -57,-3 -78,-14 -155,-55 -227,-111 -72,-54 -144,-123 -202,-193l-2 -3c-40,-47 -100,-43 -136,8 -36,52 -33,133 6,180l10 10z"/>
   <path class="fil14" d="M11347 18835c14,-102 13,-207 9,-311 11,1 22,1 34,-3 55,-15 86,-83 55,-133l0 0 -2 -3 114 8c0,0 195,84 227,259 23,132 147,513 130,619 -100,-20 -207,-29 -306,-27l-2 0c-2,-22 -8,-43 -20,-64 -21,-37 -57,-83 -100,-91 -23,-4 -48,3 -64,18 -18,-9 -37,-11 -55,-7l-45 -222c13,-9 22,-23 25,-43z"/>
   <polygon class="fil23" points="11599,18582 11397,18582 11397,17810 11599,17810 "/>
   <path class="fil23" d="M11809 17760c52,198 8,380 -190,432 -197,52 -400,-67 -451,-265 -52,-197 66,-399 264,-451 198,-52 325,86 377,284z"/>
   <path class="fil21" d="M11675 20212c10,-15 391,-304 391,-304l-92 -48 -313 -203 -154 261 178 275 -10 19z"/>
   <path class="fil21" d="M11615 19669l1206 -206 11 -2c56,-10 109,28 118,84 2,12 2,24 0,35l-212 1155c-4,20 -23,32 -42,29 -18,-3 -30,-20 -29,-37l71 -1173 128 118 -1184 308c-86,23 -173,-29 -195,-114 -22,-85 29,-172 114,-194l14 -3z"/>
   <path class="fil21" d="M11710 19787c0,18 -1,90 -3,109l-6 85 -13 170 -26 338 -54 675 -1 10c-1,13 -5,26 -11,36l-633 1124c-11,18 -34,25 -53,14 -17,-9 -24,-30 -16,-48l485 -1195 -12 46 16 -676 6 -338 3 -169 1 -84c-1,-37 2,-22 0,-60l-1 -30c-4,-88 64,-162 152,-166 88,-4 162,64 166,152l0 7z"/>
   <path class="fil14" d="M11326 18451c-96,151 -184,301 -265,461 -40,80 -78,161 -108,255 -7,24 -14,48 -19,77 -3,28 -10,60 7,112 8,25 31,58 62,74 24,12 37,13 56,18 33,6 54,4 81,6 188,-7 355,-41 528,-73 170,-35 339,-72 508,-113 21,-5 34,-26 29,-47 -5,-19 -24,-32 -44,-29 -170,25 -341,47 -512,64 -169,16 -345,34 -503,24 -16,-2 -38,-4 -47,-8l-6 -1c12,5 22,20 23,24 4,11 2,-2 7,-15 3,-14 10,-31 17,-48 29,-68 71,-141 115,-212 89,-140 189,-280 291,-412l1 -2c46,-59 35,-144 -24,-190 -59,-46 -144,-35 -190,25l-7 10z"/>
   <path class="fil14" d="M11492 18385c-132,0 -270,72 -270,294 0,221 206,533 206,533l387 0 -111 -659 -212 -168z"/>
   <path class="fil17" d="M12786 20718l5 -10c-56,0 -112,2 -168,3 -2,40 -4,72 -4,78 0,0 270,51 263,0 -6,-52 -96,-71 -96,-71z"/>
   <path class="fil17" d="M10967 22404l19 -21c-46,-10 -91,-22 -135,-36l-4 -1 -15 127c0,0 257,43 250,0 -6,-44 -115,-69 -115,-69z"/>
   <path class="fil23" d="M12138 19195l10 86 198 20c0,0 29,-188 -58,-169 -87,19 -150,63 -150,63z"/>
   <path class="fil23" d="M12647 18685c25,3 142,-103 142,-103 0,0 -36,-183 -106,-130 -69,53 -68,169 -68,169l32 64z"/>
   <path class="fil23" d="M11809 17765c21,17 132,80 132,80l-150 96 -48 -169 66 -7z"/>
   <path class="fil21" d="M11143 17588c0,0 213,-213 483,-161 270,51 83,257 -13,341 -97,83 -335,347 -335,347 0,0 -385,-277 -135,-527z"/>
   <path class="fil21" d="M11386 18182c14,5 34,-496 34,-496l-318 221c0,0 62,193 284,275z"/>
   <path class="fil14" d="M11261 18814c5,11 24,913 24,913 0,0 251,23 472,-12 222,-35 314,-124 314,-124l-212 -630 -598 -147z"/>
   <polygon class="fil14" points="11381,18399 11391,18293 11622,18332 11618,18529 11405,18452 "/>
  </g>
 </g>
</svg>
