<?xml version="1.0" encoding="UTF-8"?>
<!DOCTYPE svg PUBLIC "-//W3C//DTD SVG 1.1//EN" "http://www.w3.org/Graphics/SVG/1.1/DTD/svg11.dtd">
<!-- Creator: CorelDRAW X7 -->
<svg xmlns="http://www.w3.org/2000/svg" xml:space="preserve" width="42.3332mm" height="42.3332mm" version="1.1" style="shape-rendering:geometricPrecision; text-rendering:geometricPrecision; image-rendering:optimizeQuality; fill-rule:evenodd; clip-rule:evenodd"
viewBox="0 0 4233 4233"
 xmlns:xlink="http://www.w3.org/1999/xlink">
 <defs>
  <style type="text/css">
   <![CDATA[
    .fil117 {fill:none}
    .fil64 {fill:#048556}
    .fil19 {fill:#068982}
    .fil85 {fill:#06A38F}
    .fil52 {fill:#09A867}
    .fil84 {fill:#0C7068}
    .fil10 {fill:#0E82AC}
    .fil17 {fill:#0F9A86}
    .fil87 {fill:#108E83}
    .fil129 {fill:#11928F}
    .fil61 {fill:#14527A}
    .fil11 {fill:#14A1C0}
    .fil122 {fill:#1AB0B0}
    .fil15 {fill:#1BB1C9}
    .fil62 {fill:#1F416E}
    .fil151 {fill:#28495E}
    .fil148 {fill:#293C8C}
    .fil8 {fill:#294393}
    .fil147 {fill:#2B4895}
    .fil152 {fill:#2C2D5B}
    .fil144 {fill:#2C387F}
    .fil2 {fill:#2C569B}
    .fil66 {fill:#2C6E92}
    .fil158 {fill:#314394}
    .fil86 {fill:#31B498}
    .fil40 {fill:#322647}
    .fil155 {fill:#34509A}
    .fil153 {fill:#3889AC}
    .fil154 {fill:#3B5E9E}
    .fil14 {fill:#40BCCC}
    .fil25 {fill:#472D5F}
    .fil1 {fill:#4778BB}
    .fil121 {fill:#4DBDC9}
    .fil150 {fill:#51B1CC}
    .fil56 {fill:#55B668}
    .fil42 {fill:#583075}
    .fil16 {fill:#5AC1CD}
    .fil113 {fill:#60B63C}
    .fil24 {fill:#6A2D6F}
    .fil145 {fill:#6A8FBF}
    .fil54 {fill:#6F8DA4}
    .fil112 {fill:#72333E}
    .fil9 {fill:#72AADC}
    .fil149 {fill:#72C8E2}
    .fil27 {fill:#732C73}
    .fil131 {fill:#73333E}
    .fil23 {fill:#742F74}
    .fil88 {fill:#74C3A6}
    .fil79 {fill:#77203D}
    .fil80 {fill:#7D213D}
    .fil73 {fill:#805F56}
    .fil68 {fill:#808868}
    .fil71 {fill:#81765F}
    .fil22 {fill:#82317B}
    .fil146 {fill:#8295C4}
    .fil32 {fill:#853E48}
    .fil29 {fill:#8D3E81}
    .fil21 {fill:#8E3D84}
    .fil114 {fill:#8EC332}
    .fil18 {fill:#8FD0D6}
    .fil31 {fill:#94D2D7}
    .fil82 {fill:#982345}
    .fil28 {fill:#994C87}
    .fil135 {fill:#9B5356}
    .fil26 {fill:#9C5088}
    .fil134 {fill:#9D5051}
    .fil123 {fill:#A02154}
    .fil30 {fill:#A45290}
    .fil136 {fill:#A75B59}
    .fil111 {fill:#AA5957}
    .fil83 {fill:#AAD4CE}
    .fil81 {fill:#AD2549}
    .fil43 {fill:#AD5798}
    .fil72 {fill:#AD729A}
    .fil67 {fill:#B08AA3}
    .fil142 {fill:#B0DDE7}
    .fil133 {fill:#B16661}
    .fil156 {fill:#B2DEE7}
    .fil137 {fill:#B46C79}
    .fil78 {fill:#B65A5D}
    .fil138 {fill:#B97270}
    .fil120 {fill:#BCE2EA}
    .fil125 {fill:#C2366A}
    .fil139 {fill:#C27775}
    .fil38 {fill:#C4254E}
    .fil140 {fill:#C47A76}
    .fil33 {fill:#C86762}
    .fil49 {fill:#C9736C}
    .fil110 {fill:#CB2654}
    .fil20 {fill:#CBE8E8}
    .fil89 {fill:#CC4F2B}
    .fil141 {fill:#CC857F}
    .fil75 {fill:#CD657F}
    .fil109 {fill:#D04B40}
    .fil108 {fill:#D32757}
    .fil92 {fill:#D45829}
    .fil124 {fill:#D63D67}
    .fil4 {fill:#D7794E}
    .fil107 {fill:#D95D39}
    .fil143 {fill:#DBEFF5}
    .fil103 {fill:#DD2D56}
    .fil157 {fill:#DDF0F6}
    .fil0 {fill:#E1F2FC}
    .fil101 {fill:#E36136}
    .fil102 {fill:#E3653D}
    .fil105 {fill:#E53C66}
    .fil37 {fill:#E73359}
    .fil104 {fill:#E7416A}
    .fil69 {fill:#E7ADB2}
    .fil44 {fill:#E8435A}
    .fil128 {fill:#E85179}
    .fil74 {fill:#E87685}
    .fil34 {fill:#E9505F}
    .fil106 {fill:#E9547C}
    .fil77 {fill:#E96370}
    .fil93 {fill:#E9672A}
    .fil76 {fill:#EA5F6C}
    .fil36 {fill:#EA6166}
    .fil126 {fill:#EA6189}
    .fil39 {fill:#EA638C}
    .fil130 {fill:#EA668D}
    .fil127 {fill:#EB6A91}
    .fil35 {fill:#EB6B69}
    .fil47 {fill:#EC7373}
    .fil132 {fill:#ECC4AC}
    .fil97 {fill:#ED7E3E}
    .fil48 {fill:#ED7F80}
    .fil91 {fill:#EE772D}
    .fil99 {fill:#EE7B2F}
    .fil41 {fill:#EE8587}
    .fil100 {fill:#EF8237}
    .fil70 {fill:#EF8A87}
    .fil13 {fill:#EFF7F8}
    .fil95 {fill:#F08A3F}
    .fil5 {fill:#F08D58}
    .fil45 {fill:#F09597}
    .fil119 {fill:#F1902A}
    .fil90 {fill:#F19035}
    .fil6 {fill:#F2D6BE}
    .fil96 {fill:#F39A47}
    .fil46 {fill:#F3A6A2}
    .fil63 {fill:#F3AAA6}
    .fil98 {fill:#F4A352}
    .fil118 {fill:#F5A62A}
    .fil59 {fill:#F5AA2C}
    .fil51 {fill:#F5E0CD}
    .fil94 {fill:#F6B672}
    .fil115 {fill:#F7B029}
    .fil55 {fill:#F7B23C}
    .fil3 {fill:#F8EBCF}
    .fil116 {fill:#FBC835}
    .fil60 {fill:#FBCA44}
    .fil7 {fill:#FBF2DF}
    .fil58 {fill:#FCCF37}
    .fil53 {fill:#FDD84D}
    .fil57 {fill:#FDDD61}
    .fil12 {fill:#FDE86B}
    .fil65 {fill:#FDEDA6}
    .fil50 {fill:#FEF7E6}
   ]]>
  </style>
 </defs>
 <g id="Layer_x0020_1">
  <metadata id="CorelCorpID_0Corel-Layer"/>
  <g id="_1729699845584">
   <path class="fil0" d="M3599 2639c-838,-336 -2175,-336 -2986,0 -810,335 -810,880 0,1216 811,335 2148,335 2986,0 839,-336 839,-880 0,-1216z"/>
   <polygon class="fil1" points="1231,211 2206,774 1867,872 2206,1411 1231,847 "/>
   <path class="fil2" d="M1231 211c0,0 19,354 274,648 254,294 701,552 701,552l-975 -564 0 -636z"/>
   <polygon class="fil3" points="1231,798 1231,260 2100,761 1802,847 2081,1290 "/>
   <path class="fil4" d="M1231 146l0 1975 -38 0 0 -1975c0,-7 4,-13 9,-17 3,-1 6,-2 10,-2 10,0 19,8 19,19z"/>
   <path class="fil5" d="M1212 146l0 1975 -19 0 0 -1975c0,-7 4,-13 9,-17 6,3 10,10 10,17z"/>
   <path class="fil6" d="M1231 798l546 316c-97,-77 -194,-165 -272,-255 -196,-226 -253,-487 -268,-596l-6 -3 0 538z"/>
   <path class="fil7" d="M1385 370c0,0 511,340 515,355 4,15 -94,73 -94,73 0,0 219,-34 225,-49 6,-14 -646,-379 -646,-379z"/>
   <path class="fil8" d="M1355 470l-51 -30 -27 -15 0 30 27 21 0 132c0,28 10,56 28,82 19,26 43,48 73,65 31,18 55,24 74,19 18,-4 28,-21 28,-49l0 -132 27 11 0 -31 -105 -61 0 31 27 21 0 132c0,17 -4,26 -13,29 -9,3 -22,1 -38,-9 -15,-9 -28,-20 -37,-34 -8,-13 -13,-28 -13,-45l0 -132 27 11 0 -31 -27 -15z"/>
   <polygon class="fil8" points="1712,779 1627,729 1627,666 1707,712 1710,744 1749,766 1749,697 1576,597 1549,581 1549,612 1576,633 1576,814 1549,804 1549,834 1749,950 1749,881 1710,859 1708,888 1627,840 1627,768 1712,817 "/>
   <path class="fil9" d="M754 2854l112 65c10,6 26,6 36,0l643 -371c10,-5 10,-15 0,-20l-114 -65c-10,-5 -27,-5 -37,0l-640 370c-10,6 -10,15 0,21z"/>
   <path class="fil10" d="M815 1611l0 27c0,0 10,-10 11,-17 0,-7 -11,-10 -11,-10z"/>
   <path class="fil10" d="M836 1604c0,0 8,27 -21,36 -30,10 -49,0 -53,9 -4,8 83,58 83,58l30 -87 -39 -16z"/>
   <path class="fil11" d="M833 2771l0 2 15 -9 621 -437 3 -1045c0,-17 -10,-25 -21,-19l-21 13 -582 335 1 5 0 34 -16 1121z"/>
   <path class="fil12" d="M917 1741l31 -35 -99 -57c-23,18 -41,27 -63,19l131 73z"/>
   <path class="fil13" d="M857 1631l576 -333c10,-5 26,-5 36,0l97 56 -584 334c0,0 -25,-6 -43,8 -17,13 -16,-4 -16,-4l-74 -43c-1,-14 8,-18 8,-18z"/>
   <path class="fil14" d="M929 1733c6,-3 8,-7 5,-9l-4 -2c-6,-4 -1,-12 11,-19 12,-6 26,-9 31,-6l5 3c3,1 13,-2 23,-8l-4 1158c-5,3 -14,9 -14,9 -3,0 -8,-1 -9,-1l-5 -3c-5,-3 -19,0 -31,6 -11,7 -16,15 -11,18l5 3c3,2 0,6 -6,9l4 -1158z"/>
   <path class="fil11" d="M982 2857l0 2 14 -9 622 -359 0 -1124c0,-18 -9,-26 -21,-19l-21 12 -594 328 0 1169z"/>
   <path class="fil15" d="M1618 1367c0,-18 -9,-26 -21,-19l-21 12 -594 328 0 906c0,0 32,-395 192,-702 160,-308 331,-408 368,-435 37,-26 76,-25 76,25l0 -115z"/>
   <path class="fil11" d="M936 2885l0 -1159 -39 16 0 1155c10,2 17,0 21,-2l18 -10z"/>
   <path class="fil14" d="M746 2806l1 2 0 2 1 2 1 2c1,2 2,3 3,5 1,1 3,3 5,4 1,2 3,3 5,5 1,1 2,2 3,3l3 2c2,1 5,3 7,4l77 44c15,9 32,15 45,16l0 -1155 -151 -92 0 1156 0 0z"/>
   <path class="fil16" d="M841 1720l-14 -21 -81 -49 0 760c1,-42 14,-628 15,-683 1,-57 30,-23 80,-7z"/>
   <polygon class="fil17" points="1470,2327 1470,2327 "/>
   <path class="fil18" d="M852 1726l10 -19c20,12 39,15 45,14 -1,-5 0,-11 3,-17 5,-9 14,-15 21,-19 8,-4 19,-9 30,-10l2 0c7,0 13,1 19,3l551 -318 19 -11 24 -13c5,-3 9,-3 13,-1l21 12c-4,-3 -9,-2 -13,1l0 0 -64 36 -533 308c-10,6 -20,9 -23,8l-5 -3c-2,-1 -6,-2 -11,-1 -6,1 -13,4 -20,7 -12,7 -17,15 -11,19l5 2c2,2 0,6 -6,9l-11 6c-12,7 -41,1 -66,-13z"/>
   <polygon class="fil19" points="1472,1251 1472,1251 "/>
   <path class="fil18" d="M862 1707l-76 -44c-2,-1 -4,-2 -6,-3l-4 -3 -1 -1c16,7 36,1 50,-7 6,-4 15,-10 20,-18 3,-7 4,-14 3,-20l2 -1c1,-1 3,-2 4,-2l533 -308c0,0 14,-8 31,-18 3,-1 5,-3 9,-5 8,-5 18,-10 25,-15 4,-1 8,-2 12,0l-6 -3 -15 -9c-3,-2 -7,-2 -11,0l0 0c-3,2 -7,4 -10,6 -2,1 -4,2 -6,3 -3,2 -7,4 -10,6 -2,1 -5,2 -6,4 -2,1 -4,1 -5,2 -5,3 -8,5 -8,5l-423 244 -136 78c-9,6 -15,12 -13,14l1 0 5 3c6,3 1,12 -11,18 -11,7 -21,7 -27,4l-5 -3c-3,-2 -7,-3 -9,-1l-3 1c-2,2 -4,3 -7,4 -2,2 -5,3 -8,5 -4,2 -5,6 -4,10l0 1 1 3 0 0 1 1c1,2 2,4 3,5 1,2 3,3 5,5 1,1 3,3 5,4 1,1 2,2 3,3l3 2c2,1 5,3 7,4l77 45 10 -19z"/>
   <polygon class="fil20" points="869,1661 1098,1525 861,1656 "/>
   <polygon class="fil20" points="902,1680 1130,1544 893,1675 "/>
   <path class="fil9" d="M3575 2584c0,0 -300,188 -416,232 -81,31 -186,17 -290,-43 -104,-61 -220,-128 -316,-183 -95,-55 -219,-119 -222,-163 -4,-44 280,-222 510,-160 231,61 734,317 734,317z"/>
   <path class="fil21" d="M3136 2793c52,-13 327,-169 354,-188 28,-19 84,-59 84,-126 0,-60 -7,-626 -56,-899 -24,-135 -111,-310 -282,-416 -171,-106 -342,-183 -487,-123 -145,60 -277,171 -334,304 -56,134 -96,401 -100,504 -4,104 0,458 0,490 0,31 6,72 176,177 169,105 403,231 476,264 55,25 123,25 169,13z"/>
   <path class="fil22" d="M3495 1494c36,111 41,495 -19,600 -62,108 -139,131 -236,121l-246 500 -8 72c51,18 109,16 150,6 52,-13 327,-169 354,-188 28,-19 84,-59 84,-126 0,-60 -7,-626 -56,-899 -5,-27 -12,-56 -23,-86z"/>
   <path class="fil23" d="M3481 2084c2,-50 1,-103 -1,-161 -22,-466 -142,-600 -247,-699 7,-4 12,-8 14,-11 2,-4 4,-20 3,-40 161,106 244,275 268,406 -5,-27 -12,-56 -23,-85 35,108 41,472 -14,590zm37 -505c0,0 0,0 0,0 0,0 0,0 0,0z"/>
   <path class="fil24" d="M3136 2793c1,0 1,0 1,0 0,0 0,0 -1,0zm1 0c7,-2 18,-7 33,-13 0,0 0,0 0,0 0,0 0,0 0,0 0,-1 0,-1 0,-1 0,0 0,0 0,0 0,0 0,0 1,0 0,0 0,0 0,0 0,0 0,0 0,0 0,0 0,0 0,0 0,-1 0,-1 0,-1 0,0 0,0 0,0 0,0 0,0 0,0 0,0 0,0 0,0 0,0 0,0 1,0 0,0 0,0 0,0 0,-1 0,-1 0,-1 0,0 0,0 0,0 0,0 0,0 0,0 0,0 0,0 0,0 0,0 0,0 0,0 0,0 0,0 0,0 0,-1 0,-1 1,-1 0,0 0,0 0,0 0,0 0,0 0,0 0,0 0,0 0,0 0,0 0,-1 0,-1 0,0 0,0 0,0 0,0 0,0 0,0 0,0 0,0 0,0 0,0 0,0 1,0 0,0 0,0 0,0 0,0 0,-1 0,-1 0,0 0,0 0,0 0,0 0,0 0,0 0,0 0,0 0,0 0,-1 1,-1 1,-1 0,0 0,0 0,0 0,0 0,-1 0,-1 0,0 0,0 0,0 0,0 1,0 1,-1 0,0 0,0 0,0 0,0 0,0 0,0l0 0c0,-1 1,-1 1,-1 0,0 0,0 0,0 0,0 0,-1 0,-1l0 0c0,0 0,0 0,0l0 0c0,0 1,0 1,-1 0,0 0,0 0,0 0,0 0,0 0,0l0 0c0,0 0,0 0,0 0,0 0,0 0,0 0,-1 0,-1 1,-1 0,0 0,0 0,0 0,0 0,-1 0,-1l0 0c0,0 0,-1 0,-1l1 0c0,0 0,0 0,-1l0 0c0,0 1,-1 1,-2l0 0c0,0 1,-1 1,-1l0 0c0,0 0,0 0,0l0 0c0,0 0,0 0,-1l0 0c0,0 0,0 1,-1l0 0c0,0 0,0 0,0l0 0c0,-1 0,-1 1,-1l0 0c0,-1 0,-2 0,-2l0 0c1,-1 1,-1 1,-1l0 0c0,0 0,-1 0,-1 0,0 0,0 0,0 0,0 1,-1 1,-1l0 0c2,-5 4,-10 6,-16l0 0c0,0 1,0 1,-1l0 0c1,-3 3,-7 4,-12l0 0c1,-1 1,-3 2,-5l0 0c0,0 0,0 0,0l0 0c0,-1 0,-1 0,-1 0,0 0,0 0,0 0,0 0,-1 0,-1 0,0 0,0 1,0 0,-1 0,-1 0,-1 0,0 0,0 0,0 0,-1 0,-1 0,-2 0,0 0,0 0,0 0,0 0,0 1,-1 0,0 0,0 0,0 0,0 0,-1 0,-1 0,0 0,0 0,0 0,-1 0,-1 0,-1 0,0 0,0 0,-1 0,0 0,0 1,0l0 0c0,0 0,0 0,-1 0,0 0,0 0,0 0,0 0,0 0,0l0 0c0,-1 0,-1 0,-1l0 0c0,0 0,-1 1,-1l0 0c0,0 0,-1 0,-1l0 0c0,0 0,0 0,-1l0 0c0,0 0,0 0,0 0,0 0,0 0,0 0,-1 0,-1 0,-1 0,0 0,-1 0,-1 1,0 1,0 1,-1 0,0 0,0 0,0 0,0 0,-1 0,-1 0,0 0,0 0,0 0,0 0,-1 0,-1 0,0 1,-1 1,-1 0,0 0,0 0,0l0 0c0,0 0,-1 0,-1 0,0 0,0 0,0 0,0 0,0 0,0 0,0 0,0 0,0 0,-1 0,-1 0,-1 0,0 0,0 0,0 0,0 0,-1 0,-1 0,0 0,0 0,0 0,0 0,0 1,0 0,0 0,0 0,0 0,-1 0,-1 0,-1 0,0 0,0 0,0 0,0 0,-1 0,-1 0,0 0,0 0,0 0,0 0,0 0,-1 0,0 0,0 0,0 0,0 0,0 0,0l0 0c0,0 0,-1 0,-1 0,0 0,0 0,0 0,0 0,0 1,0 0,0 0,-1 0,-1 0,0 0,0 0,0 0,0 0,0 0,0 0,-1 0,-1 0,-1 0,0 0,-1 0,-1 0,0 0,0 0,0 0,0 0,0 0,0 0,0 0,-1 0,-1 0,0 0,0 0,0 0,0 0,0 1,0 0,-1 0,-1 0,-1 0,0 0,0 0,0 0,0 0,0 0,0 0,-1 0,-1 0,-1 0,0 0,0 0,0 0,0 0,0 0,-1 0,0 0,0 0,0 0,0 0,0 0,0 0,0 0,0 0,0 0,-1 0,-1 0,-1 0,0 1,0 1,0 0,0 0,-1 0,-1 0,0 0,0 0,0 0,0 0,0 0,0 0,0 0,0 0,-1 0,0 0,0 0,0 0,0 0,0 0,0 0,0 0,-1 0,-1 0,0 0,0 0,0 0,0 0,0 0,-1 0,0 0,0 0,0 0,0 0,0 0,0 0,0 0,0 0,0 1,-1 1,-1 1,-1 0,0 0,0 0,0 0,0 0,0 0,-1 0,0 0,0 0,0 0,0 0,0 0,0 0,0 0,0 0,-1 0,0 0,0 0,0 0,0 0,0 0,0 0,-1 0,-1 0,-1 0,0 0,0 0,0 0,0 0,0 0,0 0,0 0,-1 0,-1 0,0 1,0 1,0 0,0 0,0 0,-1 0,0 0,0 0,0 0,0 0,0 0,0 0,0 0,-1 0,-1 0,0 0,0 0,0 0,0 0,0 0,0 0,0 0,-1 0,-1 0,0 0,0 0,0 0,0 0,0 0,0 0,0 0,-1 0,-1 0,0 0,0 0,0 0,0 0,0 0,0 0,-1 1,-1 1,-1 0,0 0,0 0,0 0,0 0,0 0,-1 0,0 0,0 0,0 0,0 0,0 0,0 0,0 0,0 0,-1 0,0 0,0 0,0 0,0 0,0 0,0 0,-1 0,-1 0,-2 0,0 0,0 0,0 0,0 1,-1 1,-1 0,0 0,0 0,0 0,0 0,-1 0,-1 0,0 0,0 0,0 0,0 0,0 0,-1 0,0 0,0 0,0 0,0 0,-1 0,-1 0,0 0,0 0,0 0,-1 0,-1 0,-2 1,0 1,0 1,0 6,-32 11,-68 15,-108 1,4 15,87 57,87 6,0 13,-2 20,-6 17,-10 40,-32 64,-70 12,13 30,25 55,35 15,6 32,12 50,16 -64,39 -291,167 -338,179zm317 -459c14,-70 24,-152 27,-250 55,-118 49,-482 14,-590 11,29 18,58 23,85 0,0 0,0 0,0 0,0 0,0 0,0 0,1 0,1 0,1 34,189 48,517 53,722 -32,2 -62,7 -87,16 0,0 0,0 0,0 0,0 0,0 0,0 0,0 0,0 0,0 0,0 0,1 -1,1 0,0 0,0 0,0 0,0 0,0 0,0l0 0c-3,1 -5,2 -7,3 -9,3 -16,8 -22,12z"/>
   <path class="fil23" d="M3173 1175c-74,-50 -182,-93 -279,-114 -1,-10 -3,-25 -2,-39 88,8 182,48 277,102 4,17 5,36 4,51zm-446 -124c8,-4 15,-7 22,-10 23,-9 47,-16 71,-19 0,9 0,18 0,27 -16,-2 -31,-2 -45,-2 -17,0 -33,1 -48,4z"/>
   <path class="fil25" d="M3179 1237c15,9 61,-13 68,-24 6,-12 8,-109 -26,-162 -33,-54 -244,-152 -297,-145 -52,7 -90,48 -96,62 -7,13 -14,104 0,122 13,19 61,-10 66,-18 4,-8 -16,-73 18,-87 31,-13 177,50 237,100 26,22 25,76 24,103 -1,27 -2,45 6,49z"/>
   <path class="fil26" d="M3221 1874c-30,-294 -85,-465 -372,-594 -287,-127 -399,-18 -439,80 -54,137 -91,390 -95,489 -4,104 0,458 0,490 0,31 6,72 176,177 169,105 403,231 476,264 55,25 123,25 169,13 8,-2 19,-6 34,-13 89,-114 79,-638 51,-906z"/>
   <path class="fil27" d="M3137 2793c7,-2 18,-7 33,-13 0,0 0,0 0,0 0,0 0,0 0,0 -15,6 -26,11 -33,13l0 0zm33 -13c0,-1 0,-1 0,-1 0,0 0,0 0,1zm0 -1c0,0 0,0 1,0 -1,0 -1,0 -1,0zm1 0c0,0 0,0 0,0 0,0 0,0 0,0zm0 0c0,-1 0,-1 0,-1 0,0 0,0 0,1zm0 -1c0,0 0,0 0,0 0,0 0,0 0,0zm0 0c0,0 0,0 1,0 -1,0 -1,0 -1,0zm1 0c0,-1 0,-1 0,-1 0,0 0,0 0,1zm0 -1c0,0 0,0 0,0 0,0 0,0 0,0zm0 0c0,0 0,0 0,0 0,0 0,0 0,0zm0 0c0,-1 0,-1 1,-1 -1,0 -1,0 -1,1zm1 -1c0,0 0,0 0,0 0,0 0,0 0,0zm0 0c0,0 0,-1 0,-1 0,0 0,1 0,1zm0 -1c0,0 0,0 0,0 0,0 0,0 0,0zm0 0c0,0 0,0 1,0 -1,0 -1,0 -1,0zm1 0c0,0 0,-1 0,-1 0,0 0,1 0,1zm0 -1c0,0 0,0 0,0 0,0 0,0 0,0zm0 0c0,-1 1,-1 1,-1 0,0 -1,0 -1,1zm1 -1c0,0 0,-1 0,-1 0,0 0,1 0,1zm0 -1c0,0 1,0 1,-1 0,1 -1,1 -1,1zm1 -1c0,0 0,0 0,0 0,0 0,0 0,0zm0 0c0,-1 1,-1 1,-1 0,0 -1,0 -1,1zm1 -1c0,0 0,-1 0,-1 0,0 0,1 0,1zm0 -1c0,0 0,0 0,0 0,0 0,0 0,0zm0 0c0,0 1,0 1,-1 0,1 -1,1 -1,1zm1 -1c0,0 0,0 0,0 0,0 0,0 0,0zm0 0c0,0 0,0 0,0 0,0 0,0 0,0zm0 0c0,-1 0,-1 1,-1 -1,0 -1,0 -1,1zm1 -1c0,0 0,-1 0,-1 0,0 0,1 0,1zm0 -1c0,0 0,-1 0,-1 0,0 0,1 0,1zm1 -1c0,0 0,0 0,-1 0,1 0,1 -1,1l1 0zm0 -1c1,-1 1,-1 1,-2 0,1 0,2 -1,2zm2 -2c0,0 0,-1 0,-1 0,0 0,1 -1,1l1 0zm0 -1c0,0 0,0 0,0 0,0 0,0 0,0zm0 0c0,0 0,0 0,-1 0,1 0,1 0,1zm0 -1c0,0 1,0 1,-1 0,1 -1,1 -1,1zm1 -1c0,0 0,0 0,0 0,0 0,0 0,0zm0 0c1,-1 1,-1 1,-1 0,0 0,0 -1,1zm1 -1c0,-1 0,-2 1,-2 -1,0 -1,1 -1,2zm1 -2c0,-1 0,-1 0,-1 0,0 0,0 0,1zm0 -1c0,0 0,-1 1,-1 -1,0 -1,1 -1,1zm1 -1c0,0 0,-1 0,-1 0,0 0,1 0,1zm0 -1c2,-5 5,-10 7,-16 -2,6 -5,11 -7,16zm7 -16c0,0 0,0 0,-1 0,1 0,1 0,1zm0 -1c1,-3 3,-7 4,-12 -1,5 -3,9 -4,12zm4 -12c1,-1 1,-3 2,-5 -1,2 -1,4 -2,5zm2 -5c0,0 0,0 0,0 0,0 0,0 0,0zm0 0c0,-1 0,-1 0,-1 0,0 0,0 0,1zm0 -1c1,0 1,-1 1,-1 0,0 0,1 -1,1zm1 -1c0,-1 0,-1 0,-1 0,0 0,0 0,1zm0 -1c0,-1 0,-1 1,-2 -1,1 -1,1 -1,2zm1 -2c0,0 0,0 0,-1 0,1 0,1 0,1zm0 -1c0,0 0,-1 0,-1 0,0 0,1 0,1zm0 -1c0,-1 0,-1 1,-1 0,0 -1,0 -1,1zm1 -2c0,0 0,0 0,0 0,0 0,0 0,0zm0 0c0,0 0,0 0,-1 0,1 0,1 0,1zm0 -1c0,0 0,0 0,0 0,0 0,0 0,0zm0 0c0,-1 0,-1 0,-1 0,0 0,0 0,1zm0 -1c1,0 1,-1 1,-1 0,0 0,1 -1,1zm1 -1c0,0 0,-1 0,-1 0,0 0,1 0,1zm0 -1c0,0 0,0 0,-1 0,1 0,1 0,1zm0 -1c0,0 0,0 0,0 0,0 0,0 0,0zm0 0c1,-1 1,-1 1,-1 0,0 0,0 -1,1zm1 -2c0,0 0,0 0,-1 0,1 0,1 0,1zm0 -1c0,0 0,-1 0,-1 0,0 0,1 0,1zm0 -1c1,0 1,-1 1,-1 0,0 0,1 -1,1zm1 -2c0,0 0,0 0,0 0,0 0,0 0,0zm0 0c0,0 0,-1 0,-1 0,0 0,1 0,1zm0 -1c0,0 0,0 0,0 0,0 0,0 0,0zm0 0c0,-1 0,-1 0,-1 0,0 0,0 0,1zm0 -1c1,0 1,-1 1,-1 0,0 0,1 -1,1zm1 -1c0,0 0,0 0,0 0,0 0,0 0,0zm0 0c0,-1 0,-1 0,-1 0,0 0,0 0,1zm0 -1c0,0 0,0 0,-1 0,0 0,1 0,1zm0 -1c0,0 0,0 0,-1 0,1 0,1 0,1zm0 -1c0,0 0,0 0,0 0,0 0,0 0,0zm0 0c1,0 1,-1 1,-1 0,0 0,1 -1,1zm1 -1c0,0 0,0 0,0 0,0 0,0 0,0zm0 -1c0,0 0,0 0,0 0,0 0,0 0,0zm0 0c0,-1 0,-1 0,-1 0,0 0,0 0,1zm0 -2c0,0 0,0 0,0 0,0 0,0 0,0zm1 0c0,0 0,-1 0,-1 0,0 0,1 0,1zm0 -1c0,0 0,0 0,0 0,0 0,0 0,0zm0 -1c0,0 0,0 0,0 0,0 0,0 0,0zm0 0c0,-1 0,-1 0,-1 0,0 0,0 0,1zm0 -1c0,0 0,0 0,-1 0,1 0,1 0,1zm0 -1c1,0 1,0 1,0 0,0 0,0 -1,0zm1 0c0,-1 0,-1 0,-1 0,0 0,0 0,1zm0 -1c0,0 0,-1 0,-1 0,0 0,1 0,1zm0 -1c0,0 0,0 0,0 0,0 0,0 0,0zm0 -1c0,0 0,0 0,0 0,0 0,0 0,0zm0 0c0,0 0,-1 0,-1 0,0 0,1 0,1zm0 -1c0,0 1,0 1,-1 0,1 -1,1 -1,1zm1 -1c0,0 0,0 0,0 0,0 0,0 0,0zm0 0c0,-1 0,-1 0,-1 0,0 0,0 0,1zm0 -1c0,0 0,0 0,-1 0,1 0,1 0,1zm0 -1c0,0 0,0 0,0 0,0 0,0 0,0zm0 -1c0,0 0,0 0,0 0,0 0,0 0,0zm0 0c0,-1 0,-1 1,-1 -1,0 -1,0 -1,1zm1 -1c0,0 0,0 0,0 0,0 0,0 0,0zm0 -1c0,0 0,0 0,0 0,0 0,0 0,0zm0 -1c0,0 0,0 0,0 0,0 0,0 0,0zm0 0c0,0 0,-1 0,-1 0,0 0,1 0,1zm0 -1c0,0 0,0 0,0 0,0 0,0 0,0zm0 -1c0,0 0,0 0,0 0,0 0,0 0,0zm1 0c0,0 0,-1 0,-1 0,0 0,1 0,1zm0 -1c0,0 0,0 0,0 0,0 0,0 0,0zm0 -1c0,0 0,0 0,0 0,0 0,0 0,0zm0 -1c0,0 0,0 0,0 0,0 0,0 0,0zm0 0c0,0 0,0 0,-1 0,1 0,1 0,1zm0 -1c0,0 0,0 0,0 0,0 0,0 0,0zm1 -2c0,0 0,0 0,0 0,0 0,0 0,0l0 0zm0 -1c0,0 0,0 0,0 0,0 0,0 0,0zm0 -1c0,0 0,0 0,0 0,0 0,0 0,0zm0 -1c0,0 0,0 0,0 0,0 0,0 0,0zm0 -1c1,0 1,0 1,0 0,0 0,0 -1,0zm1 -2c0,0 0,0 0,0 0,0 0,0 0,0z"/>
   <path class="fil28" d="M3071 2801c-35,0 -72,-6 -104,-21 -58,-26 -219,-112 -368,-199l16 -9 0 0 2 -1 1 -1 2 -3 0 -1c1,-1 2,-3 3,-5 1,-2 1,-4 2,-6 0,-2 1,-5 1,-7 0,-2 1,-3 1,-5 0,0 0,-1 0,-1 82,51 173,105 247,142 54,27 93,37 122,37 60,0 75,-48 98,-88l0 0c24,-29 22,-305 3,-455 58,10 107,23 143,37 3,163 -4,331 -26,445 0,0 0,0 -1,0 0,1 0,1 0,2 0,0 0,0 0,0 0,0 0,1 0,1 0,0 0,0 0,0 0,1 0,1 0,1 0,0 0,0 0,0 0,0 0,1 0,1 0,0 0,0 0,0 0,0 -1,1 -1,1 0,0 0,0 0,0 0,1 0,1 0,2 0,0 0,0 0,0 0,0 0,0 0,0 0,1 0,1 0,1 0,0 0,0 0,0 0,0 0,0 0,0 0,1 0,1 0,1 0,0 0,0 0,0 0,0 -1,0 -1,1 0,0 0,0 0,0 0,0 0,0 0,0 0,0 0,1 0,1 0,0 0,0 0,0 0,0 0,0 0,0 0,0 0,1 0,1 0,0 0,0 0,0 0,0 0,0 0,0 0,0 0,1 0,1 0,0 0,0 0,0 0,0 0,0 0,0 0,1 0,1 0,1 0,0 -1,0 -1,0 0,0 0,1 0,1 0,0 0,0 0,0 0,0 0,0 0,0 0,0 0,0 0,1 0,0 0,0 0,0 0,0 0,0 0,0 0,0 0,1 0,1 0,0 0,0 0,0 0,0 0,0 0,0 0,1 0,1 0,1 0,0 0,0 0,0 0,0 0,0 -1,1 0,0 0,0 0,0 0,0 0,0 0,0 0,0 0,0 0,0 0,1 0,1 0,1 0,0 0,0 0,0 0,0 0,1 0,1 0,0 0,0 0,0 0,0 0,0 0,0 0,1 0,1 0,1 0,0 0,0 0,0 0,0 0,0 0,0 0,0 0,1 0,1 0,0 -1,0 -1,0 0,0 0,0 0,1 0,0 0,0 0,0 0,0 0,0 0,0 0,0 0,0 0,0 0,1 0,1 0,1 0,0 0,0 0,0 0,0 0,0 0,1 0,0 0,0 0,0 0,0 0,0 0,0 0,0 0,0 0,1 -1,0 -1,0 -1,0 0,0 0,0 0,0 0,0 0,1 0,1 0,0 0,0 0,0 0,0 0,0 0,0 0,0 0,1 0,1 0,0 0,0 0,1 0,0 0,0 0,0 0,0 0,0 0,0 0,0 0,1 0,1 -1,0 -1,0 -1,0 0,0 0,0 0,0 0,0 0,1 0,1l0 0c0,0 0,0 0,0 0,0 0,0 0,0 0,1 0,1 0,1 0,0 0,0 0,0 0,1 0,1 0,1 0,0 0,0 0,0 0,0 0,0 0,1 0,0 0,0 0,0 -1,0 -1,0 -1,0 0,0 0,0 0,0 0,0 0,1 0,1 0,0 0,0 0,0 0,0 0,0 0,1 0,0 0,0 0,0 0,0 0,0 0,0 0,0 0,0 0,0 0,0 0,1 0,1l0 0c0,0 0,0 0,0 0,0 -1,1 -1,1 0,0 0,1 0,1 0,0 0,0 0,0 0,0 0,1 0,1 0,0 0,0 0,0 0,1 0,1 -1,1 0,0 0,1 0,1 0,0 0,0 0,1 0,0 0,0 0,0 0,0 0,0 0,0 0,0 0,0 0,0 0,1 0,1 0,1 0,0 0,0 0,0 0,0 0,1 0,1 0,0 0,0 0,0 -1,0 -1,1 -1,1 0,0 0,0 0,0 0,0 0,0 0,1l0 0c0,0 0,0 0,0 0,0 0,0 0,0 0,1 0,1 0,1 0,0 0,0 0,0 -1,0 -1,0 -1,0 0,1 0,1 0,1 0,0 0,0 0,1 0,0 0,0 0,0 0,0 0,1 0,1 0,0 0,0 0,0 -1,1 -1,1 -1,1 0,0 0,0 0,0 0,1 0,1 0,2 0,0 0,0 0,0 0,0 0,0 0,1 0,0 -1,0 -1,0 0,0 0,1 0,1 0,0 0,0 0,0 0,0 0,0 0,1 0,0 0,0 0,0 0,0 0,0 0,0 0,0 0,0 0,0 -1,2 -1,4 -2,5 0,0 0,0 0,0 -1,5 -3,9 -4,12l0 0c0,1 -1,1 -1,1 0,0 0,0 0,0 -2,6 -4,11 -6,16l0 0c0,0 -1,1 -1,1 0,0 0,0 0,0 0,0 0,1 0,1l0 0c0,0 0,0 -1,1 0,0 0,0 0,0 0,0 0,1 0,2 0,0 0,0 0,0 -1,0 -1,0 -1,1l0 0c0,0 0,0 0,0l0 0c-1,1 -1,1 -1,1l0 0c0,1 0,1 0,1 0,0 0,0 0,0 0,0 0,0 0,0 0,0 0,0 0,0 0,0 -1,1 -1,1l0 0c0,1 -1,2 -1,2 0,1 0,1 -1,1 1,0 0,0 0,0 0,0 0,1 0,1 0,0 0,0 0,0 0,0 0,1 0,1 0,0 0,0 0,0 -1,0 -1,0 -1,1 0,0 0,0 0,0 0,0 0,0 0,0 0,0 0,0 0,0 0,0 0,0 0,0 0,0 0,0 0,0 0,1 -1,1 -1,1 0,0 0,0 0,0 0,0 0,0 0,0l0 0c0,0 0,1 0,1 0,0 0,0 0,0 0,0 -1,0 -1,1 0,0 0,0 0,0 0,0 0,0 0,0 0,0 0,0 0,0 0,1 -1,1 -1,1 0,0 0,0 0,0 0,0 0,1 0,1 0,0 0,0 0,0 0,0 -1,0 -1,1 0,0 0,0 0,0 0,0 0,0 0,0 0,0 0,0 0,0 0,0 0,1 0,1 0,0 0,0 0,0 -1,0 -1,0 -1,0 0,0 0,0 0,0 0,0 0,0 0,0 0,0 0,0 0,0 0,0 0,1 0,1 0,0 0,0 0,0 0,0 0,0 0,0 0,0 0,0 0,0 -1,0 -1,0 -1,1 0,0 0,0 0,0 0,0 0,0 0,0 0,0 0,0 0,0 0,0 0,0 0,0 0,0 0,0 0,0 0,0 0,0 0,1 0,0 0,0 0,0 -1,0 -1,0 -1,0 0,0 0,0 0,0 0,0 0,0 0,0 0,0 0,0 0,0 0,0 0,0 0,1 0,0 0,0 0,0 0,0 0,0 0,0 0,0 0,0 0,0 -1,0 -1,0 -1,0 0,0 0,0 0,0 0,0 0,0 0,1 0,0 0,0 0,0 0,0 0,0 0,0 -15,6 -26,11 -33,13 0,0 0,0 -1,0 -19,5 -41,8 -65,8z"/>
   <path class="fil29" d="M2996 2721c-29,0 -68,-10 -122,-37 -74,-37 -165,-91 -247,-142 0,-1 0,-1 0,-2 0,-3 0,-5 0,-8l0 -70 361 212c-15,-8 -21,-40 -21,-85 0,45 6,77 21,85 7,4 14,6 22,6 35,0 73,-34 84,-47 -23,40 -38,88 -98,88z"/>
   <path class="fil30" d="M2377 1817c-20,0 -24,-35 -12,-137 36,-298 97,-394 234,-418 14,-3 29,-4 44,-4 150,0 344,118 427,217 86,102 118,263 76,263 -4,0 -9,-1 -14,-5 -64,-36 -185,-79 -311,-90l54 -32c10,-5 14,-18 8,-28l-100 -174c-4,-7 -11,-11 -18,-11 -1,0 -1,0 -1,0 -3,-2 -7,-3 -11,-3 -4,0 -7,1 -11,3l-97 55c-10,6 -14,19 -8,29l93 160c-40,2 -80,8 -117,20 -117,37 -201,155 -236,155zm279 -519c-29,0 -59,4 -89,13 -84,24 -134,130 -152,244 -3,24 -1,33 6,33 28,0 124,-142 200,-176 95,-42 262,-11 235,-45 -20,-27 -103,-69 -200,-69z"/>
   <path class="fil22" d="M2551 1166c75,-44 199,-73 379,7 323,144 405,325 438,640 6,58 15,127 18,202l27 -17c-4,-80 -11,-148 -18,-210 -35,-319 -131,-495 -440,-633 -171,-76 -283,-66 -358,-28 -14,11 -27,21 -46,39z"/>
   <path class="fil31" d="M2540 1174c75,-44 198,-73 379,8 323,143 405,324 438,640 6,57 14,126 18,201l27 -16c-4,-80 -12,-149 -18,-211 -35,-319 -132,-495 -440,-632 -171,-76 -287,-64 -361,-26 -14,10 -24,19 -43,36z"/>
   <path class="fil21" d="M2657 1457l97 -56c10,-6 23,-2 29,8l100 174c6,10 2,23 -8,28l-96 57c-10,6 -23,2 -29,-8l-101 -175c-6,-10 -2,-23 8,-28z"/>
   <path class="fil32" d="M2645 1453l97 -55c10,-6 23,-3 29,7l100 174c6,10 2,23 -7,29l-97 56c-10,6 -23,3 -28,-7l-102 -175c-6,-10 -2,-23 8,-29z"/>
   <path class="fil33" d="M2750 1644l-97 -166c-3,-5 -1,-11 4,-14l89 -50c5,-3 11,-1 14,4l95 165c3,5 1,11 -4,14l-87 51c-5,3 -12,1 -14,-4z"/>
   <path class="fil32" d="M2729 1565c-5,-3 -9,-9 -9,-15l0 -79c0,-5 4,-7 9,-4 5,3 9,9 9,15l0 79c0,5 -4,7 -9,4z"/>
   <path class="fil32" d="M2781 1595l0 0c-6,-3 -10,-10 -10,-15l0 -79c0,-5 4,-7 10,-4 5,3 9,9 9,15l0 79c0,5 -4,7 -9,4z"/>
   <path class="fil34" d="M3088 2122c0,0 -48,40 -83,190 -35,150 -56,340 -17,362 38,23 92,-25 106,-41 28,-34 21,-391 -6,-511z"/>
   <path class="fil35" d="M3088 2122c0,0 -48,40 -83,190 -35,150 -56,340 -17,362l-588 -346c-39,-23 -48,-222 -14,-372 23,-98 65,-146 92,-166 12,-9 28,-11 42,-3l568 335z"/>
   <path class="fil34" d="M3042 2196c24,-55 46,-73 46,-74 0,1 -22,19 -46,74 0,0 0,0 0,0zm46 -74c0,0 0,0 0,0 0,0 0,0 0,0z"/>
   <path class="fil36" d="M2944 2340c-9,0 -20,-3 -32,-10 -33,-20 -191,-110 -319,-184l19 -11c122,70 258,148 288,166 13,7 23,10 33,10 27,0 43,-26 51,-43l0 0c58,-122 104,-146 104,-146 0,0 0,0 0,0 0,1 -22,19 -46,74 -13,26 -29,58 -46,101l0 0c-8,17 -24,43 -52,43z"/>
   <path class="fil37" d="M3368 2040c0,0 -17,65 -16,93 0,7 9,10 11,10 15,1 51,-22 55,-28 3,-6 -15,-80 -15,-80l-35 5z"/>
   <path class="fil38" d="M3361 2128c-1,-19 11,-71 16,-89l-9 1c0,0 -17,65 -16,93 0,7 9,10 11,10 4,0 8,-1 14,-3 -1,0 -16,4 -16,-12z"/>
   <path class="fil39" d="M3405 2064c3,14 9,41 8,47 -1,6 -20,17 -26,20 -7,3 11,-14 15,-23 3,-9 3,-44 3,-44z"/>
   <path class="fil38" d="M3350 2015c0,-19 15,-34 34,-34 18,0 34,15 34,34 0,19 -16,34 -34,34 -19,0 -34,-15 -34,-34z"/>
   <path class="fil37" d="M3414 2000c-5,-11 -17,-19 -30,-19 -2,0 -3,0 -4,0 -11,4 -20,14 -20,27 0,15 13,27 28,27 15,0 27,-12 27,-27 0,-3 0,-5 -1,-8z"/>
   <path class="fil39" d="M3406 2010c-4,6 -12,6 -20,1 -7,-4 -10,-12 -7,-18 3,-5 12,-5 19,-1 8,5 11,13 8,18z"/>
   <path class="fil40" d="M2924 983c-37,-3 -72,0 -81,37 -9,38 -5,71 0,76 20,-1 47,-18 51,-24 4,-8 -16,-73 18,-87 3,-1 7,-2 12,-2l0 0z"/>
   <path class="fil41" d="M2516 1785c-11,-7 -26,-7 -38,-1 -28,14 -76,52 -97,153 -7,33 4,64 24,78 19,14 440,253 495,286 48,28 73,-10 84,-33l0 0c58,-122 104,-146 104,-146l-572 -337z"/>
   <path class="fil42" d="M3198 1094c-8,0 -15,-4 -19,-12 -12,-25 -90,-70 -186,-107 -38,-14 -69,-18 -93,-18 -17,0 -30,2 -40,4 -10,2 -16,4 -17,4 -2,0 -1,-1 1,-3 13,-13 59,-43 90,-43 0,0 1,0 1,0 71,3 245,101 276,135 21,23 4,40 -13,40z"/>
   <path class="fil43" d="M2421 1588c-7,0 -9,-9 -6,-33 18,-114 68,-220 152,-244 30,-9 60,-13 89,-13 97,0 180,42 200,69 27,34 -140,3 -235,45 -76,34 -172,176 -200,176z"/>
   <path class="fil44" d="M3052 2568c-40,50 -80,11 -82,-42 -6,76 -3,136 18,148 38,23 92,-25 106,-41 24,-28 22,-288 5,-441 6,68 -3,321 -47,376z"/>
   <path class="fil45" d="M2982 2085c0,0 -418,-243 -467,-269 -49,-26 -90,74 -100,107 -9,31 -14,95 43,68 30,-15 86,-45 194,-19 107,25 330,113 330,113z"/>
   <path class="fil46" d="M2470 1923l-33 -19c14,-37 45,-73 68,-73 2,0 4,0 5,1 28,7 69,32 112,59 25,16 29,22 9,22 -14,0 -39,-3 -75,-7 -6,-1 -12,-1 -17,-1 -29,0 -52,9 -69,18z"/>
   <path class="fil47" d="M2823 2545c-5,0 -10,-1 -16,-4 -20,-11 -98,-54 -180,-102l0 -23c10,5 17,10 22,13 7,4 12,6 16,6 13,0 2,-27 -38,-58l0 0c0,-9 -1,-19 -3,-28l28 -15c37,36 75,71 109,97 76,58 88,114 62,114z"/>
   <path class="fil48" d="M2665 2435c-4,0 -9,-2 -16,-6 -5,-3 -12,-8 -22,-13l0 -39c40,31 51,58 38,58z"/>
   <path class="fil49" d="M2786 1484c-1,0 -6,-6 -15,-11 -10,-5 -23,-10 -41,-10 -6,0 -14,1 -22,3 -22,5 -35,7 -42,7 -10,0 -4,-5 16,-16 32,-16 55,-33 69,-33 0,0 0,0 1,0 5,0 28,48 33,58 1,1 1,2 1,2z"/>
   <path class="fil9" d="M1115 3381l55 -31c15,-9 39,-9 54,0l628 365c0,0 56,90 47,96 -9,5 -155,-35 -155,-35l-629 -363c-15,-9 -15,-23 0,-32z"/>
   <path class="fil50" d="M1779 3760l-44 -26c0,0 2,-23 21,-56 19,-34 -70,-110 -70,-110l152 88 60 79c-3,-3 -7,-3 -12,0 -8,5 -15,17 -15,27 0,5 2,9 6,10l-98 -12z"/>
   <path class="fil3" d="M1779 3760l-44 -26c0,0 2,-23 21,-56 19,-34 -70,-110 -70,-110l152 88 60 79c-3,-3 -7,-3 -12,0 -7,4 -14,14 -15,23l0 4c0,5 2,9 6,10l-98 -12z"/>
   <path class="fil51" d="M1779 3760l-22 -13 15 -25 7 4c0,0 51,18 92,32 28,10 51,17 52,16 -1,2 -3,4 -6,3l-37 -4 -3 -1 0 0 -98 -12z"/>
   <polygon class="fil50" points="1247,3315 1249,3316 "/>
   <polygon class="fil50" points="1270,3328 1272,3329 "/>
   <polygon class="fil50" points="1293,3342 1295,3343 "/>
   <polygon class="fil50" points="1316,3355 1318,3356 "/>
   <path class="fil45" d="M1176 3391c0,-26 19,-59 42,-72 11,-7 22,-8 29,-4l-62 -36c-8,-5 -19,-4 -31,3 -23,13 -42,46 -42,72 0,14 5,23 12,28l64 37c-7,-5 -12,-14 -12,-28z"/>
   <path class="fil52" d="M1270 3328c-4,-1 -8,-2 -13,-2 -5,1 -10,3 -16,6 -16,9 -30,27 -37,47 -3,9 -5,17 -5,26 0,6 1,12 3,16 2,5 6,9 9,11l-22 -13c-8,-5 -13,-14 -13,-28 0,-2 0,-5 1,-7 0,-2 0,-4 1,-5 0,-5 2,-9 3,-13 7,-20 21,-38 37,-47 11,-7 21,-8 29,-4l2 1 21 12z"/>
   <path class="fil53" d="M1225 3435c-2,-5 -3,-11 -3,-17 0,-2 0,-3 0,-5 2,-24 18,-52 38,-65 1,-1 3,-2 4,-3 6,-3 11,-5 16,-5 5,-1 9,0 13,2l-21 -13 -2 -1c-4,-1 -8,-2 -13,-2 -5,1 -10,3 -16,6 -23,13 -42,46 -42,73 0,6 1,12 3,16 2,5 6,9 9,11l23 13c-4,-2 -7,-6 -9,-10z"/>
   <path class="fil54" d="M1233 3445c-1,-2 -3,-3 -4,-5 0,0 0,0 0,0 1,2 3,3 4,5zm-10 -19c0,-1 -1,-3 -1,-5 0,2 1,3 1,5 0,0 0,0 0,0zm-1 -12c0,0 0,0 0,-1 1,-7 3,-14 5,-21l0 0c0,0 0,0 0,0 -2,5 -3,10 -4,16 0,1 -1,3 -1,5 0,1 0,1 0,1zm-23 -9c0,0 0,-1 0,-1 0,0 0,1 0,1zm0 -1c0,0 0,0 0,0 0,0 0,0 0,0z"/>
   <path class="fil55" d="M1234 3445l-23 -13c0,0 0,0 0,-1l0 1c-3,-2 -5,-4 -7,-8 -1,-1 -1,-2 -2,-3 -2,-4 -3,-10 -3,-16l0 0c0,0 0,-1 0,-1 0,0 0,0 0,0 0,0 0,0 0,0 0,-8 2,-17 5,-25l23 13c-2,7 -4,14 -5,21 0,1 0,1 0,1 0,1 0,1 0,1 0,1 0,2 0,3l0 0c0,1 0,2 0,3 0,2 1,4 1,5 0,3 1,6 2,9 1,2 2,4 4,5 1,2 3,3 4,5 1,0 1,0 1,0z"/>
   <path class="fil52" d="M1316 3355c-4,-2 -8,-3 -13,-2 -5,0 -10,2 -16,5 -1,1 -3,2 -4,3 -14,10 -27,27 -33,44 -1,4 -2,7 -3,10 -1,4 -2,8 -2,11 0,2 0,4 0,5 0,7 1,12 3,17 2,5 5,8 9,10l-23 -13c-4,-2 -7,-6 -9,-10 -2,-5 -3,-11 -3,-17 0,-2 0,-3 0,-5 1,-7 3,-14 5,-21 7,-18 19,-34 33,-44 1,-1 3,-2 4,-3 6,-3 11,-5 16,-5 5,-1 9,0 13,2l2 1 21 12z"/>
   <path class="fil56" d="M1277 3366c2,-2 4,-4 6,-5 1,-1 3,-2 4,-3 6,-3 11,-5 16,-5 5,-1 9,0 13,2l-21 -12 -2 -1 -21 -13 -2 -1 -21 -12 -2 -1c-7,-4 -18,-3 -29,4 -3,2 -7,4 -10,7l69 40z"/>
   <path class="fil12" d="M1241 3332c-3,2 -7,4 -10,7l23 14c2,-2 4,-4 6,-5 1,-1 3,-2 4,-3 6,-3 11,-5 16,-5 5,-1 9,0 13,2l-21 -13 -2 -1c-4,-1 -8,-2 -13,-2 -5,1 -10,3 -16,6z"/>
   <path class="fil57" d="M1817 3660c10,-6 20,-4 21,-4l-2 -1 -518 -299 -2 -1c-4,-2 -8,-3 -13,-2 -5,0 -10,2 -16,5 -1,1 -3,2 -4,3 -5,3 -10,8 -14,13l541 299c0,0 0,-9 7,-13z"/>
   <path class="fil58" d="M1772 3739c-1,-8 7,-13 7,-13l-530 -318c-2,6 -3,12 -4,18 0,2 0,4 0,5 0,7 1,12 3,17 2,5 5,8 9,10l519 300 3 2c-1,-1 -7,-9 -7,-21z"/>
   <path class="fil59" d="M1779 3760l-3 -2 -519 -300c0,0 -1,0 -2,-1 -2,-2 -4,-4 -6,-8 0,0 -1,-1 -1,-1 -2,-5 -3,-10 -3,-17 0,-1 0,-3 0,-5 1,-6 2,-12 4,-18 -1,4 -2,7 -3,11l0 0 533 307c0,0 -8,5 -7,13l0 0c0,12 6,20 7,21zm-530 -352c0,0 0,0 0,0l0 0c0,0 0,0 0,0z"/>
   <path class="fil53" d="M1783 3693c0,0 11,-20 27,-20l-533 -307c-3,2 -6,5 -8,8 -4,4 -8,10 -12,16 -3,6 -6,12 -8,18 -1,3 -2,7 -3,11l533 307c-7,-13 4,-33 4,-33z"/>
   <path class="fil60" d="M1779 3726l-533 -307c1,-4 2,-8 3,-11 2,-6 5,-12 8,-18 4,-6 8,-12 12,-16 2,-3 5,-6 8,-8l533 307c0,0 0,0 -1,0 -15,0 -26,20 -26,20 0,0 -7,11 -7,23 0,3 1,7 3,10z"/>
   <path class="fil52" d="M1297 3391l27 16c9,5 12,17 6,27 -5,9 -17,12 -26,6l-27 -16c-9,-5 -13,-17 -7,-26l0 -1c6,-9 18,-12 27,-6z"/>
   <path class="fil61" d="M1871 3762l0 -4c1,-9 8,-19 15,-23 5,-3 9,-3 12,0l2 3 23 30c2,2 2,4 0,6l0 0c-1,2 -3,4 -6,3l-37 -4 -3 -1 0 0c-4,-1 -6,-5 -6,-10z"/>
   <path class="fil50" d="M1898 3735c1,0 1,1 2,3l-2 -3z"/>
   <polygon class="fil50" points="1877,3772 1880,3773 "/>
   <path class="fil62" d="M1877 3772l0 0 3 1 37 4c3,1 5,-1 6,-3 -1,1 -24,-6 -52,-16l0 4c0,5 2,9 6,10z"/>
   <path class="fil63" d="M1112 3353c1,-16 30,-65 50,-54 9,6 46,27 46,27 3,-3 7,-5 10,-7 11,-7 22,-8 29,-4l-62 -36c-8,-5 -19,-4 -31,3 -23,13 -41,44 -42,71z"/>
   <path class="fil64" d="M1211 3432l-22 -13c-8,-5 -13,-14 -13,-28 0,-2 0,-5 1,-7 0,-2 0,-4 1,-5 1,-5 2,-9 3,-13l23 13c-3,9 -5,17 -5,26 0,6 1,12 3,16 2,5 6,9 9,11z"/>
   <path class="fil64" d="M1257 3458l-23 -13c-4,-2 -7,-6 -9,-10 -2,-5 -3,-11 -3,-17 0,-2 0,-3 0,-5 1,-7 3,-14 5,-21l23 13c-1,4 -2,7 -3,10 -1,4 -2,8 -2,11 0,2 0,4 0,5 0,7 1,12 3,17 2,5 5,8 9,10z"/>
   <path class="fil53" d="M1309 3435l-3 -1 0 0c-4,-10 -6,-14 -10,-23 -1,-2 -1,-4 -2,-5l-3 -2c-1,-1 -3,-1 -4,-1 -1,0 -3,1 -4,3 -1,1 -1,2 -1,3 0,1 0,3 0,4l0 2 -2 0 -3 0c0,-1 -1,-2 -1,-3 0,-1 0,-3 1,-5 0,-1 1,-3 2,-4 2,-3 4,-5 7,-6 3,-1 6,-1 8,1 2,1 3,2 3,3 1,1 2,2 3,4 1,1 2,4 3,7 3,6 4,9 6,15 4,-5 5,-8 8,-13l1 -1 2 1 1 0 1 2 0 1c-5,7 -7,11 -12,18l-1 0z"/>
   <path class="fil12" d="M1807 3672l-530 -306c2,-2 4,-4 6,-5 1,-1 3,-2 4,-3 6,-3 11,-5 16,-5 5,-1 9,0 13,2l2 1 103 60c-4,-2 -51,-19 -32,-3 19,17 384,238 418,259z"/>
   <path class="fil12" d="M1246 3419c0,0 34,18 84,46 26,14 55,31 86,49 31,18 65,37 98,56 33,19 67,39 98,57 31,18 60,35 85,50 49,29 82,49 82,49 0,0 -34,-18 -84,-46 -25,-14 -54,-31 -86,-49 -31,-18 -64,-37 -98,-56 -33,-19 -66,-39 -97,-57 -32,-18 -61,-35 -85,-50 -50,-29 -83,-49 -83,-49z"/>
   <path class="fil65" d="M1277 3366c0,0 33,18 84,46 25,15 54,31 86,49 31,18 64,37 98,56 33,19 66,39 97,57 31,18 60,35 85,50 50,30 83,49 83,49 0,0 -34,-18 -85,-46 -25,-14 -54,-31 -85,-49 -32,-17 -65,-37 -98,-56 -34,-19 -67,-38 -98,-57 -31,-18 -60,-35 -85,-50 -49,-29 -82,-49 -82,-49z"/>
   <path class="fil66" d="M1916 3768c0,0 -13,-16 -27,-34l-3 1c-3,2 -5,4 -7,6 14,12 27,22 37,27z"/>
   <path class="fil7" d="M1886 3735l3 -1c-10,-13 -20,-27 -27,-36 -15,-23 -26,-36 -26,-36 0,0 -17,-4 -24,14 0,0 34,37 67,65 2,-2 4,-4 7,-6z"/>
   <path class="fil67" d="M1176 3391c0,0 0,0 0,0 0,0 0,0 0,0zm0 0c0,-8 2,-17 5,-26 0,0 0,1 0,1 0,0 0,0 0,0 -1,4 -3,8 -3,13 -1,0 -1,0 -1,1 0,4 -1,7 -1,11z"/>
   <path class="fil48" d="M1176 3392c-47,-28 -60,-36 -62,-47 2,-6 6,-14 10,-21 2,6 6,12 16,18 12,6 28,16 41,23 -3,9 -5,18 -5,26 0,0 0,0 0,0 0,0 0,0 0,0 0,0 0,0 0,0l0 0c0,0 0,1 0,1z"/>
   <path class="fil68" d="M1177 3380c0,-1 0,-1 1,-1 0,-5 2,-9 3,-13 0,0 0,0 0,0 0,0 0,0 0,0 0,0 0,0 0,0l0 0c-1,4 -2,8 -3,13 -1,0 -1,0 -1,1l0 0z"/>
   <path class="fil69" d="M1112 3354l0 0c0,0 0,0 0,0 0,0 0,0 0,0 0,0 0,0 0,0zm0 0c0,0 0,0 0,0 0,0 0,0 0,0 0,0 0,0 0,0 0,0 0,0 0,0zm0 0c0,0 0,0 0,0 0,0 0,0 0,0zm0 -1c0,0 0,0 0,0 0,0 0,0 0,0zm0 0c0,0 0,0 0,0 0,0 0,0 0,0zm0 0c0,-1 0,-1 0,-1 0,0 0,0 0,1zm0 -1c0,-1 0,-1 0,-1 0,0 0,0 0,1zm0 -1c0,0 0,-1 0,-1 0,0 0,1 0,1zm0 -1c0,0 0,-1 0,-2 0,1 0,2 0,2zm0 -2c0,0 0,0 0,0 0,0 0,0 0,0zm0 0c0,0 1,0 1,-1 0,1 -1,1 -1,1zm1 -1c0,0 0,0 0,0 0,0 0,0 0,0zm0 0c0,0 0,0 0,0 0,0 0,0 0,0zm0 0c0,0 0,0 0,-1 0,1 0,1 0,1zm0 -1c0,0 0,0 0,0 0,0 0,0 0,0zm0 0c0,0 0,0 0,0 0,0 0,0 0,0zm0 0c0,0 0,0 0,0 0,0 0,0 0,0zm0 -1c0,0 0,0 0,0 0,0 0,0 0,0zm0 0c0,0 0,0 0,0 0,0 0,0 0,0zm0 0c0,0 0,0 0,0 0,0 0,0 0,0zm0 -1c0,0 0,0 0,0 0,0 0,0 0,0zm0 0c0,0 0,0 0,0 0,0 0,0 0,0zm0 0c0,0 0,0 0,0 0,0 0,0 0,0zm0 -1c0,0 0,0 0,0 0,0 0,0 0,0zm0 0c0,0 0,0 0,0l0 0z"/>
   <path class="fil48" d="M1112 3354c0,0 0,0 0,0 0,0 0,0 0,0 0,0 0,0 0,0 0,0 0,0 0,0zm0 0c0,0 0,0 0,0 0,0 0,0 0,0 0,0 0,0 0,0 0,-1 0,-1 0,-1 0,0 0,0 0,0 0,0 0,0 0,0 0,0 0,0 0,0 0,0 0,0 0,0 0,-1 0,-1 0,-1 0,0 0,0 0,0 0,-1 0,-1 0,-1 0,0 0,0 0,0 0,0 0,-1 0,-1 0,0 0,-1 0,-2 0,0 0,0 0,0 0,0 0,0 0,0 0,0 0,0 0,0 0,0 1,0 1,-1 0,0 0,0 0,0 0,0 0,0 0,0 0,0 0,0 0,0 0,0 0,0 0,0 0,0 0,0 0,0 0,0 0,0 0,-1 0,0 0,0 0,0 0,0 0,0 0,0 0,0 0,0 0,0 0,0 0,0 0,0 0,0 0,0 0,0 0,0 0,0 0,0 0,0 0,0 0,-1 0,0 0,0 0,0 0,0 0,0 0,0 0,0 0,0 0,0 0,0 0,0 0,0 0,0 0,0 0,0 0,0 0,0 0,-1 0,0 0,0 0,0 0,0 0,0 0,0 0,0 0,0 0,0 0,0 0,0 0,0 0,0 0,0 0,0 0,0 0,0 0,-1 0,0 0,0 0,0 0,0 0,0 0,0l0 0c3,-14 9,-28 18,-39l0 0c-9,11 -15,25 -18,38 0,4 -1,8 -1,12z"/>
   <path class="fil70" d="M1114 3345c0,-1 0,-3 0,-5 0,1 -1,2 -1,2 3,-13 9,-27 18,-38l0 0c-4,5 -8,12 -7,20 -4,7 -8,15 -10,21z"/>
   <path class="fil71" d="M1188 3419l0 0c0,-1 0,-1 0,-1 0,0 0,0 0,1zm0 -1c0,0 0,0 0,0 0,0 0,0 0,0zm-11 -38c0,-1 0,-1 1,-1 1,-5 2,-9 3,-13l0 0c-1,4 -3,9 -4,14z"/>
   <path class="fil72" d="M1183 3414c-3,-4 -6,-10 -7,-17 0,-2 0,-4 0,-5 0,0 0,0 0,0 0,9 3,16 6,21 0,0 1,1 1,1z"/>
   <path class="fil73" d="M1188 3418c0,0 0,0 0,0 0,0 0,0 0,0zm0 0c-2,-1 -4,-2 -5,-4 0,0 -1,-1 -1,-1 2,2 4,4 6,5z"/>
   <path class="fil74" d="M1112 3354l0 0c0,0 0,0 0,0 0,0 0,0 0,0zm0 0c0,0 0,0 0,0 0,0 0,0 0,0z"/>
   <path class="fil75" d="M1183 3414c-3,-4 -6,-10 -7,-17 1,7 4,13 7,17 0,0 0,0 0,0z"/>
   <path class="fil76" d="M1188 3418l-64 -36c-7,-5 -12,-14 -12,-28 0,0 0,0 0,0 0,0 0,0 0,0 0,0 0,0 0,0 0,-4 1,-8 1,-12 0,4 -1,7 -1,11 0,-2 1,-5 2,-8 2,11 15,19 62,47 0,1 0,3 0,5 1,7 4,13 7,17 1,2 3,3 5,4z"/>
   <path class="fil77" d="M1112 3353c0,-4 1,-7 1,-11 0,0 1,-1 1,-2 0,2 0,4 0,5 -1,3 -2,6 -2,8z"/>
   <path class="fil78" d="M1188 3419l0 -1c-2,-1 -4,-2 -5,-4 0,0 0,0 0,0 1,2 3,3 5,4 0,0 0,0 0,0 0,0 0,0 0,0 0,0 0,0 0,1z"/>
   <path class="fil9" d="M1009 2994l709 410c10,5 26,5 36,-1l913 -531c9,-6 9,-16 0,-21l-703 -408c-10,-6 -26,-6 -36,0l-919 530c-10,6 -10,15 0,21z"/>
   <path class="fil79" d="M1047 2969l276 -159 -138 -79 -160 92c0,0 0,102 0,116 0,14 16,34 22,30z"/>
   <polygon class="fil80" points="1057,2997 1076,2986 1062,2980 1051,2983 1052,2990 "/>
   <path class="fil38" d="M1764 3353c-15,8 -39,8 -54,0l-610 -352 912 -527 22 -12 609 352c15,8 15,22 0,31l-879 508z"/>
   <path class="fil81" d="M1121 3013l488 -282 -74 -43 -488 281c0,0 12,3 30,11 18,8 44,33 44,33z"/>
   <path class="fil82" d="M1710 3352l-37 -21 -552 -318c0,-7 -3,-14 -7,-20 -7,-9 -16,-16 -24,-21 -7,-4 -17,-8 -26,-8 -7,0 -13,2 -17,5 -4,-5 -11,-23 -11,-45l-20 0c0,29 9,57 21,64l10 6c6,4 11,4 11,1l0 -6c0,-6 9,-6 21,1 12,7 21,17 21,23l0 6c0,3 8,11 18,16l534 308 58 34 0 0c7,4 17,6 27,6l0 -24c-10,0 -20,-2 -27,-7z"/>
   <path class="fil79" d="M2654 2829l0 25c0,5 -4,11 -11,15l0 0 -822 474 -57 34 0 0 0 0c-8,4 -17,6 -27,6l0 -24c10,0 19,-2 27,-7l36 -21 1 0 842 -486c8,-5 11,-10 11,-16z"/>
   <path class="fil13" d="M1737 3196l0 141c-7,0 -13,-1 -18,-4l-67 -39 -509 -294 0 -147 594 343z"/>
   <path class="fil20" d="M2627 2700l0 108c0,12 -8,26 -18,31l-788 455 -66 39c-5,3 -12,4 -18,4l0 -126 890 -511z"/>
   <path class="fil12" d="M1143 3000c0,-6 -3,-13 -8,-19 -6,-9 -16,-17 -24,-21 -6,-4 -16,-9 -26,-9 -7,0 -12,3 -17,6l0 -147 75 43 0 147z"/>
   <path class="fil13" d="M1113 2961c8,5 16,12 22,20 5,6 8,13 8,19l0 -140 -30 0 0 101z"/>
   <path class="fil38" d="M2012 2302l-912 527c0,0 0,5 0,12 0,7 -9,9 -21,3 -12,-7 -21,-16 -21,-27l-1 -12 929 -536 4 -2c1,1 1,3 1,5l0 6c0,7 10,18 21,24z"/>
   <path class="fil37" d="M1710 3181l-596 -344c-8,-4 -15,-7 -17,-6l3 -2 912 -527c0,0 6,-3 11,-6 6,-3 19,-1 29,5l591 341c15,9 15,23 0,31l-879 508c-15,8 -39,8 -54,0z"/>
   <path class="fil37" d="M1990 2267l-4 2 -929 536c0,0 -1,-1 -2,-2 -1,-1 -2,-1 -3,-2l-7 -4c-3,-1 -5,-3 -8,-5 -4,-2 -8,-2 -11,1l-1 1c-1,1 -2,3 -3,4 -1,1 -2,3 -2,5 -1,2 -1,4 -2,6 -1,3 -1,5 -1,7 -1,2 -1,3 -1,5 0,1 0,2 0,3 0,3 0,5 0,8l0 -26c0,-14 12,-33 27,-42l879 -507c15,-9 36,-10 48,-4l11 7 0 0c1,1 3,2 5,3l0 0c2,1 3,2 4,4z"/>
   <path class="fil82" d="M1710 3181l0 0 -37 -22 -424 -244 -135 -78c-10,-6 -17,-8 -18,-5l0 1 0 6c0,6 -10,6 -21,0 -12,-7 -17,-15 -17,-22l0 -6c0,-4 -1,-7 -3,-8l-3 -2c-2,-1 -4,-3 -7,-4 -3,-1 -5,-3 -8,-5 -4,-2 -8,-2 -11,1l-1 1 -2 3 -1 1c-1,1 -2,3 -2,5 -1,2 -1,4 -2,6 -1,3 -1,5 -1,7 -1,2 -1,3 -1,5 0,1 0,2 0,3 0,3 0,5 0,8l0 92 20 0 0 -92c0,-2 1,-4 1,-6l0 -5 0 -1c2,17 18,32 32,39 6,4 15,8 25,8 8,0 14,-2 19,-7l2 1c1,1 2,2 3,2l534 308 58 34 0 0 0 0c7,4 17,6 27,6l0 -24c-11,0 -20,-2 -27,-6z"/>
   <path class="fil79" d="M2654 2657l0 25c0,5 -4,11 -11,15l0 0 -822 474 -57 34 0 0 0 0c-8,4 -17,6 -27,6l0 -24c10,0 19,-2 27,-6l36 -22 1 0 842 -486c8,-5 11,-10 11,-16z"/>
   <polygon class="fil20" points="1113,2885 1313,3005 1113,2895 "/>
   <polygon class="fil20" points="1113,2934 1440,3128 1113,2944 "/>
   <polygon class="fil83" points="1737,3305 1906,3201 1737,3293 "/>
   <polygon class="fil83" points="1737,3269 2028,3094 1737,3257 "/>
   <path class="fil39" d="M1791 3147c-35,17 -75,17 -105,0 -30,-16 -526,-284 -543,-293l567 327c15,8 39,8 54,0l609 -352c-28,15 -548,303 -582,318z"/>
   <path class="fil39" d="M1038 2787c-9,-6 6,-23 14,-28l-9 5c-15,9 -27,28 -27,42l0 26c0,-3 0,-5 0,-8 0,-1 0,-2 0,-3 0,-2 0,-3 1,-5 0,-2 0,-4 1,-7 1,-2 1,-4 2,-6 0,-2 1,-4 2,-5 1,-1 2,-3 3,-4l1 -1c3,-3 7,-3 11,-1 3,2 5,4 8,5l7 4c1,1 2,1 3,2 1,1 2,2 2,2 0,0 0,-5 -19,-18z"/>
   <path class="fil38" d="M2052 2301c-10,-6 -23,-8 -29,-5 -5,3 -11,6 -11,6 -11,-6 -21,-17 -21,-24l0 -6c0,-2 0,-4 -1,-5 -1,-2 -2,-3 -4,-4l0 0c-2,-1 -4,-2 -5,-3l0 0 -11 -7c-12,-6 -33,-5 -48,4l-879 507 -1 1 621 359c10,5 26,5 36,-1l885 -515 -532 -307z"/>
   <path class="fil84" d="M1613 3072l24 -14c0,0 -14,-4 -20,-1 -6,3 -4,15 -4,15z"/>
   <path class="fil85" d="M1597 3057c0,0 19,-21 42,0 23,21 24,42 33,41 10,0 10,-167 10,-167l-91 84 6 42z"/>
   <path class="fil86" d="M2541 2449l2 -1 -15 -9 -622 -359 -906 587c-15,8 -17,21 -6,28l22 12 581 336 4 -4 940 -590z"/>
   <path class="fil12" d="M1674 2852l-45 -10 0 181c27,11 45,22 48,45l-3 -216z"/>
   <path class="fil13" d="M1609 3025l-575 -333c-10,-5 -18,-19 -18,-31l0 -178 581 339c0,0 7,25 27,33 21,8 5,16 5,16l0 152c-18,-3 -20,2 -20,2z"/>
   <path class="fil85" d="M1662 2845c-5,-3 -10,-3 -10,0l0 6c0,6 -10,6 -21,-1 -12,-7 -22,-17 -22,-24l0 -5c0,-4 -8,-11 -18,-17l937 -536c6,3 15,8 15,8 2,2 3,6 3,8l0 5c0,7 10,17 21,24 12,7 22,7 22,1l0 -6c0,-3 4,-3 10,1l-937 536z"/>
   <path class="fil86" d="M2541 2277l2 -1 -15 -8 -622 -359 -906 523c-15,8 -17,21 -6,28l22 12 581 350 944 -545z"/>
   <path class="fil86" d="M2589 2303l-936 540 33 26 933 -539c-4,-10 -9,-15 -13,-17l-17 -10z"/>
   <path class="fil85" d="M2615 2572l2 -1 1 -1 2 -3 0 -1c1,-1 2,-3 3,-5 1,-2 1,-4 2,-6 0,-2 1,-5 1,-7 0,-2 1,-3 1,-5 0,-1 0,-2 0,-3 0,-3 0,-5 0,-8l0 -155c0,-17 -3,-34 -8,-47l-933 539 -4 242 933 -539 0 0z"/>
   <path class="fil87" d="M1686 2869l87 -50c4,1 9,2 14,2 -62,29 -101,48 -101,48zm207 -97l731 -423c2,9 3,19 3,28l0 39 0 23 0 23 0 70c0,3 0,5 0,8 0,1 0,1 0,2 0,0 0,1 0,1 0,2 -1,3 -1,5 0,2 -1,5 -1,7 -1,2 -1,4 -2,6 -1,2 -2,4 -3,5l0 1 -2 3 -1 1 -2 1 0 0 -121 70c0,0 39,-41 49,-80 8,-38 -5,-74 -34,-74 -7,0 -14,2 -22,5 -43,21 -371,174 -594,279z"/>
   <polygon class="fil17" points="1906,2080 1906,2080 "/>
   <path class="fil88" d="M1047 2425c25,-15 527,-324 527,-325l-574 332c-15,8 -17,21 -6,28l22 12 559 337 8 -10c0,0 -526,-328 -543,-337 -17,-10 -19,-21 7,-37z"/>
   <path class="fil19" d="M1694 2916l-21 0c0,-22 -6,-41 -10,-46 -4,4 -10,6 -17,6 -10,0 -19,-4 -26,-8 -8,-5 -18,-13 -24,-21l-1 -2c-4,-6 -6,-12 -7,-18l-551 -319 -19 -10 -24 -14c-5,-3 -7,-7 -7,-11l0 -24c0,4 3,8 7,11l1 0 63 36 533 308c10,6 18,13 18,17l0 5c0,3 2,7 5,10 4,5 10,10 16,14 12,7 22,7 22,1l0 -6c0,-3 4,-3 10,0l11 7c12,6 21,35 21,64z"/>
   <polygon class="fil19" points="973,2682 973,2682 "/>
   <path class="fil19" d="M1673 2916l0 155c0,2 0,4 0,6l0 5 -1 1c-1,-17 -17,-32 -31,-39 -6,-4 -16,-8 -26,-8 -7,0 -13,2 -18,7l-2 -1c-1,-1 -3,-2 -4,-3l-533 -308c0,0 -14,-8 -31,-17 -3,-2 -5,-4 -8,-5 -9,-6 -19,-11 -26,-15 -4,-3 -6,-6 -6,-10l0 6 0 18c0,3 2,7 5,9l1 1c2,2 6,3 9,5 2,1 4,3 6,4 4,2 7,4 10,6 2,1 5,2 7,3 1,1 3,2 4,3 5,3 8,4 8,4l424 245 135 78c9,6 17,8 18,5l0 -1 0 -6c0,-7 9,-7 21,0 12,7 17,15 17,22l0 6c0,4 1,7 3,8l3 2c2,1 4,2 7,4 2,1 5,3 8,5 4,2 7,1 11,-1l1 -1 1 -3 0 0 1 -1c1,-2 2,-3 3,-5 1,-2 1,-4 2,-6 0,-3 1,-5 1,-7 0,-2 0,-3 1,-5 0,-1 0,-2 0,-3 0,-3 0,-6 0,-8l0 -155 -21 0z"/>
   <polygon class="fil20" points="1629,2999 1397,2869 1629,3009 "/>
   <polygon class="fil20" points="1629,2896 1397,2766 1629,2905 "/>
   <path class="fil19" d="M2619 2330l-887 512 -671 -387c-10,-6 -10,-15 0,-21l878 -507 589 341 0 0c6,3 15,8 15,8 2,2 3,6 3,8l0 5c0,7 10,17 21,24l2 1 20 -11 9 5 1 1 0 0 7 4c4,2 9,7 13,17z"/>
   <path class="fil89" d="M1111 2459l27 -14 -24 -6c-5,5 -6,12 -3,20z"/>
   <path class="fil89" d="M1101 2432l21 -14 255 -195 -138 -80 -159 93c0,0 0,151 0,165 0,14 15,34 21,31z"/>
   <path class="fil90" d="M1818 2815c-15,9 -39,9 -54,0l-609 -352 912 -576 21 -13 609 402c15,9 15,23 0,31l-879 508z"/>
   <path class="fil91" d="M1791 2821c-1,0 -3,0 -4,0 -5,0 -10,-1 -14,-2 0,0 -1,0 -1,0 -3,-1 -5,-3 -8,-4l-609 -352 34 -21c0,0 0,1 1,1 4,6 7,13 7,20l0 0 0 -27 121 -76 388 224 58 33 0 0 0 1c8,4 17,6 27,6l0 -24c-4,0 -9,-1 -12,-2 4,1 8,2 12,2 10,0 20,-3 27,-7l725 -419 154 102c8,4 11,10 11,16 0,5 -3,11 -11,15l-879 508c-7,4 -17,6 -27,6zm-27 -228l0 0 -5 -3 5 3c0,0 0,0 0,0zm-228 -132l-198 -114 0 0 198 114z"/>
   <path class="fil92" d="M1176 2475l488 -332 -74 -43 -489 332c0,0 12,2 31,11 18,8 44,32 44,32z"/>
   <path class="fil93" d="M1764 2815l-37 -22 -551 -318c-1,-7 -3,-13 -8,-20 -6,-8 -16,-16 -24,-21 -6,-4 -16,-8 -26,-8 -7,0 -12,2 -17,6 -4,-5 -10,-24 -10,-46l-21 0c0,29 9,58 21,64l11 7c6,3 10,3 10,0l0 -6c0,-6 10,-6 22,1 11,7 21,18 21,24l0 6c0,3 8,10 18,16l533 308 58 33 0 0c8,4 17,6 27,6l0 -24c-10,0 -19,-2 -27,-6z"/>
   <path class="fil92" d="M2708 2291l0 25c0,5 -3,11 -11,15l0 1 -821 474 -58 33 0 0 0 0c-7,4 -17,6 -27,6l0 -24c10,0 20,-2 27,-6l37 -21 0 0 842 -487c8,-4 11,-10 11,-16z"/>
   <path class="fil13" d="M1791 2609l0 190c-6,0 -13,-1 -18,-4l-67 -38 -509 -294 0 -197 594 343z"/>
   <path class="fil20" d="M2682 2112l0 158c0,12 -8,26 -18,32l-788 455 -67 38c-5,3 -11,4 -18,4l0 -175 891 -512z"/>
   <path class="fil12" d="M1197 2463c0,-7 -3,-14 -7,-20 -7,-9 -16,-16 -25,-21 -6,-4 -16,-8 -26,-8 -6,0 -12,0 -17,4l0 -195 75 43 0 197z"/>
   <path class="fil13" d="M1167 2423c8,5 17,12 23,20 4,6 7,13 7,20l0 -190 -30 0 0 150z"/>
   <path class="fil90" d="M2067 1715l-912 526c0,0 0,6 0,13 0,6 -10,9 -21,2 -12,-7 -22,-15 -22,-27l-1 -11 929 -537 4 -2c1,2 2,4 2,6l0 5c0,7 9,18 21,25z"/>
   <path class="fil91" d="M1144 2256c-4,0 -9,-2 -15,-5 -11,-6 -16,-14 -17,-21 0,0 0,0 0,-1l0 -6c0,-2 0,-4 -1,-5l573 -331c4,14 9,28 15,40l-544 314 -4 3 0 0c0,0 -1,0 -1,1l0 0 0 6c0,3 -2,5 -6,5zm11 -13c-1,0 -1,0 -1,0 0,0 0,0 0,0 0,0 0,0 1,0z"/>
   <path class="fil90" d="M1764 2593l-596 -344c-7,-4 -14,-7 -17,-5l4 -3 912 -526c0,0 5,-3 10,-6 6,-4 19,-2 29,4l591 341c15,9 15,23 0,32l-879 507c-15,9 -39,9 -54,0z"/>
   <path class="fil94" d="M1752 2568c-33,-18 -537,-292 -554,-302l566 327c15,9 39,9 54,0l851 -491c0,0 -769,422 -817,451 -47,29 -67,34 -100,15z"/>
   <path class="fil90" d="M2044 1679l-4 2 -929 537c0,0 0,-2 -2,-3 -1,0 -2,-1 -3,-2l-7 -3c-2,-2 -5,-4 -8,-5 -4,-2 -7,-2 -10,1l-1 1c-1,1 -3,2 -3,3 -1,2 -2,4 -3,6 0,2 -1,4 -2,6 0,2 -1,4 -1,7 0,1 0,3 -1,4 0,1 0,2 0,4 0,2 0,5 0,8l0 -26c0,-15 12,-34 27,-42l879 -508c15,-8 37,-10 48,-3l11 6 1 0c1,1 2,2 5,3l0 0c1,1 2,2 3,4z"/>
   <path class="fil90" d="M1764 2593l0 0 -37 -21 -424 -245 -135 -78c-9,-5 -17,-7 -18,-4l0 0 0 6c0,7 -9,7 -21,0 -11,-7 -17,-15 -17,-21l0 -7c0,-3 -1,-7 -3,-8l-3 -2c-2,-1 -4,-2 -7,-3 -2,-2 -5,-4 -8,-5 -4,-2 -7,-2 -10,1l-1 1 -2 2 -1 1c-1,2 -2,4 -3,6 0,2 -1,4 -2,6 0,2 -1,4 -1,7 0,1 0,3 -1,4 0,1 0,2 0,4 0,2 0,5 0,8l0 141 21 0 0 -141c0,-3 0,-5 0,-7l1 -5 0 -1c1,17 17,32 31,40 6,3 16,8 26,8 7,0 14,-3 18,-7l2 1c1,1 3,1 4,2l533 308 58 33 0 0 0 1c8,4 17,6 27,6l0 -24c-11,0 -19,-3 -27,-7z"/>
   <path class="fil93" d="M1764 2815l-37 -22 -551 -318c-1,-7 -3,-13 -8,-20 -6,-8 -16,-16 -24,-21 -6,-4 -16,-8 -26,-8 -7,0 -12,2 -17,6 -4,-5 -10,-24 -10,-46l-21 0c0,29 9,58 21,64l11 7c6,3 10,3 10,0l0 -6c0,-6 10,-6 22,1 11,7 21,18 21,24l0 6c0,3 8,10 18,16l533 308 58 33 0 0c8,4 17,6 27,6l0 -24c-10,0 -19,-2 -27,-6z"/>
   <path class="fil93" d="M1764 2593l0 0 -37 -21 -424 -245 -135 -78c-9,-5 -17,-7 -18,-4l0 0 0 6c0,7 -9,7 -21,0 -11,-7 -17,-15 -17,-21l0 -7c0,-3 -1,-7 -3,-8l-3 -2c-2,-1 -4,-2 -7,-3 -2,-2 -5,-4 -8,-5 -4,-2 -7,-2 -10,1l-1 1 -2 2 -1 1c-1,2 -2,4 -3,6 0,2 -1,4 -2,6 0,2 -1,4 -1,7 0,1 0,3 -1,4 0,1 0,2 0,4 0,2 0,5 0,8l0 141 21 0 0 -141c0,-3 0,-5 0,-7l1 -5 0 -1c1,17 17,32 31,40 6,3 16,8 26,8 7,0 14,-3 18,-7l2 1c1,1 3,1 4,2l533 308 58 33 0 0 0 1c8,4 17,6 27,6l0 -24c-11,0 -19,-3 -27,-7z"/>
   <path class="fil92" d="M2708 2070l0 24c0,6 -3,11 -11,16l0 0 -821 474 -58 33 0 0 0 0c-7,5 -17,7 -27,7l0 -24c10,0 20,-2 27,-7l37 -21 0 0 842 -486c8,-5 11,-10 11,-16z"/>
   <polygon class="fil20" points="1167,2298 1367,2418 1167,2307 "/>
   <polygon class="fil20" points="1167,2396 1494,2590 1167,2406 "/>
   <polygon class="fil83" points="1791,2767 1961,2663 1791,2755 "/>
   <polygon class="fil83" points="1791,2681 2082,2507 1791,2670 "/>
   <path class="fil95" d="M1151 2244l0 0c0,0 0,-1 0,-1 0,0 0,1 0,1l0 0zm3 -1c-1,0 -1,0 -1,0 -1,0 -1,0 -1,0 0,0 0,0 1,0 0,0 0,0 1,0 0,0 0,0 0,0z"/>
   <path class="fil96" d="M1151 2244l4 -3 544 -314c10,23 24,43 39,61 -6,16 -7,32 -3,47 -228,71 -547,195 -581,208 -1,0 -1,0 -1,0 -1,0 -1,0 -1,0 0,0 0,0 -1,0 0,0 0,1 0,1z"/>
   <path class="fil96" d="M2697 2054c-102,-53 -306,-80 -508,-80 0,0 -1,0 -2,0 -1,-11 -3,-21 -8,-31 28,-53 38,-115 32,-169l486 280z"/>
   <path class="fil97" d="M1151 2244c0,-1 1,-1 2,-1 0,0 0,0 1,0 0,0 0,0 0,0l-3 1z"/>
   <path class="fil98" d="M1143 2150l532 -307c0,4 1,8 1,12 -225,125 -533,295 -533,295z"/>
   <path class="fil99" d="M1925 2127c-51,0 -101,-10 -137,-31 -29,-17 -47,-38 -53,-61 14,-5 28,-9 42,-13 33,23 71,39 112,46 20,4 40,6 61,6 65,0 129,-20 176,-63 0,0 1,0 1,0 0,0 0,0 0,0 0,0 0,-1 0,-1 0,0 0,0 0,0 0,0 0,0 0,0 1,0 1,0 1,0 0,0 0,0 0,0 7,-7 14,-14 20,-21 0,-1 0,-1 0,-1 0,0 0,0 0,0 1,0 1,0 1,0 0,0 0,-1 0,-1 0,0 0,0 0,0 0,0 1,0 1,0 0,-1 0,-1 0,-1 0,0 0,0 0,0 3,-4 6,-8 9,-12 10,0 19,0 28,0 1,37 -25,77 -79,108 -52,30 -119,45 -183,45z"/>
   <path class="fil100" d="M1735 2035c-4,-15 -3,-31 3,-47 11,12 23,23 35,32 0,0 0,0 0,0 0,0 0,0 0,0 0,0 0,0 0,0 1,0 1,0 1,0 0,0 0,0 0,0 0,1 0,1 0,1l0 0c1,0 1,0 1,0 1,1 1,1 2,1 -14,4 -28,8 -42,13zm424 -61c8,-10 14,-21 20,-31 5,10 7,20 8,31 -9,0 -18,0 -28,0z"/>
   <path class="fil37" d="M1856 1620c-42,3 -116,9 -162,103 -52,107 0,241 80,298 101,71 259,75 352,-10 103,-94 111,-271 40,-349 -70,-78 -178,-56 -206,-44 -27,12 -49,9 -70,5 -11,-1 -22,-3 -34,-3z"/>
   <path class="fil101" d="M2127 2011c0,0 0,0 0,0 0,0 0,0 0,0zm0 -1c0,0 0,0 0,0 0,0 0,0 0,0zm0 0c1,0 1,0 1,0 0,0 0,0 -1,0zm1 0c1,-2 3,-3 4,-4 0,0 0,-1 0,-1 0,0 0,0 1,0 5,-5 10,-11 15,-16 -6,7 -13,14 -20,21z"/>
   <path class="fil102" d="M1774 2020c0,0 0,0 0,0 0,0 0,0 0,0zm-1 0c0,0 0,0 0,0 0,0 0,0 0,0zm0 0c0,0 0,0 0,0 0,0 0,0 0,0z"/>
   <path class="fil101" d="M2148 1988c0,0 0,0 0,0 0,0 0,0 0,0zm1 0c0,-1 0,-1 0,-1 0,0 0,1 0,1zm0 -1c0,0 1,0 1,0 0,0 -1,0 -1,0zm1 -1c0,0 0,0 0,0 0,0 0,0 0,0z"/>
   <path class="fil103" d="M1920 2048c-93,0 -160,-38 -173,-51 -11,-11 -21,-23 -29,-36 17,13 35,23 55,30 20,16 38,24 45,24 1,0 2,-1 3,-1 2,-2 1,-6 -2,-12 15,3 32,4 48,4 68,0 140,-20 200,-53 120,-66 141,-195 136,-220 22,78 6,181 -53,253 0,0 0,0 0,0 0,0 0,0 0,1 0,0 -1,0 -1,0 0,0 0,0 0,0 0,0 0,0 0,1 0,0 0,0 -1,0 0,0 0,0 0,0 0,0 0,0 0,1 -5,5 -10,11 -15,16 30,-29 51,-66 64,-106 -16,38 -75,114 -206,142 -25,5 -49,7 -71,7zm-146 -28c0,0 0,0 0,0 0,0 0,0 0,0 0,0 0,0 0,0 0,0 0,0 0,0zm0 0c0,0 -1,0 -1,0 0,0 0,0 0,0 0,0 0,0 0,0 0,0 0,0 1,0zm-1 0c0,0 0,0 0,0 0,0 0,0 0,0 0,0 0,-1 0,-1 0,1 0,1 0,1l0 0zm0 -1c0,0 0,0 -1,0 1,0 1,0 1,0zm-1 0c0,0 0,0 0,0 0,0 0,0 0,0zm0 0c0,0 0,0 0,-1 0,1 0,1 0,1zm-1 -1c0,0 0,0 0,0 0,0 0,0 0,0zm0 0c0,0 0,0 -1,0 1,0 1,0 1,0zm-1 0c0,0 0,-1 0,-1 0,0 0,1 0,1zm362 -12c0,0 0,-1 0,-1 0,0 0,1 0,1z"/>
   <path class="fil38" d="M1900 1702c-15,-12 -29,-17 -36,0 -8,18 32,46 76,33 44,-12 59,-41 58,-55 0,0 -20,31 -49,34 -21,3 -41,-5 -49,-12z"/>
   <path class="fil104" d="M1819 2002c-16,-2 -31,-6 -46,-11 -28,-23 -61,-62 -70,-115 -8,-47 -4,-113 21,-159 20,-35 57,-59 84,-59 2,0 3,0 4,0 45,4 25,93 -12,190 -30,76 7,131 19,154zm-13 -331c-4,0 -9,1 -15,3 -28,9 -60,53 -68,85 -9,31 -5,53 0,57 0,0 1,0 1,0 13,0 64,-50 81,-74 23,-30 29,-71 1,-71z"/>
   <path class="fil105" d="M1818 2015c-7,0 -25,-8 -45,-24 15,5 30,9 46,11 3,6 4,10 2,12 -1,0 -2,1 -3,1z"/>
   <path class="fil106" d="M1724 1816c0,0 -1,0 -1,0 -5,-4 -9,-26 0,-57 8,-32 40,-76 68,-85 6,-2 11,-3 15,-3 28,0 22,41 -1,71 -17,24 -68,74 -81,74z"/>
   <path class="fil107" d="M1950 2074c-21,0 -41,-2 -61,-6l0 0c20,4 40,6 61,6 65,0 129,-20 176,-63 0,0 1,0 1,0 0,0 -1,0 -1,0 -47,43 -111,63 -176,63zm177 -63c0,0 0,-1 0,-1 0,0 0,1 0,1zm0 -1c0,0 0,0 0,0 0,0 0,0 0,0zm1 0c0,0 0,0 0,0 0,0 0,0 0,0z"/>
   <path class="fil108" d="M1774 2021l0 0c0,0 0,0 0,-1 0,1 0,1 0,1zm0 -1c0,0 0,0 0,0 0,0 0,0 0,0zm-1 0c0,0 0,0 0,0 0,0 0,0 0,0zm0 -1c0,0 0,0 0,0 0,0 0,0 0,0zm-1 0c0,0 0,0 0,0 0,0 0,0 0,0zm0 0c0,0 0,0 0,0 0,0 0,0 0,0zm-1 -1c0,0 0,0 0,0 0,0 0,0 0,0zm0 0c0,0 0,0 0,0 0,0 0,0 0,0zm-1 0c0,0 0,0 0,0 0,0 0,0 0,0zm0 -1c-8,-6 -16,-13 -24,-21 0,1 1,1 1,1 7,8 15,14 23,20z"/>
   <path class="fil109" d="M1950 2074c-21,0 -41,-2 -61,-6 20,4 40,6 61,6 65,0 129,-20 176,-63 2,-2 4,-3 6,-5 -1,1 -3,2 -4,4 0,0 0,0 0,0 0,0 0,0 -1,0 0,0 0,0 0,0 0,0 0,0 0,0 0,0 0,1 0,1 0,0 0,0 0,0 0,0 -1,0 -1,0 -47,43 -111,63 -176,63zm182 -69c0,0 0,0 1,0 -1,0 -1,0 -1,0z"/>
   <path class="fil110" d="M1950 2074c-21,0 -41,-2 -61,-6 -41,-8 -81,-24 -114,-47 0,0 0,0 -1,0l0 0c0,0 0,0 0,-1 0,0 0,0 0,0 0,0 0,0 0,0 -1,0 -1,0 -1,0 0,0 0,0 0,0 0,0 0,0 0,-1 0,0 0,0 0,0 -1,0 -1,0 -1,0 0,0 0,0 0,0 0,0 0,0 0,0 0,0 0,0 0,0 0,0 -1,0 -1,-1 0,0 0,0 0,0 0,0 0,0 0,0 0,0 0,0 0,0 -1,0 -1,0 -1,0 0,0 0,0 0,0 0,0 0,-1 0,-1 -8,-6 -16,-12 -23,-20 13,13 80,51 173,51 22,0 46,-2 71,-7 131,-28 190,-104 206,-142 -13,40 -34,77 -64,106 -1,0 -1,0 -1,0 0,0 0,1 0,1 -2,2 -4,3 -6,5 -47,43 -111,63 -176,63z"/>
   <path class="fil108" d="M1746 1996c0,0 0,0 0,0 0,0 0,0 0,0z"/>
   <path class="fil32" d="M1940 1724c0,0 0,-63 -20,-120 -20,-56 -55,-95 -64,-99 -10,-5 -26,-8 -48,-8 -23,1 -50,16 -42,25 7,8 40,15 79,51 39,37 77,109 77,151 0,0 8,6 18,0z"/>
   <path class="fil111" d="M1854 1504l-2 -1 0 0c-10,-3 -25,-6 -44,-6 -17,1 -36,9 -42,17 -1,3 4,7 24,10 20,3 41,1 59,-5 9,-3 12,-11 5,-15z"/>
   <path class="fil112" d="M1911 1653c-18,-50 -72,-92 -109,-111l0 0c13,7 27,17 43,31 39,37 77,109 77,151 0,0 8,6 18,0 0,0 0,-15 -2,-37 -2,20 -11,13 -27,-34z"/>
   <path class="fil113" d="M1929 1636c27,5 72,-4 98,-38 31,-41 11,-94 11,-94 0,0 -49,-11 -86,27 -28,28 -32,81 -23,105z"/>
   <path class="fil114" d="M2038 1504c0,0 -49,-11 -86,27 -28,28 -32,81 -23,105 25,-78 109,-132 109,-132z"/>
   <polygon class="fil9" points="2076,3599 1906,3501 2840,2962 3009,3060 "/>
   <polygon class="fil58" points="2076,3571 1906,3473 2840,2934 3009,3032 "/>
   <path class="fil57" d="M2840 2934c-179,103 -599,362 -723,511 -57,69 -41,126 -41,126l-170 -98 934 -539z"/>
   <path class="fil115" d="M2100 3557l0 0 -26 -15c0,-3 1,-7 2,-11l35 20 -11 6z"/>
   <path class="fil116" d="M2074 3542l-85 -49c-3,-2 -4,-5 -2,-8 1,-1 2,-2 4,-2 1,0 2,0 3,1l82 47c-1,4 -2,8 -2,11z"/>
   <path class="fil115" d="M2247 3472l-101 -58c2,-3 5,-5 7,-8l104 60 -10 6z"/>
   <path class="fil116" d="M2146 3414l-11 -6c-2,-1 -3,-5 -2,-7 1,-2 3,-3 5,-3 1,0 2,0 2,1l13 7c-2,3 -5,5 -7,8z"/>
   <path class="fil115" d="M2393 3388l-111 -65c-3,-1 -4,-4 -2,-7 1,-1 3,-2 4,-2 1,0 2,0 3,0l117 68 -11 6z"/>
   <path class="fil115" d="M2540 3303l0 0 -112 -64c-2,-2 -3,-5 -2,-7 1,-2 3,-3 5,-3 1,0 2,0 3,1l116 67 -10 6z"/>
   <path class="fil115" d="M2687 3219l-112 -65c-3,-1 -3,-5 -2,-7 1,-2 3,-3 4,-3 1,0 2,1 3,1l117 68 -3 1 -7 5z"/>
   <path class="fil115" d="M2833 3134l-112 -65c-2,-1 -3,-4 -1,-7 1,-1 2,-2 4,-2 1,0 2,0 3,0l117 68 -11 6z"/>
   <path class="fil115" d="M2980 3049l-112 -64c-2,-2 -3,-5 -2,-7 1,-2 3,-3 5,-3 1,0 1,0 2,1l117 67 -10 6z"/>
   <path class="fil115" d="M2128 3541l-49 -28c1,-3 3,-6 4,-10l55 32 -10 6z"/>
   <path class="fil116" d="M2079 3513l-21 -12c-2,-1 -3,-4 -2,-7 1,-2 3,-3 5,-3 1,0 2,1 3,1l19 11c-1,4 -3,7 -4,10z"/>
   <path class="fil115" d="M2158 3524l-67 -39c1,-3 3,-6 5,-9l73 42 -11 6z"/>
   <path class="fil116" d="M2091 3485l-2 -1c-3,-2 -4,-5 -2,-8 1,-1 3,-2 4,-2 1,0 2,0 3,0l2 2c-2,3 -4,6 -5,9z"/>
   <path class="fil115" d="M2189 3506l0 0 -70 -40c-2,-1 -3,-5 -2,-7 2,-2 3,-3 5,-3 1,0 2,0 3,1l74 43 -10 6z"/>
   <path class="fil115" d="M2219 3488l-69 -40c-3,-1 -3,-4 -2,-7 1,-1 3,-2 5,-2 0,0 1,0 2,0l75 43 -11 6z"/>
   <path class="fil115" d="M2277 3455l-71 -41c-3,-1 -3,-4 -2,-7 1,-2 3,-3 5,-3 0,0 1,1 2,1l76 44 -10 6z"/>
   <path class="fil115" d="M2307 3437l-70 -40c-3,-2 -4,-5 -2,-8 1,-1 2,-2 4,-2 1,0 2,0 3,1l76 44 -11 5z"/>
   <path class="fil115" d="M2338 3420l-71 -41c-2,-1 -3,-5 -2,-7 1,-2 3,-3 5,-3 1,0 2,0 2,1l76 44 -9 5 -1 1z"/>
   <path class="fil115" d="M2368 3402l-70 -41c-3,-1 -4,-4 -2,-7 1,-1 2,-2 4,-2 1,0 2,0 3,0l76 44 -11 6z"/>
   <path class="fil115" d="M2426 3369l-72 -42c-3,-1 -4,-4 -2,-7 1,-2 3,-3 4,-3 1,0 2,1 3,1l77 45 -10 6z"/>
   <path class="fil115" d="M2456 3351l-72 -41c-2,-2 -3,-5 -2,-8 1,-1 3,-2 5,-2 1,0 2,0 3,1l77 44 -11 6z"/>
   <path class="fil115" d="M2487 3334l-72 -42c-3,-1 -4,-5 -2,-7 1,-2 3,-3 4,-3 1,0 2,0 3,1l78 45 -11 6z"/>
   <path class="fil115" d="M2518 3316l-72 -42c-3,-1 -4,-4 -3,-7 1,-1 3,-2 5,-2 1,0 2,0 3,0l77 45 -2 1 -8 5z"/>
   <path class="fil115" d="M2567 3288l0 0 -69 -40c-3,-2 -4,-5 -2,-7 1,-2 2,-3 4,-3 1,0 2,0 3,1l74 43 -10 6z"/>
   <path class="fil115" d="M2597 3270l-69 -40c-2,-1 -3,-5 -2,-7 1,-2 3,-3 5,-3 1,0 2,1 2,1l75 43 -11 6z"/>
   <path class="fil115" d="M2628 3252l-69 -40c-3,-1 -4,-4 -2,-7 1,-1 3,-2 4,-2 1,0 2,0 3,0l74 43 -10 6z"/>
   <path class="fil115" d="M2658 3235l-69 -40c-2,-2 -3,-5 -2,-7 1,-2 3,-3 5,-3 1,0 2,0 3,1l74 43 -11 6z"/>
   <path class="fil115" d="M2713 3203l-70 -40c-3,-2 -4,-5 -2,-7 1,-2 2,-3 4,-3 1,0 2,0 3,1l75 43 -10 6z"/>
   <path class="fil115" d="M2744 3186l-71 -41c-2,-1 -3,-5 -2,-7 1,-2 3,-3 5,-3 1,0 2,1 2,1l76 44 -10 6z"/>
   <path class="fil115" d="M2774 3168l-70 -41c-3,-1 -4,-4 -2,-7 1,-1 3,-2 4,-2 1,0 2,0 3,0l75 44 -10 6z"/>
   <path class="fil115" d="M2805 3150l-71 -40c-2,-2 -3,-5 -2,-7 1,-2 3,-3 5,-3 1,0 2,0 3,1l75 43 -10 6z"/>
   <path class="fil117" d="M2860 3119l-70 -41c-3,-1 -4,-4 -2,-7 1,-2 2,-2 4,-2 1,0 2,0 3,0l75 44m0 0l-10 6"/>
   <path class="fil115" d="M2890 3101l-70 -40c-2,-2 -3,-5 -2,-7 1,-2 3,-3 5,-3 1,0 2,0 2,1l76 43 -11 6z"/>
   <path class="fil115" d="M2921 3083l-70 -40c-3,-1 -4,-5 -2,-7 1,-2 3,-3 4,-3 1,0 2,0 3,1l75 43 -10 6z"/>
   <path class="fil115" d="M2951 3066l-70 -41c-2,-1 -3,-4 -2,-7 1,-1 3,-2 5,-2 1,0 2,0 2,0l76 44 -11 6z"/>
   <polygon class="fil118" points="1906,3473 2076,3571 2076,3588 1906,3490 "/>
   <polygon class="fil119" points="3009,3032 3009,3049 2076,3588 2076,3571 "/>
   <path class="fil9" d="M859 3233c-151,-61 -393,-61 -540,0 -146,61 -146,159 0,220 147,60 389,60 540,0 152,-61 152,-159 0,-220z"/>
   <path class="fil18" d="M950 3262l-261 -382 0 -332 -195 0 0 332 -262 382c-10,15 -17,33 -16,51 0,34 19,66 49,82l0 0c202,116 450,116 651,0l3 -1 0 0c2,-1 3,-2 5,-3 2,-1 5,-3 7,-5 1,-1 3,-2 5,-4 1,-1 3,-3 5,-5 8,-8 15,-18 19,-29 1,-3 2,-6 3,-8 1,-2 1,-4 2,-5 0,-3 1,-6 1,-8l0 -1c1,-4 1,-8 1,-13 0,-18 -6,-36 -17,-51z"/>
   <path class="fil120" d="M556 2912l0 -333 -42 0 0 313 -265 385c-16,26 -11,66 10,92 12,15 46,35 74,47 17,7 79,33 124,40 0,0 -64,-27 -95,-58 -26,-24 -2,-79 21,-121l173 -365z"/>
   <path class="fil121" d="M950 3262l-261 -382 0 -306 -98 18 0 320c0,0 76,312 87,357 30,116 54,212 -85,213 112,0 223,-29 323,-87l3 -1 0 0c2,-1 3,-2 5,-3 2,-1 5,-3 7,-5 1,-1 3,-2 5,-4 1,-1 3,-3 5,-5 8,-8 15,-18 19,-29 1,-3 2,-6 3,-8 1,-2 1,-4 2,-5 0,-3 1,-6 1,-8l0 -1c1,-4 1,-8 1,-13 0,-18 -6,-36 -17,-51z"/>
   <path class="fil122" d="M636 2577l0 337c0,0 194,338 213,375 23,47 9,82 -21,100 -159,98 -341,71 -341,71 57,9 146,11 228,-5 77,-14 148,-44 160,-50 24,-12 35,-17 50,-36 17,-21 25,-49 9,-83 -17,-34 -272,-394 -272,-394l0 -315 -26 0z"/>
   <path class="fil37" d="M308 3363c-17,0 -33,-8 -42,-23 -9,-14 -11,-30 -5,-45l161 -236 339 0 161 236c6,15 4,31 -5,45 -9,15 -25,23 -42,23l-567 0z"/>
   <path class="fil37" d="M922 3295l-161 -236 -339 0 -161 236c-6,15 -4,31 5,45 4,7 9,12 15,16l0 0 4 2 0 0c190,109 424,109 614,-1l0 0 0 0 0 0c7,-4 13,-10 18,-17 9,-14 11,-30 5,-45z"/>
   <path class="fil38" d="M922 3295l-161 -236 -134 0c21,87 45,186 51,210 17,64 31,123 18,162 70,-12 139,-37 203,-74l0 0 0 0 0 0c7,-4 13,-10 18,-17 9,-14 11,-30 5,-45z"/>
   <path class="fil123" d="M761 3059l-42 0c55,97 119,210 130,230 23,47 9,82 -21,100 -5,3 -10,6 -14,9 29,-11 57,-25 85,-41l0 0 0 0 0 0c7,-4 13,-10 18,-17 9,-14 11,-30 5,-45l-161 -236z"/>
   <path class="fil104" d="M487 3059l-65 0 -161 236c-6,15 -4,31 5,45 4,7 9,12 15,16l0 0 4 2 0 0c24,14 48,25 73,36 -19,-27 4,-78 25,-117l104 -218z"/>
   <path class="fil124" d="M836 3288c-7,0 -14,-7 -14,-15 0,-6 5,-12 11,-13 5,10 10,18 13,24 -3,2 -6,4 -10,4z"/>
   <path class="fil125" d="M846 3284c-3,-6 -8,-14 -13,-24 1,-1 2,-1 3,-1 8,0 15,6 15,14 0,5 -2,8 -5,11z"/>
   <path class="fil124" d="M770 3247c-24,0 -43,-19 -43,-43 0,-23 19,-42 43,-42 2,0 5,0 8,0 11,21 22,40 32,57 -6,16 -22,28 -40,28z"/>
   <path class="fil125" d="M810 3219c-10,-17 -21,-36 -32,-57 19,4 34,21 34,42 0,5 -1,10 -2,15z"/>
   <path class="fil126" d="M377 3304c-3,0 -5,-1 -7,-1 4,-9 9,-18 13,-26l6 -12c5,4 9,11 9,18 0,11 -10,21 -21,21z"/>
   <path class="fil127" d="M370 3303c-8,-3 -15,-11 -15,-20 0,-12 10,-21 22,-21 4,0 8,1 12,3l-6 12c-4,8 -9,17 -13,26z"/>
   <path class="fil126" d="M427 3202c-3,0 -5,0 -8,-1l23 -48c7,5 11,13 11,22 0,15 -12,27 -26,27z"/>
   <path class="fil127" d="M419 3201c-11,-3 -19,-13 -19,-26 0,-15 12,-27 27,-27 5,0 11,2 15,5l-23 48z"/>
   <path class="fil128" d="M556 3219c-14,0 -25,-12 -25,-26 0,-14 11,-25 25,-25 14,0 26,11 26,25 0,14 -12,26 -26,26z"/>
   <path class="fil128" d="M515 3379c-20,0 -36,-16 -36,-35 0,-20 16,-36 36,-36 20,0 36,16 36,36 0,19 -16,35 -36,35z"/>
   <path class="fil128" d="M616 3350c-12,0 -21,-10 -21,-22 0,-12 9,-21 21,-21 12,0 22,9 22,21 0,12 -10,22 -22,22z"/>
   <polygon class="fil18" points="662,2577 676,2577 669,2892 837,3142 662,2892 "/>
   <path class="fil122" d="M689 2574c0,0 -20,18 -98,18 -77,0 -97,-17 -97,-17l0 -27 195 0 0 26z"/>
   <path class="fil129" d="M689 2561c0,0 -31,18 -98,18 -66,0 -97,-18 -97,-18l0 -13 195 0 0 13z"/>
   <path class="fil104" d="M712 3020c-68,-27 -177,-27 -243,0 -66,28 -66,72 0,99 66,27 175,27 243,0 68,-27 68,-71 0,-99z"/>
   <path class="fil18" d="M676 2484c-48,-19 -124,-19 -170,0 -47,19 -47,50 0,70 46,19 122,19 170,0 48,-20 48,-51 0,-70z"/>
   <path class="fil120" d="M524 2521c8,6 36,20 106,12 63,-7 54,-38 4,-42 -50,-4 -110,30 -110,30z"/>
   <path class="fil121" d="M646 2494c-31,-9 -80,-9 -110,0 -30,8 -30,22 0,31 30,9 79,9 110,0 31,-9 31,-23 0,-31z"/>
   <path class="fil37" d="M712 3020c-41,-16 -98,-23 -150,-19 66,-1 134,18 171,44 37,26 12,55 11,57 33,-27 23,-60 -32,-82z"/>
   <path class="fil130" d="M733 3109c-84,41 -217,16 -254,-19 -37,-36 15,-72 54,-86 -23,3 -45,9 -64,16 -66,28 -66,72 0,99 66,27 175,27 243,0 8,-3 15,-7 21,-10z"/>
   <path class="fil121" d="M676 2554c16,-7 26,-14 31,-22 -41,33 -143,28 -186,14 -42,-15 -43,-43 -27,-56 -34,19 -31,46 12,64 46,19 122,19 170,0z"/>
   <path class="fil122" d="M646 2494c-15,-5 -35,-7 -55,-7l0 45c20,0 40,-3 55,-7 31,-9 31,-23 0,-31z"/>
   <path class="fil120" d="M676 2484c-38,-15 -93,-18 -137,-9 4,-1 90,-10 136,13 39,20 37,38 27,50 19,-18 11,-39 -26,-54z"/>
   <path class="fil9" d="M3742 2986c-81,-30 -209,-30 -286,0 -78,31 -78,80 0,110 77,31 205,31 286,0 80,-30 80,-79 0,-110z"/>
   <path class="fil131" d="M3748 2648c-84,-31 -217,-31 -299,0 -81,31 -81,81 0,112 82,31 215,31 299,0 84,-31 84,-81 0,-112z"/>
   <path class="fil3" d="M3729 2967c-73,-30 -190,-30 -261,0 -71,31 -71,80 0,110 71,31 188,31 261,0 74,-30 74,-79 0,-110z"/>
   <polygon class="fil3" points="3818,2512 3785,3026 3415,3026 3382,2513 "/>
   <path class="fil7" d="M3415 3026l0 0c2,18 18,35 49,49l-17 -556 -13 -6 -52 0 33 513z"/>
   <path class="fil6" d="M3784 3026l1 0 31 -486 -75 44c-5,111 -23,392 -26,435 -3,43 -118,103 -277,41 8,6 18,12 30,17 71,31 188,31 261,0 35,-14 53,-32 55,-51z"/>
   <path class="fil6" d="M3389 2617c10,7 22,14 36,19 94,40 250,40 347,0 15,-6 28,-13 39,-20l7 -104 -436 1 7 104z"/>
   <path class="fil132" d="M3389 2579c0,0 43,45 152,65 109,20 243,-25 243,-25 0,0 -23,389 -28,410 -4,20 -64,71 -158,71 47,0 95,-7 131,-23 35,-14 53,-32 55,-51l1 0 33 -514 -356 1 -73 66z"/>
   <path class="fil3" d="M3753 2449c-87,-35 -225,-35 -308,0 -84,34 -84,90 0,125 83,35 221,35 308,0 86,-35 86,-91 0,-125z"/>
   <path class="fil32" d="M3845 2528l0 -79 -51 0c-7,-4 -14,-7 -22,-10 -97,-39 -253,-39 -347,0 -8,3 -15,7 -21,10l-50 0 0 79c0,25 24,51 71,70 94,39 250,39 347,0 49,-19 73,-45 73,-70z"/>
   <path class="fil131" d="M3772 2598c49,-19 73,-45 73,-70l0 -79 -51 0 -3 -2 -108 76c4,33 1,61 -6,72 -12,17 -140,36 -252,3 94,39 250,39 347,0z"/>
   <path class="fil111" d="M3772 2378c-97,-39 -253,-39 -347,0 -94,40 -94,103 0,142 94,39 250,39 347,0 97,-39 97,-102 0,-142z"/>
   <path class="fil133" d="M3772 2520c10,-4 18,-8 26,-13 -27,11 -122,32 -213,9 -100,-26 -145,-103 -99,-156 -22,5 -43,11 -61,18 -94,40 -94,103 0,142 94,39 250,39 347,0z"/>
   <path class="fil32" d="M3729 2388c-73,-27 -190,-27 -261,0 -70,27 -70,70 0,96 71,27 188,27 261,0 74,-26 74,-69 0,-96z"/>
   <polygon class="fil32" points="3783,2427 3763,2355 3437,2355 3417,2427 "/>
   <path class="fil131" d="M3763 2355c-24,-9 -87,18 -118,15l-11 21c16,57 16,75 12,85 -6,15 -96,29 -174,10 71,25 185,25 257,-2 43,-15 61,-37 54,-57 -5,-16 -20,-72 -20,-72z"/>
   <path class="fil111" d="M3715 2319c-65,-24 -169,-24 -232,0 -63,24 -63,62 0,86 63,23 167,23 232,0 65,-24 65,-62 0,-86z"/>
   <path class="fil133" d="M3551 2304c-25,2 -49,8 -68,15 -63,24 -63,62 0,86 63,23 167,23 232,0 -153,-9 -200,-92 -164,-101z"/>
   <path class="fil32" d="M3741 2362c0,1 -2,4 -7,8 -5,4 -13,8 -27,13 -28,11 -68,17 -109,17 -40,0 -80,-6 -107,-17 -13,-4 -21,-9 -26,-13 -5,-4 -7,-8 -7,-8 0,-2 6,-12 33,-22 27,-10 67,-16 107,-16 41,0 81,6 109,16 27,10 34,20 34,22z"/>
   <path class="fil134" d="M3734 2370c-5,4 -13,8 -27,13 -28,11 -68,17 -109,17 -40,0 -80,-6 -107,-17 -13,-4 -21,-9 -26,-13 5,-4 13,-9 26,-14 27,-10 67,-16 107,-16 41,0 81,6 109,16 14,5 22,10 27,14z"/>
   <path class="fil32" d="M3669 2371c9,-5 21,-7 26,-5 4,3 0,10 -9,15 -10,6 -21,8 -26,5 -5,-3 -1,-9 9,-15z"/>
   <path class="fil135" d="M3491 2356c0,0 0,0 0,0 0,0 0,0 0,0zm0 0c0,0 0,0 0,0 0,0 0,0 0,0z"/>
   <path class="fil136" d="M3598 2400c-39,0 -77,-6 -105,-16 -1,0 -1,0 -2,-1 -1,0 -1,0 -1,0 -13,-5 -20,-9 -25,-13l0 0c5,-4 13,-9 26,-14l0 0c0,0 0,0 0,0 0,0 0,0 0,0 0,0 0,0 0,0 12,-4 27,-8 42,-11 11,18 39,40 84,54 -6,1 -13,1 -19,1z"/>
   <path class="fil137" d="M3483 2319c0,0 0,0 0,0 0,0 0,0 0,0zm0 0c1,0 1,-1 1,-1 0,0 0,0 0,0 0,0 0,1 -1,1 0,0 0,0 0,0zm1 -1c0,0 0,0 0,0l0 0c0,0 0,0 0,0z"/>
   <path class="fil138" d="M3485 2405c0,0 0,0 0,0 0,0 0,0 0,0zm-1 0c0,0 0,0 0,0 0,0 0,0 0,0zm0 0c0,0 -1,0 -1,0 0,0 1,0 1,0z"/>
   <path class="fil139" d="M3483 2319l0 0c0,0 0,0 0,0 0,0 0,0 0,0zm0 0c1,0 1,-1 1,-1 0,0 0,1 -1,1zm1 -1c0,0 0,0 0,0 0,0 0,0 0,0zm0 0c10,-3 20,-6 31,-9 -11,3 -21,6 -31,9zm57 -8c2,-3 5,-5 9,-6 16,-2 32,-3 48,-3 9,0 17,0 26,1 -1,0 -2,0 -3,0 -19,0 -49,2 -80,8l0 0zm-26 -1c0,0 1,0 1,0 0,0 -1,0 -1,0z"/>
   <path class="fil140" d="M3524 2416c-15,-3 -28,-7 -39,-11 0,0 0,0 0,0 -1,0 -1,0 -1,0 0,0 0,0 0,0 0,0 0,0 0,0 0,0 -1,0 -1,0 0,0 0,0 0,0l0 0c-32,-12 -47,-28 -47,-43 0,-16 15,-31 47,-43l0 0c0,0 0,0 0,0 0,0 0,0 0,0 0,0 0,0 0,0 1,0 1,-1 1,-1 0,0 0,0 0,0 0,0 0,0 0,0 0,0 0,0 0,0l0 0c0,0 0,0 0,0 10,-3 20,-6 31,-9 0,0 0,0 0,0 0,0 1,0 1,0 11,-2 22,-4 34,-5 -4,1 -7,3 -9,6 -31,6 -63,15 -81,30 -37,30 18,67 64,76z"/>
   <path class="fil141" d="M3700 2540c-144,12 -274,-15 -318,-60 -34,-36 4,-82 32,-97 -83,40 -79,99 11,137 73,30 184,37 275,20z"/>
   <path class="fil111" d="M3401 2890c0,19 19,38 57,53 76,29 202,29 281,0 40,-15 60,-34 60,-53l12 -186c0,20 -21,41 -63,56 -84,31 -217,31 -299,0 -40,-15 -60,-36 -60,-56l12 186z"/>
   <path class="fil112" d="M3573 2901c-7,-10 -11,-21 -16,-32 -12,-20 -28,-34 -49,-42 -3,-2 -6,0 -8,2 -10,22 -4,52 18,74 22,22 52,28 73,18 1,-1 2,-3 1,-3 -7,-4 -13,-10 -19,-17z"/>
   <path class="fil112" d="M3520 2821c11,4 21,11 30,19 10,8 17,19 22,30 9,17 16,28 28,37 3,2 7,1 9,-1 14,-22 8,-55 -15,-79 -23,-22 -54,-29 -75,-17 -5,2 -4,9 1,11z"/>
   <path class="fil9" d="M3519 3404l-806 465c-13,7 -33,7 -45,0l-338 -195c-13,-7 -13,-19 0,-26l806 -466c12,-7 32,-7 45,0l338 196c13,7 13,18 0,26z"/>
   <path class="fil142" d="M3519 3338l-806 466c-13,7 -33,7 -45,0l-338 -195c-13,-7 -13,-19 0,-26l806 -466c12,-7 32,-7 45,0l338 196c13,7 13,18 0,25z"/>
   <polygon class="fil143" points="2947,3227 2868,3272 2868,3714 2947,3669 "/>
   <polygon class="fil143" points="2551,3455 2511,3478 2511,3713 2551,3736 "/>
   <path class="fil143" d="M2706 3365l-79 46 0 370 41 23c10,6 26,7 38,3l0 -442z"/>
   <polygon class="fil143" points="2358,3625 2437,3670 2437,3521 2358,3566 "/>
   <polygon class="fil143" points="3229,3506 3269,3483 3269,3168 3229,3145 "/>
   <polygon class="fil143" points="3454,3275 3376,3230 3376,3421 3454,3376 "/>
   <polygon class="fil143" points="2774,3769 2814,3746 2814,3303 2774,3326 "/>
   <path class="fil143" d="M3159 3112c-9,0 -17,2 -23,5l-117 68 0 442 140 -80 0 -435z"/>
   <path class="fil144" d="M3277 3232l63 36c4,2 10,2 13,0 3,-2 3,-5 -2,-7l-62 -36c-4,-2 -10,-3 -14,-1 -3,2 -2,5 2,8z"/>
   <path class="fil144" d="M3314 3218c4,-3 11,-3 16,0 4,2 4,6 0,9 -5,2 -12,2 -16,0 -4,-3 -4,-7 0,-9z"/>
   <path class="fil144" d="M3252 3210c3,-2 8,-2 12,0 3,2 3,5 0,7 -4,2 -9,2 -12,0 -4,-2 -4,-5 0,-7z"/>
   <path class="fil2" d="M2409 3557l667 -385c8,-5 21,-5 30,0l318 184c8,5 8,12 0,17l-667 385c-8,5 -21,5 -29,0l-319 -184c-8,-5 -8,-12 0,-17z"/>
   <path class="fil145" d="M2814 3725l0 0 54 -31 -54 31zm133 -76l0 0 72 -42 -72 42z"/>
   <path class="fil145" d="M3159 3527l0 0 70 -41 -70 41zm110 -64l0 0 99 -57c0,0 0,0 0,0l-99 57z"/>
   <polygon class="fil146" points="3229,3486 3229,3486 3269,3463 "/>
   <polygon class="fil146" points="3019,3607 3019,3607 3159,3527 "/>
   <path class="fil147" d="M2743 3762c-6,0 -11,-2 -15,-4l-22 -12 -79 -46 -76 -44 -40 -23 -74 -43 -28 -16c-1,-1 -2,-1 -3,-2 -2,-2 -2,-3 -3,-5 1,2 2,4 4,5l0 0 79 -15c46,25 120,48 235,48 22,0 47,-1 73,-3 218,-17 572,-196 574,-196l-99 57 -40 23 -70 41 -140 80 -72 42 -79 45 -54 31 -40 23 -17 10c-4,2 -9,4 -14,4z"/>
   <path class="fil148" d="M3428 3370l0 0c4,-4 3,-10 -4,-14l-318 -184c-9,-5 -22,-5 -30,0l-667 385c-7,4 -8,11 -2,15 1,-1 2,-1 3,-2l667 -385c8,-5 22,-5 30,0l318 184 3 1z"/>
   <path class="fil149" d="M2713 3854l806 -465c7,-4 10,-9 9,-14l0 0 0 -49 0 0c0,4 -3,9 -9,12l-806 466c-6,3 -15,5 -23,5 -8,0 -16,-2 -22,-5l-321 -185 -5 -3 -12 -7c-6,-4 -9,-8 -10,-12l0 49c0,5 3,9 10,13l338 195c6,4 14,6 22,6 8,0 17,-2 23,-6z"/>
   <path class="fil150" d="M2713 3854l806 -465c7,-4 10,-9 9,-14l0 0 0 -49 0 0c0,4 -3,9 -9,12l-806 466c-6,3 -15,5 -23,5l0 51c8,0 17,-2 23,-6z"/>
   <path class="fil144" d="M2531 3668c-7,0 -14,1 -19,4 -5,3 -8,7 -8,10 0,4 3,8 8,10l0 0c10,6 27,6 38,0 5,-2 7,-6 7,-10 0,-3 -2,-7 -7,-10 -5,-3 -12,-4 -19,-4zm0 33c-8,0 -15,-2 -21,-5l0 0c-6,-4 -10,-9 -10,-14 0,-5 4,-9 10,-13 11,-7 30,-7 42,0 6,4 9,8 9,13 0,5 -3,10 -9,14 -6,3 -14,5 -21,5z"/>
   <path class="fil144" d="M2524 3754c0,1 1,3 2,4 2,1 3,0 3,-2 0,-1 -1,-3 -3,-4 -1,-1 -2,0 -2,2z"/>
   <path class="fil144" d="M2536 3761c0,1 1,3 3,4 1,1 2,0 2,-1 0,-2 -1,-4 -2,-5 -2,-1 -3,0 -3,2z"/>
   <path class="fil144" d="M2549 3768c0,2 1,4 2,5 2,0 3,0 3,-2 0,-2 -1,-4 -3,-4 -1,-1 -2,-1 -2,1z"/>
   <path class="fil144" d="M2561 3775c0,2 2,4 3,5 1,1 3,0 3,-2 0,-1 -2,-3 -3,-4 -1,-1 -3,0 -3,1z"/>
   <path class="fil144" d="M2574 3783c0,1 1,3 3,4 1,1 2,0 2,-1 0,-2 -1,-4 -2,-5 -2,-1 -3,0 -3,2z"/>
   <path class="fil144" d="M2587 3790c0,2 1,3 2,4 2,1 3,0 3,-1 0,-2 -1,-4 -3,-5 -1,0 -2,0 -2,2z"/>
   <path class="fil144" d="M2599 3797c0,2 1,4 3,5 1,0 2,0 2,-2 0,-2 -1,-4 -2,-4 -2,-1 -3,-1 -3,1z"/>
   <path class="fil144" d="M2612 3804c0,2 1,4 2,5 2,1 3,0 3,-2 0,-1 -1,-3 -3,-4 -1,-1 -2,0 -2,1z"/>
   <path class="fil144" d="M2523 3740c0,2 1,4 3,5 1,1 2,0 2,-2 0,-1 -1,-3 -2,-4 -2,-1 -3,0 -3,1z"/>
   <path class="fil144" d="M2536 3748c0,1 1,3 2,4 2,1 3,0 3,-1 0,-2 -1,-4 -3,-5 -1,-1 -2,0 -2,2z"/>
   <path class="fil144" d="M2549 3755c0,2 1,3 2,4 1,1 3,1 3,-1 0,-2 -2,-4 -3,-5 -1,0 -2,0 -2,2z"/>
   <path class="fil144" d="M2561 3762c0,2 1,4 3,5 1,0 2,0 2,-2 0,-2 -1,-3 -2,-4 -2,-1 -3,0 -3,1z"/>
   <path class="fil144" d="M2574 3769c0,2 1,4 2,5 2,1 3,0 3,-2 0,-1 -1,-3 -3,-4 -1,-1 -2,0 -2,1z"/>
   <path class="fil144" d="M2586 3777c0,1 1,3 3,4 1,1 2,0 2,-1 0,-2 -1,-4 -2,-5 -2,-1 -3,0 -3,2z"/>
   <path class="fil144" d="M2599 3784c0,2 1,4 2,4 2,1 3,1 3,-1 0,-2 -1,-4 -3,-5 -1,0 -2,0 -2,2z"/>
   <path class="fil144" d="M2612 3791c0,2 1,4 2,5 1,0 3,0 3,-2 0,-1 -2,-3 -3,-4 -1,-1 -2,0 -2,1z"/>
   <path class="fil144" d="M2368 3664c0,1 2,3 3,4 1,1 3,0 3,-1 0,-2 -2,-4 -3,-5 -1,-1 -3,0 -3,2z"/>
   <path class="fil144" d="M2381 3671c0,2 1,4 3,4 1,1 2,1 2,-1 0,-2 -1,-4 -2,-5 -2,0 -3,0 -3,2z"/>
   <path class="fil144" d="M2394 3678c0,2 1,4 2,5 2,1 3,0 3,-2 0,-1 -1,-3 -3,-4 -1,-1 -2,0 -2,1z"/>
   <path class="fil144" d="M2406 3686c0,1 1,3 3,4 1,1 2,0 2,-2 0,-1 -1,-3 -2,-4 -2,-1 -3,0 -3,2z"/>
   <path class="fil144" d="M2419 3693c0,1 1,3 2,4 2,1 3,0 3,-1 0,-2 -1,-4 -3,-5 -1,0 -2,0 -2,2z"/>
   <path class="fil144" d="M2431 3700c0,2 1,4 3,5 1,0 3,0 3,-2 0,-2 -2,-4 -3,-4 -1,-1 -3,-1 -3,1z"/>
   <path class="fil144" d="M2444 3707c0,2 1,4 3,5 1,1 2,0 2,-2 0,-1 -1,-3 -2,-4 -2,-1 -3,0 -3,1z"/>
   <path class="fil144" d="M2457 3715c0,1 1,3 2,4 2,1 3,0 3,-1 0,-2 -1,-4 -3,-5 -1,-1 -2,0 -2,2z"/>
   <path class="fil144" d="M2368 3651c0,1 1,3 3,4 1,1 2,0 2,-1 0,-2 -1,-4 -2,-5 -2,-1 -3,0 -3,2z"/>
   <path class="fil144" d="M2381 3658c0,2 1,3 2,4 2,1 3,0 3,-1 0,-2 -1,-4 -3,-5 -1,0 -2,0 -2,2z"/>
   <path class="fil144" d="M2393 3665c0,2 1,4 3,5 1,0 2,0 2,-2 0,-2 -1,-4 -2,-4 -2,-1 -3,-1 -3,1z"/>
   <path class="fil144" d="M2406 3672c0,2 1,4 3,5 1,1 2,0 2,-2 0,-1 -1,-3 -2,-4 -2,-1 -3,0 -3,1z"/>
   <path class="fil144" d="M2418 3680c0,1 2,3 3,4 1,1 3,0 3,-1 0,-2 -2,-4 -3,-5 -1,-1 -3,0 -3,2z"/>
   <path class="fil144" d="M2431 3687c0,2 1,4 3,4 1,1 2,1 2,-1 0,-2 -1,-4 -2,-4 -2,-1 -3,-1 -3,1z"/>
   <path class="fil144" d="M2444 3694c0,2 1,4 2,5 2,0 3,0 3,-2 0,-2 -1,-3 -3,-4 -1,-1 -2,0 -2,1z"/>
   <path class="fil144" d="M2456 3701c0,2 1,4 3,5 1,1 2,0 2,-2 0,-1 -1,-3 -2,-4 -2,-1 -3,0 -3,1z"/>
   <polygon class="fil151" points="2473,3714 2514,3738 2514,3742 2473,3719 "/>
   <path class="fil144" d="M2358 3648c0,3 -1,4 -1,6 -2,2 -5,3 -8,1l-2 0c-6,-4 -11,-12 -11,-19 0,-5 3,-8 6,-8 2,0 3,1 5,2l3 1c4,5 8,11 8,17z"/>
   <path class="fil152" d="M2358 3648c0,3 -1,4 -1,6l-3 -1 -2 -1c-6,-3 -11,-12 -11,-18 0,-3 0,-5 1,-6 2,0 3,1 5,2l3 1c4,5 8,11 8,17z"/>
   <path class="fil153" d="M2690 3854l0 6c8,0 17,-2 23,-6l806 -465c7,-4 10,-9 9,-14l0 0 0 -49 0 0c0,4 -3,9 -9,12 -126,104 -463,309 -805,507 -7,5 -15,8 -24,9z"/>
   <path class="fil154" d="M3092 3181l0 0 0 0c6,0 11,1 15,4l318 184 3 1 -942 187c-10,-5 -18,-11 -26,-16l617 -356c4,-3 9,-4 15,-4z"/>
   <path class="fil155" d="M2407 3572l0 0c1,-1 2,-1 3,-2l50 -29c8,5 16,11 26,16l-79 15z"/>
   <path class="fil154" d="M3429 3360c-1,-1 -2,-2 -3,-3 1,1 2,2 3,3z"/>
   <path class="fil156" d="M2848 3303l20 -11 -20 11zm99 -56l0 0 72 -42 -72 42z"/>
   <polygon class="fil157" points="2868,3292 2868,3292 2947,3247 2878,3287 "/>
   <path class="fil157" d="M3019 3205l0 0 57 -33c2,-1 3,-2 5,-2 0,0 0,0 0,0 -2,0 -4,1 -5,2l-57 33z"/>
   <path class="fil154" d="M2878 3287l69 -40 72 -42 57 -33c1,-1 3,-2 5,-2 -2,0 -4,1 -5,2l-198 115z"/>
   <path class="fil158" d="M2407 3572l0 0 -4 -4c-1,-4 1,-8 6,-11l439 -254 20 -11 10 -5 198 -115c1,-1 3,-2 5,-2 0,0 0,0 0,0 3,-1 7,-2 10,-2 5,0 11,2 15,4l318 184c1,0 2,1 2,1 1,1 2,2 3,3 2,3 2,7 -1,10l0 0 -3 -1 -318 -184c-4,-3 -10,-4 -15,-4 -5,0 -11,1 -15,4l-617 356 -50 29c-1,1 -2,1 -3,2z"/>
  </g>
 </g>
</svg>
