<?xml version="1.0" encoding="UTF-8"?>
<!DOCTYPE svg PUBLIC "-//W3C//DTD SVG 1.1//EN" "http://www.w3.org/Graphics/SVG/1.1/DTD/svg11.dtd">
<!-- Creator: CorelDRAW X7 -->
<svg xmlns="http://www.w3.org/2000/svg" xml:space="preserve" width="254mm" height="254mm" version="1.1" style="shape-rendering:geometricPrecision; text-rendering:geometricPrecision; image-rendering:optimizeQuality; fill-rule:evenodd; clip-rule:evenodd"
viewBox="0 0 25400 25400"
 xmlns:xlink="http://www.w3.org/1999/xlink">
 <defs>
  <style type="text/css">
   <![CDATA[
    .fil0 {fill:#FEFEFE}
    .fil10 {fill:#F6B041}
    .fil7 {fill:#F2A188}
    .fil9 {fill:#EA5F66}
    .fil6 {fill:#D82348}
    .fil4 {fill:#DBDADA}
    .fil1 {fill:#CFEAEF}
    .fil2 {fill:#9FD6DE}
    .fil3 {fill:#196FAF}
    .fil5 {fill:#2E3061}
    .fil8 {fill:#00A1B0}
   ]]>
  </style>
   <clipPath id="id0">
    <path d="M22156 21741l-2191 0c769,-393 1520,-1045 2191,-1859l0 1859z"/>
   </clipPath>
   <clipPath id="id1">
    <path d="M12695 5667l0 1389c296,-470 618,-935 965,-1389l-965 0z"/>
   </clipPath>
   <clipPath id="id2">
    <path d="M12695 17073l0 4668 2390 0 0 -4091c-119,-304 -193,-608 -224,-910 -688,355 -1289,484 -1587,529 0,0 0,1 0,1 -54,8 -98,13 -131,16 0,0 0,0 0,0 -44,5 -67,6 -67,6 -133,-69 -260,-142 -381,-219z"/>
   </clipPath>
   <clipPath id="id3">
    <path d="M21754 15996c134,-177 268,-366 402,-566l0 472c-138,31 -272,62 -402,94z"/>
   </clipPath>
   <clipPath id="id4">
    <path d="M7947 21442l0 299 2408 0 0 -3065c-27,29 -55,57 -83,86 0,0 -18,5 -53,12 0,0 0,0 0,0 -27,5 -62,12 -106,19 0,0 0,0 0,0 -133,21 -343,45 -607,45 -188,0 -404,-12 -639,-46 351,838 275,1573 226,1854 0,0 0,0 0,0 -2,12 -4,24 -6,34 -11,57 -20,87 -20,87 -348,334 -725,554 -1120,675z"/>
   </clipPath>
   <clipPath id="id5">
    <path d="M15051 17560l0 4181 1950 0c-118,-75 -235,-160 -349,-256 0,0 -480,-1384 495,-2839 -771,-7 -1354,-210 -1613,-319 0,0 0,0 0,1 -41,-18 -74,-33 -99,-44 1,0 1,-1 1,-1 -33,-15 -50,-24 -50,-24 -139,-232 -250,-466 -335,-699z"/>
   </clipPath>
   <clipPath id="id6">
    <path d="M4011 13201c-358,-1378 -599,-3087 -660,-5205 1517,557 2982,1386 4235,2361 -142,216 -295,440 -460,675 -169,242 -350,461 -542,660 -131,-793 -268,-1585 -481,-2358 -43,-26 -85,-52 -128,-78 235,827 380,1676 521,2526 -92,90 -186,177 -282,259 -840,-1318 -1697,-2624 -2557,-3928 -55,-22 -110,-43 -165,-64 889,1348 1776,2697 2644,4057 -100,83 -203,161 -307,234 -827,-564 -1601,-1218 -2313,-1918 6,53 12,107 18,159 681,663 1418,1283 2203,1823 -444,299 -926,528 -1439,704 -136,-122 -269,-246 -399,-372 14,60 27,121 42,181 81,77 163,153 246,228 -59,19 -117,38 -176,56z"/>
   </clipPath>
   <clipPath id="id7">
    <path d="M9506 18838c-188,0 -404,-12 -639,-46 -180,-431 -473,-888 -938,-1324 607,305 1237,565 1887,779 100,181 198,363 297,546 -133,21 -343,45 -607,45l0 0zm713 -64c-104,-191 -208,-383 -313,-573 223,-961 261,-1977 283,-2959 16,-749 22,-1514 -49,-2266 -40,-56 -81,-112 -122,-168 91,809 88,1636 68,2442 -22,933 -59,1895 -256,2812 -378,-683 -766,-1359 -1162,-2032 -117,-1833 -212,-3645 -745,-5401 -47,-39 -95,-78 -143,-117 552,1731 659,3515 773,5321 -570,-964 -1156,-1918 -1752,-2866 -77,-424 -146,-849 -217,-1275 192,-199 373,-418 542,-660 165,-235 318,-459 460,-675 1344,1048 2443,2266 3099,3502 86,665 289,1281 623,1827 155,1110 -140,2174 -1036,3076 0,0 -18,5 -53,12zm-476 -660c-746,-253 -1470,-564 -2160,-941 -302,-234 -660,-458 -1086,-665 -638,-434 -1244,-912 -1837,-1406 32,73 64,144 97,214 406,336 819,664 1245,972 -277,-112 -579,-218 -906,-315 -418,-729 -791,-1638 -1085,-2772 59,-18 117,-37 176,-56 1305,1186 2818,2153 4392,2932 396,675 785,1353 1164,2037zm-1260 -2200c-1498,-754 -2935,-1680 -4185,-2806 513,-176 995,-405 1439,-704 318,218 643,424 976,614 603,958 1195,1922 1770,2896l0 0zm-1889 -3087c-260,-153 -515,-316 -765,-487 104,-73 207,-151 307,-234 153,240 306,481 458,721l0 0zm62 -91c-146,-232 -294,-464 -442,-695 96,-82 190,-169 282,-259 52,318 104,637 160,954z"/>
   </clipPath>
   <clipPath id="id8">
    <path d="M10113 18793c0,0 0,0 0,0 -99,-183 -197,-365 -297,-546 -650,-214 -1280,-474 -1887,-779 -106,-100 -221,-198 -346,-295 690,377 1414,688 2160,941 -379,-684 -768,-1362 -1164,-2037 -1574,-779 -3087,-1746 -4392,-2932 -83,-75 -165,-151 -246,-228 -15,-60 -28,-121 -42,-181 130,126 263,250 399,372 1250,1126 2687,2052 4185,2806 -575,-974 -1167,-1938 -1770,-2896 -333,-190 -658,-396 -976,-614 -785,-540 -1522,-1160 -2203,-1823 -6,-52 -12,-106 -18,-159 712,700 1486,1354 2313,1918 250,171 505,334 765,487 -152,-240 -305,-481 -458,-721 -868,-1360 -1755,-2709 -2644,-4057 55,21 110,42 165,64 860,1304 1717,2610 2557,3928 148,231 295,463 442,695 -56,-317 -108,-636 -160,-954 -141,-850 -286,-1699 -521,-2526 43,26 85,52 128,78 213,773 350,1565 481,2358 71,426 140,851 217,1275 596,948 1182,1902 1752,2866 -114,-1806 -221,-3590 -773,-5321 48,39 96,78 143,117 533,1756 628,3568 745,5401 396,673 784,1349 1162,2032 197,-917 234,-1879 256,-2812 20,-806 23,-1633 -68,-2442 42,56 82,112 122,168 71,752 65,1517 49,2266 -22,982 -60,1998 -283,2959 105,190 209,382 313,573 0,0 0,0 0,0 -27,5 -62,12 -106,19l0 0zm-3616 -2285c-156,-76 -320,-149 -495,-220 -426,-308 -839,-636 -1245,-972 -33,-70 -65,-141 -97,-214 593,494 1199,972 1837,1406l0 0z"/>
   </clipPath>
   <clipPath id="id9">
    <path d="M7178 21555c-1307,0 -2728,-905 -3927,-2262l0 -318c1222,341 2481,430 3754,533 508,311 1019,616 1534,913 -701,138 -1436,153 -2147,159 -85,0 -169,1 -254,1 -534,0 -1077,-16 -1609,-85 43,32 85,63 128,94 501,57 1010,68 1512,68 72,0 143,0 215,-1 749,-3 1525,-19 2260,-177 144,83 289,165 433,246 3,-12 6,-28 10,-46 -11,57 -20,87 -20,87 -569,546 -1214,788 -1889,788l0 0zm1915 -909c-138,-77 -275,-155 -412,-234 -256,-821 -605,-1601 -1052,-2335 -334,-547 -718,-1061 -1118,-1561 -52,-26 -107,-51 -162,-77 412,511 807,1034 1158,1590 459,726 812,1509 1073,2326 -517,-298 -1029,-603 -1538,-915 -610,-1287 -1383,-2524 -2350,-3578 -45,-12 -91,-23 -137,-35 971,1038 1748,2261 2364,3538 -735,-451 -1463,-915 -2186,-1388 -408,-744 -918,-1444 -1482,-2088l0 -320c692,107 1304,244 1845,404 327,97 629,203 906,315 175,71 339,144 495,220 426,207 784,431 1086,665 125,97 240,195 346,295 465,436 758,893 938,1324 351,838 275,1573 226,1854zm-2237 -1228c-1222,-99 -2431,-192 -3605,-523l0 -1122c480,93 963,175 1442,271 715,467 1435,927 2163,1374zm-2337 -1487c-422,-82 -846,-155 -1268,-237l0 -605c421,282 844,563 1268,842zm71 -47c-448,-294 -895,-590 -1339,-889l0 -988c503,583 961,1212 1339,1877l0 0z"/>
   </clipPath>
   <clipPath id="id10">
    <path d="M9077 20726c-144,-81 -289,-163 -433,-246 -735,158 -1511,174 -2260,177 -72,1 -143,1 -215,1 -502,0 -1011,-11 -1512,-68 -43,-31 -85,-62 -128,-94 532,69 1075,85 1609,85 85,0 169,-1 254,-1 711,-6 1446,-21 2147,-159 -515,-297 -1026,-602 -1534,-913 -1273,-103 -2532,-192 -3754,-533l0 -80c1174,331 2383,424 3605,523 -728,-447 -1448,-907 -2163,-1374 -479,-96 -962,-178 -1442,-271l0 -79c422,82 846,155 1268,237 -424,-279 -847,-560 -1268,-842l0 -94c444,299 891,595 1339,889 -378,-665 -836,-1294 -1339,-1877l0 -118c564,644 1074,1344 1482,2088 723,473 1451,937 2186,1388 -616,-1277 -1393,-2500 -2364,-3538 46,12 92,23 137,35 967,1054 1740,2291 2350,3578 509,312 1021,617 1538,915 -261,-817 -614,-1600 -1073,-2326 -351,-556 -746,-1079 -1158,-1590 55,26 110,51 162,77 400,500 784,1014 1118,1561 447,734 796,1514 1052,2335 137,79 274,157 412,234 0,0 0,0 0,0 -2,12 -4,24 -6,34 -4,18 -7,34 -10,46z"/>
   </clipPath>
   <clipPath id="id11">
    <path d="M17147 18646c-771,-7 -1354,-210 -1613,-319 139,-153 278,-306 419,-459 788,-60 1564,-186 2326,-379 -506,374 -871,769 -1132,1157zm-1711 -363c-33,-15 -50,-24 -50,-24 -303,-506 -472,-1015 -525,-1519 397,-205 823,-486 1237,-869 -122,639 -213,1287 -222,1931 -147,160 -294,321 -440,481zm619 -526c532,-574 1072,-1139 1618,-1699 1538,-341 3065,-840 4483,-1545l0 917c-134,200 -268,389 -402,566 -1429,352 -2475,817 -3238,1327 -804,222 -1628,363 -2461,434zm-72 -71c20,-648 119,-1299 245,-1940 835,-824 1600,-2087 1943,-4019 1161,-744 2537,-1353 3985,-1764l0 1588c-609,571 -1215,1145 -1816,1723 477,-1081 908,-2189 1494,-3216 -48,15 -95,30 -143,45 -601,1076 -1042,2237 -1548,3360 -805,778 -1603,1565 -2386,2364 543,-1727 1074,-3433 2024,-4981 -56,26 -112,52 -167,79 -938,1578 -1464,3314 -2016,5066 -546,558 -1084,1122 -1615,1695l0 0zm1822 -1763c792,-808 1597,-1603 2412,-2389 659,-187 1307,-429 1939,-711l0 1576c-1376,689 -2856,1182 -4351,1524zm2573 -2545c589,-567 1182,-1128 1778,-1687l0 1019c-580,261 -1174,486 -1778,668z"/>
   </clipPath>
   <clipPath id="id12">
    <path d="M15534 18328c-41,-18 -74,-33 -99,-44 1,0 1,-1 1,-1 146,-160 293,-321 440,-481 9,-644 100,-1292 222,-1931 43,-41 87,-82 130,-125 -126,641 -225,1292 -245,1940 531,-573 1069,-1137 1615,-1695 552,-1752 1078,-3488 2016,-5066 55,-27 111,-53 167,-79 -950,1548 -1481,3254 -2024,4981 783,-799 1581,-1586 2386,-2364 506,-1123 947,-2284 1548,-3360 48,-15 95,-30 143,-45 -586,1027 -1017,2135 -1494,3216 601,-578 1207,-1152 1816,-1723l0 140c-596,559 -1189,1120 -1778,1687 604,-182 1198,-407 1778,-668l0 113c-632,282 -1280,524 -1939,711 -815,786 -1620,1581 -2412,2389 1495,-342 2975,-835 4351,-1524l0 114c-1418,705 -2945,1204 -4483,1545 -546,560 -1086,1125 -1618,1699 833,-71 1657,-212 2461,-434 -82,55 -161,110 -237,166 -762,193 -1538,319 -2326,379 -141,153 -280,306 -419,459 0,0 0,0 0,1z"/>
   </clipPath>
   <clipPath id="id13">
    <path d="M19965 21741l-2964 0c-118,-75 -235,-160 -349,-256 0,0 -481,-1384 495,-2839 261,-388 626,-783 1132,-1157 76,-56 155,-111 237,-166 763,-510 1809,-975 3238,-1327 130,-32 264,-63 402,-94l0 300c-530,688 -1001,1431 -1365,2212 -689,519 -1385,1031 -2089,1530 531,-1315 1225,-2587 2125,-3687 -45,14 -91,28 -135,43 -895,1116 -1583,2402 -2107,3727 -487,344 -978,683 -1474,1015 206,-833 507,-1638 916,-2393 313,-577 673,-1126 1050,-1663 -53,29 -106,58 -157,87 -366,526 -714,1065 -1011,1632 -398,762 -694,1564 -894,2400 -132,88 -264,175 -397,261 9,34 16,59 22,79 139,-91 277,-182 416,-274 361,53 730,71 1099,71 391,0 783,-21 1167,-44 571,-36 1152,-80 1719,-182 41,-34 81,-68 121,-103 -609,121 -1238,171 -1853,207 -378,23 -764,43 -1149,43 -336,0 -673,-16 -1004,-58 495,-331 984,-670 1471,-1013 1199,-178 2387,-342 3529,-719l0 509c-671,814 -1422,1466 -2191,1859zm-1196 -1749c696,-495 1384,-1001 2067,-1514 438,-119 880,-225 1320,-339l0 1153c-1097,365 -2236,530 -3387,700zm2233 -1639c386,-292 770,-585 1154,-881l0 586c-384,100 -771,194 -1154,295zm-73 -42c336,-696 756,-1360 1227,-1981l0 1044c-408,314 -816,627 -1227,937z"/>
   </clipPath>
   <clipPath id="id14">
    <path d="M16640 21445c-6,-20 -13,-45 -22,-79 133,-86 265,-173 397,-261 200,-836 496,-1638 894,-2400 297,-567 645,-1106 1011,-1632 51,-29 104,-58 157,-87 -377,537 -737,1086 -1050,1663 -409,755 -710,1560 -916,2393 496,-332 987,-671 1474,-1015 524,-1325 1212,-2611 2107,-3727 44,-15 90,-29 135,-43 -900,1100 -1594,2372 -2125,3687 704,-499 1400,-1011 2089,-1530 364,-781 835,-1524 1365,-2212l0 128c-471,621 -891,1285 -1227,1981 411,-310 819,-623 1227,-937l0 98c-384,296 -768,589 -1154,881 383,-101 770,-195 1154,-295l0 81c-440,114 -882,220 -1320,339 -683,513 -1371,1019 -2067,1514 1151,-170 2290,-335 3387,-700l0 81c-1142,377 -2330,541 -3529,719 -487,343 -976,682 -1471,1013 331,42 668,58 1004,58 385,0 771,-20 1149,-43 615,-36 1244,-86 1853,-207 -40,35 -80,69 -121,103 -567,102 -1148,146 -1719,182 -384,23 -776,44 -1167,44 -369,0 -738,-18 -1099,-71 -139,92 -277,183 -416,274z"/>
   </clipPath>
   <clipPath id="id15">
    <path d="M13076 17292c-791,-413 -1372,-960 -1768,-1606 -334,-546 -537,-1162 -623,-1827 -137,-1060 21,-2245 416,-3468 -6,19 -11,37 -24,78 196,907 488,1801 786,2671 391,1142 835,2329 1453,3371 -52,262 -123,513 -173,775 -44,5 -67,6 -67,6zm198 -23c48,-250 74,-494 124,-743 1122,-812 2154,-1753 3044,-2814 663,-790 1250,-1640 1808,-2508 13,-94 12,-92 23,-190 -568,891 -1153,1668 -1819,2488 -873,1074 -1919,2071 -3031,2889 188,-942 421,-1974 634,-2911 1319,-1273 2537,-2663 3540,-4199l0 559 760 0c-20,691 -85,1318 -186,1887 -343,1932 -1108,3195 -1943,4019 -43,43 -87,84 -130,125 -414,383 -840,664 -1237,869 -688,355 -1289,484 -1587,529zm57 -920c-573,-1000 -971,-2154 -1345,-3237 -324,-938 -666,-1816 -860,-2797 168,-511 378,-1030 624,-1548l97 0 371 0 0 -906c1159,-2083 2870,-4110 4845,-5667 -612,2172 -1430,4593 -2000,6777 -193,-1439 -491,-2910 -536,-4362 -40,46 -40,45 -81,92 61,1514 370,2986 561,4488 -345,1333 -694,2798 -1002,4138 -539,-2158 -1127,-4327 -1125,-6559 -42,63 -41,64 -82,127 29,2255 611,4391 1157,6581 -213,935 -437,1933 -624,2873l0 0zm736 -2977c311,-1355 683,-2823 1031,-4170 1107,-1202 2047,-2551 2821,-3997 -12,-64 -12,-65 -25,-129 -746,1413 -1700,2783 -2762,3971 588,-2257 1405,-4692 2039,-6937 -24,19 -37,29 -48,37 16,-12 32,-25 48,-37 579,2020 921,3772 1081,5291l-655 0 0 1730c-995,1547 -2226,2965 -3530,4241l0 0z"/>
   </clipPath>
   <clipPath id="id16">
    <path d="M13143 17286c0,0 0,0 0,0 50,-262 121,-513 173,-775 -618,-1042 -1062,-2229 -1453,-3371 -298,-870 -590,-1764 -786,-2671 13,-41 18,-59 24,-78 5,-18 11,-36 25,-76l0 0c194,981 536,1859 860,2797 374,1083 772,2237 1345,3237 187,-940 411,-1938 624,-2873 -545,-2190 -1128,-4326 -1157,-6581 41,-63 40,-64 82,-127 -2,2232 586,4401 1125,6559 308,-1340 657,-2805 1002,-4138 -191,-1502 -500,-2974 -561,-4488 41,-47 41,-46 81,-92 45,1452 343,2923 536,4362 570,-2184 1388,-4605 2000,-6777l0 0c32,-26 45,-35 60,-47 11,-8 24,-18 48,-37 -634,2245 -1451,4680 -2039,6937 1062,-1188 2016,-2558 2762,-3971 13,64 13,65 25,129 -774,1446 -1714,2795 -2821,3997 -348,1347 -720,2815 -1031,4170 1304,-1276 2535,-2694 3530,-4241l0 150c-1003,1536 -2221,2926 -3540,4199 -213,937 -446,1969 -634,2911 1112,-818 2158,-1815 3031,-2889 666,-820 1251,-1597 1819,-2488 -11,98 -10,96 -23,190 -558,868 -1145,1718 -1808,2508 -890,1061 -1922,2002 -3044,2814 -50,249 -76,493 -124,743 0,0 0,1 0,1 -54,8 -98,13 -131,16z"/>
   </clipPath>
   <clipPath id="id17">
    <path d="M17597 9281l0 -150c250,-389 485,-786 704,-1192 6,77 6,77 12,153 -224,406 -463,802 -716,1189l0 0z"/>
   </clipPath>
 </defs>
 <g id="Layer_x0020_1">
  <metadata id="CorelCorpID_0Corel-Layer"/>
  <path class="fil0" d="M6717 16655c942,618 1961,1098 3026,1459 -379,-684 -768,-1362 -1164,-2037 -1674,-829 -3279,-1869 -4638,-3160 -15,-60 -28,-121 -42,-181 1338,1296 2924,2342 4584,3178 -575,-974 -1167,-1938 -1770,-2896 -1155,-659 -2222,-1506 -3179,-2437 -6,-52 -12,-106 -18,-159 927,912 1961,1746 3078,2405 -1014,-1605 -2056,-3193 -3102,-4778 55,21 110,42 165,64 1011,1533 2018,3070 2999,4623 -205,-1164 -357,-2343 -681,-3480 43,26 85,52 128,78 327,1189 476,2421 698,3633 596,948 1182,1902 1752,2866 -114,-1806 -221,-3590 -773,-5321 48,39 96,78 143,117 533,1756 628,3568 745,5401 396,673 784,1349 1162,2032 197,-917 234,-1879 256,-2812 20,-806 23,-1633 -68,-2442 42,56 82,112 122,168 71,752 65,1517 49,2266 -22,982 -60,1998 -283,2959 105,190 209,382 313,573 -27,5 -62,12 -106,19 -99,-182 -197,-365 -297,-546 -1071,-353 -2086,-828 -3038,-1431 -709,-450 -1374,-964 -2021,-1500 -33,-70 -65,-141 -97,-214 660,550 1338,1081 2057,1553z"/>
  <path class="fil0" d="M9067 20767c0,0 1367,-4981 -8120,-5420 1451,4170 5558,7877 8120,5420z"/>
  <path class="fil1" d="M7507 18029c459,726 812,1509 1073,2326 -517,-298 -1029,-603 -1538,-915 -610,-1287 -1383,-2524 -2350,-3578 -45,-12 -91,-23 -137,-35 971,1038 1748,2261 2364,3538 -735,-451 -1463,-915 -2186,-1388 -488,-889 -1119,-1713 -1817,-2456 -40,-5 -80,-10 -121,-16 683,719 1306,1518 1795,2379 -1212,-794 -2409,-1610 -3604,-2428 15,42 30,84 46,126 1156,791 2315,1580 3487,2349 -885,-172 -1782,-304 -2645,-566 19,33 38,66 57,99 903,265 1841,395 2762,580 715,467 1435,927 2163,1374 -1376,-111 -2735,-216 -4048,-659 29,37 58,73 87,110 1333,430 2713,526 4110,639 508,311 1019,616 1534,913 -701,138 -1436,153 -2147,159 -616,4 -1247,-4 -1863,-84 43,32 85,63 128,94 572,65 1156,70 1727,67 749,-3 1525,-19 2260,-177 144,83 289,165 433,246 5,-20 10,-46 16,-80 -138,-77 -275,-155 -412,-234 -256,-821 -605,-1601 -1052,-2335 -334,-547 -718,-1061 -1118,-1561 -52,-26 -107,-51 -162,-77 412,511 807,1034 1158,1590z"/>
  <path class="fil2" d="M22156 15430l0 -917c263,-130 522,-268 777,-413 28,-55 56,-111 84,-166 -282,164 -569,319 -861,465l0 -1576c594,-265 1173,-567 1731,-894 18,-49 37,-100 55,-150 -575,341 -1173,655 -1786,931l0 -1019c789,-741 1583,-1476 2378,-2210 -59,7 -117,14 -176,22 -736,681 -1471,1362 -2202,2048l0 -1588c828,-236 1680,-406 2527,-500 -742,2678 -1617,4599 -2527,5967z"/>
  <path class="fil0" d="M19342 17064c-1062,375 -2166,597 -3287,693 532,-574 1072,-1139 1618,-1699 1824,-405 3631,-1031 5260,-1958 28,-55 56,-111 84,-166 -1610,938 -3399,1574 -5212,1989 792,-808 1597,-1603 2412,-2389 1279,-364 2518,-930 3670,-1605 18,-49 37,-100 55,-150 -1118,663 -2321,1226 -3564,1599 1369,-1317 2761,-2609 4156,-3897 -59,7 -117,14 -176,22 -1348,1247 -2694,2498 -4018,3771 477,-1081 908,-2189 1494,-3216 -48,15 -95,30 -143,45 -601,1076 -1042,2237 -1548,3360 -805,778 -1603,1565 -2386,2364 543,-1727 1074,-3433 2024,-4981 -56,26 -112,52 -167,79 -938,1578 -1464,3314 -2016,5066 -546,558 -1084,1122 -1615,1695 28,-938 223,-1881 425,-2792 173,-788 368,-1591 650,-2355 -53,44 -106,89 -158,135 -249,712 -426,1457 -590,2188 -214,958 -420,1954 -434,2940 -147,160 -294,321 -441,482 25,11 58,26 99,44 139,-154 278,-307 419,-460 1124,-86 2223,-304 3292,-662 796,-267 1565,-607 2321,-972 49,-61 97,-122 146,-185 -773,376 -1558,730 -2370,1015z"/>
  <path class="fil0" d="M16652 21485c0,0 -1694,-4880 7743,-5946 -1171,4256 -5023,8228 -7743,5946z"/>
  <path class="fil1" d="M18027 18649c-409,755 -710,1560 -916,2393 496,-332 987,-671 1474,-1015 524,-1325 1212,-2611 2107,-3727 44,-15 90,-29 135,-43 -900,1100 -1594,2372 -2125,3687 704,-499 1400,-1011 2089,-1530 428,-919 1004,-1785 1650,-2572 40,-8 80,-15 120,-23 -634,762 -1202,1601 -1632,2492 1156,-873 2296,-1766 3434,-2662 -12,44 -25,86 -37,129 -1102,867 -2206,1730 -3324,2575 872,-230 1758,-421 2602,-740 -17,34 -34,69 -51,103 -882,324 -1810,516 -2717,762 -683,513 -1371,1019 -2067,1514 1366,-202 2715,-397 3995,-926 -26,39 -52,77 -79,115 -1301,518 -2673,705 -4058,911 -487,343 -976,682 -1471,1013 709,91 1443,57 2153,15 615,-36 1244,-86 1853,-207 -40,35 -80,69 -121,103 -567,102 -1148,146 -1719,182 -747,46 -1522,81 -2266,-27 -139,92 -277,183 -416,274 -6,-20 -13,-45 -22,-79 133,-86 265,-173 397,-261 200,-836 496,-1638 894,-2400 297,-567 645,-1106 1011,-1632 51,-29 104,-58 157,-87 -377,537 -737,1086 -1050,1663z"/>
  <path class="fil0" d="M13076 17292c0,0 8307,-476 4095,-15182 -5618,4360 -9163,12536 -4095,15182z"/>
  <path class="fil1" d="M16454 13502c-873,1074 -1919,2071 -3031,2889 188,-942 421,-1974 634,-2911 1651,-1594 3144,-3371 4256,-5388 -6,-76 -6,-76 -12,-153 -1085,2017 -2601,3835 -4234,5433 311,-1355 683,-2823 1031,-4170 1107,-1202 2047,-2551 2821,-3997 -12,-64 -12,-65 -25,-129 -746,1413 -1700,2783 -2762,3971 588,-2257 1405,-4692 2039,-6937 -57,45 -51,38 -108,84 -612,2172 -1430,4593 -2000,6777 -193,-1439 -491,-2910 -536,-4362 -40,46 -40,45 -81,92 61,1514 370,2986 561,4488 -345,1333 -694,2798 -1002,4138 -539,-2158 -1127,-4327 -1125,-6559 -42,63 -41,64 -82,127 29,2255 611,4391 1157,6581 -213,935 -437,1933 -624,2873 -573,-1000 -971,-2154 -1345,-3237 -324,-938 -666,-1816 -860,-2797 -28,81 -23,73 -49,154 196,907 488,1801 786,2671 391,1142 835,2329 1453,3371 -52,262 -123,513 -173,775 33,-3 77,-8 131,-16 47,-250 74,-494 124,-744 1122,-812 2154,-1753 3044,-2814 663,-790 1250,-1640 1808,-2508 13,-94 12,-92 23,-190 -568,891 -1153,1668 -1819,2488z"/>
  <g style="clip-path:url(#id0)">
   <image transform="matrix(2.00258 -0 -0 -2.00258 19947.3 21760.4)" x="0" y="0" width="1113" height="950" xlink:href="3.svg_Images\3.svg_ImgID1.png"/>
  </g>
  <g style="clip-path:url(#id1)">
   <image transform="matrix(2.00258 -0 -0 -2.00258 12693.9 8011.43)" x="0" y="0" width="1196" height="1171" xlink:href="3.svg_Images\3.svg_ImgID2.png"/>
  </g>
  <g style="clip-path:url(#id2)">
   <image transform="matrix(2.00258 -0 -0 -2.00258 12693.9 21775.6)" x="0" y="0" width="1196" height="3457" xlink:href="3.svg_Images\3.svg_ImgID3.png"/>
  </g>
  <g style="clip-path:url(#id3)">
   <image transform="matrix(2.00258 -0 -0 -2.00258 19779.5 17182.5)" x="0" y="0" width="1204" height="1163" xlink:href="3.svg_Images\3.svg_ImgID4.png"/>
  </g>
  <g style="clip-path:url(#id4)">
   <image transform="matrix(2.00258 -0 -0 -2.00258 7943.06 21775.6)" x="0" y="0" width="1207" height="2314" xlink:href="3.svg_Images\3.svg_ImgID5.png"/>
  </g>
  <g style="clip-path:url(#id5)">
   <image transform="matrix(2.00258 -0 -0 -2.00258 15049 21775.6)" x="0" y="0" width="1204" height="2314" xlink:href="3.svg_Images\3.svg_ImgID6.png"/>
  </g>
  <g style="clip-path:url(#id6)">
   <image transform="matrix(2.00258 -0 -0 -2.00258 3334.64 13215)" x="0" y="0" width="2136" height="2619" xlink:href="3.svg_Images\3.svg_ImgID7.png"/>
  </g>
  <g style="clip-path:url(#id7)">
   <image transform="matrix(2.00258 -0 -0 -2.00258 3995.92 18861)" x="0" y="0" width="3736" height="4252" xlink:href="3.svg_Images\3.svg_ImgID8.png"/>
  </g>
  <g style="clip-path:url(#id8)">
   <image transform="matrix(2.00258 -0 -0 -2.00258 3466.91 18810.2)" x="0" y="0" width="3381" height="5380" xlink:href="3.svg_Images\3.svg_ImgID9.png"/>
  </g>
  <g style="clip-path:url(#id9)">
   <image transform="matrix(2.00258 -0 -0 -2.00258 3232.91 21572.2)" x="0" y="0" width="3000" height="3007" xlink:href="3.svg_Images\3.svg_ImgID10.png"/>
  </g>
  <g style="clip-path:url(#id10)">
   <image transform="matrix(2.00258 -0 -0 -2.00258 3232.91 20743.1)" x="0" y="0" width="2939" height="2466" xlink:href="3.svg_Images\3.svg_ImgID11.png"/>
  </g>
  <g style="clip-path:url(#id11)">
   <image transform="matrix(2.00258 -0 -0 -2.00258 14845.5 18672.9)" x="0" y="0" width="3660" height="4361" xlink:href="3.svg_Images\3.svg_ImgID12.png"/>
  </g>
  <g style="clip-path:url(#id12)">
   <image transform="matrix(2.00258 -0 -0 -2.00258 15420.3 18352.4)" x="0" y="0" width="3373" height="4150" xlink:href="3.svg_Images\3.svg_ImgID13.png"/>
  </g>
  <g style="clip-path:url(#id13)">
   <image transform="matrix(2.00258 -0 -0 -2.00258 16152.8 21760.4)" x="0" y="0" width="3007" height="2931" xlink:href="3.svg_Images\3.svg_ImgID14.png"/>
  </g>
  <g style="clip-path:url(#id14)">
   <image transform="matrix(2.00258 -0 -0 -2.00258 16590.2 21470.4)" x="0" y="0" width="2789" height="2644" xlink:href="3.svg_Images\3.svg_ImgID15.png"/>
  </g>
  <g style="clip-path:url(#id15)">
   <image transform="matrix(2.00258 -0 -0 -2.00258 10521.9 17319.8)" x="0" y="0" width="3922" height="7607" xlink:href="3.svg_Images\3.svg_ImgID16.png"/>
  </g>
  <g style="clip-path:url(#id16)">
   <image transform="matrix(2.00258 -0 -0 -2.00258 11066.2 17299.5)" x="0" y="0" width="3609" height="7597" xlink:href="3.svg_Images\3.svg_ImgID17.png"/>
  </g>
  <path class="fil3" d="M19702 17476l-13402 0 -169 0c0,0 -105,45 -105,254 0,234 105,263 105,263l169 0 5721 0 0 1423 -5721 0 -169 0c0,0 -105,45 -105,254 0,234 105,264 105,264l169 0 13402 0c0,0 657,-205 657,-1229 0,-975 -657,-1229 -657,-1229z"/>
  <path class="fil0" d="M15672 19416l-9163 0 0 -1423 9163 0c0,0 418,110 418,712 0,614 -418,711 -418,711z"/>
  <polygon class="fil4" points="13454,18451 6509,18451 6509,18312 13454,18312 "/>
  <polygon class="fil4" points="13115,19147 6509,19147 6509,18988 13115,18988 "/>
  <path class="fil5" d="M20359 18705c0,-975 -657,-1229 -657,-1229l-3662 0c0,0 657,254 657,1229 0,1024 -657,1229 -657,1229l3662 0c0,0 657,-205 657,-1229z"/>
  <path class="fil6" d="M5698 15018l13402 0 169 0c0,0 105,45 105,254 0,234 -105,264 -105,264l-169 0 -5721 0 0 1423 5721 0 169 0c0,0 105,44 105,253 0,234 -105,264 -105,264l-169 0 -13402 0c0,0 -657,-204 -657,-1229 0,-975 657,-1229 657,-1229z"/>
  <path class="fil0" d="M9728 16959l9163 0 0 -1423 -9163 0c0,0 -418,109 -418,711 0,615 418,712 418,712z"/>
  <polygon class="fil4" points="11946,15994 18891,15994 18891,15854 11946,15854 "/>
  <polygon class="fil4" points="12285,16690 18891,16690 18891,16531 12285,16531 "/>
  <path class="fil7" d="M5041 16247c0,-975 657,-1229 657,-1229l3662 0c0,0 -657,254 -657,1229 0,1025 657,1229 657,1229l-3662 0c0,0 -657,-204 -657,-1229z"/>
  <path class="fil8" d="M19702 12561l-13402 0 -169 0c0,0 -105,45 -105,253 0,234 105,264 105,264l169 0 5721 0 0 1423 -5721 0 -169 0c0,0 -105,45 -105,254 0,234 105,263 105,263l169 0 13402 0c0,0 657,-204 657,-1229 0,-975 -657,-1228 -657,-1228z"/>
  <path class="fil0" d="M15672 14501l-9163 0 0 -1423 9163 0c0,0 418,110 418,711 0,615 -418,712 -418,712z"/>
  <polygon class="fil4" points="13454,13536 6509,13536 6509,13397 13454,13397 "/>
  <polygon class="fil4" points="13115,14232 6509,14232 6509,14073 13115,14073 "/>
  <path class="fil3" d="M20359 13789c0,-975 -657,-1228 -657,-1228l-3662 0c0,0 657,253 657,1228 0,1025 -657,1229 -657,1229l3662 0c0,0 657,-204 657,-1229z"/>
  <polygon class="fil3" points="12218,11905 11081,12270 7934,2454 9071,2089 "/>
  <polygon class="fil5" points="8422,2752 8067,2866 8048,2809 8404,2695 "/>
  <polygon class="fil5" points="8354,2541 7999,2655 7981,2598 8336,2484 "/>
  <polygon class="fil5" points="8492,2972 8137,3086 8119,3030 8474,2916 "/>
  <polygon class="fil5" points="8562,3188 8206,3302 8188,3245 8543,3131 "/>
  <polygon class="fil5" points="8791,3355 8276,3520 8258,3463 8773,3298 "/>
  <polygon class="fil5" points="8774,3852 8419,3966 8401,3909 8756,3795 "/>
  <polygon class="fil5" points="8707,3640 8351,3754 8333,3697 8688,3584 "/>
  <polygon class="fil5" points="8845,4072 8490,4186 8471,4129 8827,4015 "/>
  <polygon class="fil5" points="8914,4288 8559,4402 8540,4345 8896,4231 "/>
  <polygon class="fil5" points="9144,4454 8629,4619 8610,4563 9126,4397 "/>
  <polygon class="fil5" points="9124,4941 8768,5055 8750,4998 9105,4885 "/>
  <polygon class="fil5" points="9056,4730 8701,4844 8682,4787 9038,4673 "/>
  <polygon class="fil5" points="9194,5162 8839,5276 8821,5219 9176,5105 "/>
  <polygon class="fil5" points="9263,5377 8908,5491 8890,5434 9245,5320 "/>
  <polygon class="fil5" points="9493,5544 8978,5709 8960,5652 9475,5487 "/>
  <polygon class="fil5" points="9476,6041 9121,6155 9103,6098 9458,5984 "/>
  <polygon class="fil5" points="9408,5830 9053,5944 9035,5887 9390,5773 "/>
  <polygon class="fil5" points="9547,6261 9191,6375 9173,6318 9528,6205 "/>
  <polygon class="fil5" points="9616,6477 9260,6591 9242,6534 9598,6420 "/>
  <polygon class="fil5" points="9846,6644 9330,6809 9312,6752 9827,6587 "/>
  <polygon class="fil5" points="9822,7122 9467,7236 9449,7179 9804,7065 "/>
  <polygon class="fil5" points="9755,6911 9399,7024 9381,6967 9736,6854 "/>
  <polygon class="fil5" points="9893,7342 9538,7456 9519,7399 9875,7285 "/>
  <polygon class="fil5" points="9962,7558 9607,7672 9589,7615 9944,7501 "/>
  <polygon class="fil5" points="10192,7724 9677,7890 9659,7833 10174,7668 "/>
  <polygon class="fil5" points="10175,8222 9820,8335 9801,8279 10157,8165 "/>
  <polygon class="fil5" points="10107,8010 9752,8124 9734,8067 10089,7953 "/>
  <polygon class="fil5" points="10246,8442 9890,8556 9872,8499 10227,8385 "/>
  <polygon class="fil5" points="10315,8657 9959,8771 9941,8714 10296,8601 "/>
  <polygon class="fil5" points="10544,8824 10029,8989 10011,8932 10526,8767 "/>
  <polygon class="fil5" points="10524,9311 10169,9425 10151,9368 10506,9254 "/>
  <polygon class="fil5" points="10456,9100 10101,9214 10083,9157 10438,9043 "/>
  <polygon class="fil5" points="10595,9532 10240,9645 10221,9588 10577,9475 "/>
  <polygon class="fil5" points="10664,9747 10309,9861 10290,9804 10646,9690 "/>
  <polygon class="fil5" points="10894,9914 10378,10079 10360,10022 10875,9857 "/>
  <polygon class="fil5" points="10877,10411 10521,10525 10503,10468 10858,10354 "/>
  <polygon class="fil5" points="10809,10199 10454,10313 10435,10257 10791,10143 "/>
  <polygon class="fil5" points="10947,10631 10592,10745 10574,10688 10929,10574 "/>
  <polygon class="fil5" points="11016,10847 10661,10960 10643,10903 10998,10790 "/>
  <polygon class="fil5" points="11246,11013 10731,11178 10713,11122 11228,10956 "/>
  <polygon class="fil5" points="8942,2290 8996,2272 12054,11812 12000,11829 "/>
  <polygon class="fil7" points="12218,8767 11246,8767 11246,1847 12218,1847 "/>
  <polygon class="fil0" points="12218,1847 11732,608 11246,1847 "/>
  <path class="fil5" d="M11617 902l115 -294 115 294c0,0 -85,93 -230,0z"/>
  <polygon class="fil9" points="11847,8767 11617,8767 11617,1847 11847,1847 "/>
  <polygon class="fil6" points="11093,11555 10219,11131 13239,4905 14113,5328 "/>
  <polygon class="fil4" points="14113,5328 14217,4002 13239,4905 "/>
  <path class="fil5" d="M13984 4216l233 -214 -25 315c0,0 -117,46 -208,-101z"/>
  <polygon class="fil5" points="10759,11393 10552,11293 13572,5066 13780,5167 "/>
  <polygon class="fil10" points="13043,12333 9688,12333 9159,6766 13549,6766 "/>
  <polygon class="fil0" points="12911,12561 9844,12561 9844,12333 12911,12333 "/>
  <polygon class="fil4" points="17135,12561 14628,12561 14628,11393 17135,11393 "/>
  <polygon class="fil5" points="17135,12561 15732,12561 15732,11393 17135,11393 "/>
  <polygon class="fil6" points="16249,12561 16021,12561 16021,11393 16249,11393 "/>
  <polygon class="fil0" points="25281,21637 119,21637 119,19934 25281,19934 "/>
  <polygon class="fil0" points="24229,23207 1141,23207 1141,21637 24229,21637 "/>
  <polygon class="fil1" points="24240,22093 1141,22093 1141,21637 24240,21637 "/>
  <polygon class="fil0" points="3047,24792 1537,24792 1537,23207 3047,23207 "/>
  <polygon class="fil1" points="3047,23565 1537,23565 1537,23207 3047,23207 "/>
  <polygon class="fil0" points="23821,24792 22311,24792 22311,23207 23821,23207 "/>
  <polygon class="fil1" points="23821,23565 22311,23565 22311,23207 23821,23207 "/>
  <g style="clip-path:url(#id17)">
   <image transform="matrix(2.00258 -0 -0 -2.00258 17577 9298.33)" x="0" y="0" width="373" height="688" xlink:href="3.svg_Images\3.svg_ImgID18.png"/>
  </g>
  <polygon class="fil7" points="17119,9363 17119,6923 19559,6923 19559,9363 "/>
  <polygon class="fil5" points="18421,8971 17644,7787 17893,7624 18375,8358 19646,5611 19917,5737 "/>
 </g>
</svg>
