<?xml version="1.0" encoding="UTF-8"?>
<!DOCTYPE svg PUBLIC "-//W3C//DTD SVG 1.1//EN" "http://www.w3.org/Graphics/SVG/1.1/DTD/svg11.dtd">
<!-- Creator: CorelDRAW X7 -->
<svg xmlns="http://www.w3.org/2000/svg" xml:space="preserve" width="42.3332mm" height="42.3332mm" version="1.1" style="shape-rendering:geometricPrecision; text-rendering:geometricPrecision; image-rendering:optimizeQuality; fill-rule:evenodd; clip-rule:evenodd"
viewBox="0 0 4233 4233"
 xmlns:xlink="http://www.w3.org/1999/xlink">
 <defs>
  <style type="text/css">
   <![CDATA[
    .fil13 {fill:#004254}
    .fil52 {fill:#006297}
    .fil3 {fill:#0075A7}
    .fil70 {fill:#0083C6}
    .fil35 {fill:#00ACBF}
    .fil12 {fill:#01797C}
    .fil2 {fill:#0185CA}
    .fil10 {fill:#036060}
    .fil58 {fill:#051C44}
    .fil5 {fill:#0E598E}
    .fil61 {fill:#1C4897}
    .fil56 {fill:#2354A1}
    .fil74 {fill:#383646}
    .fil60 {fill:#3B2315}
    .fil36 {fill:#4DBABD}
    .fil1 {fill:#54BCBA}
    .fil14 {fill:#562382}
    .fil65 {fill:#565656}
    .fil37 {fill:#56B687}
    .fil15 {fill:#592382}
    .fil51 {fill:#5B0800}
    .fil16 {fill:#5B2180}
    .fil49 {fill:#5B677E}
    .fil17 {fill:#5D2180}
    .fil18 {fill:#5E2180}
    .fil19 {fill:#602382}
    .fil20 {fill:#622382}
    .fil21 {fill:#672683}
    .fil55 {fill:#770C00}
    .fil50 {fill:#790C00}
    .fil38 {fill:#7BBF89}
    .fil68 {fill:#806700}
    .fil8 {fill:#830E00}
    .fil67 {fill:#836900}
    .fil24 {fill:#876E00}
    .fil29 {fill:#8C7200}
    .fil30 {fill:#907500}
    .fil9 {fill:#931103}
    .fil31 {fill:#977900}
    .fil73 {fill:#9A9A9A}
    .fil32 {fill:#9C7C00}
    .fil25 {fill:#A0071C}
    .fil33 {fill:#A18000}
    .fil72 {fill:#A55944}
    .fil34 {fill:#A58300}
    .fil48 {fill:#AA8700}
    .fil7 {fill:#AE1C07}
    .fil47 {fill:#B18E00}
    .fil46 {fill:#B59000}
    .fil45 {fill:#B89300}
    .fil62 {fill:#BF310A}
    .fil64 {fill:#BF7049}
    .fil6 {fill:#C1230A}
    .fil44 {fill:#C19700}
    .fil41 {fill:#C38C05}
    .fil23 {fill:#C39A00}
    .fil43 {fill:#C39C00}
    .fil42 {fill:#C89E00}
    .fil26 {fill:#CC182D}
    .fil69 {fill:#D1A500}
    .fil11 {fill:#D1D3D4}
    .fil22 {fill:#D8AC00}
    .fil40 {fill:#E4A800}
    .fil27 {fill:#E85934}
    .fil53 {fill:#E9592D}
    .fil66 {fill:#EBEBEB}
    .fil57 {fill:#F2B185}
    .fil71 {fill:#F6A83F}
    .fil39 {fill:#F7BC00}
    .fil28 {fill:#FD693B}
    .fil54 {fill:#FDC600}
    .fil63 {fill:#FFCA00}
    .fil59 {fill:#FFEB00}
    .fil4 {fill:white}
    .fil0 {fill:url(#id2)}
   ]]>
  </style>
    <mask id="id0">
  <linearGradient id="id1" gradientUnits="userSpaceOnUse" x1="3808.56" y1="2620.89" x2="3808.56" y2="1368.69">
   <stop offset="0" style="stop-opacity:1; stop-color:white"/>
   <stop offset="0.270588" style="stop-opacity:0.501961; stop-color:white"/>
   <stop offset="0.890196" style="stop-opacity:0; stop-color:white"/>
   <stop offset="1" style="stop-opacity:0; stop-color:white"/>
  </linearGradient>
     <rect style="fill:url(#id1)" x="3801" y="1365" width="14.76" height="1259.83"/>
    </mask>
  <linearGradient id="id2" gradientUnits="userSpaceOnUse" x1="2071.14" y1="3697.59" x2="2071.14" y2="2085.97">
   <stop offset="0" style="stop-opacity:1; stop-color:#BCBDBF"/>
   <stop offset="0.270588" style="stop-opacity:1; stop-color:#C6C8C9"/>
   <stop offset="0.890196" style="stop-opacity:0; stop-color:#D1D3D4"/>
   <stop offset="1" style="stop-opacity:1; stop-color:#D1D3D4"/>
  </linearGradient>
 </defs>
 <g id="Layer_x0020_1">
  <metadata id="CorelCorpID_0Corel-Layer"/>
  <path class="fil0" d="M243 2444c516,297 529,305 529,305l300 -173 -723 -194 -100 58 -6 4zm2726 659l0 0 -516 298c43,17 71,44 71,75 0,52 -77,94 -172,94 -53,0 -101,-14 -132,-34l-281 162 -275 -159c-22,15 -55,24 -93,24 -65,0 -118,-29 -118,-65 0,-22 19,-41 49,-53l-481 -278c-22,11 -50,18 -82,18 -65,0 -118,-29 -118,-65 0,-9 3,-17 9,-25 -8,1 -15,1 -23,1 -66,0 -119,-29 -119,-65 0,-15 10,-29 26,-40l-67 -39 6 -4 100 -58 2180 -804 966 576 -226 142 -107 -46 -201 116 101 58 -396 229 -101 -58z"/>
  <path class="fil1" d="M3793 1926c-36,-28 -94,2 -86,47 8,45 396,40 467,20 70,-20 21,-63 -43,-54 -5,1 -1,-9 0,-23 3,-40 -38,-63 -73,-71 -34,-7 -69,5 -87,67 -3,13 11,-149 -109,-121 -42,9 -81,49 -69,135z"/>
  <path class="fil1" d="M441 1565c35,-27 94,3 86,48 -8,45 -397,40 -467,20 -70,-20 -21,-64 42,-54 5,0 1,-10 0,-23 -3,-40 39,-64 73,-71 34,-8 69,4 87,67 4,12 -10,-149 109,-122 43,10 81,50 70,135z"/>
  <g id="_1729768631104">
   <g>
    <path class="fil2" d="M1467 648l4 1342c-318,183 -648,374 -930,537l-18 11 0 -1 -4 -1317 0 -25 22 -13c284,-164 605,-349 926,-534z"/>
   </g>
   <polygon class="fil3" points="513,1198 326,1083 1275,536 1314,559 1271,665 1428,625 1467,648 "/>
   <path class="fil4" d="M537 1166c305,-176 610,-352 915,-528l-159 -92 -911 526 155 94z"/>
   <g>
    <polygon class="fil5" points="523,2537 330,2425 326,1083 519,1195 "/>
   </g>
   <path class="fil4" d="M1273 878l3 277c-188,108 -383,221 -549,317l-11 6 0 0 -2 -262 0 -15 13 -8c168,-96 357,-206 546,-315z"/>
  </g>
  <g id="_1729768627392">
   <polygon class="fil6" points="2836,2272 3028,2160 3042,2168 2850,2280 "/>
   <polygon class="fil7" points="2839,904 3032,792 3028,2160 2836,2272 "/>
   <polygon class="fil8" points="2853,912 3046,800 3042,2168 2850,2280 "/>
   <polygon class="fil9" points="2839,904 3032,792 3046,800 2853,912 "/>
   <g>
    <polygon class="fil10" points="2853,912 2850,2280 2836,2272 2839,904 "/>
   </g>
   <g>
    <polygon class="fil10" points="3681,1390 3873,1278 3869,2646 3677,2757 "/>
   </g>
   <polygon class="fil11" points="3705,1376 3701,2744 3846,2660 3849,1292 "/>
   <g>
    <path class="fil12" d="M3681 1390l-4 1367 -926 -534c-12,-7 -22,-24 -22,-38l3 -1317c0,-14 10,-20 22,-13l85 49 -3 1368 14 8 3 -1368 828 478z"/>
   </g>
   <g>
    <path class="fil10" d="M2853 912l-99 -57c0,0 -1,-1 -2,-1l0 0c0,0 -1,0 -1,0l0 0 0 0 0 0 0 -1 0 0 0 0 0 0 0 0 0 0 0 0 0 0 0 0 0 0 0 0 0 0 0 0 0 0 0 0 0 0 0 0 0 0 -1 0 0 0 0 0 0 0 0 0 0 0 0 0 0 0 0 0 0 0 0 0 0 0 -1 0 0 0 0 0 0 0 0 0 0 0 0 0 0 0 0 0 0 0 0 0 -1 0 0 0 0 0c-3,-1 -12,1 -8,-1l194 -111c1,-1 2,-1 3,-1l0 0 0 0 0 0 0 0 0 0 0 0 0 0 0 0 0 0 1 0 0 0 0 0 0 0 0 0 0 0 0 0 0 0 0 0 0 0 0 0 1 0 0 0 0 0 0 0 0 0 0 1 0 0 0 0 0 0 0 0 0 0 0 0 0 0 0 0 0 0 0 0 0 0 0 0 1 0 0 0 0 0 0 0 0 0 0 0 0 0 0 0 0 0 1 0 0 0 0 0 0 0 0 0 0 0 0 0 0 0 0 0 0 0 0 0 1 0 0 0 0 0 0 0 0 0 0 0 0 0 0 0 0 0 0 0 0 0 0 0 0 0 0 0 0 0 0 0 0 0 0 0 0 0 0 0 0 0 1 0 0 0c0,0 0,1 1,1l0 0 0 0 0 0 0 0 0 0 0 0 0 0 0 0 0 0 0 0 0 0 0 0 1 0 0 0 0 0 0 0 0 0 0 0 0 0 0 0 0 0 0 0 0 1 1 0 0 0 0 0 0 0 0 0 0 0 0 0 0 0 0 0 0 0 0 0 1 0 0 0 99 57 827 478 -192 112 -828 -478z"/>
   </g>
   <g>
    <path class="fil4" d="M3705 1376l145 -84 -912 -526 -146 83 913 527zm-770 -612l0 0 0 0z"/>
   </g>
  </g>
  <g>
   <polygon class="fil13" points="3639,1487 3637,1931 2882,1495 2883,1051 "/>
  </g>
  <g>
   <polygon class="fil10" points="2882,1495 3036,1406 3638,1753 3637,1931 3637,1931 2882,1495 "/>
  </g>
  <g>
   <polygon class="fil14" points="3199,1625 3199,1625 3199,1625 3295,1569 3295,1569 3295,1569 "/>
   <polygon class="fil14" points="3199,1625 3295,1569 3295,1569 3295,1569 3295,1569 3199,1625 3199,1625 "/>
   <polygon class="fil14" points="3199,1625 3295,1569 3295,1569 3295,1569 3199,1625 3199,1625 "/>
   <polygon class="fil15" points="3199,1625 3295,1569 3295,1569 3295,1569 3295,1569 3199,1625 3199,1625 "/>
   <polygon class="fil16" points="3199,1625 3295,1569 3295,1569 3295,1569 3199,1625 3199,1625 "/>
   <polygon class="fil16" points="3199,1625 3295,1569 3295,1569 3295,1569 3295,1569 3199,1625 "/>
   <polygon class="fil16" points="3199,1625 3295,1569 3295,1569 3295,1569 3295,1569 3199,1625 "/>
   <polygon class="fil17" points="3199,1625 3295,1569 3295,1569 3295,1569 3199,1625 3199,1625 "/>
   <path class="fil17" d="M3199 1625l96 -56c0,0 0,0 0,0l-96 56 0 0z"/>
   <polygon class="fil17" points="3199,1625 3295,1569 3296,1569 3296,1569 3199,1625 3199,1625 "/>
   <polygon class="fil17" points="3199,1625 3296,1569 3296,1569 3199,1625 3199,1625 3199,1625 "/>
   <path class="fil18" d="M3199 1625l97 -56 0 0 -97 56c0,0 0,0 0,0z"/>
   <path class="fil19" d="M3199 1625l97 -56 0 0 -96 56c-1,0 -1,0 -1,0z"/>
   <path class="fil20" d="M3200 1625l96 -56 0 0 -96 56c0,0 0,0 0,0z"/>
   <path class="fil20" d="M3200 1625l96 -56 0 0 -96 56c0,0 0,0 0,0z"/>
   <path class="fil14" d="M3357 1718l97 -56 0 33 0 0 0 0 0 0 0 0 -1 1 0 0 0 0c0,0 0,0 0,0l0 0 0 0 0 0 0 0 0 0 0 0 0 0 0 0c0,0 0,0 0,0l0 0 0 0 0 0 0 0 0 0 -96 56 0 0 0 0 0 0 0 0 0 0 0 0 0 0 0 0 0 0 0 0 0 0 0 0 0 0 0 0 0 0 0 0 0 0 0 0 0 0c0,-1 0,-1 0,-1 0,0 0,0 0,0l0 0 0 0 0 0 0 0 0 0 0 -33z"/>
   <polygon class="fil21" points="3200,1625 3296,1569 3452,1659 3356,1715 "/>
   <path class="fil14" d="M3356 1716l0 0 0 0 0 0 0 0 -1 -1 97 -56c0,0 1,1 1,1 1,1 1,2 1,2l-97 56 0 0 0 -1 0 0 0 0 0 0 0 0 0 0 0 0 0 -1 -1 0z"/>
   <path class="fil14" d="M3356 1715c1,1 1,2 1,3l0 33c0,1 0,1 -1,1l-157 -90c0,-1 -1,-2 -1,-3l0 -33c0,-1 1,-1 2,-1l156 90z"/>
   <path class="fil4" d="M3362 1716l92 -53 0 27 0 0 0 0 0 0 0 0 0 0 0 0 0 0 0 0c0,0 0,0 0,0l0 0 0 0 0 0 0 0 0 0 0 0 0 0 0 0c-1,1 -1,1 -1,1l0 0 0 0 0 0 0 0 -92 53 1 0 0 0 0 0 0 0 0 0 0 0 0 0 0 0 0 0 0 0 0 0 0 0 0 0 0 0 0 0c0,0 0,-1 0,-1 0,0 0,0 0,0l0 0 0 0 0 0 0 0 0 0 0 0 0 -27z"/>
  </g>
  <g>
   <polygon class="fil22" points="3373,1588 3470,1532 3499,1548 3402,1604 "/>
   <path class="fil23" d="M3499 1548l-1 177c0,0 0,0 0,0l0 0 0 0 0 0 0 0 0 0 0 0 0 0 0 0 0 0 0 0 0 0 0 1 0 0 0 0 0 0 0 0 0 0 0 0 0 0 0 0 0 0 0 0 0 0 0 0 0 0 0 0 0 0 0 0 -97 56 0 0c1,0 1,0 1,0l0 0 0 0 0 0 0 -1 0 0 0 0 0 0 0 0 0 0 0 0 0 0c0,0 0,0 0,0l0 0 0 0 0 0 0 0 0 0 0 0 0 -177 96 -55 1 -1z"/>
   <path class="fil24" d="M3402 1604l0 177c0,1 -1,1 -2,1l-26 -15c0,-1 -1,-2 -1,-3l0 -176 29 16z"/>
   <polygon class="fil4" points="3380,1587 3472,1533 3495,1547 3403,1600 "/>
  </g>
  <g>
   <polygon class="fil25" points="2900,1316 2996,1260 3025,1277 2929,1333 "/>
   <path class="fil25" d="M3025 1277l-1 176c0,0 0,0 0,0l0 1 0 0 0 0 0 0 0 0 0 0 0 0 0 0 0 0 0 0 0 0 0 0 0 0 0 0 0 0 0 0 0 0 0 0 0 0 0 0 0 0 0 0 0 0 0 0 0 0 0 0 0 0 0 0 0 0 0 0 -96 56 0 0c0,0 0,0 0,0l0 0 0 0 0 0 0 0 0 0 0 0 0 0 0 0 0 0 0 0 0 0 0 0c0,0 0,0 0,0l0 0 0 -1 0 0 0 0 0 0 0 0 1 -176 95 -56 1 0z"/>
   <path class="fil26" d="M2929 1333l-1 176c0,1 -1,2 -1,1l-26 -15c-1,0 -2,-1 -2,-2l1 -177 29 17z"/>
   <polygon class="fil4" points="2907,1315 2999,1262 3022,1275 2930,1328 "/>
  </g>
  <g>
   <g id="_1729768685536">
    <polygon class="fil5" points="3404,1606 3501,1550 3530,1566 3433,1622 "/>
   </g>
   <g id="_1729768684512">
    <path class="fil5" d="M3530 1566l-1 177 0 0 0 0 0 0 0 0 0 0 0 0 0 0 0 0 0 0 0 0 0 0 0 1 0 0 0 0 0 0 0 0 0 0 0 0 0 0 0 0 0 0 0 0 0 0 0 0 0 0 0 0 0 0 0 0 0 0 -96 56 0 0c0,0 0,0 0,0l0 0 0 0 0 0 0 0 0 0 0 -1 0 0 0 0 0 0 0 0 0 0c0,0 0,0 0,0l0 0 0 0 0 0 0 0 0 0 0 0 0 -177 96 -55 1 -1z"/>
   </g>
   <g id="_1729768684128">
    <path class="fil2" d="M3433 1622l0 177c0,1 -1,1 -2,1l-25 -15c-1,-1 -2,-2 -2,-3l1 -176 28 16z"/>
   </g>
   <polygon class="fil4" points="3412,1605 3504,1551 3526,1565 3434,1618 "/>
  </g>
  <g>
   <g id="_1729768685920">
    <polygon class="fil5" points="2931,1334 3027,1278 3056,1295 2960,1351 "/>
   </g>
   <g id="_1729768683328">
    <path class="fil5" d="M3056 1295l0 177c0,0 0,0 0,0l0 0 0 0 -1 0 0 0 0 0 0 0 0 0 0 0 0 0 0 0 0 0 0 0 0 0 0 0 0 0 0 0 0 0 0 0 0 0 0 0 0 0 0 0 0 0 0 0 0 0 0 0 0 0 0 0 0 0 0 0 -96 56 0 0c0,0 0,0 0,0l0 0 0 0 0 0 0 0 0 0 0 0 0 0 0 0 0 0 0 0 0 0c0,0 0,0 0,0l0 0 0 0 0 -1 0 0 0 0 1 -176 95 -56 1 0z"/>
   </g>
   <g id="_1729768682528">
    <path class="fil2" d="M2960 1351l-1 176c0,1 0,2 -1,1l-26 -15c-1,0 -2,-1 -2,-2l1 -177 29 17z"/>
   </g>
   <polygon class="fil4" points="2938,1333 3030,1280 3053,1293 2961,1346 "/>
  </g>
  <g>
   <g id="_1729768682880">
    <polygon class="fil27" points="2965,1355 3061,1300 3090,1316 2994,1372 "/>
   </g>
   <g id="_1729768682080">
    <path class="fil27" d="M3090 1316l0 177 0 0 0 0 0 0 0 0 0 0 0 0 0 0 -1 0 0 0 0 0 0 0 0 0 0 0 0 0 0 0 0 1 0 0 0 0 0 0 0 0 0 0 0 0 0 0 0 0 0 0 0 0 0 0 0 0 0 0 0 0 -96 56 0 0c0,0 0,0 0,0l0 0 0 -1 0 0 0 0 0 0 0 0 0 0 0 0 0 0 0 0 0 0c0,0 0,0 0,0l0 0 0 0 0 0 0 0 0 0 0 0 1 -177 95 -55 1 -1z"/>
   </g>
   <g id="_1729768681536">
    <path class="fil28" d="M2994 1372l-1 177c0,1 0,1 -1,1l-26 -15c-1,-1 -2,-2 -2,-3l1 -177 29 17z"/>
   </g>
   <polygon class="fil4" points="2972,1355 3064,1301 3087,1314 2995,1368 "/>
  </g>
  <g>
   <polygon class="fil22" points="2996,1373 3092,1318 3121,1334 3025,1390 "/>
   <path class="fil22" d="M3121 1334l0 177 0 0 0 0 0 0 0 0 0 0 0 0 0 0 0 0 0 0 0 0 0 0 0 0 0 0 0 1 0 0 0 0 0 0 0 0 -1 0 0 0 0 0 0 0 0 0 0 0 0 0 0 0 0 0 0 0 0 0 -96 56 0 0c0,0 0,0 0,0l0 0 0 -1 0 0 0 0 0 0 0 0 0 0 0 0 0 0 0 0c0,0 0,0 0,0l0 0 0 0 0 0 0 0 1 -177 95 -55 1 -1z"/>
   <path class="fil24" d="M3025 1390l-1 177c0,1 0,1 -1,1l-26 -15c-1,-1 -2,-2 -2,-3l1 -177 29 17z"/>
   <polygon class="fil4" points="3003,1373 3095,1319 3118,1332 3026,1386 "/>
  </g>
  <g>
   <g id="_1729768679520">
    <polygon class="fil27" points="3436,1624 3532,1568 3561,1584 3465,1640 "/>
   </g>
   <g id="_1729768678784">
    <path class="fil27" d="M3561 1584l-1 177 0 0 0 0 0 0 0 0 0 0 0 0 0 0 0 0 0 0 0 0 0 1 0 0 0 0 0 0 0 0 0 0 0 0 0 0 0 0 0 0 0 0 0 0 0 0 0 0 0 0 0 0 0 0 0 0 -96 56 0 0c0,0 0,0 0,0l0 0 0 0 0 0 0 0 0 0 0 0 0 -1 0 0 0 0 0 0 0 0c0,0 0,0 0,0l0 0 0 0 0 0 0 0 0 0 1 -177 95 -55 1 -1z"/>
   </g>
   <g id="_1729768677952">
    <path class="fil28" d="M3465 1640l-1 177c0,1 -1,1 -1,1l-26 -15c-1,-1 -2,-2 -2,-3l1 -176 29 16z"/>
   </g>
   <polygon class="fil4" points="3443,1623 3535,1569 3558,1583 3466,1636 "/>
  </g>
  <g>
   <polygon class="fil29" points="3029,1400 3125,1345 3125,1345 3125,1345 3029,1400 "/>
   <polygon class="fil30" points="3029,1400 3125,1345 3125,1345 3125,1345 3125,1345 3029,1400 3029,1400 "/>
   <polygon class="fil31" points="3029,1400 3125,1345 3125,1345 3125,1345 3029,1400 3029,1400 "/>
   <polygon class="fil32" points="3029,1400 3125,1345 3125,1345 3029,1400 3029,1400 "/>
   <polygon class="fil33" points="3029,1400 3125,1345 3125,1345 3125,1345 3029,1400 "/>
   <path class="fil34" d="M3029 1400l96 -55c0,0 0,0 0,0l-96 55 0 0 0 0z"/>
   <polygon class="fil25" points="3029,1400 3125,1345 3153,1352 3057,1408 "/>
   <polygon class="fil4" points="3129,1346 3153,1352 3061,1406 3037,1399 "/>
   <path class="fil26" d="M3059 1410l96 -56 40 197c0,0 0,0 0,0l0 0 0 0 0 0 0 0 0 0 0 0 0 0c0,1 0,1 0,1 0,0 0,0 0,0l0 0 0 0 0 0 0 0c0,0 0,0 0,0 0,0 0,0 0,0l-96 56 96 -56c0,0 0,0 0,0l0 0 0 0 0 0 0 0 0 0 0 0 0 0 0 0 0 0 0 0 0 0c0,0 0,0 0,0 0,0 0,1 0,1l-97 56 0 0 0 -1 1 0 0 0 0 0 0 0 0 0 0 0 0 0 0 0 0 0 0 0 0 0 0 0 0 0 0 0 0 0 0 0 0 0 0 0 0 0 0 0 0 0 0 0 0 0 0 -1 0 0 0 0 0 0 0 0 0 0 0 0 0 0 0 0 0 0 0 0c0,0 0,0 0,0l-40 -197z"/>
   <g id="_1729768673888">
    <path class="fil25" d="M3154 1353c0,0 0,0 0,0l-96 56 96 -56zm-96 56l0 0 0 0 96 -56c0,0 0,0 0,0l-96 56zm-1 -1l0 0 0 0 0 0 0 0 0 0 0 0 0 0 0 0 0 0 0 0 0 0 1 0 0 0 0 0 0 0 0 0 0 0 0 0 0 0 96 -55c0,0 0,-1 0,-1 0,0 0,0 0,0l0 0 0 0c0,0 0,0 0,0 0,0 0,0 -1,0 0,0 0,0 0,0 0,0 0,0 0,0l-96 56zm98 -54l0 0 0 0 0 0 0 0 0 0 0 0 0 0 0 0 0 0 0 0 0 0 0 0 0 0 0 0 0 0 0 0 0 0 0 0 0 0 0 0 0 0 0 0 0 -1 0 0 0 0 0 0 0 0 0 0 0 0 0 0 0 0 0 0 0 0 0 0 -1 0c0,0 0,0 0,0l0 0 0 0 0 0 0 0 0 0 0 0 0 0 0 0 0 0 0 0 -81 47 -15 9 0 0 0 0 0 0 0 0 0 0 0 0 0 0 0 0 0 0 0 0 0 0 0 0 0 0 0 0 0 0 0 0 0 0 0 0 0 0c1,0 1,0 1,0l0 1 0 0 0 0 0 0c0,0 0,0 0,0l0 0 0 0 0 0c0,0 0,0 0,0 0,0 0,0 0,0 0,0 0,0 0,0 0,0 0,0 0,0 0,0 0,0 0,0 0,0 0,0 0,0 0,0 0,0 0,0 0,0 0,0 0,0l96 -56 0 0z"/>
   </g>
   <path class="fil25" d="M3057 1408c1,1 2,1 2,2l40 197c0,1 0,2 -1,2l-28 -8c-1,-1 -2,-1 -2,-2l-40 -197c0,-1 0,-2 1,-2l28 8z"/>
  </g>
  <g>
   <g id="_1729768672320">
    <polygon class="fil12" points="2883,1266 3037,1176 3639,1524 3638,1702 "/>
   </g>
   <g id="_1729768672000">
    <polygon class="fil10" points="3638,1721 2883,1285 2883,1266 3638,1702 "/>
   </g>
  </g>
  <g>
   <polygon class="fil25" points="2894,1085 2919,1070 2948,1087 2923,1102 "/>
   <path class="fil25" d="M3019 1128l0 95c0,0 0,0 0,0l0 0 0 0 0 0 0 0 0 0 0 0 0 0 0 0 0 0 0 0 0 0 0 0 0 0 0 0 0 0 0 0 0 0 0 0 -1 0 0 0 0 0 0 0 0 0 0 0 0 0 0 0 0 0 0 0 0 1 0 0 -96 55 0 0c0,0 0,0 0,0l0 0 0 0 0 0 0 0 0 0 0 0 0 0 0 0 0 0 0 0 0 0 0 0c0,0 0,0 0,0l0 0 0 0 0 0 0 0 0 0 0 0 1 -177 25 -15 71 41z"/>
   <path class="fil26" d="M2923 1102l-1 177c0,0 0,1 -1,0l-26 -15c-1,0 -2,-1 -2,-2l1 -177 29 17z"/>
   <polygon class="fil4" points="2901,1084 2922,1072 2945,1085 2924,1097 "/>
  </g>
  <g>
   <path class="fil35" d="M3057 1151l0 94c0,0 0,0 0,0l0 0 0 0 0 0 0 0 0 0 0 0 0 0 0 0 0 0 0 0 0 0 0 1 0 0 0 0 0 0 0 0 0 0 0 0 0 0 0 0 0 0 0 0 0 0 0 0 0 0 0 0 0 0 -1 0 0 0 0 0 -96 56 0 0c0,0 0,0 0,0l1 0 0 0 0 0 0 0 0 0 0 0 0 -1 0 0 0 0 0 0 0 0 0 0c0,0 0,0 0,0l0 0 0 0 0 0 0 0 0 0 0 0 0 -177 25 -14 71 41z"/>
   <polygon class="fil35" points="2932,1108 2957,1093 2986,1110 2961,1124 "/>
   <path class="fil36" d="M2961 1124l0 177c0,1 -1,1 -2,1l-26 -15c-1,-1 -1,-2 -1,-3l0 -176 29 16z"/>
   <polygon class="fil4" points="2939,1107 2960,1095 2983,1108 2962,1120 "/>
  </g>
  <g>
   <polygon class="fil37" points="2970,1130 2995,1116 3024,1132 2999,1147 "/>
   <path class="fil37" d="M3095 1173l0 95c0,0 0,0 0,0l0 0 0 0 0 0 0 0 0 0 0 0 0 0 0 0 0 0 0 0 0 0 0 0 0 0 0 0 0 0 0 0 0 0 0 0 0 0 0 0 0 0 0 0 0 0 0 0 0 0 0 1 0 0 0 0 0 0 0 0 -97 55 0 0c1,0 1,0 1,0l0 0 0 0 0 0 0 0 0 0 0 0 0 0 0 0 0 0 0 0 0 0 0 0c0,0 0,0 0,0l0 0 0 0 0 0 0 0 0 0 0 0 0 -177 25 -15 71 41z"/>
   <path class="fil38" d="M2999 1147l0 177c0,0 -1,1 -2,0l-26 -15c0,0 -1,-1 -1,-2l0 -177 29 17z"/>
   <polygon class="fil4" points="2977,1129 2998,1117 3021,1130 3000,1142 "/>
  </g>
  <g>
   <polygon class="fil29" points="3003,1154 3032,1137 3032,1137 3003,1154 "/>
   <polygon class="fil30" points="3003,1154 3032,1137 3032,1137 3003,1154 3003,1154 "/>
   <polygon class="fil31" points="3003,1154 3032,1137 3032,1137 3003,1154 3003,1154 "/>
   <polygon class="fil32" points="3003,1154 3032,1137 3032,1137 3003,1154 3003,1154 "/>
   <polygon class="fil33" points="3003,1154 3032,1137 3032,1137 3003,1154 "/>
   <polygon class="fil34" points="3003,1154 3032,1137 3033,1137 3003,1154 3003,1154 "/>
   <g id="_1729768667072">
    <polygon class="fil27" points="3003,1154 3033,1137 3053,1149 3031,1162 "/>
   </g>
   <polygon class="fil4" points="3053,1149 3035,1159 3011,1153 3035,1139 "/>
   <g id="_1729768666976">
    <path class="fil27" d="M3033 1164l23 -14 93 54 20 101c0,0 0,0 0,0l0 0 0 0 0 0 0 0 0 0 0 0 0 0 0 0c0,0 0,0 0,0 0,0 0,0 0,0l0 0 0 0 0 0 0 0c0,0 0,0 0,0 0,0 0,0 0,0l-96 56 96 -55c0,0 0,0 0,0l0 0 0 0 0 0 0 0 0 0 0 0 0 0 0 0 0 0 0 0c0,0 0,0 0,0 0,0 0,0 0,0l-97 56 1 0 0 0 0 0 0 0 0 0 0 0 0 0 0 0 0 0 0 0 0 0 0 0 0 0 0 0 0 0 0 0 0 0 0 -1 0 0 0 0 0 0 0 0 0 0 0 0 0 0 0 0 0 0 0 0 0 0 0 0 0 0 0 0 0 0 0 0 0 0 0 0 0 0 0 0 0 0 0 0 0 0 0 0c0,0 0,0 0,0l-40 -197z"/>
   </g>
   <g id="_1729768665120">
    <g>
     <g>
      <path class="fil27" d="M3054 1149l-22 13 22 -13zm-22 13l0 0 22 -13 -22 13zm22 -13l0 0 -22 13 22 -13zm-23 13l0 0 22 -13 1 0 -22 13 0 0 0 0 0 0 0 0 0 0 0 0 0 0 0 0 0 0 0 0 -1 0 0 0 0 0 0 0 0 0 0 0 0 0 0 0zm23 -13l0 0 0 0 2 1 -23 14c0,0 0,0 0,0 0,0 0,0 0,0 0,0 0,0 0,0 0,0 0,0 0,0 0,0 0,0 0,0 0,0 0,0 0,-1 0,0 0,0 0,0 0,0 0,0 0,0l0 0 0 0 0 0c0,0 0,0 0,0l0 0 0 0 0 0 0 0c0,0 0,0 0,0l-1 0 0 0 0 0 0 0 0 0 0 0 0 0 0 0 0 -1 0 0 0 0 0 0 0 0 0 0 0 0 0 0 0 0 0 0 0 0 15 -9 7 -4z"/>
     </g>
    </g>
   </g>
   <g id="_1729768664576">
    <path class="fil28" d="M3031 1162c1,0 2,1 2,2l40 197c0,1 0,1 -1,1l-28 -7c-1,-1 -2,-2 -2,-3l-40 -196c0,-1 0,-2 1,-2l28 8z"/>
   </g>
  </g>
  <g>
   <polygon class="fil14" points="3092,1340 3092,1340 3092,1340 3092,1340 3188,1284 3188,1284 3188,1284 "/>
   <polygon class="fil14" points="3092,1340 3188,1284 3188,1284 3189,1284 3189,1284 3092,1340 3092,1340 "/>
   <polygon class="fil14" points="3092,1340 3189,1284 3189,1284 3189,1284 3092,1340 3092,1340 "/>
   <polygon class="fil15" points="3092,1340 3189,1284 3189,1284 3189,1284 3189,1284 3092,1340 3092,1340 "/>
   <polygon class="fil16" points="3092,1340 3189,1284 3189,1284 3189,1284 3093,1340 3093,1340 "/>
   <polygon class="fil16" points="3093,1340 3189,1284 3189,1284 3189,1284 3189,1284 3093,1340 "/>
   <polygon class="fil16" points="3093,1340 3189,1284 3189,1284 3189,1284 3189,1284 3093,1340 "/>
   <polygon class="fil17" points="3093,1340 3189,1284 3189,1284 3189,1284 3093,1340 3093,1340 3093,1340 "/>
   <path class="fil17" d="M3093 1340l96 -56c0,0 0,0 0,0l-96 56 0 0 0 0z"/>
   <polygon class="fil17" points="3093,1340 3189,1284 3189,1284 3189,1284 3093,1340 3093,1340 3093,1340 "/>
   <polygon class="fil17" points="3093,1340 3189,1284 3189,1284 3093,1340 3093,1340 3093,1340 "/>
   <path class="fil18" d="M3093 1340l96 -56 0 0 -96 56c0,0 0,0 0,0z"/>
   <path class="fil19" d="M3093 1340l96 -56 0 0 -96 56c0,0 0,0 0,0z"/>
   <path class="fil20" d="M3093 1340l96 -56 0 0 -96 56c0,0 0,0 0,0z"/>
   <path class="fil20" d="M3093 1340l96 -56 0 0 -96 56c0,0 0,0 0,0z"/>
   <path class="fil14" d="M3251 1433l96 -56 0 33 0 0 0 0 0 0 0 0 0 0 0 1 0 0 0 0c0,0 0,0 0,0l0 0 0 0 0 0 0 0 0 0 0 0 0 0 0 0c0,0 0,0 0,0l0 0 0 0 0 0 0 0 0 0 -97 56 0 0 0 0 0 0 1 0 0 0 0 0 0 0 0 0 0 0 0 0 0 0 0 0 0 0 0 0 0 0 0 0 0 0 0 0 0 -1c0,0 0,0 0,0 0,0 0,0 0,0l0 0 0 0 0 0 0 0 0 0 0 -33z"/>
   <polygon class="fil21" points="3093,1340 3189,1284 3346,1374 3249,1430 "/>
   <path class="fil14" d="M3250 1431l0 0 0 0 0 0 -1 0 0 -1 96 -56c0,0 1,1 2,1 0,1 0,2 0,2l-96 56 0 0 -1 -1 0 0 0 0 0 0 0 0 0 0 0 0 0 -1 0 0z"/>
   <path class="fil14" d="M3249 1430c1,1 2,2 2,3l0 33c0,1 -1,1 -2,1l-156 -90c-1,-1 -1,-2 -1,-3l0 -33c0,-1 0,-1 1,-1l156 90z"/>
   <path class="fil4" d="M3255 1431l92 -53 0 27 0 0 0 0 0 0 0 0 0 0 0 0 0 0 0 0c0,0 0,0 0,0l0 0 0 0 0 0 0 0 0 0 0 0 0 0 0 0 0 0c0,0 0,1 0,1l0 0 0 0 0 0 0 0 0 0 -92 53 0 0 0 0 0 0 0 0 0 0 0 0 0 0 0 0 0 0 0 0 0 0 0 0 0 0 0 0 0 0 0 0 0 0 0 -1c0,0 0,0 0,0 0,0 0,0 0,0l0 0 0 0 0 0 0 0 0 0 0 0 0 -27z"/>
  </g>
  <g>
   <g id="_1729768655968">
    <polygon class="fil22" points="3277,1307 3302,1293 3331,1309 3306,1324 "/>
    <path class="fil23" d="M3402 1350l-1 95c0,0 0,0 0,0l0 0 0 0 0 0 0 0 0 0 0 0 0 0 0 0 0 0 0 0 0 0 0 0 0 0 0 0 0 0 0 0 0 1 0 0 0 0 0 0 0 0 0 0 0 0 0 0 0 0 0 0 0 0 0 0 0 0 0 0 -96 56 0 0c0,0 0,0 0,0l0 -1 0 0 0 0 0 0 0 0 0 0 0 0 0 0 0 0 0 0 0 0c0,0 0,0 0,0l0 0 0 0 0 0 0 0 0 0 1 -177 25 -15 71 41z"/>
    <path class="fil24" d="M3306 1324l-1 177c0,1 0,1 -1,1l-26 -15c-1,-1 -2,-2 -2,-3l1 -177 29 17z"/>
    <polygon class="fil4" points="3284,1307 3305,1294 3328,1307 3307,1320 "/>
   </g>
   <g id="_1729768654624">
    <g>
     <polygon class="fil27" points="3308,1325 3333,1311 3362,1327 3337,1342 "/>
    </g>
    <g>
     <path class="fil27" d="M3433 1368l0 95 0 0 0 0 0 0 0 0 0 0 0 0 0 0 0 0 0 0 0 0 0 0 0 0 0 0 -1 0 0 0 0 0 0 1 0 0 0 0 0 0 0 0 0 0 0 0 0 0 0 0 0 0 0 0 0 0 0 0 0 0 0 0 -96 56 0 0c0,0 0,0 0,0l0 0 0 -1 0 0 0 0 0 0 0 0 0 0 0 0 0 0 0 0 0 0c0,0 0,0 0,0l0 0 0 0 0 0 0 0 0 0 1 -177 25 -15 71 41z"/>
    </g>
    <g>
     <path class="fil28" d="M3337 1342l-1 177c0,1 0,1 -1,1l-26 -15c-1,-1 -2,-2 -2,-3l1 -177 29 17z"/>
    </g>
    <polygon class="fil4" points="3315,1325 3336,1312 3359,1325 3338,1338 "/>
   </g>
   <g id="_1729768651680">
    <g>
     <polygon class="fil5" points="3339,1343 3364,1329 3393,1345 3368,1360 "/>
    </g>
    <g>
     <path class="fil5" d="M3464 1386l0 95 0 0 0 0 0 0 0 0 0 0 0 0 0 0 0 0 0 0 0 0 0 0 0 0 0 0 0 0 0 0 0 0 0 1 0 0 0 0 0 0 0 0 -1 0 0 0 0 0 0 0 0 0 0 0 0 0 0 0 0 0 0 0 -96 56 0 0c0,0 0,0 0,0l0 0 0 -1 0 0 0 0 0 0 0 0 0 0 0 0 0 0 0 0 0 0c0,0 0,0 0,0l0 0 0 0 0 0 0 0 0 0 1 -177 25 -15 71 41z"/>
    </g>
    <g>
     <path class="fil2" d="M3368 1360l-1 177c0,1 0,1 -1,1l-26 -15c-1,-1 -2,-2 -2,-3l1 -177 29 17z"/>
    </g>
    <polygon class="fil4" points="3346,1343 3367,1330 3390,1343 3369,1356 "/>
   </g>
  </g>
  <g>
   <polygon class="fil14" points="3376,1505 3376,1505 3376,1505 3376,1505 3472,1449 3472,1449 3472,1449 "/>
   <polygon class="fil14" points="3376,1505 3472,1449 3472,1449 3472,1449 3472,1449 3376,1505 3376,1505 "/>
   <polygon class="fil14" points="3376,1505 3472,1449 3472,1449 3472,1449 3376,1505 3376,1505 "/>
   <polygon class="fil15" points="3376,1505 3472,1449 3472,1449 3472,1449 3472,1449 3376,1505 3376,1505 "/>
   <polygon class="fil16" points="3376,1505 3472,1449 3472,1449 3472,1449 3376,1505 "/>
   <polygon class="fil16" points="3376,1505 3472,1449 3472,1449 3472,1449 3472,1449 3376,1505 "/>
   <polygon class="fil16" points="3376,1505 3472,1449 3472,1449 3472,1449 3472,1449 3376,1505 "/>
   <polygon class="fil17" points="3376,1505 3472,1449 3472,1449 3472,1449 3376,1505 3376,1505 3376,1505 "/>
   <path class="fil17" d="M3376 1505l96 -56c0,0 0,0 0,0l-96 56 0 0z"/>
   <polygon class="fil17" points="3376,1505 3472,1449 3472,1449 3472,1449 3376,1505 3376,1505 3376,1505 "/>
   <polygon class="fil17" points="3376,1505 3472,1449 3473,1449 3376,1505 3376,1505 3376,1505 "/>
   <path class="fil18" d="M3376 1505l97 -56 0 0 -97 56c0,0 0,0 0,0z"/>
   <path class="fil19" d="M3376 1505l97 -56 0 0 -97 56c0,0 0,0 0,0z"/>
   <path class="fil20" d="M3376 1505l97 -56 0 0 -97 56c0,0 0,0 0,0z"/>
   <path class="fil20" d="M3376 1505l97 -56 0 1 -96 55c0,0 -1,0 -1,0z"/>
   <path class="fil37" d="M3534 1598l97 -56 -1 34 0 0 0 0 0 0 0 0 0 0 0 0 0 0 0 0c0,0 0,0 0,0l0 0 0 0 0 0 0 0 0 0 0 0 0 0c0,0 0,0 0,0l0 1 0 0 0 0 0 0 0 0 -96 55 0 0 0 0 0 0 0 0 0 0 0 0 0 0 0 0 0 0 0 0 0 0 0 0 0 0 0 0 0 0 0 0 0 0 0 0c0,0 0,0 0,0 0,0 0,0 0,0l0 0 0 0 0 0 0 0 0 0 0 0 0 -34z"/>
   <polygon class="fil38" points="3377,1505 3473,1450 3629,1540 3533,1596 "/>
   <path class="fil37" d="M3533 1597l0 0 0 -1 0 0 0 0 -1 0 97 -56c0,-1 1,0 1,1 1,1 1,2 1,2l-97 56 0 -1 0 0 0 0 0 -1 0 0 0 0 0 0 0 0 -1 0 0 0z"/>
   <path class="fil37" d="M3533 1596c1,0 1,1 1,2l0 34c0,0 0,1 -1,0l-157 -90c0,0 -1,-1 -1,-2l0 -34c0,-1 1,-1 2,-1l156 91z"/>
   <path class="fil4" d="M3539 1597l92 -54 0 27 0 0 0 0 0 0 0 0 0 1 0 0 0 0 0 0c0,0 0,0 0,0l0 0 0 0 0 0 -1 0 0 0 0 0 0 0 0 0c0,0 0,0 0,0l0 0 0 0 0 0 0 0 0 0 -92 53 0 0 0 0 0 0 1 0 0 0 0 0 0 0 0 0 0 0 0 0 0 0 0 0 0 0 0 0 0 0c0,0 0,0 0,0 0,0 0,0 0,0l0 0 0 0 0 0 0 0 0 0 0 0 0 -27z"/>
  </g>
  <path class="fil39" d="M1717 801l4 1342c-318,184 -648,375 -930,538l-18 10 0 0 -4 -1317 0 -26 22 -12c284,-164 606,-350 926,-535z"/>
  <polygon class="fil40" points="763,1352 577,1237 1525,689 1565,712 1521,818 1678,778 1717,801 "/>
  <path class="fil4" d="M778 1314c305,-176 610,-352 915,-528l-147 -85 -911 526 143 87z"/>
  <polygon class="fil40" points="773,2691 580,2579 577,1236 769,1348 "/>
  <polygon class="fil4" points="1636,1044 1637,1488 882,1924 881,1480 "/>
  <polygon class="fil41" points="881,1746 1483,1399 1637,1488 882,1924 "/>
  <g>
   <polygon class="fil42" points="1313,1624 1216,1568 1216,1568 1216,1568 1216,1568 1216,1568 1217,1568 1217,1568 1313,1624 1313,1624 "/>
   <polygon class="fil43" points="1313,1624 1217,1568 1217,1568 1217,1568 1217,1568 1217,1568 1313,1624 1313,1624 "/>
   <path class="fil44" d="M1313 1624l-96 -56c0,0 0,0 0,0l96 56 0 0 0 0 0 0z"/>
   <polygon class="fil45" points="1313,1624 1217,1568 1217,1568 1217,1568 1313,1624 1313,1624 1313,1624 "/>
   <polygon class="fil46" points="1313,1624 1217,1568 1217,1568 1217,1568 1313,1624 1313,1624 1313,1624 "/>
   <path class="fil47" d="M1313 1624l-96 -56 0 0 96 56c0,0 0,0 0,0z"/>
   <polygon class="fil48" points="1313,1624 1217,1568 1217,1568 1217,1568 1217,1568 1217,1568 1217,1568 1313,1624 1313,1624 "/>
   <polygon class="fil33" points="1314,1624 1217,1568 1217,1568 1217,1568 1217,1568 1314,1624 1314,1624 1314,1624 "/>
   <polygon class="fil32" points="1217,1568 1314,1624 1314,1624 "/>
   <path class="fil25" d="M1059 1695l0 -34 96 56 0 34c0,0 0,0 0,1l-96 -56c0,-1 0,-1 0,-1z"/>
   <polygon class="fil4" points="1059,1692 1152,1746 1152,1719 1059,1665 "/>
   <path class="fil26" d="M1060 1659l156 -91 97 56 -157 91 0 0 0 0 0 0 0 0 0 0 0 0 0 0 0 0c0,0 0,0 0,0 0,0 0,0 -1,0 0,0 0,0 0,0l0 1 0 0 0 0 0 0 0 0 0 0 0 0c0,0 0,0 0,0l0 0 0 0 0 0 0 0 0 0c0,0 0,0 0,1 0,0 0,0 0,0l0 0 0 0 0 0c0,0 0,0 0,0l0 0 -96 -56 0 0 0 0 0 0 0 0 0 0 0 0 0 0 0 0 0 0 0 0 0 -1 0 0 0 0 0 0 0 0 0 0 0 0 0 0 0 0 0 0 0 0 0 0 0 0 0 0 0 0 0 0 0 0 0 0 0 0 0 0 0 -1 0 0 0 0 0 0 1 0 0 0 0 0 0 0 0 0 0 0 0 0 0 0z"/>
   <path class="fil25" d="M1313 1624c0,0 1,0 1,1l0 34c0,1 -1,2 -1,2l-157 90c0,1 -1,0 -1,0l0 -34c0,-1 0,-2 1,-2l157 -91z"/>
  </g>
  <polygon class="fil40" points="1637,1488 1635,1489 1483,1401 1483,1132 1634,1045 1636,1046 "/>
  <g>
   <g id="_1729768638144">
    <path class="fil35" d="M1012 1552c0,0 -2,1 -2,2 0,2 100,59 100,59l0 -13 -98 -48z"/>
    <polygon class="fil35" points="1041,1535 1041,1535 1041,1535 1041,1535 1041,1535 1041,1535 1041,1535 1041,1535 1041,1535 1041,1535 1041,1535 1041,1535 1041,1535 1041,1535 1137,1591 1137,1591 1137,1591 1137,1591 1137,1591 1137,1591 1137,1591 1137,1591 1108,1608 1012,1552 "/>
    <path class="fil36" d="M1137 1591c1,0 1,0 1,1l1 179c0,1 -1,3 -2,3l-29 17c0,0 -1,0 -1,-1l-1 -180c0,-1 1,-2 2,-2l29 -17z"/>
    <polygon class="fil4" points="1037,1537 1037,1537 1037,1537 1037,1537 1037,1537 1037,1537 1037,1537 1037,1537 1037,1537 1037,1537 1038,1537 1038,1537 1038,1537 1038,1537 1132,1591 1132,1591 1132,1591 1132,1591 1132,1591 1132,1591 1132,1591 1132,1591 1108,1604 1014,1550 "/>
    <path class="fil35" d="M1011 1734l-1 -180 98 54 0 182c0,1 0,1 0,1l-97 -56c0,0 0,-1 0,-1z"/>
   </g>
   <g id="_1729225999696">
    <path class="fil14" d="M967 1578c0,0 -1,1 -1,3 0,1 100,58 100,58l0 -13 -99 -48z"/>
    <polygon class="fil20" points="996,1562 996,1562 996,1562 996,1562 996,1562 997,1562 997,1562 997,1562 997,1561 997,1561 997,1561 997,1561 997,1561 997,1561 1093,1617 1093,1617 1093,1617 1093,1617 1093,1617 1093,1617 1093,1617 1093,1618 1064,1634 967,1578 "/>
    <path class="fil20" d="M1093 1618c0,-1 1,-1 1,0l1 180c0,1 -1,2 -2,3l-29 16c-1,1 -1,0 -1,-1l-1 -179c0,-1 1,-2 2,-3l29 -16z"/>
    <polygon class="fil4" points="993,1563 993,1563 993,1563 993,1563 993,1563 993,1563 993,1563 993,1563 993,1563 993,1563 993,1563 993,1563 993,1563 993,1563 1088,1617 1088,1617 1088,1617 1088,1617 1088,1617 1088,1617 1088,1617 1088,1617 1064,1631 970,1577 "/>
    <path class="fil14" d="M966 1761l0 -180 98 54 -1 182c0,0 1,1 1,1l-97 -57c0,0 -1,0 -1,0z"/>
   </g>
   <g id="_1729225984208">
    <g>
     <path class="fil5" d="M917 1608c0,0 -1,1 -1,2 0,2 100,59 100,59l0 -13 -99 -48z"/>
    </g>
    <g>
     <polygon class="fil5" points="947,1591 947,1591 947,1591 947,1591 947,1591 947,1591 947,1591 947,1591 947,1591 947,1591 947,1591 947,1591 947,1591 947,1591 1043,1647 1043,1647 1043,1647 1043,1647 1043,1647 1043,1647 1043,1647 1043,1647 1014,1664 917,1608 "/>
    </g>
    <g>
     <path class="fil2" d="M1043 1647c1,-1 1,0 1,1l1 179c0,1 -1,2 -2,3l-29 17c-1,0 -1,0 -1,-1l-1 -180c0,-1 1,-2 2,-2l29 -17z"/>
    </g>
    <polygon class="fil4" points="943,1593 943,1593 943,1593 943,1593 943,1593 943,1593 943,1593 943,1593 943,1593 943,1593 943,1593 943,1593 943,1593 943,1593 1038,1647 1038,1647 1038,1647 1038,1647 1038,1647 1038,1647 1038,1647 1038,1647 1014,1660 920,1606 "/>
    <g>
     <path class="fil5" d="M917 1790l-1 -180 98 54 0 182c0,1 0,1 0,1l-97 -56c0,0 0,-1 0,-1z"/>
    </g>
   </g>
  </g>
  <g>
   <g id="_1729226006192">
    <path class="fil35" d="M1500 1267c0,0 -1,0 -1,2 0,2 100,59 100,59l0 -13 -99 -48z"/>
    <polygon class="fil35" points="1529,1250 1530,1250 1530,1250 1530,1250 1530,1250 1530,1250 1530,1250 1530,1250 1530,1250 1530,1250 1530,1250 1530,1250 1530,1250 1530,1250 1626,1306 1626,1306 1626,1306 1626,1306 1626,1306 1626,1306 1626,1306 1626,1306 1597,1322 1500,1267 "/>
    <path class="fil36" d="M1626 1306c0,-1 1,0 1,1l1 179c0,1 -1,2 -2,3l-29 16c-1,1 -1,0 -1,0l-1 -180c0,-1 1,-2 2,-3l29 -16z"/>
    <polygon class="fil4" points="1526,1252 1526,1252 1526,1251 1526,1251 1526,1251 1526,1251 1526,1251 1526,1251 1526,1251 1526,1251 1526,1251 1526,1251 1526,1251 1526,1251 1621,1305 1621,1305 1621,1305 1621,1305 1621,1305 1621,1305 1621,1305 1621,1306 1597,1319 1503,1265 "/>
    <path class="fil35" d="M1499 1449l0 -180 98 54 -1 182c0,0 1,1 1,1l-97 -56c0,-1 -1,-1 -1,-1z"/>
   </g>
   <g id="_1730796287088">
    <g>
     <path class="fil27" d="M1456 1293c0,0 -1,1 -1,3 0,1 100,58 100,58l0 -13 -99 -48z"/>
    </g>
    <g>
     <polygon class="fil27" points="1485,1276 1485,1276 1485,1276 1485,1276 1485,1276 1485,1276 1485,1276 1485,1276 1485,1276 1485,1276 1486,1276 1486,1276 1486,1276 1486,1276 1582,1332 1582,1332 1582,1332 1582,1332 1582,1332 1582,1332 1581,1332 1581,1332 1552,1349 1456,1293 "/>
    </g>
    <g>
     <path class="fil28" d="M1581 1332c1,0 2,0 2,1l0 180c0,1 0,2 -1,2l-29 17c-1,0 -2,0 -2,-1l0 -180c0,0 0,-2 1,-2l29 -17z"/>
    </g>
    <polygon class="fil4" points="1482,1278 1482,1278 1482,1278 1482,1278 1482,1278 1482,1278 1482,1278 1482,1278 1482,1278 1482,1278 1482,1278 1482,1278 1482,1278 1482,1278 1577,1332 1577,1332 1577,1332 1577,1332 1577,1332 1577,1332 1577,1332 1576,1332 1553,1346 1458,1291 "/>
    <g>
     <path class="fil27" d="M1455 1475l0 -179 97 53 0 183c0,0 0,0 1,1l-97 -57c-1,0 -1,0 -1,-1z"/>
    </g>
   </g>
   <g id="_1729771941040">
    <path class="fil37" d="M1406 1322c0,0 -1,1 -1,3 0,2 100,59 100,59l0 -14 -99 -48z"/>
    <polygon class="fil37" points="1435,1306 1435,1306 1435,1306 1435,1306 1435,1306 1435,1306 1436,1306 1436,1306 1436,1306 1436,1306 1436,1306 1436,1306 1436,1306 1436,1305 1532,1361 1532,1361 1532,1361 1532,1361 1532,1361 1532,1362 1532,1362 1532,1362 1502,1378 1406,1322 "/>
    <path class="fil38" d="M1532 1362c0,-1 1,0 1,0l0 180c0,1 0,2 -1,3l-29 16c-1,1 -1,0 -1,0l-1 -180c0,-1 1,-2 1,-3l30 -16z"/>
    <polygon class="fil4" points="1432,1307 1432,1307 1432,1307 1432,1307 1432,1307 1432,1307 1432,1307 1432,1307 1432,1307 1432,1307 1432,1307 1432,1307 1432,1307 1432,1307 1527,1361 1527,1361 1527,1361 1527,1361 1527,1361 1527,1361 1527,1361 1527,1361 1503,1375 1409,1321 "/>
    <path class="fil37" d="M1405 1505l0 -180 97 54 0 182c0,0 0,1 1,1l-97 -56c-1,-1 -1,-1 -1,-1z"/>
   </g>
  </g>
  <g>
   <polygon class="fil49" points="882,1719 881,1718 881,1699 882,1700 "/>
   <polygon class="fil41" points="882,1700 881,1699 881,1522 1483,1174 1637,1263 1637,1264 "/>
   <polygon class="fil40" points="1637,1283 882,1719 882,1700 1637,1264 "/>
  </g>
  <g>
   <polygon class="fil42" points="1450,1322 1353,1266 1353,1266 1353,1266 1353,1266 1353,1266 1353,1266 1353,1266 1450,1322 1450,1322 "/>
   <polygon class="fil43" points="1450,1322 1353,1266 1353,1266 1354,1266 1354,1266 1354,1266 1450,1322 1450,1322 "/>
   <path class="fil44" d="M1450 1322l-96 -56c0,0 0,0 0,0l96 56 0 0 0 0 0 0z"/>
   <polygon class="fil45" points="1450,1322 1354,1266 1354,1266 1354,1266 1354,1266 1450,1322 1450,1322 1450,1322 "/>
   <polygon class="fil46" points="1450,1322 1354,1266 1354,1266 1354,1266 1450,1322 1450,1322 1450,1322 "/>
   <path class="fil47" d="M1450 1322l-96 -56 0 0 96 56c0,0 0,0 0,0z"/>
   <polygon class="fil48" points="1450,1322 1354,1266 1354,1266 1354,1266 1354,1266 1354,1266 1354,1266 1450,1322 "/>
   <polygon class="fil33" points="1450,1322 1354,1266 1354,1266 1354,1266 1354,1266 1450,1322 1450,1322 1450,1322 "/>
   <polygon class="fil32" points="1354,1266 1450,1322 1450,1322 1450,1322 "/>
   <path class="fil36" d="M1196 1392l0 -33 96 56 0 33c0,1 0,1 0,1l-96 -56c0,0 0,0 0,-1z"/>
   <polygon class="fil4" points="1196,1389 1289,1443 1289,1416 1196,1362 "/>
   <path class="fil35" d="M1197 1356l156 -90 97 56 -157 90 0 0 0 0 0 0 0 0 0 0 0 0 0 1 0 0c0,0 0,0 0,0 -1,0 -1,0 -1,0 0,0 0,0 0,0l0 0 0 0 0 0 0 0 0 0 0 0 0 0c0,0 0,0 0,1l0 0 0 0 0 0 0 0 0 0c0,0 0,0 0,0 0,0 0,0 0,0l0 0 0 0 0 0c0,0 0,1 0,1l0 0 -96 -56 0 0 0 0 0 0 0 0 0 -1 0 0 0 0 0 0 0 0 0 0 0 0 0 0 0 0 0 0 0 0 0 0 0 0 0 0 0 0 0 0 0 0 0 0 0 -1 0 0 0 0 0 0 0 0 0 0 0 0 0 0 0 0 0 0 0 0 0 0 0 0 1 0 0 0 0 0 0 -1 0 0 0 0 0 0z"/>
   <path class="fil36" d="M1450 1322c0,-1 1,0 1,1l0 33c0,1 -1,2 -1,3l-157 90c-1,0 -1,0 -1,-1l0 -33c0,-1 0,-2 1,-3l157 -90z"/>
  </g>
  <g>
   <polygon class="fil7" points="837,2653 837,2875 823,2883 824,2661 "/>
   <polygon class="fil50" points="2027,3340 2027,3562 837,2875 837,2653 "/>
   <polygon class="fil35" points="2027,3340 2014,3348 824,2661 837,2653 "/>
   <polygon class="fil51" points="2014,3348 2013,3571 823,2883 824,2661 "/>
   <g id="_1729771891504">
    <path class="fil35" d="M1897 3401l0 0 0 0 0 0 0 0 1 0 0 0 0 0 -1 0zm2 1l0 0 1 0 -1 0zm-17 216l0 0 -1143 -660c-6,-4 -9,-8 -9,-13l0 -222c0,4 3,9 9,12l1146 662 1 0 0 0 0 1 0 0 1 0 0 0 0 0 0 0c0,0 1,0 1,1l0 0c1,0 1,0 2,0l0 0 0 0c1,0 1,1 1,1l1 0 0 0 0 0 0 0 0 0c1,0 1,0 1,0l1 1 0 0 0 0 0 0 0 0 1 0 0 0 0 0 0 0 0 0 1 0 0 0 0 0 0 0 0 0 0 0 0 0 1 0 0 0 0 0 0 0 1 0 0 0 1 1 0 0 0 0 0 0 1 0 0 0 0 0 1 0 0 0 0 0 0 0 0 0 0 0 0 0 0 0 0 0 1 0 0 0 1 0 0 0 0 0 0 0 0 0 0 0c1,0 2,0 3,0l0 0 0 0c0,0 1,0 1,0l1 0 0 0 1 0 0 0 0 0 0 0 1 0 0 0 0 0 1 0 0 0 0 0 1 0 0 0 0 0 1 0c0,0 0,0 1,0l0 0 1 0 0 0 0 0 0 0 0 0c1,0 1,0 2,-1 0,0 0,0 1,0l0 0 0 0 0 0 1 0 0 0 0 0 0 0 0 0 0 0 1 0c1,0 1,-1 2,-1 1,0 1,0 2,0l0 0 0 -1 0 0 1 0 0 0 0 0 1 0 0 0 0 -1 1 0 0 0 0 0 0 0 1 0 0 0 0 -1 1 0 0 0 -1 223 0 0 -1 0 0 0c-1,1 -3,2 -5,3 -2,0 -4,1 -6,1 -1,0 -3,0 -4,1 -1,0 -2,0 -3,0l0 0 0 0 0 0 0 0 -1 0 0 0 0 0c-9,0 -17,-2 -26,-7z"/>
   </g>
   <path class="fil36" d="M2849 2862l-822 478 -1190 -687 -13 8 1190 687 -85 49c-12,7 -32,7 -44,0l-1146 -662c-12,-7 -12,-18 0,-25l920 -535 1190 687z"/>
   <polygon class="fil35" points="2849,2862 2849,3085 1928,3620 1928,3397 "/>
   <polygon class="fil4" points="2850,2890 1952,3411 1951,3578 2849,3057 "/>
   <polygon class="fil4" points="1125,2682 1374,2829 1946,2499 1697,2352 "/>
  </g>
  <polygon class="fil7" points="1029,2319 1028,2542 1015,2550 1015,2328 "/>
  <polygon class="fil50" points="2219,3007 2218,3229 1028,2542 1029,2319 "/>
  <polygon class="fil5" points="2219,3007 2205,3015 1015,2328 1029,2319 "/>
  <polygon class="fil51" points="2205,3015 2205,3237 1015,2550 1015,2328 "/>
  <g>
   <g id="_1729771873584">
    <path class="fil5" d="M2088 3068l0 0 1 0 0 0 0 0 0 0 0 0 1 0 -2 0zm3 0l0 0 0 0 0 0zm-18 217l0 0 -1143 -660c-6,-4 -9,-9 -9,-13l1 -223c0,5 3,9 9,13l1146 662 1 0 0 0 0 0 0 0 0 0 0 0 1 1 0 0c0,0 1,0 1,0l0 0c0,0 1,1 1,1l1 0 0 0c0,0 1,0 1,0l0 0 1 1 0 0 0 0 0 0c0,0 1,0 1,0l1 0 0 0 0 0 0 0 0 0 0 0 0 0 0 0 1 0 0 1 0 0 0 0 0 0 1 0 0 0 0 0 0 0 0 0 0 0 0 0 0 0 2 0 0 0 1 0 0 0 0 0 0 0 0 0 0 0 1 0 0 0 0 0 0 0 0 0 1 1 0 0 0 0 0 0 0 0 1 0 0 0 1 0 0 0 0 0 0 0 0 0 0 0c1,0 2,0 2,0l0 0 1 0c0,0 0,0 1,0l1 0 0 0 0 0 0 0 1 0 0 0 0 0 1 0 0 0 1 0 0 0 0 0 0 0 0 0 1 0 0 0c1,0 1,0 2,-1l0 0 0 0 0 0 0 0 0 0 1 0c0,0 1,0 1,0 1,0 1,0 2,0l0 0 0 0 0 0 0 0 0 0 1 0 0 -1 0 0 0 0 0 0c1,0 2,0 3,0 0,-1 1,-1 1,-1l0 0 1 0 0 0 1 0 0 0 0 -1 0 0 1 0 0 0 0 0 0 0 1 0 0 0 0 -1 1 0 0 0 0 0 1 0 -1 222 0 1 -1 0 0 0c-2,1 -4,2 -6,2 -1,1 -3,1 -5,2 -2,0 -3,0 -4,0 -1,0 -2,0 -3,0l0 0 -1 0 0 0 0 0 0 0 0 0 0 0c-10,1 -18,-1 -27,-6z"/>
   </g>
  </g>
  <g>
   <path class="fil2" d="M3041 2529l-822 478 -1190 -688 -14 9 1190 687 -84 49c-12,7 -32,7 -44,0l-1146 -662c-12,-7 -12,-18 0,-25l920 -535 1190 687z"/>
  </g>
  <g>
   <path class="fil52" d="M1260 2185l69 -40 867 501 -1 222 -926 -535 0 0c-6,-3 -9,-8 -9,-12l0 -136z"/>
   <polygon class="fil52" points="1258,2186 1304,2160 2169,2660 2169,2827 1258,2301 "/>
   <polygon class="fil52" points="1877,1857 1891,1865 1369,2168 1355,2160 "/>
   <polygon class="fil52" points="2718,2342 2910,2453 2195,2868 2196,2646 "/>
   <polygon class="fil52" points="1329,2145 1851,1842 1877,1857 1355,2160 1369,2168 1891,1865 2718,2342 2196,2646 "/>
  </g>
  <polygon class="fil5" points="3041,2529 3040,2751 2119,3286 2120,3064 "/>
  <polygon class="fil4" points="3041,2556 2144,3078 2143,3245 3041,2724 "/>
  <g>
   <path class="fil53" d="M1270 2086l926 535 -1 223 -926 -535 0 0c-6,-4 -9,-8 -9,-13l1 -222c0,4 3,9 9,12l0 0z"/>
   <polygon class="fil4" points="1258,2109 1258,2277 2169,2803 2169,2635 "/>
   <g id="_1729778795600">
    <polygon class="fil28" points="2551,1456 1369,2143 1355,2135 2537,1448 "/>
   </g>
   <g id="_1729778790864">
    <polygon class="fil27" points="3378,1934 3378,2157 2195,2844 2196,2621 "/>
   </g>
   <path class="fil6" d="M3378 1934l-1182 687 -926 -535c-12,-7 -12,-18 0,-25l1138 -662c12,-7 32,-7 44,0l85 49 -1182 687 14 8 1182 -687 827 478z"/>
  </g>
  <g>
   <path class="fil28" d="M3378 1934l-1182 687 -926 -535c-12,-7 -12,-18 0,-25l1138 -662c12,-7 32,-7 44,0l85 49 14 8 827 478z"/>
  </g>
  <g>
   <path class="fil28" d="M2680 1531l234 135c-5,68 -97,122 -210,122 -116,0 -210,-57 -210,-129 0,-66 82,-120 186,-128z"/>
  </g>
  <polygon class="fil54" points="2535,2424 2387,2512 1438,1964 1586,1875 "/>
  <path class="fil4" d="M2535 2607l-17 10 8 -94 -22 14 1 -21 61 -36 -1 20 -22 13 -8 94zm81 -49l0 0 -47 28 10 -114 47 -28 -2 20 -30 18 -2 25 28 -17 -2 20 -27 16 -3 30 30 -18 -2 20zm59 -126l0 0c-6,3 -11,10 -16,19 -4,9 -6,19 -7,32 -2,25 3,34 17,25 6,-3 13,-9 21,-18l-2 20c-7,8 -14,14 -22,19 -12,8 -21,8 -26,2 -6,-7 -7,-19 -6,-38 1,-12 3,-23 7,-34 4,-11 9,-20 15,-28 6,-8 13,-15 21,-19 8,-5 16,-7 23,-7l-7 23c-3,0 -6,0 -9,0 -3,1 -6,2 -9,4zm97 32l0 0 -17 10 4 -49 -32 20 -5 49 -17 10 10 -114 17 -10 -4 45 32 -20 4 -44 17 -11 -9 114zm92 -56l0 0 -22 14 -28 -65 0 0c-1,15 -1,25 -2,32l-5 53 -15 10 10 -114 21 -13 28 64 1 0c0,-15 1,-25 2,-31l4 -54 15 -9 -9 113zm99 -113l0 0c-2,19 -6,35 -14,49 -7,14 -17,25 -30,33 -12,7 -21,8 -27,2 -6,-6 -8,-19 -6,-38 1,-19 6,-35 13,-49 8,-14 18,-25 30,-32 13,-8 22,-9 27,-3 6,6 8,19 7,38zm-59 35l0 0c-1,13 -1,22 2,26 3,4 8,5 15,0 14,-8 22,-25 24,-50 2,-26 -4,-35 -18,-26 -6,4 -12,10 -16,19 -4,8 -6,19 -7,31zm71 12l0 0 9 -114 17 -10 -7 93 32 -19 -1 20 -50 30zm140 -139l0 0c-2,19 -6,36 -14,50 -7,14 -17,25 -30,32 -12,7 -21,8 -27,2 -6,-6 -8,-19 -6,-37 1,-19 6,-36 13,-50 8,-14 18,-25 30,-32 13,-8 22,-8 28,-2 5,6 7,18 6,37zm-59 36l0 0c-1,13 0,21 2,25 3,5 8,5 15,1 14,-8 22,-25 24,-51 2,-26 -4,-34 -17,-26 -7,4 -13,10 -17,19 -4,8 -6,19 -7,32zm107 -71l0 0 32 -20 -5 59c-5,6 -10,11 -15,14 -5,4 -9,7 -14,10 -12,8 -21,8 -27,2 -5,-6 -8,-19 -6,-38 2,-18 7,-35 15,-49 8,-15 19,-27 32,-35 9,-5 16,-7 24,-7l-8 23c-5,-1 -11,1 -18,5 -7,4 -13,11 -18,21 -5,9 -8,20 -9,32 -1,12 0,21 3,25 3,4 8,5 15,0 3,-2 7,-4 11,-8l2 -23 -16 9 2 -20zm77 -50l0 0 21 -57 18 -11 -32 86 -4 44 -17 11 3 -44 -21 -54 19 -11 13 36z"/>
  <g>
   <polygon class="fil55" points="3354,2970 3347,2966 3346,2822 3354,2826 "/>
   <polygon class="fil55" points="3354,2826 3346,2822 3370,2808 3378,2812 "/>
   <polygon class="fil55" points="3354,2799 3346,2794 3370,2781 3378,2785 "/>
   <polygon class="fil55" points="3354,2623 3346,2619 3370,2605 3377,2610 "/>
   <polygon class="fil25" points="3354,2799 3346,2794 3346,2619 3354,2623 "/>
   <polygon class="fil55" points="3353,2596 3346,2592 3370,2578 3377,2582 "/>
   <polygon class="fil55" points="3091,2978 3083,2974 3107,2960 3115,2964 "/>
   <polygon class="fil25" points="3115,2937 3107,2933 3346,2794 3354,2799 "/>
   <polygon class="fil55" points="3091,2951 3083,2946 3107,2933 3115,2937 "/>
   <polygon class="fil55" points="3090,2775 3083,2771 3106,2757 3114,2762 "/>
   <polygon class="fil55" points="3090,2775 3083,2771 3083,2743 3090,2748 "/>
   <polygon class="fil55" points="3090,2748 3083,2743 3106,2730 3114,2734 "/>
   <polygon class="fil55" points="3090,2572 3082,2568 3106,2554 3114,2559 "/>
   <polygon class="fil55" points="3090,2545 3082,2540 3106,2527 3113,2531 "/>
   <polygon class="fil55" points="3089,2369 3081,2365 3105,2351 3113,2356 "/>
   <polygon class="fil55" points="3089,2342 3081,2337 3105,2324 3113,2328 "/>
   <polygon class="fil25" points="3091,3122 3084,3118 3081,2194 3089,2198 "/>
   <polygon class="fil25" points="3091,2978 3083,2974 3083,2946 3091,2951 "/>
   <polygon class="fil25" points="3353,2596 3346,2592 3345,2416 3353,2420 "/>
   <polygon class="fil55" points="3353,2420 3345,2416 3369,2402 3377,2407 "/>
   <polygon class="fil55" points="3353,2393 3345,2389 3369,2375 3377,2379 "/>
   <polygon class="fil25" points="3114,2734 3106,2730 3346,2592 3353,2596 "/>
   <polygon class="fil55" points="3353,2393 3345,2389 3345,2213 3352,2217 "/>
   <polygon class="fil55" points="3352,2217 3345,2213 3369,2199 3376,2204 "/>
   <polygon class="fil55" points="3352,2190 3345,2185 3368,2172 3376,2176 "/>
   <polygon class="fil25" points="3113,2531 3106,2527 3345,2389 3353,2393 "/>
   <polygon class="fil25" points="3090,2572 3082,2568 3082,2540 3090,2545 "/>
   <polygon class="fil55" points="3352,2046 3344,2042 3368,2028 3376,2032 "/>
   <polygon class="fil25" points="3352,2190 3345,2185 3344,2042 3352,2046 "/>
   <polygon class="fil25" points="3113,2328 3105,2324 3345,2185 3352,2190 "/>
   <polygon class="fil25" points="3089,2369 3081,2365 3081,2337 3089,2342 "/>
   <g id="_1729777114736">
    <polygon class="fil26" points="3378,2785 3378,2812 3354,2826 3115,2964 3091,2978 3091,2951 3115,2937 3354,2799 "/>
    <g>
     <polygon class="fil26" points="3354,2970 3354,2826 3378,2812 3378,2956 "/>
     <polygon class="fil26" points="3354,2799 3354,2623 3377,2610 3378,2785 "/>
     <polygon class="fil26" points="3353,2596 3353,2420 3377,2407 3377,2582 "/>
     <polygon class="fil26" points="3377,2582 3377,2610 3354,2623 3114,2762 3090,2775 3090,2748 3114,2734 3353,2596 "/>
     <polygon class="fil26" points="3377,2379 3377,2407 3353,2420 3114,2559 3090,2572 3090,2545 3113,2531 3353,2393 "/>
     <polygon class="fil6" points="3353,2393 3352,2217 3376,2204 3377,2379 "/>
     <polygon class="fil6" points="3352,2046 3376,2032 3376,2176 3352,2190 "/>
     <polygon class="fil26" points="3376,2176 3376,2204 3352,2217 3113,2356 3089,2369 3089,2342 3113,2328 3352,2190 "/>
     <polygon class="fil26" points="3112,2184 3113,2328 3089,2342 3089,2369 3113,2356 3113,2531 3090,2545 3090,2572 3114,2559 3114,2734 3090,2748 3090,2775 3114,2762 3115,2937 3091,2951 3091,2978 3115,2964 3115,3108 3091,3122 3089,2198 "/>
    </g>
   </g>
   <polygon class="fil25" points="3089,2198 3081,2194 3105,2180 3112,2184 "/>
  </g>
  <g>
   <polygon class="fil26" points="3486,1819 3583,1763 3612,1779 3515,1835 "/>
   <path class="fil26" d="M3612 1779l-1 177 0 0 0 0 0 0 0 0 0 0 0 0 0 0 0 0 0 0 0 0 0 0 0 1 0 0 0 0 0 0 0 0 0 0 0 0 0 0 0 0 0 0 0 0 0 0 0 0 0 0 0 0 0 0 0 0 -97 56 1 0c0,0 0,0 0,0l0 0 0 0 0 0 0 -1 0 0 0 0 0 0 0 0 0 0 0 0 0 0c0,0 0,0 0,0l0 0 0 0 0 0 0 0 0 0 0 0 0 -177 96 -55 1 -1z"/>
   <path class="fil25" d="M3515 1835l0 177c0,1 -1,1 -2,1l-26 -15c0,-1 -1,-2 -1,-3l0 -176 29 16z"/>
   <polygon class="fil4" points="3493,1818 3585,1764 3608,1778 3516,1831 "/>
   <path class="fil56" d="M3263 2625c-31,-11 -60,-8 -64,8 -4,15 18,36 49,47 31,11 60,8 64,-7 5,-15 -17,-37 -49,-48z"/>
   <path class="fil56" d="M3379 2712c-17,29 -19,58 -4,65 14,7 39,-11 55,-40 17,-29 19,-58 4,-65 -14,-7 -39,11 -55,40z"/>
   <g id="_1729777109584">
    <path class="fil57" d="M3266 2465c0,-13 11,-22 24,-22 13,1 23,12 22,25l-11 170c-1,12 -12,22 -24,21 -13,-1 -23,-12 -22,-24l11 -170z"/>
   </g>
   <g id="_1729777110192">
    <path class="fil57" d="M3378 2461c0,-13 11,-23 24,-22 13,0 23,11 22,24 -1,16 -2,30 -3,43 -4,53 -7,102 11,168 4,13 -4,25 -16,29 -12,3 -25,-4 -28,-16 -21,-74 -17,-127 -13,-184 1,-14 2,-29 3,-42z"/>
   </g>
   <path class="fil58" d="M3298 2363c-8,-14 -4,-33 11,-42 14,-9 33,-5 42,10 51,84 30,103 -5,134 -18,17 -45,41 -38,130 1,17 -12,31 -29,33 -17,1 -32,-12 -33,-29 -9,-119 31,-154 59,-180 11,-10 18,-16 -7,-56z"/>
   <g id="_1729777110960">
    <path class="fil57" d="M3489 1946c1,-12 11,-22 24,-22 13,0 23,11 22,24 -4,123 -18,134 -68,172 -8,6 -16,12 -25,19 -10,8 -24,7 -32,-3 -8,-10 -7,-24 3,-33 10,-8 18,-14 26,-20 36,-28 47,-36 50,-137z"/>
   </g>
   <path class="fil59" d="M3399 2170c-17,3 -33,-9 -36,-26 -2,-16 9,-32 26,-35 8,-1 15,-5 22,-9 10,-7 19,-16 25,-23 11,-13 31,-15 44,-3 13,11 14,30 3,43 -9,11 -22,24 -39,35 -13,8 -28,15 -45,18z"/>
   <path class="fil58" d="M3362 2365c-10,-14 -7,-33 7,-43 13,-10 33,-7 43,7 16,22 16,47 14,98 -1,43 -3,107 5,207 1,17 -12,32 -29,33 -17,1 -32,-12 -33,-29 -8,-102 -6,-168 -5,-213 1,-36 2,-54 -2,-60z"/>
   <path class="fil59" d="M3442 2390c-1,15 -31,34 -66,38 -28,3 -61,-6 -74,-15 -6,-4 -13,-107 -13,-107 8,-90 23,-200 87,-193 9,1 36,7 42,21 22,49 26,223 24,256z"/>
   <g id="_1729777108848">
    <path class="fil57" d="M3299 2194c0,-13 11,-23 24,-23 12,1 22,11 22,24 -3,85 -27,110 -59,109 -21,-1 -41,-15 -59,-28 -4,-3 -7,-5 -13,-9 -10,-7 -13,-21 -6,-32 7,-11 21,-14 32,-7 3,3 9,7 14,11 13,9 26,18 33,18 6,1 10,-14 12,-63z"/>
   </g>
   <g id="_1729777108624">
    <path class="fil57" d="M3364 2076c-9,0 -17,7 -17,16l0 37c0,10 8,17 17,17 9,0 17,-7 17,-17l0 -37c0,-9 -8,-16 -17,-16z"/>
   </g>
   <g id="_1729777108752">
    <path class="fil57" d="M3364 2104c43,0 79,-35 79,-78 0,-44 -36,-79 -79,-79 -43,0 -78,35 -78,79 0,43 35,78 78,78z"/>
   </g>
   <path class="fil60" d="M3284 2055c-47,-104 64,-148 126,-116 29,16 50,2 50,11 2,31 -18,86 -42,104 -8,6 -5,-33 -20,-21 -15,12 -3,33 2,43 4,9 4,20 0,22 -9,7 -31,8 -50,5 -26,-3 -51,-15 -66,-48z"/>
   <path class="fil59" d="M3310 2149c12,-12 31,-12 43,0 12,12 13,32 1,44 -3,2 -4,15 -6,28 -2,13 -3,25 -8,37 -7,15 -25,23 -41,16 -15,-7 -23,-25 -16,-40 1,-4 3,-12 4,-21 3,-23 6,-46 23,-64z"/>
  </g>
  <g>
   <path class="fil58" d="M2502 2743c-32,-11 -60,-8 -65,7 -4,16 18,37 49,48 31,11 60,8 65,-7 4,-16 -18,-37 -49,-48z"/>
   <g id="_1729225492592">
    <path class="fil57" d="M2321 2555c-13,-1 -23,-12 -22,-25 1,-13 12,-22 25,-21 36,2 79,14 113,48 32,34 56,89 55,178 0,12 -11,23 -23,23 -13,-1 -23,-11 -23,-24 1,-74 -17,-118 -42,-144 -25,-25 -56,-33 -83,-35z"/>
   </g>
   <path class="fil58" d="M2329 2559c-17,-1 -30,-15 -29,-32 0,-18 15,-31 32,-30 34,1 73,11 106,41 31,29 55,77 60,153 2,17 -11,32 -28,33 -17,1 -32,-11 -33,-28 -5,-59 -21,-93 -42,-113 -19,-18 -44,-24 -66,-24z"/>
   <path class="fil58" d="M2556 2694c-32,-11 -60,-8 -65,7 -4,16 18,37 49,48 32,11 60,8 65,-7 4,-16 -18,-37 -49,-48z"/>
   <g id="_1729225490832">
    <path class="fil57" d="M2321 2508c-12,1 -24,-8 -25,-21 -2,-13 8,-24 20,-25l3 -1c9,-1 24,-2 43,-2 73,1 187,30 184,227 0,12 -11,23 -23,22 -13,0 -23,-10 -23,-23 2,-156 -84,-179 -138,-180 -16,0 -30,1 -38,2l-3 1z"/>
   </g>
   <path class="fil58" d="M2323 2515c-17,3 -32,-9 -35,-26 -2,-17 10,-33 27,-35 3,0 4,-1 7,-1 9,-2 21,-4 36,-5 70,-5 181,11 194,194 2,17 -11,32 -28,33 -17,1 -32,-12 -33,-29 -10,-128 -83,-140 -129,-136 -12,1 -23,3 -31,4 -3,0 -7,1 -8,1z"/>
   <g id="_1729225491056">
    <path class="fil57" d="M2312 2278c-3,-12 6,-24 19,-26 12,-2 24,6 26,19 13,75 41,85 69,81 12,-2 26,-7 38,-11l1 -1c12,-4 25,3 29,15 5,12 -2,25 -14,29l-1 1c-14,4 -30,10 -46,12 -51,9 -103,-6 -121,-119z"/>
   </g>
   <g id="_1729225488752">
    <path class="fil2" d="M2364 2287c-3,57 -51,165 32,164 21,0 7,55 -20,91 -60,82 -164,-2 -170,-100 -16,-252 161,-227 158,-155z"/>
   </g>
   <g id="_1729225488944">
    <path class="fil2" d="M2306 2286c-1,-18 13,-32 30,-33 17,-1 31,12 32,29 1,8 3,16 7,23 5,11 13,21 19,28 12,12 11,32 -1,44 -12,11 -32,11 -44,-2 -9,-10 -21,-25 -30,-42 -7,-14 -12,-30 -13,-47z"/>
   </g>
   <g id="_1729225488848">
    <path class="fil57" d="M2305 2206c-9,0 -17,7 -17,17l0 36c0,10 8,17 17,17 9,0 17,-7 17,-17l0 -36c0,-10 -8,-17 -17,-17z"/>
   </g>
   <g id="_1729225488976">
    <path class="fil57" d="M2305 2235c43,0 79,-36 79,-79 0,-43 -36,-79 -79,-79 -43,0 -79,36 -79,79 0,43 36,79 79,79z"/>
   </g>
   <path class="fil25" d="M2466 2311c-28,118 -28,118 -28,118l-21 -35 27 -133 22 50z"/>
   <path class="fil26" d="M2466 2311c-28,118 -28,118 -28,118l-90 40 24 -126 94 -32z"/>
   <g id="_1729225496368">
    <path class="fil57" d="M2236 2303c1,-13 13,-22 25,-21 13,1 22,13 21,25 -9,88 -1,113 14,115 11,1 29,-8 46,-16 17,-8 32,-15 46,-16 13,-1 24,9 25,21 1,13 -9,24 -21,25 -6,1 -18,6 -30,12 -22,11 -47,22 -71,20 -40,-4 -68,-41 -55,-165z"/>
   </g>
   <path class="fil60" d="M2292 2154c-7,3 -15,37 -22,40 -1,0 -3,-22 -10,-26 -13,-8 -32,0 -13,29 4,5 13,19 11,21 -4,4 -25,-16 -33,-33 -47,-103 64,-148 125,-115 30,15 51,1 51,10 2,31 -27,58 -55,66 -28,9 -44,4 -54,8z"/>
   <g id="_1729225495952">
    <path class="fil2" d="M2228 2302c2,-17 17,-30 34,-28 17,2 29,17 28,34 -2,18 -3,33 -3,46 -1,12 0,23 1,32 2,17 -11,32 -28,34 -17,2 -32,-10 -34,-27 -1,-12 -1,-25 -1,-41 0,-15 1,-31 3,-50z"/>
   </g>
  </g>
  <g>
   <g id="_1729225495824">
    <path class="fil57" d="M930 2518c2,-12 14,-21 26,-19 13,2 22,14 19,27 -19,113 -70,127 -121,119 -16,-3 -32,-8 -46,-13l-1 -1c-12,-4 -19,-17 -14,-29 4,-12 17,-18 29,-14l1 0c12,4 26,9 38,11 28,5 56,-6 69,-81z"/>
   </g>
   <path class="fil60" d="M1063 2392c28,21 53,44 36,79 -16,35 -19,49 5,63 56,34 -19,124 -56,108 -22,-10 -97,-129 -104,-131 -6,-1 -34,-33 1,-82 35,-48 118,-37 118,-37z"/>
   <path class="fil56" d="M829 2977c15,-30 39,-47 52,-39 14,9 12,39 -3,69 -15,29 -38,46 -52,38 -14,-8 -12,-39 3,-68z"/>
   <path class="fil56" d="M754 2990c31,-11 60,-7 65,8 4,15 -18,36 -49,48 -32,11 -60,7 -65,-8 -4,-15 18,-37 49,-48z"/>
   <g id="_1730791865264">
    <path class="fil57" d="M994 2758c12,1 21,13 20,26 -1,12 -13,22 -26,20l-2 0c-8,-1 -22,-3 -38,-2 -54,0 -140,24 -138,180 0,12 -10,23 -23,23 -12,0 -23,-10 -23,-23 -3,-196 111,-226 184,-227 19,0 34,2 43,3l3 0z"/>
   </g>
   <path class="fil56" d="M995 2751c17,2 29,18 27,34 -3,17 -18,29 -35,27 -2,0 -5,-1 -9,-2 -7,-1 -18,-3 -30,-4 -47,-3 -119,9 -129,137 -1,17 -16,30 -33,29 -17,-2 -30,-16 -29,-33 14,-183 125,-200 195,-194 15,1 27,3 36,4 2,1 4,1 7,2z"/>
   <g id="_1729770358880">
    <path class="fil57" d="M958 2726c12,3 19,16 16,28 -3,13 -16,20 -28,17 -19,-5 -39,-7 -54,-2 -7,2 -13,5 -17,10 -5,5 -9,12 -11,22 -8,29 -4,75 18,146 4,12 -3,25 -15,29 -12,4 -25,-3 -29,-15 -25,-80 -29,-135 -19,-171 4,-18 12,-32 22,-43 11,-11 23,-18 37,-23 24,-7 53,-5 80,2z"/>
   </g>
   <path class="fil61" d="M960 2718c16,5 26,22 22,38 -5,17 -22,27 -38,22 -17,-4 -33,-6 -47,-3 -6,2 -11,4 -15,8 -5,4 -9,11 -11,20 -5,21 -4,51 6,95 4,17 -7,34 -23,38 -17,3 -34,-7 -37,-24 -13,-54 -14,-95 -6,-124 6,-21 15,-37 28,-49 13,-13 28,-20 44,-24 25,-6 51,-3 77,3z"/>
   <path class="fil4" d="M923 2535c3,57 51,165 -32,164 -21,-1 -7,54 20,91 60,82 164,-2 170,-100 16,-253 -161,-227 -158,-155z"/>
   <g id="_1729770357568">
    <path class="fil57" d="M982 2453c9,0 17,8 17,17l0 37c0,9 -8,17 -17,17 -9,0 -17,-8 -17,-17l0 -37c0,-9 8,-17 17,-17z"/>
   </g>
   <g id="_1729770357408">
    <path class="fil57" d="M982 2482c43,0 79,-35 79,-79 0,-43 -36,-78 -79,-78 -43,0 -79,35 -79,78 0,44 36,79 79,79z"/>
   </g>
   <path class="fil21" d="M821 2559c28,118 28,118 28,118l21 -35 -27 -134 -22 51z"/>
   <path class="fil21" d="M821 2559c28,118 28,118 28,118l90 39 -24 -126 -94 -31z"/>
   <g id="_1729770355136">
    <path class="fil57" d="M1005 2555c-1,-13 8,-24 21,-26 12,-1 24,8 25,21 13,124 -15,161 -55,165 -24,3 -49,-9 -71,-19 -12,-6 -24,-12 -30,-12 -12,-1 -22,-12 -21,-25 1,-13 12,-23 25,-22 14,2 29,9 46,17 17,8 35,16 46,15 15,-1 23,-26 14,-114z"/>
   </g>
   <path class="fil60" d="M897 2403c44,-19 53,-43 53,-43 0,0 -1,51 43,72 44,21 56,29 56,29 103,-167 -156,-220 -152,-58z"/>
  </g>
  <g>
   <g id="_1729770347776">
    <path class="fil57" d="M1705 2987c2,-13 14,-21 26,-19 13,2 21,14 19,26 -19,113 -70,128 -121,119 -16,-2 -32,-8 -46,-12l-1 -1c-12,-4 -19,-17 -15,-29 5,-12 18,-19 30,-15l1 1c12,4 25,8 38,11 28,4 56,-6 69,-81z"/>
   </g>
   <path class="fil60" d="M1838 2860c28,22 52,45 36,80 -16,35 -20,48 5,63 56,33 -20,123 -56,107 -22,-9 -97,-128 -104,-130 -6,-2 -34,-34 1,-82 35,-48 118,-38 118,-38z"/>
   <path class="fil21" d="M1604 3445c15,-29 39,-46 52,-38 14,8 12,39 -3,68 -15,30 -39,47 -52,39 -14,-9 -12,-39 3,-69z"/>
   <path class="fil21" d="M1529 3459c31,-11 60,-8 64,7 5,16 -17,37 -48,48 -32,11 -61,8 -65,-7 -4,-16 18,-37 49,-48z"/>
   <g id="_1729770346112">
    <path class="fil57" d="M1768 3227c13,1 22,12 21,25 -1,13 -13,22 -26,21l-2 -1c-9,-1 -22,-2 -38,-2 -54,1 -140,24 -138,180 0,13 -10,23 -23,23 -13,1 -23,-10 -23,-22 -3,-197 111,-226 184,-227 19,0 34,1 43,2l2 1z"/>
   </g>
   <path class="fil58" d="M1770 3219c17,2 29,18 26,35 -2,17 -18,29 -34,26 -2,0 -5,0 -9,-1 -7,-1 -18,-3 -30,-4 -47,-4 -120,8 -129,136 -1,17 -16,30 -33,29 -17,-1 -30,-16 -29,-33 14,-183 124,-199 195,-194 14,1 27,3 36,5 2,0 4,1 7,1z"/>
   <g id="_1729770344832">
    <path class="fil57" d="M1732 3194c13,4 20,16 17,29 -3,12 -16,20 -28,16 -19,-5 -39,-7 -55,-2 -6,2 -12,6 -16,10 -5,6 -9,13 -12,23 -7,28 -3,74 19,145 4,13 -3,26 -15,30 -12,3 -25,-3 -29,-16 -25,-80 -29,-134 -19,-171 4,-18 12,-32 22,-42 10,-11 23,-19 36,-23 25,-8 54,-6 80,1z"/>
   </g>
   <path class="fil58" d="M1734 3187c17,4 27,21 22,38 -4,16 -21,26 -37,22 -17,-5 -33,-7 -47,-3 -6,1 -11,4 -16,8 -4,4 -8,10 -10,20 -6,20 -5,51 6,95 4,17 -7,33 -23,37 -17,4 -34,-6 -38,-23 -12,-55 -13,-95 -5,-125 6,-21 15,-37 28,-49 12,-12 28,-20 44,-24 24,-5 51,-3 76,4z"/>
   <path class="fil21" d="M1698 3003c3,57 51,165 -32,164 -21,0 -7,54 20,91 60,82 164,-2 170,-100 16,-253 -161,-227 -158,-155z"/>
   <g id="_1729770346368">
    <path class="fil57" d="M1757 2922c9,0 17,7 17,17l0 36c0,10 -8,17 -17,17 -9,0 -17,-7 -17,-17l0 -36c0,-10 8,-17 17,-17z"/>
   </g>
   <g id="_1729770343936">
    <path class="fil57" d="M1757 2950c43,0 79,-35 79,-78 0,-44 -36,-79 -79,-79 -43,0 -79,35 -79,79 0,43 36,78 79,78z"/>
   </g>
   <path class="fil62" d="M1596 3027c27,118 27,118 27,118l22 -35 -27 -133 -22 50z"/>
   <path class="fil63" d="M1596 3027c27,118 27,118 27,118l91 40 -24 -126 -94 -32z"/>
   <g id="_1729770342944">
    <path class="fil57" d="M1780 3023c-2,-13 8,-24 20,-25 13,-2 25,8 26,20 13,124 -15,162 -55,166 -24,2 -49,-9 -71,-20 -12,-6 -24,-11 -30,-12 -13,-1 -22,-12 -21,-25 1,-12 12,-22 25,-21 14,1 29,8 46,16 17,8 35,17 46,16 14,-2 23,-27 14,-115z"/>
   </g>
   <path class="fil60" d="M1672 2872c44,-19 53,-44 53,-44 0,0 -2,51 43,72 44,22 56,29 56,29 103,-167 -156,-220 -152,-57z"/>
  </g>
  <g>
   <path class="fil56" d="M981 3100c31,-11 60,-8 64,8 4,15 -18,36 -49,47 -31,12 -60,8 -64,-7 -5,-15 17,-37 49,-48z"/>
   <g id="_1729770342304">
    <path class="fil57" d="M1158 2866c13,-1 24,8 25,21 1,13 -8,24 -21,25 -27,2 -59,10 -83,35 -25,26 -43,70 -42,144 0,13 -10,24 -23,24 -13,0 -23,-10 -24,-23 -1,-89 23,-144 56,-177 34,-35 76,-46 112,-49z"/>
   </g>
   <path class="fil58" d="M1151 2854c17,-1 31,13 32,30 0,17 -13,31 -30,32 -22,1 -47,6 -66,24 -21,20 -37,54 -41,113 -2,17 -16,30 -33,28 -17,-1 -30,-16 -29,-33 6,-76 30,-124 61,-153 32,-30 71,-40 106,-41z"/>
   <path class="fil56" d="M927 3051c31,-11 60,-8 64,7 4,16 -18,37 -49,48 -31,11 -60,8 -64,-7 -5,-16 17,-37 49,-48z"/>
   <g id="_1729770341440">
    <path class="fil57" d="M1166 2819c13,1 22,13 21,25 -2,13 -13,22 -26,21l-2 0c-9,-1 -23,-3 -38,-3 -55,1 -141,24 -138,180 0,13 -10,23 -23,24 -13,0 -23,-11 -24,-23 -2,-197 112,-226 184,-227 19,0 34,1 44,2l2 1z"/>
   </g>
   <path class="fil58" d="M1168 2811c17,3 28,18 26,35 -2,17 -18,29 -35,26 -1,0 -4,0 -8,-1 -8,-1 -18,-3 -31,-4 -46,-3 -119,8 -128,136 -2,18 -16,30 -34,29 -17,-1 -29,-16 -28,-33 13,-183 124,-199 195,-194 14,1 27,3 36,5 2,0 4,1 7,1z"/>
   <g id="_1729770338944">
    <path class="fil57" d="M1125 2628c2,-13 14,-21 27,-19 12,2 21,14 19,27 -19,113 -71,127 -122,119 -16,-3 -31,-8 -45,-13l-2 -1c-12,-4 -18,-17 -14,-29 4,-12 17,-19 29,-14l2 0c12,4 25,9 38,11 27,4 56,-6 68,-81z"/>
   </g>
   <path class="fil25" d="M1114 2639c1,-17 16,-30 33,-29 17,1 30,16 29,33 -1,17 -6,33 -13,47 -9,17 -20,32 -30,42 -12,13 -31,13 -44,2 -12,-12 -13,-32 -1,-44 7,-7 14,-16 20,-28 3,-7 6,-15 6,-23z"/>
   <path class="fil26" d="M1119 2644c2,57 51,166 -32,164 -22,0 -7,55 19,91 60,82 165,-2 171,-100 15,-252 -162,-227 -158,-155z"/>
   <g id="_1729770339680">
    <path class="fil57" d="M1177 2563c10,0 17,8 17,17l0 37c0,9 -7,16 -17,16 -9,0 -16,-7 -16,-16l0 -37c0,-9 7,-17 16,-17z"/>
   </g>
   <g id="_1729770339872">
    <path class="fil57" d="M1177 2592c44,0 79,-36 79,-79 0,-43 -35,-79 -79,-79 -43,0 -78,36 -78,79 0,43 35,79 78,79z"/>
   </g>
   <path class="fil62" d="M1016 2669c28,118 28,118 28,118l21 -36 -27 -133 -22 51z"/>
   <path class="fil63" d="M1016 2669c28,118 28,118 28,118l90 39 -24 -126 -94 -31z"/>
   <g id="_1729770337536">
    <path class="fil57" d="M1200 2664c-1,-12 8,-24 21,-25 13,-1 24,8 25,21 13,124 -14,161 -54,165 -25,3 -49,-9 -72,-20 -12,-6 -23,-11 -29,-12 -13,-1 -23,-12 -22,-24 1,-13 13,-23 25,-22 15,1 30,9 46,16 17,8 36,17 47,16 14,-2 23,-27 13,-115z"/>
   </g>
   <path class="fil60" d="M1191 2511c7,3 15,37 22,40 0,0 2,-22 9,-26 14,-7 32,0 13,29 -3,5 -13,19 -11,21 4,4 26,-15 34,-33 47,-103 -64,-148 -126,-115 -30,15 -50,1 -51,10 -2,31 27,58 55,66 28,9 44,4 55,8z"/>
   <path class="fil26" d="M1193 2665c-2,-17 10,-32 27,-34 17,-1 32,11 34,28 2,19 3,35 3,51 1,15 0,29 -1,40 -2,17 -17,29 -34,27 -17,-2 -29,-17 -27,-34 1,-9 1,-20 1,-32 -1,-13 -2,-28 -3,-46z"/>
  </g>
  <g>
   <path class="fil58" d="M2556 1667c31,-11 60,-8 64,7 4,15 -18,37 -49,48 -31,11 -60,8 -64,-8 -5,-15 17,-36 49,-47z"/>
   <path class="fil58" d="M2555 1666c3,-1 6,-2 9,-3 14,-3 26,-4 36,-3 11,2 18,6 20,13l1 1c2,8 -3,17 -12,26 -9,9 -22,17 -38,23 -2,0 -5,1 -8,2 -14,4 -27,5 -37,3 -10,-1 -17,-6 -20,-12l0 -1c-2,-8 2,-18 11,-26 9,-9 23,-17 38,-23zm9 -1l0 0c-3,0 -5,1 -8,2 -16,6 -29,14 -38,22 -8,9 -13,18 -11,25l1 1c2,7 9,11 19,12 9,2 22,1 36,-3 2,-1 5,-2 8,-3 15,-5 29,-13 38,-22 8,-8 13,-17 10,-25l0 -1c-2,-6 -9,-10 -19,-12 -10,-1 -22,0 -36,4z"/>
   <path class="fil58" d="M2691 1663c-9,-14 -5,-33 9,-43 15,-9 34,-5 43,10 3,3 5,8 9,12 17,24 38,54 29,83 -10,33 -55,47 -179,8 -16,-5 -26,-22 -21,-38 6,-17 23,-26 39,-21 79,25 102,33 102,33 0,-1 -12,-16 -21,-29 -4,-6 -7,-11 -10,-15z"/>
   <path class="fil58" d="M2577 1688c31,-11 60,-8 64,7 4,16 -18,37 -49,48 -31,11 -60,8 -64,-7 -5,-16 17,-37 49,-48z"/>
   <path class="fil58" d="M2576 1687c3,-1 6,-1 9,-2 13,-4 26,-5 36,-3 10,1 18,6 20,12l1 1c2,8 -3,18 -12,26 -9,9 -22,17 -38,23 -3,1 -5,2 -8,2 -14,4 -27,5 -37,4 -10,-2 -17,-6 -20,-13l0 -1c-2,-8 2,-17 11,-26 9,-9 23,-17 38,-23zm9 -1l0 0c-3,1 -5,2 -8,3 -16,5 -29,13 -38,22 -9,8 -13,17 -11,25l0 0c3,7 10,11 19,12 10,2 23,1 37,-3 2,0 5,-1 8,-2 15,-6 29,-14 37,-23 9,-8 13,-17 11,-24l0 -1c-2,-7 -9,-11 -19,-12 -10,-2 -22,-1 -36,3z"/>
   <path class="fil58" d="M2728 1592c17,3 29,18 26,35 -2,17 -18,29 -35,27 -8,-2 -21,-6 -37,-10 -38,-11 -95,-28 -106,-20 -1,0 8,10 31,40 10,14 6,34 -7,44 -14,10 -33,7 -44,-7 -49,-68 -46,-106 -16,-128 35,-25 110,-3 159,11 14,4 25,8 29,8z"/>
   <path class="fil64" d="M2685 1409c2,-12 14,-21 27,-19 13,2 21,14 19,27 -3,18 -7,35 -11,49 -14,46 -35,77 -58,95 -25,20 -53,25 -80,21 -5,-1 -9,-2 -14,-3 -12,-4 -19,-17 -15,-29 3,-13 16,-20 29,-16 2,1 5,2 8,2 14,2 30,-1 44,-12 16,-12 30,-35 41,-71 4,-13 8,-28 10,-44z"/>
   <g id="_1729770335552">
    <path class="fil2" d="M2679 1426c2,57 51,165 -32,163 -22,0 29,30 56,67 60,82 128,23 134,-76 15,-252 -161,-226 -158,-154z"/>
   </g>
   <g id="_1729770333120">
    <path class="fil2" d="M2675 1420c0,-17 15,-30 32,-29 17,1 30,16 29,33 -1,17 -6,33 -13,47 -8,18 -20,32 -30,43 -12,12 -31,13 -43,1 -13,-12 -13,-31 -2,-44 7,-7 14,-16 20,-27 3,-8 6,-16 7,-24z"/>
   </g>
   <path class="fil65" d="M2730 1632c-95,15 -95,15 -95,15l-93 -78 90 -14 98 77z"/>
   <path class="fil64" d="M2738 1344c9,0 16,8 16,17l0 37c0,9 -7,17 -16,17 -10,0 -17,-8 -17,-17l0 -37c0,-9 7,-17 17,-17z"/>
   <path class="fil64" d="M2738 1373c43,0 78,-35 78,-79 0,-43 -35,-78 -78,-78 -44,0 -79,35 -79,78 0,44 35,79 79,79z"/>
   <path class="fil64" d="M2761 1446c-2,-13 7,-24 20,-26 13,-1 24,8 26,21 19,182 -30,219 -81,224 -14,2 -26,0 -38,-1 -3,0 -5,-1 -9,-1 -13,-1 -23,-12 -22,-25 1,-13 13,-22 25,-21 3,0 7,0 11,1 9,1 20,2 29,1 28,-3 53,-31 39,-173z"/>
   <path class="fil60" d="M2751 1293c7,2 15,36 22,39 0,0 2,-21 10,-26 13,-7 31,0 12,29 -3,5 -12,19 -11,21 4,4 26,-15 34,-33 47,-103 -64,-148 -126,-115 -29,16 -50,1 -51,10 -1,31 27,58 55,67 28,8 45,4 55,8z"/>
   <g id="_1729770331680">
    <path class="fil2" d="M2753 1446c-2,-17 10,-32 27,-33 17,-2 33,10 34,27 2,19 3,36 4,51 0,15 -1,29 -2,40 -2,17 -17,29 -34,27 -17,-1 -29,-17 -27,-33 1,-10 1,-21 1,-33 0,-13 -1,-28 -3,-46z"/>
   </g>
   <polygon class="fil66" points="2637,1645 2617,1553 2519,1480 2540,1569 "/>
  </g>
  <g>
   <path class="fil23" d="M1191 1327c1,0 2,0 2,1l41 150c0,0 0,2 -1,2l-28 25c0,0 -1,0 -1,0 0,1 -1,1 -1,0l-41 -150c0,-1 0,-2 1,-3l28 -25z"/>
   <path class="fil67" d="M1203 1506l-96 -56c0,-1 0,-1 0,-1l96 56c0,0 0,0 0,1z"/>
   <path class="fil68" d="M1204 1505c0,1 0,1 -1,1 0,0 0,-1 0,-1l-96 -56 -24 -86 49 -29 31 18 0 0 0 0 0 0 0 0 41 153z"/>
   <path class="fil69" d="M1163 1352l-31 -18 37 -21 20 12 3 2 0 0 0 0 0 0 0 0 0 0 0 0 0 0 0 0c0,0 0,0 0,0 0,0 0,0 0,0 0,0 0,0 0,0l0 0 0 0 0 0 0 0 0 0 0 0 0 0 0 0c-1,0 -1,0 -1,0l0 0 0 0 0 0 0 0 0 0 -28 25z"/>
   <polygon class="fil4" points="1162,1349 1186,1327 1165,1315 1135,1333 "/>
  </g>
  <g>
   <path class="fil14" d="M1549 1094c23,13 45,26 45,26l0 -13 -36 -18 -9 5z"/>
   <polygon class="fil20" points="1582,1075 1621,1098 1621,1098 1621,1098 1621,1098 1621,1098 1621,1098 1621,1098 1621,1098 1591,1115 1552,1092 "/>
   <path class="fil20" d="M1621 1098c0,-1 1,0 1,1l0 179c0,1 0,2 -1,3l-29 17c-1,0 -1,0 -1,-1l-1 -180c0,-1 1,-2 1,-2l30 -17z"/>
   <polygon class="fil4" points="1579,1077 1616,1098 1616,1098 1616,1098 1616,1098 1616,1098 1616,1098 1616,1098 1616,1098 1592,1111 1555,1090 "/>
   <path class="fil14" d="M1494 1241l0 -115 57 -33 40 22 0 182c0,1 0,1 1,1l-97 -56c-1,0 -1,-1 -1,-1z"/>
  </g>
  <g>
   <g id="_1729770326496">
    <path class="fil5" d="M1105 1350c17,10 30,17 30,17l0 -13 -20 -10 -10 6z"/>
   </g>
   <g id="_1729770328384">
    <polygon class="fil5" points="1138,1331 1162,1345 1162,1345 1162,1345 1162,1345 1162,1345 1162,1345 1162,1345 1162,1345 1132,1362 1109,1348 "/>
   </g>
   <g id="_1729770328128">
    <path class="fil2" d="M1162 1345c0,0 1,0 1,1l0 180c0,1 0,2 -1,2l-29 17c-1,0 -1,0 -1,-1l-1 -180c0,0 1,-2 1,-2l30 -17z"/>
   </g>
   <polygon class="fil4" points="1136,1333 1157,1345 1157,1345 1157,1345 1157,1345 1157,1345 1157,1345 1157,1345 1157,1345 1133,1359 1112,1346 "/>
   <g id="_1729770327200">
    <path class="fil5" d="M1035 1488l0 -97 73 -42 24 13 0 183c0,0 0,0 1,0l-97 -56c-1,0 -1,0 -1,-1z"/>
   </g>
  </g>
  <path class="fil4" d="M461 2180l0 52 -94 -50 0 -53 17 9 0 33 20 11 0 -31 16 9 0 31 25 13 0 -33 16 9zm-58 -119l0 0c-12,-4 -20,-4 -27,1 -6,4 -9,12 -9,23l0 26 94 50 0 -29c0,-10 -2,-20 -7,-30 -5,-9 -11,-18 -20,-25 -9,-7 -19,-12 -31,-16zm42 65l0 0c0,-6 -2,-12 -5,-18 -4,-6 -8,-11 -15,-16 -6,-4 -13,-8 -21,-11 -7,-2 -12,-2 -15,0 -4,2 -5,6 -5,12l0 7 61 33 0 -7zm-78 -173l0 0 61 33c11,6 20,14 26,23 5,8 8,18 8,29 0,9 -2,16 -7,19 -5,4 -11,4 -20,2 -3,-2 -6,-3 -9,-4l-59 -32 0 -20 59 32c3,2 6,3 8,4 8,2 12,-1 12,-9 0,-5 -2,-10 -5,-14 -4,-4 -8,-8 -15,-11l-59 -32 0 -20zm15 -51l0 0c0,-3 1,-6 2,-9 0,-2 2,-6 5,-9l-16 -13c-3,4 -5,8 -6,11 -1,4 -1,9 -1,14 0,10 2,19 7,28 5,9 12,18 22,25 9,8 19,13 31,17 11,4 20,4 27,0 6,-4 9,-12 9,-22 0,-9 -1,-18 -5,-28l-16 -5c3,9 5,17 5,23 0,7 -2,11 -6,12 -3,2 -8,2 -15,0 -8,-3 -15,-7 -22,-12 -7,-5 -12,-10 -15,-15 -4,-6 -6,-12 -6,-17zm57 -58l0 0 0 30 22 19 0 20 -94 -80 0 -24 94 22 0 19 -22 -6zm-17 -5l0 0 -22 -5c-6,-2 -11,-3 -17,-5l-2 -1c5,4 11,8 16,13l25 20 0 -22zm39 -43l0 0 -77 -42 0 -23 -17 -9 0 65 17 9 0 -23 77 42 0 -19zm0 -37l0 0 -94 -51 0 -19 94 51 0 19zm-60 -150l0 0c-11,-4 -20,-4 -26,0 -6,4 -9,12 -9,23 0,9 2,19 8,28 5,9 12,17 21,25 10,7 20,12 32,16 11,4 19,4 26,0 6,-4 9,-12 9,-23 0,-9 -2,-19 -7,-28 -5,-9 -12,-17 -22,-24 -9,-7 -20,-13 -32,-17zm-19 30l0 0c0,-5 2,-9 5,-10 4,-2 8,-2 14,0 9,3 16,7 23,11 7,5 12,10 16,15 4,6 6,11 6,16 0,5 -2,9 -5,11 -3,1 -8,1 -14,-1 -8,-2 -16,-6 -23,-11 -6,-4 -12,-10 -16,-15 -4,-6 -6,-11 -6,-16zm79 -94l0 0 0 22 -71 -1 0 1 2 1c9,4 18,8 25,12l44 24 0 17 -94 -50 0 -23 69 1 0 0c-3,-2 -8,-4 -14,-8 -6,-3 -24,-13 -55,-29l0 -18 94 51z"/>
  <g>
   <g id="_1729770326240">
    <path class="fil5" d="M716 2337l0 19 -77 -41 0 22 -16 -9 0 -64 16 9 0 22 77 42zm-93 -156l0 0 0 20 59 32c6,3 11,7 14,11 3,4 5,9 5,14 0,8 -4,11 -11,8 -2,0 -5,-2 -8,-3l-59 -32 0 19 59 32c3,2 6,3 9,4 8,3 15,3 20,-1 4,-4 7,-10 7,-19 0,-11 -3,-21 -9,-30 -6,-8 -14,-16 -26,-22l-60 -33zm93 -4l0 0 0 19 -77 -41 0 22 -16 -9 0 -65 16 9 0 23 77 42zm-60 -142l0 0c-11,-4 -19,-4 -25,0 -6,4 -10,12 -10,23 0,9 3,19 8,28 5,9 12,17 22,24 9,8 20,13 31,17 11,4 20,4 26,0 7,-5 10,-12 10,-23 0,-10 -3,-19 -8,-28 -4,-9 -12,-17 -21,-24 -10,-8 -20,-13 -33,-17zm-18 30l0 0c0,5 2,10 6,16 4,5 9,10 16,15 7,5 14,9 22,11 6,2 11,2 14,1 4,-2 5,-6 5,-11 0,-5 -2,-10 -5,-16 -4,-5 -9,-10 -16,-15 -7,-5 -15,-8 -23,-11 -6,-2 -11,-2 -14,0 -3,1 -5,5 -5,10zm26 -65l0 0 0 -5c0,-6 -1,-11 -3,-15 -3,-4 -6,-6 -11,-8 -4,-1 -6,-1 -8,0 -2,2 -3,5 -3,9l0 5 25 14zm17 8l0 0 35 20 0 19 -93 -50 0 -23c0,-10 2,-17 6,-21 5,-4 11,-4 20,-1 6,2 12,6 17,11 5,5 8,11 11,19l39 -4 0 21 -35 2 0 7zm35 -41l0 0 0 -19 -93 -51 0 20 93 50zm-22 -100l0 0 0 31 22 18 0 20 -93 -79 0 -24 93 21 0 19 -22 -6zm-16 -4l0 0 -23 -6c-5,-1 -11,-3 -16,-5l-2 0c5,3 10,7 16,12l25 20 0 -21zm38 -20l0 0 0 -52 -16 -9 0 33 -77 -42 0 19 93 51z"/>
   </g>
  </g>
  <path class="fil39" d="M1375 2796c-1,9 -5,15 -10,17 -6,2 -14,1 -23,-5 -9,-5 -16,-11 -22,-19l2 -20c5,6 9,11 13,14 3,4 7,6 10,8 4,2 7,3 9,2 2,0 3,-3 4,-6 0,-2 0,-4 -1,-6 -1,-2 -2,-5 -4,-7 -1,-3 -4,-7 -9,-13 -5,-6 -9,-11 -11,-15 -2,-4 -4,-8 -5,-13 -1,-4 -1,-9 -1,-14 1,-9 4,-15 9,-17 6,-2 13,-1 21,4 4,2 8,5 12,9 4,3 8,7 12,12l-8 14c-4,-5 -7,-9 -10,-11 -3,-3 -5,-5 -8,-6 -3,-2 -6,-3 -8,-2 -2,1 -3,3 -3,6 0,2 0,4 1,6 0,2 1,4 2,6 2,2 5,7 11,13 7,9 12,17 14,23 2,6 3,13 3,20zm61 65l0 0 19 11 -19 -120 -21 -12 -38 87 18 10 8 -21 30 17 3 28zm-6 -48l0 0 -21 -13c8,-20 13,-33 15,-38 0,2 0,5 1,8 0,3 2,17 5,43zm35 65l0 0 9 -103 18 10 -10 103 -17 -10zm109 63l0 0 -21 -13 -28 -98 -1 0c-1,14 -1,24 -2,30l-4 48 -15 -9 9 -102 22 12 28 97 0 1c1,-14 1,-24 2,-29l4 -49 16 9 -10 103zm71 11l0 0c-1,9 -4,15 -10,17 -5,2 -13,1 -22,-5 -9,-5 -16,-11 -23,-19l2 -20c5,6 10,11 13,14 4,4 8,6 11,8 3,2 6,3 9,3 2,-1 3,-3 3,-7 1,-2 0,-4 0,-6 -1,-2 -2,-4 -4,-7 -2,-2 -5,-7 -10,-13 -4,-6 -8,-11 -10,-15 -2,-4 -4,-8 -5,-13 -1,-4 -2,-9 -1,-14 1,-9 4,-14 9,-17 5,-2 12,-1 21,4 4,3 8,5 12,9 3,3 7,8 11,12l-7 14c-4,-5 -7,-8 -10,-11 -3,-2 -6,-5 -8,-6 -4,-2 -6,-2 -8,-2 -2,1 -3,3 -3,6 -1,2 0,4 0,6 1,2 2,4 3,6 2,2 5,7 10,14 8,9 12,16 15,22 2,7 3,13 2,20z"/>
  <g>
   <g id="_1729770324032">
    <path class="fil39" d="M2239 731c-99,0 -167,113 -122,194 23,43 74,32 74,172l96 0c0,-128 43,-130 68,-161 58,-73 -8,-205 -116,-205z"/>
    <path class="fil70" d="M2183 1070l113 0 0 27c0,31 -25,57 -56,57l0 0c-31,0 -57,-26 -57,-57l0 -27z"/>
    <path class="fil70" d="M2209 1081c-1,-47 -7,-111 -15,-162 -1,-5 -2,-9 -3,-14 -1,-1 -3,-2 -5,-3 -13,-11 -22,-33 -24,-48 -1,-5 -1,-9 -1,-12 1,-4 3,-7 6,-8 3,-2 6,-2 10,0 8,5 16,30 23,64 1,0 3,0 4,0 4,0 8,-1 11,-3 4,-2 8,-5 12,-9 3,-4 5,-8 7,-13 -3,-9 -5,-19 -5,-29 1,-12 1,-20 2,-26 3,-16 14,-18 17,-1 1,6 2,14 2,27 0,10 -2,20 -5,29 2,5 5,9 8,13 3,4 7,7 11,9 4,2 7,3 11,3 2,0 3,0 5,0 6,-34 14,-59 22,-64 4,-2 7,-2 10,0 3,1 5,4 6,8 1,3 0,7 0,12 -2,15 -12,37 -25,48 -2,1 -3,2 -5,3 -1,5 -2,9 -2,14 -8,51 -15,115 -16,162l-10 0c2,-48 8,-113 16,-163 1,-4 1,-7 2,-10 -1,0 -2,0 -3,0 -5,0 -11,-2 -16,-4 -5,-3 -9,-7 -14,-12 -2,-3 -4,-5 -5,-8 -2,3 -4,5 -6,8 -4,5 -9,9 -14,12 -5,2 -10,4 -16,4 -1,0 -1,0 -2,0 0,3 1,6 1,10 8,50 15,115 16,163l-10 0zm35 -239l0 0c-1,-34 -7,-32 -8,1 0,16 8,11 8,-1zm63 1l0 0c-5,3 -11,21 -16,47 9,-10 15,-26 17,-38 1,-3 1,-6 0,-8l0 -2c0,0 0,1 -1,1zm-119 47l0 0c-5,-26 -10,-44 -15,-47 -1,0 -2,-1 -2,-1l0 2c0,2 0,5 0,8 2,12 8,28 17,38z"/>
   </g>
   <path class="fil71" d="M2055 875c3,0 6,-2 6,-5 0,-4 -3,-6 -6,-6l-110 0c-3,0 -5,2 -5,6 0,3 2,5 5,5l110 0zm354 0l0 0 109 0c3,0 6,-2 6,-5 0,-4 -3,-6 -6,-6l-109 0c-4,0 -6,2 -6,6 0,3 2,5 6,5zm-25 -125l0 0 70 -71c3,-2 3,-6 0,-8 -2,-2 -6,-2 -8,0l-71 71c-2,2 -2,6 0,8 3,2 6,2 9,0zm-131 -55l0 0 0 -107c0,-3 -2,-6 -6,-6 -3,0 -5,3 -5,6l0 107c0,3 2,5 5,5 4,0 6,-2 6,-5zm-173 55l0 0c2,2 6,2 8,0 2,-2 2,-6 0,-8l-71 -71c-2,-2 -6,-2 -8,0 -2,2 -2,6 0,8l71 71z"/>
  </g>
  <g>
   <path class="fil39" d="M2822 3288l686 0c33,0 60,27 60,60 0,33 -27,59 -60,59l-686 0c-33,0 -60,-26 -60,-59 0,-33 27,-60 60,-60z"/>
   <g id="_1729770320544">
    <g>
     <polygon class="fil4" points="3500,3350 3495,3354 3503,3364 3507,3361 "/>
     <path class="fil4" d="M3506 3359l-5 3c0,1 0,1 0,2l11 15c1,0 1,1 2,0l5 -3c0,-1 0,-1 0,-2l-12 -15c0,-1 -1,-1 -1,0z"/>
     <path class="fil4" d="M3473 3320c10,-7 24,-5 31,5 8,10 6,23 -4,31 -10,7 -24,5 -31,-5 -7,-9 -5,-23 4,-31zm4 5l0 0c-7,6 -9,16 -3,23 5,7 15,8 22,3 7,-5 9,-15 4,-23 -6,-7 -16,-8 -23,-3z"/>
    </g>
    <path class="fil4" d="M3409 3308l-577 0c-11,0 -21,4 -28,11 -7,8 -12,18 -12,29 0,11 5,21 12,28 7,7 17,12 28,12l577 0c11,0 21,-5 28,-12 7,-7 12,-17 12,-28 0,-11 -5,-21 -12,-29 -7,-7 -17,-11 -28,-11zm-577 4l0 0 577 0c10,0 19,4 25,11 7,6 11,15 11,25 0,10 -4,18 -11,25 -6,6 -15,10 -25,10l-577 0c-10,0 -19,-4 -25,-10 -6,-7 -10,-15 -10,-25 0,-10 4,-19 10,-25 6,-7 15,-11 25,-11z"/>
   </g>
  </g>
  <g>
   <g id="_1729770321120">
    <path class="fil38" d="M370 2645c-6,-28 -11,-43 -36,-51 -24,-7 -29,-9 -29,-9 0,0 4,41 33,56 29,15 32,4 32,4z"/>
    <path class="fil26" d="M495 2729c-3,51 -48,100 -83,119 -29,15 -27,2 -47,2 -21,0 -19,13 -48,-3 -35,-18 -79,-67 -83,-118 -5,-71 58,-100 129,-73 25,10 44,-2 67,1 35,6 68,28 65,72z"/>
    <path class="fil72" d="M413 2614c-20,9 -28,27 -42,43 4,-27 12,-44 36,-59 4,-1 9,1 10,5 2,4 0,9 -4,11z"/>
   </g>
   <path class="fil4" d="M290 2672c-13,5 -29,18 -31,36 -3,17 3,23 7,23 6,0 9,-19 21,-31 13,-12 36,-18 35,-21 -2,-7 -15,-15 -32,-7z"/>
  </g>
  <g>
   <polygon class="fil73" points="1287,2178 2155,2679 1825,2495 "/>
   <polygon class="fil73" points="1287,2214 2155,2715 1825,2532 "/>
   <polygon class="fil73" points="1287,2251 2155,2752 1825,2569 "/>
  </g>
  <g>
   <polygon class="fil73" points="3011,2617 2225,3071 2524,2905 "/>
   <polygon class="fil73" points="3011,2650 2225,3104 2524,2938 "/>
   <polygon class="fil73" points="3011,2684 2225,3138 2524,2971 "/>
  </g>
  <g>
   <polygon class="fil11" style="mask:url(#id0)" points="3812,1369 3812,2621 3805,2149 "/>
   <polygon class="fil11" points="3774,1392 3774,2644 3767,2172 "/>
   <polygon class="fil11" points="3737,1415 3737,2667 3730,2195 "/>
  </g>
  <g>
   <polygon class="fil73" points="1618,780 750,1281 1074,1087 "/>
   <polygon class="fil73" points="1586,762 718,1263 1042,1069 "/>
   <polygon class="fil73" points="1554,743 686,1245 1010,1051 "/>
  </g>
  <g>
   <polygon class="fil73" points="1378,616 510,1118 834,924 "/>
   <polygon class="fil73" points="1346,598 478,1099 802,905 "/>
   <polygon class="fil73" points="1314,580 446,1081 770,887 "/>
  </g>
  <g>
   <polygon class="fil73" points="2785,2980 1998,3434 2297,3268 "/>
   <polygon class="fil73" points="2785,3014 1998,3467 2297,3301 "/>
   <polygon class="fil73" points="2785,3047 1998,3501 2297,3334 "/>
  </g>
  <g>
   <path class="fil58" d="M2441 3442c-31,-11 -60,-7 -64,8 -5,15 17,37 49,48 31,11 60,8 64,-8 4,-15 -18,-36 -49,-48z"/>
   <path class="fil58" d="M2441 3443c-3,-1 -6,-2 -8,-3 -14,-3 -27,-4 -37,-3 -9,2 -16,6 -18,12l-1 1c-2,8 3,16 11,25 9,9 22,17 38,22 3,1 5,2 8,3 14,4 26,5 36,3 10,-2 17,-6 19,-12l0 -1c2,-7 -2,-16 -11,-25 -8,-8 -22,-16 -37,-22zm-8 -4l0 0c3,1 5,2 8,3 16,6 29,14 38,22 9,9 14,19 12,26l-1 1c-2,7 -9,12 -20,13 -10,2 -23,1 -36,-3 -3,-1 -6,-2 -9,-3 -15,-5 -29,-13 -38,-22 -9,-9 -13,-18 -11,-26l0 -1c3,-7 10,-11 20,-13 10,-2 23,-1 37,3z"/>
   <path class="fil58" d="M2254 3405c9,-14 28,-18 42,-9 15,9 19,29 10,43 -3,4 -7,9 -11,15 -9,13 -21,28 -21,28 1,1 24,-7 103,-32 16,-5 33,4 38,20 5,17 -4,34 -20,39 -125,39 -169,25 -180,-8 -8,-29 13,-59 30,-83 3,-5 6,-9 9,-13z"/>
   <path class="fil58" d="M2420 3464c-31,-11 -60,-8 -64,7 -5,16 17,37 49,48 31,11 60,8 64,-7 4,-16 -18,-37 -49,-48z"/>
   <path class="fil58" d="M2420 3464c-3,-1 -6,-2 -8,-2 -14,-4 -27,-5 -36,-3 -10,1 -17,5 -19,12l-1 0c-2,8 3,17 11,25 9,9 22,17 38,22 3,1 5,2 8,3 14,4 26,5 36,3 10,-1 17,-5 19,-12l1 -1c2,-7 -3,-16 -11,-24 -9,-9 -22,-17 -38,-23zm-8 -3l0 0c3,0 6,1 8,2 16,6 29,14 38,23 9,8 14,18 12,26l-1 1c-2,6 -9,11 -20,12 -10,2 -22,1 -36,-3 -3,-1 -6,-1 -8,-2 -16,-6 -30,-14 -39,-23 -9,-9 -13,-18 -11,-26l1 -1c2,-7 9,-11 19,-13 10,-1 23,0 37,4z"/>
   <path class="fil58" d="M2277 3429c-17,3 -32,-9 -35,-26 -2,-17 10,-32 27,-35 4,-1 15,-4 29,-8 48,-14 124,-36 159,-11 29,21 32,60 -17,128 -10,13 -29,16 -43,6 -14,-10 -17,-29 -7,-43 22,-30 31,-40 31,-41 -11,-8 -69,10 -106,21 -16,4 -29,8 -38,9z"/>
   <g id="_1729770311360">
    <path class="fil57" d="M2266 3193c-2,-13 6,-25 19,-27 12,-2 24,6 26,19 3,16 6,31 10,44 11,36 26,59 42,71 14,11 29,14 44,12 3,-1 5,-1 8,-2 12,-4 25,3 29,15 4,13 -3,26 -16,29 -4,2 -9,3 -13,3 -27,5 -55,0 -81,-20 -23,-18 -43,-49 -57,-95 -4,-15 -8,-31 -11,-49z"/>
   </g>
   <path class="fil59" d="M2318 3201c-3,57 -51,166 32,164 21,0 -29,30 -56,67 -60,82 -128,22 -134,-76 -16,-252 161,-227 158,-155z"/>
   <path class="fil59" d="M2261 3200c-1,-17 12,-32 29,-33 17,-1 31,12 32,29 1,8 3,16 7,23 5,11 13,21 20,28 11,12 11,32 -2,44 -12,11 -32,11 -43,-2 -10,-10 -22,-25 -31,-42 -6,-14 -11,-30 -12,-47z"/>
   <path class="fil65" d="M2267 3408c95,15 95,15 95,15l93 -78 -90 -14 -98 77z"/>
   <g id="_1729770310912">
    <path class="fil57" d="M2259 3120c-9,0 -17,7 -17,17l0 37c0,9 8,16 17,16 9,0 17,-7 17,-16l0 -37c0,-10 -8,-17 -17,-17z"/>
   </g>
   <g id="_1729770309152">
    <path class="fil57" d="M2259 3149c43,0 79,-36 79,-79 0,-43 -36,-79 -79,-79 -43,0 -79,36 -79,79 0,43 36,79 79,79z"/>
   </g>
   <g id="_1729770308768">
    <path class="fil57" d="M2190 3217c1,-13 13,-22 26,-21 12,1 21,13 20,25 -15,143 11,171 39,174 9,1 20,0 29,-1 4,-1 8,-1 10,-1 13,-1 24,8 25,21 1,13 -8,24 -21,25 -4,0 -6,1 -9,1 -12,1 -25,2 -39,1 -50,-5 -99,-42 -80,-224z"/>
   </g>
   <path class="fil60" d="M2246 3068c-7,3 -15,37 -22,40 -1,0 -2,-22 -10,-26 -13,-8 -32,0 -13,29 4,5 13,19 11,21 -4,4 -25,-16 -33,-33 -47,-103 64,-148 125,-115 30,15 51,1 51,10 2,31 -27,58 -54,66 -29,9 -45,4 -55,8z"/>
   <path class="fil59" d="M2182 3216c2,-17 17,-29 34,-28 17,2 30,17 28,34 -2,18 -3,33 -3,46 0,12 0,23 1,32 2,17 -11,32 -27,34 -17,2 -33,-10 -34,-27 -2,-11 -2,-25 -2,-40 0,-16 1,-32 3,-51z"/>
   <polygon class="fil66" points="2360,3421 2380,3328 2478,3256 2457,3345 "/>
  </g>
  <g>
   <polygon class="fil73" points="2844,824 3712,1325 3388,1131 "/>
   <polygon class="fil73" points="2876,805 3744,1307 3420,1113 "/>
   <polygon class="fil73" points="2908,787 3776,1288 3452,1094 "/>
  </g>
  <polygon class="fil26" points="2685,3117 2747,3013 2791,3055 2793,2811 2687,2872 "/>
  <g>
   <path class="fil58" d="M1739 1926c-31,-12 -60,-8 -64,7 -5,15 17,37 49,48 31,11 60,8 64,-8 4,-15 -18,-36 -49,-47z"/>
   <path class="fil58" d="M1799 1881c-33,-4 -61,5 -62,21 -1,16 25,32 58,36 33,5 60,-5 61,-20 1,-16 -24,-33 -57,-37z"/>
   <g id="_1729770305472">
    <path class="fil57" d="M1741 1719c0,-13 11,-23 24,-23 12,1 23,11 22,24l-4 222c0,13 -10,23 -23,23 -13,-1 -23,-11 -23,-24l4 -222z"/>
   </g>
   <g id="_1729770304672">
    <path class="fil57" d="M1793 1678c0,-13 11,-23 24,-23 13,1 23,12 22,25 -1,16 -2,30 -3,43 -4,53 -7,102 11,168 4,12 -4,25 -16,29 -12,3 -25,-4 -28,-17 -21,-73 -17,-127 -13,-183 1,-15 2,-29 3,-42z"/>
   </g>
   <path class="fil58" d="M1715 1582c-10,-14 -7,-33 7,-43 13,-10 33,-7 43,7 16,22 16,61 15,127 0,53 0,126 7,222 1,17 -12,32 -29,33 -17,1 -32,-12 -33,-29 -7,-96 -7,-171 -6,-226 0,-53 0,-85 -4,-91z"/>
   <g id="_1729770304288">
    <path class="fil57" d="M1589 1152c-1,-13 9,-24 22,-24 13,-1 23,10 24,22 3,101 14,109 50,137 8,6 16,12 26,20 10,8 11,23 3,33 -8,10 -23,11 -32,3 -9,-7 -17,-13 -25,-19 -50,-38 -64,-49 -68,-172z"/>
   </g>
   <path class="fil74" d="M1759 1326c17,3 29,19 26,35 -3,17 -19,29 -36,26 -17,-3 -32,-10 -45,-18 -17,-11 -30,-24 -39,-35 -11,-13 -10,-33 4,-44 13,-11 32,-9 43,4 6,7 15,16 25,23 7,4 15,8 22,9z"/>
   <path class="fil58" d="M1777 1582c-10,-14 -7,-33 7,-43 14,-10 33,-7 43,7 16,22 16,47 14,98 -1,42 -3,106 5,207 1,17 -12,32 -29,33 -17,1 -32,-12 -33,-29 -8,-102 -6,-168 -5,-213 2,-36 2,-54 -2,-60z"/>
   <path class="fil74" d="M1857 1607c-1,15 -31,33 -66,37 -28,4 -61,-5 -74,-14 -6,-4 -13,-107 -13,-107 8,-90 23,-200 87,-193 10,1 36,7 42,21 22,49 26,223 24,256z"/>
   <path class="fil25" d="M1669 1615c106,60 106,60 106,60l-1 -91 -101 -64 -4 95z"/>
   <g id="_1729770302592">
    <path class="fil57" d="M1704 1424c0,-13 11,-23 24,-23 13,1 23,11 22,24 -2,62 -2,95 -3,122 0,34 0,58 -3,107 -1,13 -12,23 -24,22 -13,0 -23,-11 -22,-24 2,-50 3,-73 3,-105 0,-28 1,-63 3,-123z"/>
   </g>
   <g id="_1729770303648">
    <path class="fil57" d="M1784 1293c9,0 17,7 17,16l0 37c0,9 -8,17 -17,17 -9,0 -17,-8 -17,-17l0 -37c0,-9 8,-16 17,-16z"/>
   </g>
   <g id="_1729770303136">
    <path class="fil57" d="M1784 1321c43,0 79,-35 79,-78 0,-44 -36,-79 -79,-79 -43,0 -79,35 -79,79 0,43 36,78 79,78z"/>
   </g>
   <path class="fil60" d="M1864 1271c47,-103 -64,-147 -125,-115 -30,16 -51,2 -51,11 -2,31 19,86 42,104 8,6 5,-33 20,-21 15,12 3,33 -2,43 -4,9 -4,19 0,22 9,7 31,8 51,5 26,-3 50,-15 65,-49z"/>
   <path class="fil74" d="M1725 1366c12,-12 31,-12 43,0 13,12 13,31 1,44 -3,2 -4,15 -6,28 -2,13 -3,25 -8,37 -7,15 -25,23 -41,16 -15,-7 -23,-25 -16,-40 1,-4 3,-12 4,-21 3,-23 6,-46 23,-64z"/>
  </g>
  <g>
   <g id="_1729770300320">
    <path class="fil5" d="M967 1430c16,10 29,17 29,17l0 -13 -19 -9 -10 5z"/>
   </g>
   <g id="_1729770300032">
    <polygon class="fil5" points="1000,1411 1023,1425 1023,1425 1023,1425 1023,1425 1023,1425 1023,1425 1023,1425 1023,1425 994,1442 970,1428 "/>
   </g>
   <g id="_1729770300160">
    <path class="fil2" d="M1023 1425c1,0 1,0 1,1l1 180c0,1 -1,2 -2,2l-29 17c0,1 -1,0 -1,-1l-1 -179c0,-1 1,-2 2,-3l29 -17z"/>
   </g>
   <polygon class="fil4" points="997,1413 1018,1425 1018,1425 1018,1425 1018,1425 1018,1425 1018,1425 1018,1425 1018,1425 994,1439 973,1427 "/>
   <g id="_1729770298304">
    <path class="fil5" d="M897 1568l-1 -97 73 -42 25 14 0 182c0,0 0,1 0,1l-97 -57c0,0 0,0 0,-1z"/>
   </g>
  </g>
  <g>
   <path class="fil35" d="M928 1453c16,9 29,17 29,17l0 -13 -19 -10 -10 6z"/>
   <polygon class="fil35" points="961,1434 985,1448 985,1448 984,1448 984,1448 984,1448 984,1448 984,1448 984,1448 955,1465 931,1451 "/>
   <path class="fil36" d="M984 1448c1,0 2,0 2,1l0 179c0,1 -1,2 -1,3l-29 17c-1,0 -2,0 -2,-1l0 -180c0,-1 0,-2 1,-2l29 -17z"/>
   <polygon class="fil4" points="958,1435 980,1448 980,1448 980,1448 979,1448 979,1448 979,1448 979,1448 979,1448 955,1461 934,1449 "/>
   <path class="fil35" d="M881 1480l49 -29 25 14 0 182c0,1 0,1 0,1l-74 -43 0 -125z"/>
  </g>
  <g>
   <g id="_1729770295680">
    <path class="fil27" d="M889 1475c16,10 29,17 29,17l0 -13 -19 -9 -10 5z"/>
   </g>
   <g id="_1729770297504">
    <polygon class="fil27" points="922,1456 946,1470 946,1470 946,1470 946,1470 945,1470 945,1470 945,1470 945,1470 916,1487 892,1473 "/>
   </g>
   <g id="_1729770297536">
    <path class="fil28" d="M945 1470c1,0 2,0 2,1l0 180c0,1 -1,2 -1,2l-29 17c-1,1 -2,0 -2,-1l0 -179c0,-1 0,-2 1,-3l29 -17z"/>
   </g>
   <polygon class="fil4" points="919,1458 941,1470 941,1470 941,1470 941,1470 941,1470 940,1470 940,1470 940,1470 916,1484 895,1472 "/>
   <g id="_1729770294304">
    <path class="fil27" d="M881 1480l10 -6 25 14 0 182c0,0 0,1 0,1l-35 -21 0 -170z"/>
   </g>
  </g>
  <path class="fil4" d="M1148 3104c-1,9 -4,15 -10,17 -6,3 -13,1 -23,-4 -8,-5 -16,-12 -22,-20l2 -20c5,6 10,11 13,15 4,3 7,6 10,7 4,3 7,3 9,3 3,-1 4,-3 4,-7 0,-2 0,-4 -1,-6 0,-2 -2,-4 -3,-7 -2,-2 -5,-6 -10,-13 -5,-5 -8,-10 -10,-14 -3,-5 -4,-9 -5,-13 -2,-5 -2,-9 -2,-14 1,-9 4,-15 10,-18 5,-2 12,-1 21,4 4,3 8,6 11,9 4,4 8,8 12,12l-7 14c-4,-5 -8,-8 -10,-11 -3,-2 -6,-4 -9,-6 -3,-2 -5,-2 -7,-1 -2,1 -3,3 -4,6 0,2 0,3 1,5 0,2 1,4 3,6 1,3 5,7 10,14 7,9 12,16 14,23 3,6 4,12 3,19zm90 28l0 0c-1,17 -6,28 -13,33 -8,6 -18,5 -30,-2 -12,-8 -22,-18 -27,-31 -6,-13 -8,-28 -7,-45 2,-17 6,-28 14,-33 7,-5 17,-4 30,3 12,7 21,17 27,30 6,13 8,28 6,45zm-59 -34l0 0c-1,11 0,21 3,29 3,8 8,13 15,17 13,8 21,1 23,-22 3,-24 -3,-39 -17,-47 -7,-4 -12,-4 -16,0 -4,4 -7,11 -8,23zm114 29l0 0c-7,-4 -12,-4 -16,1 -4,4 -7,11 -8,22 -2,23 4,38 17,46 6,4 13,6 22,7l-2 18c-7,0 -15,-3 -23,-8 -12,-6 -20,-16 -26,-29 -5,-12 -7,-27 -5,-44 1,-11 3,-19 7,-25 4,-7 9,-10 15,-11 6,-1 13,0 20,5 8,4 16,11 23,21l-7 14c-3,-3 -5,-7 -8,-10 -3,-3 -6,-5 -9,-7zm30 108l0 0 9 -103 17 10 -9 103 -17 -10zm87 50l0 0 -4 -28 -29 -17 -8 21 -19 -10 38 -87 21 12 19 120 -18 -11zm-6 -48l0 0c-4,-25 -5,-40 -6,-43 0,-3 -1,-6 -1,-8 -1,5 -6,18 -14,39l21 12zm35 65l0 0 9 -103 17 10 -8 85 33 19 -1 18 -50 -29z"/>
  <polygon class="fil54" points="2133,2839 2071,2763 2027,2777 2024,2641 2130,2703 "/>
 </g>
</svg>
