<?xml version="1.0" encoding="UTF-8"?>
<!DOCTYPE svg PUBLIC "-//W3C//DTD SVG 1.1//EN" "http://www.w3.org/Graphics/SVG/1.1/DTD/svg11.dtd">
<!-- Creator: CorelDRAW X7 -->
<svg xmlns="http://www.w3.org/2000/svg" xml:space="preserve" width="42.3332mm" height="42.3332mm" version="1.1" style="shape-rendering:geometricPrecision; text-rendering:geometricPrecision; image-rendering:optimizeQuality; fill-rule:evenodd; clip-rule:evenodd"
viewBox="0 0 4233 4233"
 xmlns:xlink="http://www.w3.org/1999/xlink">
 <defs>
  <style type="text/css">
   <![CDATA[
    .fil9 {fill:#FEFEFE}
    .fil14 {fill:#FCEBDE}
    .fil28 {fill:#FDFEFE}
    .fil23 {fill:#F7D3D7}
    .fil34 {fill:#F6D1BC}
    .fil26 {fill:#F9C700}
    .fil35 {fill:#F5C4A8}
    .fil27 {fill:#F5B302}
    .fil30 {fill:#F0A398}
    .fil33 {fill:#EA788E}
    .fil21 {fill:#E8658B}
    .fil19 {fill:#E54A8C}
    .fil7 {fill:#ED8F17}
    .fil22 {fill:#F7F9FC}
    .fil18 {fill:#DE3A7F}
    .fil0 {fill:#E9EEF8}
    .fil17 {fill:#D84E44}
    .fil31 {fill:#CF6657}
    .fil3 {fill:#CCD4EC}
    .fil20 {fill:#BC356E}
    .fil1 {fill:#C1CDE9}
    .fil4 {fill:#BAC7E6}
    .fil2 {fill:#AEBBDE}
    .fil32 {fill:#63BBC0}
    .fil6 {fill:#272429}
    .fil24 {fill:#27272E}
    .fil12 {fill:#404665}
    .fil11 {fill:#272731}
    .fil10 {fill:#1F71B8}
    .fil25 {fill:#293749}
    .fil13 {fill:#0A66AE}
    .fil5 {fill:#242A42}
    .fil8 {fill:#0F4D85}
    .fil15 {fill:#1E3F65}
    .fil29 {fill:#1E3B5A}
    .fil16 {fill:#1D354F}
   ]]>
  </style>
 </defs>
 <g id="Layer_x0020_1">
  <metadata id="CorelCorpID_0Corel-Layer"/>
  <g id="_1729641471760">
   <path class="fil0" d="M3774 1095c-45,0 -81,-36 -81,-81 0,-45 36,-81 81,-81 45,0 81,36 81,81 0,45 -36,81 -81,81zm-2834 -366c-58,0 -105,-48 -105,-106 0,-58 47,-105 105,-105 59,0 106,47 106,105 0,58 -47,106 -106,106l0 0zm2601 3148c376,0 684,-308 684,-684l0 0c0,-376 -308,-684 -684,-684 -159,0 -289,-130 -289,-289l0 0c0,-159 130,-290 289,-290l34 0c166,0 301,-135 301,-300l0 0c0,-166 -135,-301 -301,-301l-105 0c-65,0 -117,-53 -117,-117l0 0c0,-65 52,-117 117,-117l77 0c45,0 81,-37 81,-81l0 0c0,-44 -36,-81 -81,-81l-521 0c-70,0 -127,-57 -127,-127l0 0c0,-70 57,-127 127,-127l156 0c44,0 80,-36 80,-81l0 0c0,-44 -36,-80 -80,-80l-1972 0c-58,0 -105,47 -105,105l0 0c0,58 47,106 105,106l933 0c91,0 166,74 166,165l0 0c0,91 -75,166 -166,166l-1705 0c-58,0 -105,47 -105,105l0 0c0,58 47,106 105,106l601 0c85,0 153,69 153,153l0 0c0,84 -68,152 -153,152l-137 0c-216,0 -393,177 -393,393l0 0c0,216 177,392 393,392l45 0c207,0 377,170 377,378l0 0c0,207 -170,377 -377,377l-461 0c-210,0 -381,171 -381,381l0 0c0,209 171,380 381,380 1083,0 1972,0 3055,0l0 0z"/>
   <path class="fil1" d="M3465 2171c11,-237 -231,-180 -377,-20 -146,160 -575,829 -807,964 -90,52 -72,65 1,48 363,-82 1170,-665 1183,-992z"/>
   <path class="fil2" d="M2221 3159c-5,9 4,13 24,11 590,-249 1113,-1053 1115,-1055 3,-5 1,-10 -3,-13 -4,-3 -10,-2 -13,2 -2,3 -532,818 -1123,1055z"/>
   <path class="fil2" d="M3231 1397c-89,-177 -242,-38 -284,139 -41,176 -83,838 -197,1032 -45,74 -26,76 20,34 232,-207 584,-961 461,-1205z"/>
   <path class="fil1" d="M2724 2624c0,9 8,7 22,-2 330,-421 385,-1221 385,-1223 0,-5 -3,-8 -7,-9 -5,0 -8,3 -9,8 0,2 -56,813 -391,1226z"/>
   <path class="fil2" d="M3460 2468c179,47 81,214 -71,287 -66,31 -214,79 -373,136l-367 0c248,-231 629,-470 811,-423z"/>
   <path class="fil3" d="M2742 2891c336,-216 734,-331 736,-331 3,-1 8,1 9,5 1,4 -1,8 -5,9 -2,1 -383,110 -713,317l-27 0z"/>
   <path class="fil3" d="M10 2251c32,-315 340,-194 502,45 144,212 505,994 781,1324l-206 0c-485,-335 -1113,-1015 -1077,-1369z"/>
   <path class="fil2" d="M1182 3620c-601,-515 -1020,-1420 -1022,-1423 -3,-7 0,-14 6,-17 7,-3 14,0 17,6 2,3 430,927 1038,1434l-39 0z"/>
   <path class="fil4" d="M748 2297c105,-243 320,-69 389,163 56,188 136,802 254,1160l-161 0c-292,-395 -596,-1059 -482,-1323z"/>
   <path class="fil0" d="M1298 3620c-318,-559 -416,-1325 -416,-1328 -1,-6 3,-11 9,-12 6,-1 11,3 12,9 0,3 99,776 419,1331l-24 0z"/>
   <path class="fil2" d="M305 3129c-239,64 -107,287 98,381 59,28 169,65 300,110l616 0c-331,-283 -790,-552 -1014,-491z"/>
   <path class="fil1" d="M1160 3620c-424,-242 -876,-368 -878,-368 -6,-2 -11,1 -13,6 -1,6 2,11 7,13 2,0 432,120 844,349l40 0z"/>
   <path class="fil5" d="M2582 1233l527 164c20,6 29,14 28,23l0 0 0 41 -98 0 -457 142c-18,5 -42,8 -66,8 -24,0 -49,-3 -67,-8l-456 -142 -98 0 0 -41c-2,-9 8,-17 27,-23l527 -164c18,-6 43,-9 67,-9 24,0 48,3 66,9z"/>
   <path class="fil6" d="M2582 1277l527 165c37,11 37,30 0,41l-527 164c-18,6 -42,9 -66,9 -24,0 -49,-3 -67,-9l-527 -164c-36,-11 -36,-30 0,-41l527 -165c18,-5 43,-8 67,-8 24,0 48,3 66,8z"/>
   <path class="fil5" d="M2820 1490l0 428 -609 0 0 -428c0,-29 137,-53 305,-53 168,0 304,24 304,53z"/>
   <path class="fil7" d="M2023 1538l47 36c1,1 2,1 4,1 1,-1 1,-2 1,-3l0 -228 -104 32 0 196c0,1 1,2 2,3 1,0 2,0 3,-1l47 -36z"/>
   <path class="fil2" d="M696 1599l228 0c22,0 41,19 41,41l0 0c0,23 -19,42 -41,42l-18 0 0 319c133,41 230,166 230,313 0,180 -146,326 -326,326 -180,0 -326,-146 -326,-326 0,-147 97,-272 230,-313l0 -319 -18 0c-23,0 -41,-19 -41,-42l0 0c0,-22 18,-41 41,-41z"/>
   <path class="fil8" d="M1823 3542l1052 0c54,0 99,-45 99,-99l0 -1607c0,-54 -45,-99 -99,-99l-1052 0c-54,0 -98,45 -98,99l0 1607c0,54 44,99 98,99z"/>
   <path class="fil9" d="M1772 3542l1052 0c54,0 99,-45 99,-99l0 -1607c0,-54 -45,-99 -99,-99l-1052 0c-54,0 -99,45 -99,99l0 1607c0,54 45,99 99,99z"/>
   <path class="fil10" d="M1671 3542l1052 0c54,0 99,-45 99,-99l0 -1607c0,-54 -45,-99 -99,-99l-1052 0c-54,0 -99,45 -99,99l0 1607c0,54 45,99 99,99z"/>
   <path class="fil8" d="M1671 3542l80 0 0 -1805 -80 0c-54,0 -99,45 -99,99l0 1607c0,54 45,99 99,99z"/>
   <polygon class="fil6" points="1732,3542 1770,3542 1770,1737 1732,1737 "/>
   <path class="fil9" d="M1919 1959l754 0c8,0 15,7 15,15l0 278c0,9 -7,16 -15,16l-754 0c-9,0 -16,-7 -16,-16l0 -278c0,-8 7,-15 16,-15z"/>
   <path class="fil8" d="M1911 2421l770 0c4,0 7,3 7,8l0 20c0,4 -3,8 -7,8l-770 0c-4,0 -8,-4 -8,-8l0 -20c0,-5 4,-8 8,-8z"/>
   <path class="fil8" d="M1911 2505l770 0c4,0 7,4 7,8l0 20c0,5 -3,8 -7,8l-770 0c-4,0 -8,-3 -8,-8l0 -20c0,-4 4,-8 8,-8z"/>
   <path class="fil8" d="M1911 2590l770 0c4,0 7,3 7,8l0 20c0,4 -3,7 -7,7l-770 0c-4,0 -8,-3 -8,-7l0 -20c0,-5 4,-8 8,-8z"/>
   <path class="fil8" d="M1911 2851l770 0c4,0 7,3 7,8l0 20c0,4 -3,8 -7,8l-770 0c-4,0 -8,-4 -8,-8l0 -20c0,-5 4,-8 8,-8z"/>
   <path class="fil8" d="M1911 2935l770 0c4,0 7,4 7,8l0 20c0,5 -3,8 -7,8l-770 0c-4,0 -8,-3 -8,-8l0 -20c0,-4 4,-8 8,-8z"/>
   <path class="fil8" d="M1911 3020l770 0c4,0 7,3 7,8l0 20c0,4 -3,8 -7,8l-770 0c-4,0 -8,-4 -8,-8l0 -20c0,-5 4,-8 8,-8z"/>
   <path class="fil8" d="M2647 3360l-877 0 0 166 0 16c1,0 1,0 2,0l51 0 900 0c54,0 99,-45 99,-99l0 -1607c0,-46 -33,-86 -77,-96l0 1522c0,54 -44,98 -98,98z"/>
   <path class="fil11" d="M3012 3542l-1009 0c-37,0 -71,-15 -95,-40 -24,-24 -39,-58 -39,-95 0,-37 15,-70 39,-95 24,-24 58,-39 95,-39l1009 0c37,0 71,15 95,39 25,25 40,58 40,95 0,37 -15,71 -40,95 -24,25 -58,40 -95,40z"/>
   <path class="fil5" d="M1872 3375c6,-24 19,-45 36,-63 24,-24 58,-39 95,-39l1009 0c37,0 71,15 95,39 17,18 30,39 36,63 -6,24 -19,46 -36,63 -24,24 -58,40 -95,40l-1009 0c-37,0 -71,-16 -95,-40 -17,-17 -30,-39 -36,-63z"/>
   <path class="fil9" d="M3781 3532l-836 0c-34,0 -65,-14 -88,-37 -22,-22 -36,-53 -36,-88 0,-34 14,-65 36,-87 23,-23 54,-37 88,-37l836 0 0 249z"/>
   <path class="fil12" d="M3789 3509c9,0 16,8 16,17 0,9 -7,16 -16,16l-850 0c-37,0 -71,-15 -95,-40 -24,-24 -40,-58 -40,-95 0,-37 16,-70 40,-95 24,-24 58,-39 95,-39l850 0c9,0 16,7 16,16 0,9 -7,17 -16,17l-850 0c-28,0 -54,11 -72,29 -19,19 -30,44 -30,72 0,28 11,54 30,72 18,19 44,30 72,30l850 0z"/>
   <path class="fil5" d="M2710 3407c0,-37 15,-70 40,-95 24,-24 58,-39 95,-39l-99 0c-37,0 -70,15 -95,39 -24,25 -39,58 -39,95 0,37 15,71 39,95 25,25 58,40 95,40l99 0c-37,0 -71,-15 -95,-40 -25,-24 -40,-58 -40,-95zm-693 0c0,-37 15,-70 39,-95 24,-24 58,-39 95,-39l-99 0c-37,0 -70,15 -95,39 -24,25 -39,58 -39,95 0,37 15,71 39,95 25,25 58,40 95,40l99 0c-37,0 -71,-15 -95,-40 -24,-24 -39,-58 -39,-95l0 0z"/>
   <path class="fil12" d="M2730 3478l-98 0c-13,-21 -20,-45 -20,-71 0,-37 15,-70 39,-95 25,-24 58,-39 95,-39l99 0c-37,0 -71,15 -95,39 -25,25 -40,58 -40,95 0,26 8,50 20,71zm-713 -71c0,-37 15,-70 39,-95 24,-24 58,-39 95,-39l-99 0c-37,0 -70,15 -95,39 -24,25 -39,58 -39,95 0,16 3,32 8,46 22,16 48,25 77,25l33 0c-12,-21 -19,-45 -19,-71l0 0z"/>
   <path class="fil3" d="M3781 3473l-651 0 -84 0 -75 0c-23,0 -44,-9 -59,-24 -15,-16 -25,-37 -25,-60 0,-23 10,-44 25,-59 15,-15 36,-24 59,-24l-32 0c-28,0 -54,11 -72,29 -19,19 -30,44 -30,72 0,28 11,52 28,71 1,0 1,1 2,1 18,19 44,30 72,30l161 0 681 0 0 -36z"/>
   <path class="fil13" d="M2932 3273l810 0c42,0 79,-17 106,-44 27,-27 44,-64 44,-105 0,-41 -17,-79 -44,-106 -27,-27 -64,-43 -106,-43l-810 0c-41,0 -78,16 -105,43 -27,27 -44,65 -44,106 0,41 17,78 44,105 27,27 64,44 105,44z"/>
   <path class="fil10" d="M3887 3088c-6,-27 -20,-51 -39,-70 -27,-27 -64,-43 -106,-43l-810 0c-41,0 -78,16 -105,43 -19,19 -33,43 -40,70 7,27 21,51 40,70 27,27 64,44 105,44l810 0c42,0 79,-17 106,-44 19,-19 33,-43 39,-70z"/>
   <path class="fil9" d="M2432 3262l575 0c38,0 72,-16 98,-41 25,-25 40,-59 40,-97 0,-38 -15,-73 -40,-98 -26,-25 -60,-40 -98,-40l-575 0 0 276z"/>
   <path class="fil8" d="M2423 3237c-10,0 -18,8 -18,18 0,10 8,18 18,18l591 0c41,0 78,-17 105,-44 27,-27 44,-64 44,-105 0,-41 -17,-79 -44,-106 -27,-27 -64,-43 -105,-43l-591 0c-10,0 -18,8 -18,18 0,10 8,18 18,18l591 0c31,0 59,12 80,33 20,20 33,49 33,80 0,31 -13,59 -33,80 -21,20 -49,33 -80,33l-591 0z"/>
   <path class="fil14" d="M2432 3197l370 0 92 0 84 0c26,0 49,-11 66,-28 17,-16 27,-40 27,-65 0,-26 -10,-49 -27,-66 -17,-17 -40,-27 -66,-27l36 0c31,0 59,12 80,33 20,20 33,49 33,80 0,30 -12,57 -31,78 -1,0 -2,1 -2,2 -21,20 -49,33 -80,33l-179 0 -403 0 0 -40z"/>
   <path class="fil15" d="M3561 3124c0,41 -17,78 -44,105 -27,27 -65,44 -106,44l110 0c41,0 78,-17 105,-44 27,-27 44,-64 44,-105 0,-41 -17,-79 -44,-106 -27,-27 -64,-43 -105,-43l-110 0c41,0 79,16 106,43 27,27 44,65 44,106zm-167 0c0,41 -17,78 -44,105 -27,27 -64,44 -106,44l110 0c41,0 78,-17 105,-44 27,-27 44,-64 44,-105 0,-41 -17,-79 -44,-106 -27,-27 -64,-43 -105,-43l-110 0c42,0 79,16 106,43 27,27 44,65 44,106l0 0zm-167 0c0,-41 -17,-79 -44,-106 -27,-27 -64,-43 -105,-43l109 0c41,0 79,16 106,43 27,27 43,65 43,106 0,41 -16,78 -43,105 -27,27 -65,44 -106,44l-109 0c41,0 78,-17 105,-44 27,-27 44,-64 44,-105l0 0zm500 0c0,-41 -16,-79 -43,-106 -27,-27 -65,-43 -106,-43l110 0c41,0 78,16 105,43 27,27 44,65 44,106 0,41 -17,78 -44,105 -27,27 -64,44 -105,44l-110 0c41,0 79,-17 106,-44 27,-27 43,-64 43,-105l0 0z"/>
   <path class="fil16" d="M3314 3202l-109 0c-6,10 -14,19 -22,27 -27,27 -64,44 -105,44l109 0c41,0 79,-17 106,-44 8,-8 15,-17 21,-27zm167 0c-6,10 -13,19 -22,27 -27,27 -64,44 -105,44l-110 0c42,0 79,-17 106,-44 8,-8 15,-17 22,-27l109 0zm167 0l-110 0c-6,10 -13,19 -21,27 -27,27 -65,44 -106,44l110 0c41,0 78,-17 105,-44 9,-8 16,-17 22,-27l0 0zm180 -27c-8,20 -20,39 -35,54 -27,27 -64,44 -105,44l-110 0c41,0 79,-17 106,-44 8,-8 15,-17 21,-27l37 0c32,0 62,-10 86,-27l0 0z"/>
   <path class="fil17" d="M2495 3130l49 38c1,1 2,1 3,0 1,0 2,-1 2,-3l0 -151c0,-2 -1,-3 -3,-3l-102 0c-2,0 -3,1 -3,3l0 151c0,2 0,3 1,3 2,1 3,1 4,0l49 -38z"/>
   <path class="fil18" d="M3178 2975l-653 0c-33,0 -63,-14 -85,-36 -22,-21 -35,-52 -35,-85 0,-33 13,-63 35,-84 22,-22 52,-36 85,-36l653 0c33,0 63,14 85,36 21,21 35,51 35,84 0,33 -14,64 -35,85 -22,22 -52,36 -85,36z"/>
   <path class="fil19" d="M2408 2826c6,-22 17,-41 32,-56 22,-22 52,-36 85,-36l653 0c33,0 63,14 85,36 15,15 26,34 31,56 -5,21 -16,41 -31,56 -22,22 -52,35 -85,35l-653 0c-33,0 -63,-13 -85,-35 -15,-15 -26,-35 -32,-56z"/>
   <path class="fil9" d="M3581 2966l-463 0c-31,0 -59,-13 -79,-33 -20,-20 -33,-48 -33,-79 0,-30 13,-58 33,-78 20,-20 48,-33 79,-33l463 0 0 223z"/>
   <path class="fil20" d="M3588 2946c8,0 15,6 15,14 0,8 -7,15 -15,15l-476 0c-33,0 -63,-14 -85,-36 -22,-21 -35,-52 -35,-85 0,-33 13,-63 35,-84 22,-22 52,-36 85,-36l476 0c8,0 15,7 15,15 0,8 -7,14 -15,14l-476 0c-25,0 -48,11 -64,27 -17,17 -27,39 -27,64 0,25 10,48 27,65 16,16 39,27 64,27l476 0z"/>
   <path class="fil19" d="M2908 2854c0,-33 13,-63 35,-84 22,-22 52,-36 85,-36l-89 0c-33,0 -63,14 -84,36 -22,21 -36,51 -36,84 0,33 14,64 36,85 21,22 51,36 84,36l89 0c-33,0 -63,-14 -85,-36 -22,-21 -35,-52 -35,-85zm-371 0c0,-33 14,-63 35,-84 22,-22 52,-36 85,-36l-88 0c-33,0 -63,14 -85,36 -22,21 -35,51 -35,84 0,33 13,64 35,85 22,22 52,36 85,36l88 0c-33,0 -63,-14 -85,-36 -21,-21 -35,-52 -35,-85l0 0z"/>
   <path class="fil21" d="M2925 2917l-88 0c-11,-18 -18,-40 -18,-63 0,-33 14,-63 36,-84 21,-22 51,-36 84,-36l89 0c-33,0 -63,14 -85,36 -22,21 -35,51 -35,84 0,23 6,45 17,63zm-388 -63c0,-33 14,-63 35,-84 22,-22 52,-36 85,-36l-88 0c-33,0 -63,14 -85,36 -22,21 -35,51 -35,84 0,15 2,29 7,41 20,14 43,22 69,22l30 0c-11,-18 -18,-40 -18,-63l0 0z"/>
   <path class="fil14" d="M3581 2913l-299 0 -74 0 -67 0c-21,0 -40,-8 -53,-22 -14,-13 -22,-32 -22,-53 0,-20 8,-39 22,-53 13,-13 32,-22 53,-22l-29 0c-25,0 -48,11 -64,27 -17,17 -27,39 -27,64 0,25 9,47 25,63 0,1 1,1 2,2 16,16 39,27 64,27l144 0 325 0 0 -33z"/>
   <path class="fil2" d="M1510 3542c0,0 494,0 565,0 70,0 124,-46 80,-149 -44,-103 -515,-1309 -515,-1309l0 -591 -26 -35 -209 0 -26 35 0 591c0,0 -470,1206 -514,1309 -44,103 9,149 80,149 70,0 565,0 565,0z"/>
   <path class="fil2" d="M1340 1422l339 0c36,0 65,29 65,65l0 0c0,36 -29,65 -65,65l-339 0c-35,0 -65,-29 -65,-65l0 0c0,-36 30,-65 65,-65z"/>
   <path class="fil22" d="M1458 3542c0,0 495,0 565,0 70,0 124,-46 80,-149 -44,-103 -514,-1309 -514,-1309l0 -591 -27 -35 -209 0 -26 35 0 591c0,0 -470,1206 -514,1309 -44,103 10,149 80,149 70,0 565,0 565,0z"/>
   <path class="fil9" d="M1458 3542l0 0 1 0 2 0 3 0 0 0 3 0 3 0 4 0 1 0 4 0 5 0 1 0 6 0 4 0 2 0 7 0 1 0 6 0 5 0 3 0 9 0 0 0 8 0 3 0 6 0 6 0 4 0 7 0 3 0 9 0 1 0 10 0 2 0 9 0 3 0 8 0 4 0 7 0 5 0 7 0 6 0 5 0 7 0 5 0 8 0 4 0 8 0 4 0 9 0 3 0 9 0 4 0 8 0 4 0 9 0 4 0 8 0 4 0 8 0 4 0 7 0 6 0 6 0 6 0 6 0 7 0 4 0 8 0 3 0 9 0 1 0 11 0 0 0 10 0 2 0 8 0 4 0 5 0 7 0 2 0 9 0 0 0 8 0 3 0 5 0 6 0 1 0 7 0 3 0 3 0 6 0 1 0 5 0 4 0 2 0 3 0 3 0c70,0 124,-46 80,-149 -44,-103 -514,-1309 -514,-1309l0 -428 -171 0 0 428c0,0 -470,1206 -514,1309 -44,103 10,149 80,149l4 0 3 0 1 0 5 0 4 0 1 0 6 0 3 0 3 0 7 0 1 0 6 0 5 0 3 0 8 0 0 0 9 0 2 0 7 0 5 0 5 0 7 0 2 0 10 0 0 0 11 0 1 0 10 0 2 0 9 0 3 0 8 0 5 0 6 0 6 0 6 0 7 0 5 0 7 0 5 0 8 0 4 0 8 0 4 0 9 0 3 0 9 0 4 0 8 0 4 0 8 0 4 0 8 0 5 0 7 0 5 0 7 0 6 0 5 0 7 0 4 0 9 0 2 0 10 0 1 0 10 0 1 0 10 0 2 0 7 0 5 0 5 0 6 0 3 0 9 0 0 0 8 0 3 0 5 0 6 0 1 0 7 0 3 0 4 0 5 0 1 0 5 0 5 0 0 0 4 0 4 0 2 0 1 0 2 0 2 0 1 0 0 0 1 0 1 0 1 0 0 0 3 0 3 0 4 0 0 0 4 0 4 0 1 0 5 0 3 0 3 0 4 0 2 0 6 0 1 0 6 0 2 0 4 0 4 0 2 0 6 0 0 0 4 0 5 0 0 0 3 0 3 0 3 0 0 0 2 0 1 0 0 0z"/>
   <path class="fil18" d="M1234 2445c-41,105 -82,209 -123,314 -55,140 -110,280 -165,419 -20,51 -40,101 -60,151 -10,27 -21,55 -33,82 -7,18 -21,56 -4,73 11,11 30,14 44,14 188,0 377,0 565,0 188,0 377,0 565,0 14,0 33,-3 44,-14 17,-17 3,-55 -5,-73 -11,-27 -22,-55 -32,-82 -21,-50 -40,-100 -60,-151 -55,-139 -110,-279 -165,-419 -41,-105 -82,-209 -123,-314l-448 0z"/>
   <path class="fil19" d="M1234 2445c-41,105 -82,209 -123,314 -55,140 -110,280 -165,419 -20,51 -40,101 -60,151 -6,17 -13,34 -19,50l430 0c188,0 377,0 565,0 14,0 33,-3 44,-13 17,-17 3,-56 -5,-74 -11,-27 -22,-54 -32,-81 -21,-50 -40,-101 -60,-151 -55,-140 -110,-280 -165,-420 -25,-65 -51,-130 -76,-195l-334 0z"/>
   <path class="fil9" d="M1289 1422l338 0c36,0 65,29 65,65l0 0c0,36 -29,65 -65,65l-338 0c-36,0 -66,-29 -66,-65l0 0c0,-36 30,-65 66,-65z"/>
   <path class="fil20" d="M1246 2433l424 0c7,0 12,5 12,12l0 0c0,7 -5,13 -12,13l-424 0c-7,0 -12,-6 -12,-13l0 0c0,-7 5,-12 12,-12z"/>
   <path class="fil23" d="M2326 3487c0,3 -1,17 2,22 1,2 0,3 -1,5 -2,3 -8,9 -26,11 -18,3 -39,0 -50,-1 -10,-2 -4,-7 1,-9 5,-2 43,-14 48,-19 6,-5 2,-15 3,-16 1,-2 21,-1 23,7z"/>
   <path class="fil24" d="M2311 3048l-5 8c0,0 -16,144 -15,189 0,45 8,52 8,97 -1,46 3,133 2,144 0,11 20,9 26,4 6,-4 14,-156 13,-179 -2,-23 3,-54 9,-75 5,-21 38,-137 38,-167 1,-30 -76,-21 -76,-21z"/>
   <path class="fil23" d="M2381 3265c0,0 2,1 8,1 3,0 7,-1 11,0 1,0 3,0 4,1 4,1 10,7 13,25 4,18 3,39 2,50 -1,11 -7,4 -9,0 -2,-5 -15,-38 -24,-47 -10,-9 -11,-8 -13,-8 -1,-1 0,-19 8,-22z"/>
   <path class="fil25" d="M2394 3025c6,5 32,21 32,26 13,118 -144,125 -166,157 -4,6 121,45 125,48 3,3 -1,31 -5,34 -5,3 -157,-33 -191,-55 0,0 -22,-17 0,-53 21,-37 119,-97 126,-105 7,-8 18,-17 13,-30 -4,-14 66,-22 66,-22z"/>
   <path class="fil23" d="M2236 2849l-5 -2c0,0 -3,-7 -6,-10 -4,-3 -9,-8 -10,-15 0,-7 26,-11 26,-9 0,1 11,12 10,16 -1,5 -5,12 -5,12l-10 8z"/>
   <path class="fil7" d="M2325 2850c0,0 -33,75 -40,82 -6,8 -33,-76 -39,-91 0,0 -12,0 -16,4 0,0 18,101 26,121 9,20 28,23 46,16 17,-7 64,-86 74,-101 9,-14 -15,-66 -51,-31z"/>
   <path class="fil26" d="M2347 2783c-11,8 -31,15 -37,46 -11,58 10,150 -11,228 -1,5 2,4 4,3 1,0 34,0 67,3 33,2 56,-7 64,-13 0,0 3,-4 2,-8 -13,-48 -15,-95 -10,-144 7,-60 -8,-186 -79,-115z"/>
   <path class="fil27" d="M2343 2816c0,0 -19,92 -24,102 -6,10 -56,-77 -66,-92 0,0 -13,3 -17,8 0,0 44,108 59,128 14,21 36,19 54,7 18,-12 51,-111 58,-130 7,-18 -32,-70 -64,-23z"/>
   <path class="fil24" d="M2199 2738c0,0 -4,1 -4,4 -1,2 8,70 9,73 1,2 3,7 31,4 0,0 5,-1 6,-3 1,-3 -5,-63 -5,-70 0,-7 -5,-9 -9,-9 -4,-1 -28,1 -28,1z"/>
   <path class="fil23" d="M2237 2838c0,0 -4,-4 -13,-10 -10,-5 -18,-9 -19,-13 -1,-3 0,-7 2,-8 2,-1 6,1 8,0 2,-1 -3,-4 -6,-4 -3,-1 -7,-1 -9,-2 -1,-1 -1,-3 -1,-3 1,-1 3,-1 7,-1 4,0 6,-1 9,1 3,1 7,1 7,1 1,0 2,-3 1,-5 -2,-2 -6,-6 -8,-7 -2,-2 -7,-1 -9,-2 -3,-1 -3,-4 0,-5 3,0 7,0 11,0 4,1 6,3 12,7 5,4 15,11 18,18 3,7 3,16 6,21 2,5 -3,10 -16,12z"/>
   <path class="fil18" d="M2392 3310c6,5 19,27 19,42 0,15 13,10 13,10 0,0 5,3 8,0 2,-3 8,-35 6,-51 -3,-15 -6,-33 -3,-46 2,-13 -14,-12 -18,-9 0,0 -17,-2 -22,0 -5,3 -4,10 0,14 4,4 3,16 0,21 -10,-1 -10,13 -3,19z"/>
   <path class="fil9" d="M2411 3256c-3,0 -6,-1 -8,-1 -2,8 -3,19 3,32 10,23 6,29 6,29l8 10c0,0 5,-14 -5,-38 -6,-16 -6,-25 -4,-32z"/>
   <path class="fil9" d="M2424 3362c0,0 5,3 8,0 2,-3 8,-35 6,-51 -3,-15 -6,-33 -3,-46 2,-13 -14,-12 -18,-9 0,27 10,33 12,65 2,33 -5,41 -5,41z"/>
   <path class="fil18" d="M2282 3497c-5,6 -26,19 -41,19 -15,0 -10,12 -10,12 0,0 -3,6 0,8 4,3 35,8 50,6 15,-2 33,-5 46,-3 12,3 11,-13 8,-17 0,0 2,-17 0,-21 -2,-5 -9,-4 -13,0 -5,3 -17,3 -21,0 1,-10 -12,-11 -19,-4z"/>
   <path class="fil9" d="M2335 3516c1,-2 1,-5 1,-8 -7,-2 -18,-2 -31,3 -23,10 -28,6 -28,6l-10 8c0,0 14,5 37,-5 16,-6 25,-6 31,-4z"/>
   <path class="fil9" d="M2231 3528c0,0 -3,6 0,8 4,3 35,8 50,6 15,-2 33,-5 46,-3 12,3 11,-13 8,-17 -26,0 -32,10 -64,12 -31,2 -40,-6 -40,-6z"/>
   <path class="fil23" d="M2281 2672c0,0 -2,24 -2,28 0,5 3,8 4,15 0,6 -2,19 -2,22 0,3 7,2 9,4 2,2 1,5 2,7 1,2 3,2 3,3 1,1 0,3 1,4 0,1 3,1 4,5 2,4 5,11 19,6 14,-5 25,-25 27,-36 3,-11 2,-29 1,-33 0,-5 -6,-32 -10,-35 -4,-2 -50,-7 -56,10z"/>
   <path class="fil23" d="M2329 2752l-2 10c18,-8 17,13 18,23 0,5 40,-7 46,-21 -7,-8 -5,-10 -15,-33 -4,-7 -11,-13 -13,-20 0,0 5,-27 1,-32 -4,-6 -18,-2 -19,5 -1,7 -16,68 -16,68z"/>
   <path class="fil24" d="M2281 2675c0,0 -14,-6 -16,-22 -1,-17 6,-35 29,-40 24,-6 35,15 59,15 23,0 31,5 28,26 0,0 15,6 10,23 -6,17 -18,44 -14,55 0,0 -13,-10 -15,-23 0,0 2,-20 -4,-22 -6,-3 -11,2 -11,12 0,11 -1,14 -3,16 -2,1 -3,1 -4,0 -1,-1 3,-14 -4,-22 -7,-7 -14,-11 -15,-17 -2,-6 -23,3 -40,-1z"/>
   <path class="fil28" d="M764 2640c180,0 327,-147 327,-326 0,-180 -147,-327 -327,-327 -179,0 -326,147 -326,327 0,179 147,326 326,326z"/>
   <polygon class="fil28" points="668,2059 860,2059 860,1640 668,1640 "/>
   <path class="fil28" d="M651 1599l227 0c23,0 41,19 41,41l0 0c0,23 -18,42 -41,42l-227 0c-23,0 -42,-19 -42,-42l0 0c0,-22 19,-41 42,-41z"/>
   <path class="fil19" d="M860 1774l995 0c5,0 10,5 10,10l0 8c0,5 -5,9 -10,9l-995 0c-5,0 -9,-4 -9,-9l0 -8c0,-5 4,-10 9,-10z"/>
   <path class="fil10" d="M1012 2198c17,35 26,74 26,116 0,151 -123,273 -274,273 -151,0 -273,-122 -273,-273 0,-42 9,-81 26,-116l495 0z"/>
   <path class="fil5" d="M677 1746l174 0c16,0 29,13 29,28l0 27c0,16 -13,29 -29,29l-174 0c-15,0 -28,-13 -28,-29l0 -27c0,-15 13,-28 28,-28z"/>
   <path class="fil5" d="M1305 1746l296 0c16,0 29,13 29,28l0 27c0,16 -13,29 -29,29l-296 0c-16,0 -29,-13 -29,-29l0 -27c0,-15 13,-28 29,-28z"/>
   <path class="fil6" d="M1887 1669l0 237c0,9 -7,15 -15,15l-14 0c-9,0 -16,-6 -16,-15l0 -237c0,-8 7,-15 16,-15l14 0c8,0 15,7 15,15z"/>
   <path class="fil8" d="M940 2198c9,27 14,55 14,85 0,151 -123,273 -274,273 -17,0 -34,-2 -51,-5 40,23 86,36 135,36 151,0 274,-122 274,-273 0,-42 -9,-81 -26,-116l-72 0z"/>
   <path class="fil8" d="M774 2561c40,0 72,-32 72,-72 0,-40 -32,-72 -72,-72 -40,0 -72,32 -72,72 0,40 32,72 72,72z"/>
   <path class="fil8" d="M865 2445c19,0 34,-15 34,-34 0,-18 -15,-33 -34,-33 -18,0 -33,15 -33,33 0,19 15,34 33,34z"/>
   <path class="fil8" d="M803 2402c11,0 20,-9 20,-20 0,-12 -9,-21 -20,-21 -11,0 -21,9 -21,21 0,11 10,20 21,20z"/>
   <path class="fil8" d="M668 2545c8,0 14,-6 14,-14 0,-8 -6,-14 -14,-14 -8,0 -14,6 -14,14 0,8 6,14 14,14z"/>
   <path class="fil8" d="M874 2496c11,0 20,-9 20,-20 0,-11 -9,-20 -20,-20 -11,0 -20,9 -20,20 0,11 9,20 20,20z"/>
   <path class="fil8" d="M603 2345c16,0 30,-14 30,-30 0,-17 -14,-30 -30,-30 -17,0 -30,13 -30,30 0,16 13,30 30,30z"/>
   <path class="fil8" d="M549 2316c6,0 11,-5 11,-11 0,-6 -5,-11 -11,-11 -6,0 -11,5 -11,11 0,6 5,11 11,11z"/>
   <path class="fil18" d="M1778 3426c50,0 91,-41 91,-91 0,-50 -41,-91 -91,-91 -50,0 -91,41 -91,91 0,50 41,91 91,91z"/>
   <path class="fil18" d="M1893 3280c24,0 43,-20 43,-43 0,-23 -19,-43 -43,-43 -23,0 -42,20 -42,43 0,23 19,43 42,43z"/>
   <path class="fil18" d="M1815 3225c14,0 25,-11 25,-25 0,-15 -11,-26 -25,-26 -15,0 -26,11 -26,26 0,14 11,25 26,25z"/>
   <path class="fil18" d="M1644 3406c10,0 18,-8 18,-18 0,-9 -8,-18 -18,-18 -10,0 -18,9 -18,18 0,10 8,18 18,18z"/>
   <path class="fil18" d="M1904 3344c14,0 25,-12 25,-26 0,-13 -11,-25 -25,-25 -14,0 -25,12 -25,25 0,14 11,26 25,26z"/>
   <path class="fil18" d="M1484 2818c33,0 61,-28 61,-61 0,-34 -28,-62 -61,-62 -34,0 -62,28 -62,62 0,33 28,61 62,61z"/>
   <path class="fil18" d="M1374 2758c12,0 22,-10 22,-22 0,-12 -10,-21 -22,-21 -12,0 -22,9 -22,21 0,12 10,22 22,22z"/>
   <path class="fil29" d="M790 2830c-66,-68 -116,19 -109,105 7,83 79,371 64,487l25 0c68,-150 107,-504 20,-592z"/>
   <path class="fil10" d="M761 3422c67,-240 -16,-575 -16,-576 0,-2 -3,-4 -5,-3 -2,0 -3,2 -2,5 0,1 83,336 15,574l8 0z"/>
   <path class="fil10" d="M626 2980c-70,-37 -88,44 -61,111 23,57 126,225 163,331l34 0c4,-146 -52,-398 -136,-442z"/>
   <path class="fil29" d="M749 3422c-21,-199 -155,-418 -155,-418 -1,-2 -3,-2 -5,-1 -1,1 -2,2 -1,4 1,1 133,218 155,415l6 0z"/>
   <path class="fil10" d="M923 3074c68,-30 79,47 49,108 -21,41 -97,149 -147,240l-55 0c19,-136 82,-317 153,-348z"/>
   <path class="fil29" d="M790 3422c48,-166 161,-323 161,-324 1,-1 3,-1 5,0 1,0 1,2 0,4 0,0 -112,156 -160,320l-6 0z"/>
   <path class="fil5" d="M684 3363l199 0c6,0 11,5 11,11l0 49c0,6 -5,11 -11,11l-199 0c-6,0 -11,-5 -11,-11l0 -49c0,-6 5,-11 11,-11z"/>
   <polygon class="fil5" points="718,3403 849,3403 883,3434 855,3542 783,3542 712,3542 684,3434 "/>
   <polygon class="fil6" points="883,3434 877,3456 689,3456 684,3434 "/>
   <path class="fil20" d="M3275 2006c46,6 125,14 134,11 14,-4 89,-69 95,-86 0,0 1,-2 -2,-2 -3,-1 -12,0 -15,-3 -3,-2 -5,0 -7,4 -2,3 -62,46 -77,54 -16,9 -107,-27 -119,-30 -56,-14 -76,44 -9,52z"/>
   <path class="fil7" d="M3472 1944l169 0c1,0 1,0 2,0 14,-4 15,-17 15,-36 1,-9 1,-19 3,-31 5,-29 35,-80 50,-104 0,0 1,-1 1,-1l0 0c4,-6 7,-11 7,-12 8,-12 13,-25 18,-39 5,-18 8,-37 8,-56 0,-53 -21,-100 -55,-134 -34,-34 -81,-55 -134,-55 -52,0 -99,21 -133,55 -34,34 -55,81 -55,134 0,19 3,38 8,56 4,14 10,27 18,39 0,1 3,6 7,12l0 0c0,0 0,1 1,1 14,24 45,75 50,104 2,12 2,22 3,31 0,19 1,32 15,36 0,0 1,0 2,0z"/>
   <path class="fil9" d="M3522 1809c-1,-13 -6,-21 -11,-26 -2,-2 -5,-4 -8,-5 -2,0 -5,0 -7,1 -2,0 -4,2 -5,5 0,1 0,1 0,2 0,4 2,8 6,11 5,5 12,8 21,11 1,1 3,1 4,1zm80 -26c-5,5 -10,13 -11,26 1,0 3,0 4,-1 9,-3 16,-6 21,-11 4,-3 6,-7 6,-11 0,-1 0,-1 0,-2 -1,-3 -3,-5 -5,-5 -2,-1 -5,-1 -7,-1 -3,1 -6,3 -8,5l0 0zm-71 164c0,2 -1,4 -4,4 -2,0 -4,-2 -4,-4l0 -124c0,-2 0,-3 0,-5 -3,-1 -5,-1 -8,-2 -10,-3 -18,-8 -23,-12 -6,-6 -10,-12 -10,-18 0,-1 1,-3 1,-5 2,-5 6,-9 11,-10 3,-1 7,-2 11,-1 4,2 8,4 12,7 7,7 12,18 14,34 8,2 16,2 25,2 10,0 18,0 26,-2 2,-16 7,-27 14,-34 4,-3 8,-5 12,-7 4,-1 8,0 11,1 5,1 9,5 11,10 0,2 1,4 1,5 0,6 -4,12 -10,18 -5,4 -13,9 -23,12 -3,1 -5,1 -8,2 0,2 0,3 0,5l0 124c0,2 -2,4 -4,4 -3,0 -5,-2 -5,-4l0 -124c0,-1 0,-2 0,-3 -7,1 -16,2 -25,2 -9,0 -17,-1 -25,-2 0,1 0,2 0,3l0 124z"/>
   <path class="fil6" d="M3596 2045c0,18 -18,33 -40,33 -21,0 -39,-15 -39,-33 0,-18 21,-19 21,-19l58 19z"/>
   <path class="fil6" d="M3473 1942l167 0c6,0 11,3 15,6 4,4 6,9 6,15 0,6 -2,11 -6,14 -3,3 -6,5 -10,6 3,3 4,8 4,13 0,5 -2,11 -6,14 -3,4 -9,6 -14,6l-3 0c3,4 4,8 4,13 0,5 -2,10 -6,14 -4,4 -9,6 -14,6l-107 0c-5,0 -11,-2 -14,-6 -4,-4 -6,-9 -6,-14 0,-5 1,-9 4,-13l-3 0c-6,0 -11,-2 -14,-6 -4,-3 -6,-9 -6,-14 0,-5 1,-10 4,-13 -4,-1 -7,-3 -10,-6 -4,-3 -6,-8 -6,-14 0,-6 2,-11 6,-15 4,-3 9,-6 15,-6z"/>
   <path class="fil24" d="M3296 2210c6,-2 11,-5 14,2 35,74 61,141 83,219 8,32 -19,45 -31,41 -36,-11 -141,-205 -141,-206 -11,-32 75,-56 75,-56z"/>
   <path class="fil24" d="M3398 2448c12,55 32,176 61,240 0,0 2,10 -3,15 -5,4 -14,5 -21,1 -7,-4 -70,-159 -92,-243 0,0 -8,-30 1,-43 9,-13 43,-18 54,30z"/>
   <path class="fil25" d="M3295 2215c6,2 12,3 9,11 -24,78 -50,145 -87,216 -16,30 -44,22 -50,11 -15,-25 13,-156 28,-217 7,-33 69,-36 100,-21z"/>
   <path class="fil25" d="M3209 2459c-29,49 -98,150 -121,216 0,0 -6,8 -13,8 -7,0 -14,-5 -16,-13 -2,-8 59,-163 101,-240 0,0 15,-27 31,-30 15,-3 43,16 18,59z"/>
   <path class="fil18" d="M3428 2693c0,2 0,5 0,6 0,6 0,14 0,19 -1,5 0,8 0,8 0,0 -1,4 1,5 2,1 16,3 27,1 11,-1 25,-1 32,1 8,2 23,3 30,-6 0,0 1,-2 -1,-4 -2,-1 1,-12 -9,-14 -11,-2 -40,-7 -45,-18 0,0 -2,-2 -5,-1 -3,0 -7,6 -15,6 -7,0 -11,0 -13,-2 -1,-3 -2,-1 -2,-1l0 0z"/>
   <path class="fil18" d="M3058 2665c-1,3 -1,5 -2,7 -2,5 -5,12 -8,16 -3,5 -3,7 -3,7 0,0 -3,3 -1,5 2,2 13,10 24,13 11,3 23,9 29,14 6,5 20,13 29,7 0,0 2,-2 1,-4 -1,-2 6,-10 -2,-16 -9,-7 -33,-24 -34,-36 0,0 -1,-3 -4,-3 -3,0 -9,3 -16,0 -6,-3 -10,-4 -10,-8 -1,-3 -3,-2 -3,-2l0 0z"/>
   <path class="fil19" d="M3190 2234c19,46 131,40 140,21l0 0c4,-7 2,-16 0,-24 -18,-108 28,-239 -47,-276l-11 -6c-1,-4 0,-8 2,-12 -9,-2 -18,-2 -27,-2l-7 9c-60,32 -28,117 -38,194 -4,33 -20,75 -12,96z"/>
   <path class="fil30" d="M3287 1868l0 0c13,3 22,17 18,30l-12 50c-3,13 -17,21 -30,18l0 0c-14,-3 -22,-17 -19,-30l13 -50c3,-13 17,-21 30,-18z"/>
   <path class="fil30" d="M3244 1910c0,0 5,8 0,27 3,-11 14,-18 23,-15 0,0 23,13 23,17 0,0 1,0 1,0 23,3 26,-7 26,-10 0,-2 2,-15 2,-16 1,0 6,0 7,-3 0,-3 -1,-21 -4,-45 -4,-23 -25,-35 -25,-35 -40,1 -28,54 -35,50 -8,-4 -15,1 -13,11 1,2 -5,18 -5,19z"/>
   <path class="fil24" d="M3319 1913c0,0 -11,0 -19,-1 -8,0 -13,0 -17,-4 -5,-5 -8,-9 -8,-18 0,-8 5,-15 7,-18 3,-2 3,-5 1,-10 -2,-5 -7,-30 19,-29 0,0 1,-2 -3,-8 -3,-6 -41,-9 -60,15 -18,23 -12,43 -5,57 0,1 1,3 2,4 0,0 2,5 4,9 1,5 6,8 10,5 4,-4 7,-9 6,-16 0,0 -7,-15 0,-19 0,0 6,-4 11,7 0,0 1,5 1,10 -1,5 -4,18 2,36 6,17 25,15 31,16 7,1 15,-1 16,-7 1,-7 3,-22 3,-25 1,-2 0,-3 -1,-4z"/>
   <path class="fil18" d="M3265 2048c51,11 138,28 150,26 15,-4 106,-72 115,-90 0,0 1,-3 -2,-3 -3,-1 -14,-1 -17,-4 -3,-4 -5,-1 -8,3 -3,4 -74,47 -92,55 -19,8 -118,-42 -131,-47 -61,-22 -89,43 -15,60z"/>
   <path class="fil30" d="M3530 1986l14 -14c5,-6 5,-15 0,-21l0 0c-5,-6 -14,-6 -19,0l-13 14c-6,6 -6,15 -1,21l0 0c6,6 14,6 19,0z"/>
   <path class="fil30" d="M3519 1969l-1 -9c0,-4 -3,-5 -7,-4l0 0c-3,1 -5,5 -5,8l1 9c0,4 3,6 7,4l0 0c3,-1 6,-5 5,-8z"/>
   <path class="fil18" d="M2008 2457l193 0c14,0 26,12 26,26l0 105 0 7 0 67c0,1 -1,2 -2,3 -1,0 -2,0 -3,-1l-43 -43 -171 0c-14,0 -25,-12 -25,-26l0 -112c0,-14 11,-26 25,-26z"/>
   <path class="fil9" d="M2045 2557c10,0 18,-8 18,-18 0,-10 -8,-18 -18,-18 -10,0 -18,8 -18,18 0,10 8,18 18,18z"/>
   <path class="fil9" d="M2105 2557c10,0 18,-8 18,-18 0,-10 -8,-18 -18,-18 -10,0 -18,8 -18,18 0,10 8,18 18,18z"/>
   <path class="fil9" d="M2165 2557c10,0 18,-8 18,-18 0,-10 -8,-18 -18,-18 -10,0 -18,8 -18,18 0,10 8,18 18,18z"/>
   <path class="fil10" d="M3096 1555l192 0c14,0 26,11 26,25l0 105 0 8 0 67c0,1 -1,2 -2,2 -1,1 -2,1 -3,0l-43 -44 -170 0c-14,0 -26,-11 -26,-25l0 -113c0,-14 12,-25 26,-25z"/>
   <path class="fil9" d="M3132 1655c10,0 18,-9 18,-19 0,-10 -8,-18 -18,-18 -10,0 -18,8 -18,18 0,10 8,19 18,19z"/>
   <path class="fil9" d="M3192 1655c10,0 18,-9 18,-19 0,-10 -8,-18 -18,-18 -10,0 -18,8 -18,18 0,10 8,19 18,19z"/>
   <path class="fil9" d="M3252 1655c10,0 18,-9 18,-19 0,-10 -8,-18 -18,-18 -10,0 -18,8 -18,18 0,10 8,19 18,19z"/>
   <path class="fil7" d="M1770 2814l-5 -6c0,0 -35,50 -62,103 -28,53 54,77 87,92 0,0 3,1 5,-1 2,-2 4,-6 1,-11 -2,-6 -59,-39 -66,-50 -8,-12 40,-71 54,-86l-14 -41z"/>
   <path class="fil24" d="M1847 2769c0,0 -2,14 3,21 5,7 -17,11 -32,5 -15,-7 -15,-29 -11,-32 5,-3 40,6 40,6z"/>
   <path class="fil24" d="M1829 3026c5,-3 10,-6 14,1 40,71 70,136 97,212 11,31 -15,46 -27,43 -37,-8 -155,-194 -155,-196 -13,-31 71,-60 71,-60z"/>
   <path class="fil24" d="M1947 3254c17,54 49,172 83,233 0,0 9,13 4,18 -5,5 -19,4 -26,0 -7,-3 -84,-151 -115,-232 0,0 -10,-29 -2,-43 7,-13 40,-22 56,24z"/>
   <path class="fil25" d="M1848 3044c6,2 11,4 9,11 -26,78 -53,145 -91,215 -16,29 -44,21 -50,10 -14,-25 16,-155 31,-216 8,-33 70,-35 101,-20z"/>
   <path class="fil25" d="M1759 3286c-27,49 -92,153 -113,220 0,0 -5,8 -12,9 -7,0 -14,-6 -17,-13 -2,-8 54,-165 93,-243 0,0 14,-28 29,-31 15,-3 43,15 20,58z"/>
   <path class="fil26" d="M1750 2832c-18,58 27,100 -18,256 -6,20 102,30 145,8 0,0 12,-6 9,-29 -4,-22 -31,-59 -25,-104 7,-45 21,-85 12,-104 -16,-38 -31,-59 -44,-67 -25,-16 -66,0 -79,40z"/>
   <path class="fil31" d="M1838 2768l0 8c0,0 -5,-1 -8,4 -2,5 0,10 -1,14 -1,4 -20,-5 -22,-7 -3,-3 -4,-6 -3,-9 2,-2 8,-11 9,-15 1,-3 25,5 25,5z"/>
   <path class="fil30" d="M1800 2730l0 0c0,0 -1,3 -3,7 12,17 21,36 42,39 17,2 20,-6 21,-8 0,-2 3,-14 3,-15 1,0 6,1 7,-2 0,-3 1,-20 0,-43 -2,-22 -20,-36 -20,-36 -38,-1 -31,49 -38,45 -7,-4 -14,0 -13,9 0,2 1,3 1,4z"/>
   <path class="fil24" d="M1859 2682c-21,-2 -10,40 -15,56 -7,29 -23,33 -16,62 0,0 1,1 0,3 -2,2 -73,-4 -77,-34 -4,-29 21,-36 23,-65 3,-29 9,-45 36,-49 27,-5 61,15 49,27z"/>
   <path class="fil26" d="M2003 3499c0,2 0,5 0,7 0,5 0,13 -1,18 -1,5 0,8 0,8 0,0 -2,3 1,5 2,1 16,4 27,2 11,-1 24,0 32,2 7,3 22,4 29,-5 0,0 1,-2 0,-4 -2,-1 1,-12 -9,-14 -11,-2 -39,-9 -44,-19 0,0 -2,-3 -5,-2 -3,0 -8,6 -15,6 -7,0 -11,0 -13,-3 -1,-3 -2,-1 -2,-1l0 0z"/>
   <path class="fil7" d="M1767 2865c7,47 21,128 27,137 7,12 95,67 114,69 0,0 2,0 2,-3 0,-3 -4,-12 -2,-15 2,-4 -1,-5 -5,-6 -4,-1 -65,-49 -78,-62 -13,-12 -2,-114 -2,-127 -1,-59 -66,-62 -56,7z"/>
   <path class="fil30" d="M1903 3071l17 7c6,3 15,0 18,-7l0 0c3,-6 0,-13 -6,-16l-17 -7c-6,-3 -14,0 -18,7l0 0c-3,6 0,13 6,16z"/>
   <path class="fil30" d="M1914 3056l8 -4c3,-1 3,-5 1,-7l0 0c-2,-3 -6,-4 -9,-2l-7 4c-3,1 -4,5 -2,7l0 0c2,3 6,3 9,2z"/>
   <path class="fil26" d="M1621 3480c-1,3 -1,5 -2,7 -2,5 -4,12 -7,16 -2,5 -2,8 -2,8 0,0 -3,3 -1,5 2,2 14,9 25,11 11,2 24,8 30,12 6,5 20,11 29,5 0,0 2,-2 1,-4 -1,-2 5,-11 -3,-16 -10,-6 -35,-21 -37,-33 0,0 -1,-3 -3,-3 -3,0 -10,3 -16,1 -7,-3 -11,-4 -11,-7 -1,-3 -3,-2 -3,-2l0 0z"/>
   <path class="fil3" d="M1317 3127l0 307c0,22 -18,39 -40,39l0 0c-21,0 -39,-17 -39,-39l0 -307 79 0z"/>
   <path class="fil3" d="M1228 3109l99 0c10,0 18,9 18,19l0 0c0,10 -8,18 -18,18l-99 0c-10,0 -19,-8 -19,-18l0 0c0,-10 9,-19 19,-19z"/>
   <path class="fil3" d="M1484 3059l0 422c0,22 -18,39 -39,39l0 0c-22,0 -40,-17 -40,-39l0 -422 79 0z"/>
   <path class="fil3" d="M1395 3041l99 0c10,0 19,8 19,18l0 0c0,10 -9,19 -19,19l-99 0c-10,0 -18,-9 -18,-19l0 0c0,-10 8,-18 18,-18z"/>
   <path class="fil3" d="M1651 3106l0 328c0,22 -18,39 -39,39l0 0c-22,0 -40,-17 -40,-39l0 -328 79 0z"/>
   <path class="fil3" d="M1562 3088l99 0c10,0 19,8 19,19l0 0c0,10 -9,18 -19,18l-99 0c-10,0 -18,-8 -18,-18l0 0c0,-11 8,-19 18,-19z"/>
   <path class="fil9" d="M1302 3127l0 307c0,22 -17,39 -39,39l0 0c-22,0 -39,-17 -39,-39l0 -307 78 0z"/>
   <path class="fil18" d="M1240 3236l0 198c0,13 10,23 23,23 13,0 23,-10 23,-23l0 -198 -46 0z"/>
   <path class="fil9" d="M1214 3109l99 0c10,0 18,9 18,19l0 0c0,10 -8,18 -18,18l-99 0c-11,0 -19,-8 -19,-18l0 0c0,-10 8,-19 19,-19z"/>
   <path class="fil9" d="M1470 3059l0 422c0,22 -18,39 -40,39l0 0c-21,0 -39,-17 -39,-39l0 -422 79 0z"/>
   <path class="fil10" d="M1407 3167l0 314c0,13 10,23 23,23 13,0 23,-10 23,-23l0 -314 -46 0z"/>
   <path class="fil9" d="M1381 3041l99 0c10,0 18,8 18,18l0 0c0,10 -8,19 -18,19l-99 0c-11,0 -19,-9 -19,-19l0 0c0,-10 8,-18 19,-18z"/>
   <path class="fil9" d="M1637 3106l0 328c0,22 -18,39 -40,39l0 0c-21,0 -39,-17 -39,-39l0 -328 79 0z"/>
   <path class="fil32" d="M1574 3214l0 220c0,13 10,23 23,23 13,0 24,-10 24,-23l0 -220 -47 0z"/>
   <path class="fil6" d="M1701 3345l0 0c0,4 -3,6 -6,6l-530 0c-3,0 -6,-2 -6,-6l0 0c0,-3 3,-6 6,-6l530 0c3,0 6,3 6,6z"/>
   <path class="fil9" d="M1548 3088l99 0c10,0 18,8 18,19l0 0c0,10 -8,18 -18,18l-99 0c-10,0 -19,-8 -19,-18l0 0c0,-11 9,-19 19,-19z"/>
   <path class="fil6" d="M1701 3314l0 0c0,5 -4,10 -10,10l-522 0c-5,0 -10,-5 -10,-10l0 0c0,-6 5,-10 10,-10l522 0c6,0 10,4 10,10z"/>
   <path class="fil6" d="M1162 3251l0 0c14,0 25,11 25,25l0 272c0,14 -11,26 -25,26l0 0c-14,0 -25,-12 -25,-26l0 -272c0,-14 11,-25 25,-25z"/>
   <path class="fil6" d="M1698 3251l0 0c14,0 26,11 26,25l0 272c0,14 -12,26 -26,26l0 0c-14,0 -25,-12 -25,-26l0 -272c0,-14 11,-25 25,-25z"/>
   <path class="fil33" d="M642 3664l2922 0c16,0 29,14 29,31l0 151c0,17 -13,31 -29,31l-2922 0c-16,0 -29,-14 -29,-31l0 -151c0,-17 13,-31 29,-31z"/>
   <path class="fil19" d="M1315 3877l46 0 0 -158 -46 0 0 158zm127 0l78 0 0 -158 -78 0 0 158zm203 0l1644 0 0 -158 -1644 0 0 158zm1683 0l78 0 0 -158 -78 0 0 158zm-2528 0l61 0 0 -158 -61 0 0 158z"/>
   <path class="fil6" d="M642 3664l2922 0c16,0 29,14 29,31l0 64 -2980 0 0 -64c0,-17 13,-31 29,-31z"/>
   <path class="fil34" d="M348 3542l3510 0c13,0 24,12 24,27l0 127c0,15 -11,27 -24,27l-3510 0c-13,0 -25,-12 -25,-27l0 -127c0,-15 12,-27 25,-27z"/>
   <path class="fil35" d="M1809 3542l110 0 0 181 -110 0 0 -181zm-1157 0l982 0 0 181 -982 0 0 -181zm-164 0l110 0 0 181 -110 0 0 -181zm1545 0l65 0 0 181 -65 0 0 -181zm1649 0l85 0 0 181 -85 0 0 -181z"/>
   <path class="fil12" d="M658 3806c8,0 14,7 14,15 0,8 -6,15 -14,15 -8,0 -14,-7 -14,-15 0,-8 6,-15 14,-15z"/>
   <path class="fil12" d="M3548 3806c7,0 14,7 14,15 0,8 -7,15 -14,15 -8,0 -14,-7 -14,-15 0,-8 6,-15 14,-15z"/>
   <path class="fil9" d="M3882 3592l-1681 0 -52 32c-1,1 -2,1 -3,1l0 0 -1823 0 0 -10 1822 0 52 -32c1,-1 2,-1 3,-1l1682 0 0 10z"/>
   <path class="fil3" d="M2427 611c-6,1 -11,3 -15,6 -5,3 -10,6 -14,10 -1,1 -2,1 -3,1l-18 -11 0 0c-1,0 -2,-1 -3,0 -1,0 -2,1 -3,2l0 0 -12 22c-1,1 -1,2 -1,3 0,1 1,2 2,3l0 0 18 10c1,1 2,2 1,3l0 0c0,3 -1,5 -1,8 -1,3 -1,6 -1,9 0,2 0,5 1,8 0,3 1,5 1,8 1,1 0,2 -1,3l-18 10 0 0c-1,1 -2,2 -2,3 0,1 0,2 1,3l12 22c1,1 2,2 3,2 1,1 2,1 3,0l1 0 17 -10c1,-1 3,-1 3,0 4,4 9,7 14,10 4,3 9,5 15,6 1,1 2,2 2,3l0 21c0,1 0,2 1,3 1,1 2,1 3,1l26 0c1,0 2,0 3,-1 1,-1 1,-2 1,-3l0 -21c0,-1 1,-2 2,-3 5,-1 10,-3 15,-6 5,-3 9,-6 13,-10 1,-1 3,-1 3,0l18 10c1,1 3,1 4,0 1,0 2,-1 2,-2l1 0 12 -22 0 0c1,-1 1,-2 1,-3 -1,-1 -1,-2 -2,-3l-18 -10c-1,-1 -2,-2 -2,-3l0 0c1,-3 2,-5 2,-8 0,-3 0,-6 0,-8 0,-3 0,-6 0,-9 0,-3 -1,-5 -2,-8 0,-1 1,-2 2,-3l18 -10c1,-1 1,-2 2,-3 0,-1 0,-2 -1,-3l0 0 -13 -22c0,-1 -1,-2 -2,-2 -1,-1 -3,0 -4,0l0 0 -18 11c-1,0 -2,0 -3,-1 -4,-4 -8,-7 -13,-10 -5,-3 -10,-5 -15,-6 -1,-1 -2,-2 -2,-3l0 -20c0,-2 0,-3 -1,-4 -1,0 -2,-1 -3,-1l-26 0c-1,0 -2,1 -3,1 -1,1 -1,2 -1,4l0 20c0,1 -1,2 -2,3zm-9 38c7,-7 17,-11 28,-11 11,0 20,4 27,11 7,7 12,17 12,28 0,10 -5,20 -12,27 -7,7 -16,11 -27,11 -11,0 -21,-4 -28,-11 -7,-7 -11,-17 -11,-27 0,-11 4,-21 11,-28l0 0zm-20 77l0 0z"/>
   <path class="fil3" d="M2608 840c-6,2 -12,5 -17,8 -6,4 -11,7 -16,11 -6,4 -10,8 -15,13 0,0 0,0 -1,0 0,0 0,0 0,0 -14,-8 -28,-16 -41,-24 -2,-1 -4,-1 -5,-1 -2,-1 -4,0 -6,0 -2,0 -3,1 -5,2 -1,2 -2,3 -3,5 -10,16 -20,33 -29,49 -1,2 -2,4 -2,6 0,1 0,3 1,5 0,2 1,4 2,5 1,2 3,3 4,4 13,8 27,15 41,23 0,0 0,0 0,1 0,0 0,0 0,0l-1 4 0 0c0,2 -1,4 -1,6 0,3 -1,6 -1,9 -1,3 -1,7 -1,10 0,3 0,6 0,10 0,3 0,6 0,9 0,4 0,7 1,10 0,3 1,6 1,9 1,4 1,7 2,10 0,0 0,0 0,1 0,0 0,0 0,0 -15,8 -30,17 -45,26l0 1 0 0c-1,2 -2,3 -2,5 -1,2 -1,4 -1,6 0,1 1,3 2,5l31 53 0 0c1,0 1,0 1,1 2,1 3,2 5,2 2,1 4,1 6,1 2,-1 3,-1 5,-2 13,-7 27,-16 41,-24 0,0 0,0 0,0 1,0 1,0 1,1 5,4 10,8 15,12 5,4 10,8 16,11 5,3 11,6 17,8 6,3 12,5 18,7 0,0 1,0 1,0 0,0 0,1 0,1l0 47c0,2 0,3 1,5 1,2 2,3 3,5 1,1 3,2 5,3 1,0 3,1 5,1l58 0c1,0 3,-1 5,-1 2,-1 3,-2 5,-3 1,-2 2,-3 3,-5 0,-2 1,-3 1,-5l0 -47c0,0 0,-1 0,-1 0,0 0,0 1,0l0 0c6,-2 12,-4 18,-7 6,-2 11,-5 17,-8 6,-3 11,-7 16,-11 5,-4 10,-8 15,-12 0,-1 0,-1 0,-1 1,0 1,0 1,0l41 24c1,1 3,1 5,2 2,0 4,0 5,-1 2,0 4,-1 5,-2 2,-1 3,-3 4,-4 11,-17 21,-36 31,-54l-1 0c0,0 0,-1 0,-1 1,-2 1,-4 0,-6 0,-2 -1,-3 -2,-5 -1,-1 -3,-3 -5,-4l-40 -23c0,0 0,0 0,0 -1,-1 -1,-1 0,-1l1 -4 -1 -1c1,-1 1,-3 1,-5 1,-3 2,-6 2,-9 0,-3 1,-6 1,-10 0,-3 0,-6 0,-9 0,-4 0,-7 0,-10 0,-3 -1,-7 -1,-10 0,-3 -1,-6 -2,-9 0,-3 -1,-7 -2,-10 0,0 0,0 1,0 0,-1 0,-1 0,-1l40 -23c2,-1 4,-2 5,-4 1,-1 2,-3 2,-5 1,-2 1,-4 0,-5 0,-2 0,-4 -1,-6 -10,-17 -21,-35 -31,-53l-1 0c0,0 0,0 -1,-1 -1,-1 -3,-2 -5,-2 -1,0 -3,-1 -5,0 -2,0 -4,0 -5,1l-3 2 0 0 -38 22c0,0 0,0 -1,0 0,0 0,0 0,0l0 0c-5,-5 -10,-9 -15,-13 -5,-4 -11,-7 -16,-11 -6,-3 -11,-6 -17,-8 -6,-3 -12,-5 -18,-7 -1,0 -1,0 -1,0 0,0 0,0 0,-1l0 -46c0,-2 -1,-4 -1,-6 -1,-2 -2,-3 -3,-4 -2,-2 -3,-3 -5,-4 -2,0 -4,-1 -6,-1l-57 0c-2,0 -4,1 -5,1 -2,1 -4,2 -5,4 -3,2 -4,6 -4,10l0 46c0,1 0,1 0,1 0,0 -1,0 -1,0l0 0c-6,2 -12,4 -18,7zm20 2c-6,1 -11,3 -17,6 -5,2 -11,5 -16,8 -5,3 -10,6 -15,10 -5,4 -10,8 -14,12 -2,1 -4,2 -6,2 -2,1 -4,0 -6,-1 -13,-8 -27,-15 -40,-23 -1,-1 -2,-1 -2,-1 -1,0 -2,0 -3,0 0,0 -1,1 -2,1 0,1 -1,1 -1,2 -10,15 -20,34 -29,50 0,0 0,1 0,2 -1,0 -1,1 0,2 0,1 0,1 1,2 0,1 1,1 1,1 12,8 28,16 41,24 2,1 3,3 4,4 0,1 0,2 0,2l1 1 -1 3c0,3 -1,6 -2,9 0,3 -1,6 -1,9 0,3 -1,6 -1,9 0,3 0,6 0,10 0,3 0,6 0,9 0,3 1,6 1,9 0,3 1,6 1,9 1,3 2,6 2,9 1,2 1,4 0,6 -1,2 -3,4 -5,5l-35 20 0 0 -5 3c0,0 -1,1 -1,1 -1,1 -1,2 -1,2 -1,1 -1,2 0,3 0,0 0,1 0,2l27 46 0 0 2 3c0,1 1,2 1,2 1,0 2,1 2,1 1,0 2,0 3,0 0,0 1,0 2,-1 13,-8 27,-15 40,-23 2,-1 4,-1 6,-1 2,0 4,1 6,2l0 0c4,5 9,9 14,12 5,4 10,7 15,10 5,3 11,6 16,9 6,2 11,4 17,6 2,0 4,1 5,3 2,2 2,4 2,6l0 47c0,0 1,1 1,2 0,0 1,1 1,2 1,0 1,1 2,1 1,0 1,0 2,0l58 0c0,0 1,0 2,0 0,0 1,-1 2,-1 0,-1 1,-2 1,-2 0,-1 0,-2 0,-2l0 -47c0,-2 1,-4 2,-6 2,-2 4,-3 6,-3 5,-2 11,-4 17,-6 5,-3 10,-6 16,-9 5,-3 10,-6 15,-10 5,-3 9,-7 14,-12 1,-1 4,-2 6,-2 2,0 4,0 6,1l40 23c0,1 1,1 2,1 1,0 1,0 2,0 1,0 2,-1 2,-1 1,0 1,-1 2,-2 9,-16 19,-33 28,-49 1,-1 1,-2 1,-2 0,-1 0,-2 0,-3 0,0 -1,-1 -1,-2 0,0 -1,-1 -2,-1l-40 -24c-2,-1 -3,-2 -4,-4 0,-1 -1,-1 -1,-2l-1 0 1 -4c1,-3 2,-6 2,-9 1,-3 1,-6 2,-9 0,-3 0,-6 0,-9 1,-3 1,-6 1,-9 0,-4 0,-7 -1,-10 0,-3 0,-6 0,-9 -1,-3 -1,-6 -2,-9 0,-3 -1,-6 -2,-9 0,-2 0,-4 1,-6 1,-2 2,-3 4,-4l40 -24c1,0 1,0 2,-1 0,-1 1,-1 1,-2 0,-1 0,-2 0,-2 0,-1 0,-2 -1,-2 -9,-15 -19,-34 -28,-50 -1,-1 -1,-1 -2,-2 0,0 -1,-1 -2,-1 -1,0 -1,0 -2,0 -1,0 -2,0 -2,1l-41 23c-2,1 -4,2 -6,1 -2,0 -4,-1 -5,-2 -5,-5 -9,-9 -14,-12 -5,-4 -10,-7 -15,-10 -6,-3 -11,-6 -17,-8 -5,-3 -11,-5 -17,-6 -2,-1 -4,-2 -5,-4 -1,-2 -2,-4 -2,-6l0 -46c0,-1 0,-2 0,-3 0,0 -1,-1 -1,-1 -1,-1 -2,-1 -2,-2 -1,0 -2,0 -3,0l-57 0c-1,0 -1,0 -2,0 -1,1 -1,1 -2,2 -1,1 -2,2 -2,4l0 46c0,3 0,5 -2,6 -1,2 -3,3 -5,4l0 0zm10 67c-10,4 -19,10 -27,18 -7,8 -14,17 -18,27 -4,10 -6,20 -6,32 0,11 2,22 6,31 4,10 11,20 18,27 8,8 17,14 27,18 10,4 21,7 32,7 11,0 22,-3 32,-7 10,-4 19,-10 26,-18 8,-7 14,-17 19,-27 4,-9 6,-20 6,-31 0,-12 -2,-22 -6,-32 -5,-10 -11,-19 -19,-27 -7,-8 -16,-14 -26,-18 -10,-4 -21,-6 -32,-6 -11,0 -22,2 -32,6l0 0zm-33 12c9,-8 19,-15 30,-20 11,-4 22,-7 35,-7 12,0 24,3 35,7 11,5 21,12 29,20 9,8 16,18 20,30 5,10 7,22 7,35 0,12 -2,24 -7,35 -4,11 -11,21 -20,29 -8,9 -18,15 -29,20 -11,5 -23,7 -35,7 -13,0 -24,-2 -35,-7 -11,-5 -21,-11 -30,-20 -8,-8 -15,-18 -20,-29 -4,-11 -7,-23 -7,-35 0,-13 3,-25 7,-35 5,-12 12,-22 20,-30l0 0z"/>
   <path class="fil3" d="M1609 1137c-5,2 -10,4 -15,7 -5,3 -9,6 -13,10 -1,1 -2,1 -3,0l-18 -10 0 0c-1,-1 -2,-1 -3,-1 -1,1 -2,1 -3,3l0 0 -13 22c0,1 -1,2 0,3 0,1 1,2 2,3l0 0 18 10c1,1 1,2 1,3l0 0c-1,2 -1,5 -2,8 0,3 0,5 0,8 0,3 0,6 0,9 1,2 1,5 2,8 0,1 0,2 -1,3l-18 10c-1,0 -2,1 -2,3 -1,1 0,2 0,3l13 22 0 0c1,1 2,2 3,2 1,0 2,0 3,0l0 0 18 -11c1,0 2,0 3,1 4,4 8,7 13,10 5,2 10,5 16,6 1,1 1,1 1,3l0 20c0,2 1,3 2,3 0,1 1,2 3,2l25 0c1,0 3,-1 3,-2 1,0 2,-1 2,-3l0 -20c0,-2 0,-3 2,-3 5,-1 10,-4 15,-6 5,-3 9,-6 13,-10 1,-1 2,-1 3,-1l18 11c1,0 2,0 3,0 1,0 2,-1 3,-2l0 0 13 -22 0 0c0,-1 1,-2 0,-3 0,-2 -1,-3 -2,-3l-18 -11c-1,0 -1,-1 -1,-2l0 0c1,-3 1,-6 2,-8 0,-3 0,-6 0,-9 0,-3 0,-5 0,-8 -1,-3 -1,-6 -2,-8 0,-1 0,-2 1,-3l18 -10c1,-1 2,-2 2,-3 1,-1 0,-2 0,-3l0 -1 -13 -21c-1,-2 -2,-2 -3,-3 -1,0 -2,0 -3,1l0 0 -18 10c-1,1 -2,1 -3,0 -4,-4 -8,-7 -13,-10 -5,-3 -10,-5 -16,-7 -1,0 -1,-1 -1,-2l0 -21c0,-1 -1,-2 -2,-3 0,-1 -2,-1 -3,-1l-25 0c-2,0 -3,0 -3,1 -1,1 -2,2 -2,3l0 21c0,1 -1,2 -2,2zm-8 39c7,-7 17,-12 27,-12 11,0 21,5 28,12 7,7 11,17 11,27 0,11 -4,21 -11,28 -7,7 -17,11 -28,11 -10,0 -20,-4 -27,-11 -7,-7 -11,-17 -11,-28 0,-10 4,-20 11,-27l0 0zm-20 77l0 0z"/>
   <path class="fil3" d="M1113 1873c-5,2 -10,4 -15,6 -5,3 -9,7 -13,11 -1,0 -2,0 -3,0l-18 -11 0 0c-1,0 -2,0 -3,0 -1,0 -2,1 -3,2l0 0 -13 22c0,1 -1,2 0,4 0,1 1,2 2,2l0 0 18 11c1,0 1,1 1,2l0 0c-1,3 -1,6 -2,9 0,2 0,5 0,8 0,3 0,6 0,8 1,3 1,6 2,8 0,2 0,3 -1,3l-18 10 0 0c-1,1 -2,2 -2,3 -1,1 0,3 0,4l13 22c1,1 2,1 3,2 1,0 2,0 3,-1l0 0 18 -10c1,-1 2,0 3,0 4,4 8,7 13,10 5,3 10,5 16,7 1,0 1,1 1,2l0 21c0,1 1,2 2,3 0,1 2,1 3,1l25 0c1,0 3,0 3,-1 1,-1 2,-2 2,-3l0 -21c0,-1 0,-2 2,-2 5,-2 10,-4 15,-7 5,-3 9,-6 13,-10 1,-1 2,-1 3,0l18 10c1,1 2,1 3,1 1,-1 2,-1 3,-2l0 0 13 -22 0 0c0,-1 1,-3 0,-4 0,-1 -1,-2 -2,-3l-18 -10c-1,0 -1,-2 -1,-3l0 0c1,-2 1,-5 2,-8 0,-2 0,-5 0,-8 0,-3 0,-6 0,-8 -1,-3 -1,-6 -2,-9 0,-1 0,-2 1,-2l18 -11c1,0 2,-1 2,-2 1,-2 0,-3 0,-4l0 0 -13 -22c-1,-1 -2,-2 -3,-2 -1,0 -2,0 -3,0l0 0 -18 11c-1,0 -2,0 -3,-1 -4,-3 -8,-7 -13,-10 -5,-2 -10,-4 -16,-6 -1,0 -1,-1 -1,-2l0 -21c0,-1 -1,-2 -2,-3 0,-1 -2,-2 -3,-2l-25 0c-1,0 -3,1 -3,2 -1,1 -2,2 -2,3l0 21c0,1 -1,2 -2,2zm-8 38c7,-7 17,-11 27,-11 11,0 21,4 28,11 7,7 11,17 11,28 0,11 -4,20 -11,27 -7,7 -17,12 -28,12 -10,0 -20,-5 -27,-12 -7,-7 -11,-16 -11,-27 0,-11 4,-21 11,-28l0 0zm-20 77l0 0z"/>
   <path class="fil9" d="M1328 1274c11,0 20,-9 20,-20 0,-11 -9,-19 -20,-19 -11,0 -19,8 -19,19 0,11 8,20 19,20z"/>
   <path class="fil9" d="M2072 1230c11,0 20,-9 20,-20 0,-10 -9,-19 -20,-19 -10,0 -19,9 -19,19 0,11 9,20 19,20z"/>
   <path class="fil9" d="M2824 617c11,0 19,-9 19,-20 0,-10 -8,-19 -19,-19 -11,0 -20,9 -20,19 0,11 9,20 20,20z"/>
   <path class="fil9" d="M3262 1179c10,0 19,-9 19,-20 0,-10 -9,-19 -19,-19 -11,0 -20,9 -20,19 0,11 9,20 20,20z"/>
   <path class="fil9" d="M3831 2842c11,0 19,-8 19,-19 0,-11 -8,-20 -19,-20 -11,0 -20,9 -20,20 0,11 9,19 20,19z"/>
   <path class="fil9" d="M234 3557c10,0 19,-8 19,-19 0,-11 -9,-20 -19,-20 -11,0 -20,9 -20,20 0,11 9,19 20,19z"/>
   <path class="fil9" d="M4035 3455c11,0 20,-8 20,-19 0,-11 -9,-20 -20,-20 -11,0 -19,9 -19,20 0,11 8,19 19,19z"/>
   <path class="fil2" d="M1863 1260c0,-3 -3,-6 -7,-6 -3,0 -6,3 -6,6l0 16 -16 0c-3,0 -6,3 -6,7 0,3 3,6 6,6l16 0 0 16c0,4 3,7 6,7 4,0 7,-3 7,-7l0 -16 16 0c3,0 6,-3 6,-6 0,-4 -3,-7 -6,-7l-16 0 0 -16z"/>
   <path class="fil2" d="M2367 1100c0,-4 -3,-7 -7,-7 -4,0 -7,3 -7,7l0 15 -15 0c-4,0 -7,3 -7,7 0,4 3,7 7,7l15 0 0 15c0,4 3,7 7,7 4,0 7,-3 7,-7l0 -15 15 0c4,0 7,-3 7,-7 0,-4 -3,-7 -7,-7l-15 0 0 -15z"/>
   <path class="fil2" d="M1841 837c0,-4 -3,-7 -6,-7 -4,0 -7,3 -7,7l0 16 -16 0c-3,0 -6,3 -6,6 0,4 3,7 6,7l16 0 0 16c0,3 3,6 7,6 3,0 6,-3 6,-6l0 -16 16 0c4,0 7,-3 7,-7 0,-3 -3,-6 -7,-6l-16 0 0 -16z"/>
   <path class="fil2" d="M3308 830c0,-4 -3,-7 -7,-7 -3,0 -6,3 -6,7l0 15 -16 0c-4,0 -7,3 -7,7 0,4 3,7 7,7l16 0 0 15c0,4 3,7 6,7 4,0 7,-3 7,-7l0 -15 16 0c3,0 6,-3 6,-7 0,-4 -3,-7 -6,-7l-16 0 0 -15z"/>
   <path class="fil2" d="M3921 1326c0,-4 -3,-7 -7,-7 -4,0 -7,3 -7,7l0 16 -15 0c-4,0 -7,3 -7,6 0,4 3,7 7,7l15 0 0 16c0,3 3,6 7,6 4,0 7,-3 7,-6l0 -16 15 0c4,0 7,-3 7,-7 0,-3 -3,-6 -7,-6l-15 0 0 -16z"/>
   <path class="fil2" d="M4001 2333c0,-4 -3,-7 -7,-7 -3,0 -6,3 -6,7l0 16 -16 0c-4,0 -7,3 -7,6 0,4 3,7 7,7l16 0 0 16c0,3 3,6 6,6 4,0 7,-3 7,-6l0 -16 16 0c3,0 6,-3 6,-7 0,-3 -3,-6 -6,-6l-16 0 0 -16z"/>
   <path class="fil2" d="M345 2712c0,-3 -3,-6 -6,-6 -4,0 -7,3 -7,6l0 16 -15 0c-4,0 -7,3 -7,7 0,3 3,6 7,6l15 0 0 16c0,4 3,7 7,7 3,0 6,-3 6,-7l0 -16 16 0c4,0 7,-3 7,-6 0,-4 -3,-7 -7,-7l-16 0 0 -16z"/>
   <path class="fil2" d="M148 2968c0,-4 -3,-7 -6,-7 -4,0 -7,3 -7,7l0 15 -15 0c-4,0 -7,3 -7,7 0,4 3,7 7,7l15 0 0 15c0,4 3,7 7,7 3,0 6,-3 6,-7l0 -15 16 0c4,0 7,-3 7,-7 0,-4 -3,-7 -7,-7l-16 0 0 -15z"/>
   <path class="fil2" d="M389 1545c0,-4 -3,-7 -6,-7 -4,0 -7,3 -7,7l0 16 -16 0c-3,0 -6,3 -6,6 0,4 3,7 6,7l16 0 0 16c0,3 3,6 7,6 3,0 6,-3 6,-6l0 -16 16 0c4,0 7,-3 7,-7 0,-3 -3,-6 -7,-6l-16 0 0 -16z"/>
   <path class="fil2" d="M4183 3690c0,-4 -3,-7 -6,-7 -4,0 -7,3 -7,7l0 16 -16 0c-3,0 -6,3 -6,6 0,4 3,7 6,7l16 0 0 16c0,3 3,6 7,6 3,0 6,-3 6,-6l0 -16 16 0c4,0 7,-3 7,-7 0,-3 -3,-6 -7,-6l-16 0 0 -16z"/>
   <path class="fil2" d="M1746 363c0,-4 -3,-7 -6,-7 -4,0 -7,3 -7,7l0 16 -16 0c-3,0 -6,3 -6,6 0,4 3,7 6,7l16 0 0 15c0,4 3,7 7,7 3,0 6,-3 6,-7l0 -15 16 0c4,0 7,-3 7,-7 0,-3 -3,-6 -7,-6l-16 0 0 -16z"/>
  </g>
 </g>
</svg>
