<?xml version="1.0" encoding="UTF-8"?>
<!DOCTYPE svg PUBLIC "-//W3C//DTD SVG 1.1//EN" "http://www.w3.org/Graphics/SVG/1.1/DTD/svg11.dtd">
<!-- Creator: CorelDRAW X7 -->
<svg xmlns="http://www.w3.org/2000/svg" xml:space="preserve" width="42.3332mm" height="42.3332mm" version="1.1" style="shape-rendering:geometricPrecision; text-rendering:geometricPrecision; image-rendering:optimizeQuality; fill-rule:evenodd; clip-rule:evenodd"
viewBox="0 0 4233 4233"
 xmlns:xlink="http://www.w3.org/1999/xlink">
 <defs>
  <style type="text/css">
   <![CDATA[
    .fil63 {fill:#009BD9}
    .fil56 {fill:#070707}
    .fil60 {fill:#0D4E80}
    .fil55 {fill:#0E0E0E}
    .fil33 {fill:#0F4A78}
    .fil0 {fill:#10518A}
    .fil23 {fill:#12578D}
    .fil34 {fill:#17639F}
    .fil48 {fill:#19226F}
    .fil54 {fill:#1A1A1A}
    .fil24 {fill:#1B75BB}
    .fil58 {fill:#1C1C1C}
    .fil65 {fill:#1E1E1E}
    .fil59 {fill:#231F20}
    .fil16 {fill:#2698A4}
    .fil1 {fill:#276FA3}
    .fil47 {fill:#2B388F}
    .fil64 {fill:#2D90D3}
    .fil72 {fill:#2E3191}
    .fil57 {fill:#333333}
    .fil2 {fill:#39B1B5}
    .fil71 {fill:#404041}
    .fil18 {fill:#52A5AC}
    .fil3 {fill:#5BCECC}
    .fil53 {fill:#5D0204}
    .fil17 {fill:#65C8D0}
    .fil28 {fill:#677F8E}
    .fil51 {fill:#6A050A}
    .fil70 {fill:#6A3723}
    .fil20 {fill:#6B0008}
    .fil49 {fill:#6C2810}
    .fil38 {fill:#789DAE}
    .fil27 {fill:#7A96A7}
    .fil36 {fill:#8899A2}
    .fil69 {fill:#8A5339}
    .fil50 {fill:#8E3821}
    .fil29 {fill:#8FB9CC}
    .fil68 {fill:#99653E}
    .fil11 {fill:#999C9F}
    .fil52 {fill:#9A1621}
    .fil22 {fill:#9B1925}
    .fil31 {fill:#9DA1A4}
    .fil32 {fill:#9F1926}
    .fil35 {fill:#A1B5BF}
    .fil26 {fill:#A2B4BE}
    .fil39 {fill:#A53C16}
    .fil10 {fill:#AAADAF}
    .fil30 {fill:#AEB2B4}
    .fil67 {fill:#B4855C}
    .fil44 {fill:#BA606B}
    .fil14 {fill:#BB5C0E}
    .fil8 {fill:#BCBEC0}
    .fil21 {fill:#BE1E2D}
    .fil61 {fill:#BF5059}
    .fil25 {fill:#C0D5E0}
    .fil42 {fill:#C1DAE6}
    .fil62 {fill:#C66872}
    .fil12 {fill:#CC9035}
    .fil41 {fill:#CE808B}
    .fil4 {fill:#CF7C1A}
    .fil7 {fill:#D0D2D3}
    .fil66 {fill:#D5787E}
    .fil37 {fill:#D5D9D9}
    .fil43 {fill:#DD4484}
    .fil15 {fill:#E28223}
    .fil46 {fill:#E38286}
    .fil6 {fill:#E6E7E8}
    .fil45 {fill:#ECA0A4}
    .fil40 {fill:#F05A28}
    .fil19 {fill:#F7931E}
    .fil9 {fill:#FAAF40}
    .fil13 {fill:#FFF100}
    .fil5 {fill:white}
   ]]>
  </style>
 </defs>
 <g id="Layer_x0020_1">
  <metadata id="CorelCorpID_0Corel-Layer"/>
  <g id="_1729768630656">
   <path class="fil0" d="M1029 1477c22,-7 42,15 54,36 83,144 138,305 160,471 -7,-56 9,-119 25,-172 17,-59 43,-114 75,-166 6,-9 13,-19 22,-26 10,-6 22,-9 33,-5 12,6 18,20 21,34 24,92 2,200 -14,292 -8,51 -19,101 -33,151 -6,25 -13,50 -21,75 -13,40 -15,82 -35,120 -7,13 -16,25 -29,31 -24,12 -52,-2 -74,-16 -149,-96 -279,-225 -381,-370 -16,-24 -41,-54 -35,-84 6,-26 26,-36 50,-35 43,3 87,35 119,61 50,40 89,91 128,141 -75,-150 -107,-322 -91,-489 2,-20 8,-43 26,-49z"/>
   <path class="fil1" d="M1382 1666c-30,148 -67,293 -110,437 -10,34 -20,68 -22,103 0,3 0,6 0,9 0,27 5,54 11,80l2 0 1 -1c-34,-50 -69,-100 -111,-144 -61,-64 -135,-113 -194,-177 -35,-39 -66,-85 -114,-108 -1,0 -2,0 -3,1 0,1 0,2 1,3 47,22 78,67 113,106 59,65 134,114 194,177 42,44 77,94 111,144l3 0c1,0 1,-1 1,-2 -7,-26 -11,-52 -11,-79 0,-3 0,-6 0,-9 1,-34 12,-68 22,-102 43,-144 80,-290 110,-437 0,-1 -1,-2 -2,-2 -1,0 -2,0 -2,1z"/>
   <path class="fil1" d="M1037 1510c3,23 6,46 10,70 3,23 6,47 12,71 20,88 69,167 86,255 4,18 6,37 8,55 4,23 8,46 13,69 21,92 56,180 96,266 0,1 2,1 3,1 0,-1 1,-2 0,-3 -39,-85 -75,-173 -95,-265 -5,-23 -9,-45 -13,-68 -2,-19 -4,-37 -8,-55 -17,-89 -67,-169 -87,-256 -5,-23 -8,-47 -12,-71 -3,-23 -6,-46 -9,-69 0,-1 -1,-2 -2,-2 -1,0 -2,1 -2,2z"/>
   <path class="fil1" d="M1329 1703c5,26 10,53 24,75 1,1 2,2 2,3 1,1 3,2 4,2l1 0c2,-1 3,-2 3,-2 18,-17 34,-36 48,-56l0 -2 -3 0c-14,20 -30,38 -47,55l-2 1 0 0 -1 -1 -1 -2c-14,-22 -19,-48 -24,-74 -1,-1 -2,-2 -3,-1 -1,0 -1,1 -1,2z"/>
   <path class="fil1" d="M1295 1816c3,25 8,50 16,74 2,7 5,15 12,20 1,1 2,2 4,2l2 0c1,-1 2,-2 3,-3 24,-22 46,-46 67,-71l-1 -3 -2 0c-21,25 -43,49 -66,72l-2 1 -1 0c0,0 -1,-1 -2,-1 -6,-4 -8,-11 -11,-19 -7,-23 -12,-48 -15,-73 0,-1 -1,-1 -2,-1 -1,0 -2,1 -2,2z"/>
   <path class="fil1" d="M1254 1949c1,26 7,51 16,76 4,9 9,19 18,25l3 0c31,-27 59,-58 83,-91l-1 -3 -2 0c-24,33 -52,64 -83,91l1 1 1 -1c-8,-5 -12,-14 -16,-24 -9,-24 -15,-49 -16,-75 0,-1 -1,-1 -2,-1 -1,0 -2,1 -2,2z"/>
   <path class="fil1" d="M1224 1996c-6,46 -14,92 -26,138l2 0 1 -1c-36,-27 -63,-64 -95,-97l-2 0 0 2c31,33 58,71 95,98l2 0 1 -1c11,-46 20,-92 26,-139 0,-1 -1,-2 -2,-2 -1,0 -2,1 -2,2z"/>
   <path class="fil1" d="M1192 1889c-10,36 -20,71 -32,105l2 1 1 -1c-19,-17 -38,-34 -53,-55 -14,-20 -25,-43 -44,-61l-2 0 0 3c17,17 28,40 43,61 16,20 35,37 54,55l1 0 2 -1c11,-35 22,-70 32,-105 0,-1 0,-3 -1,-3 -1,0 -2,0 -3,1z"/>
   <path class="fil1" d="M1145 1703c-3,45 -9,89 -19,132l2 1 1 -2c-42,-22 -73,-59 -104,-95l-3 0 0 2c31,37 62,74 105,96l2 0 1 -1c9,-44 16,-88 19,-132 0,-1 -1,-2 -2,-2 -1,0 -2,0 -2,1z"/>
   <path class="fil1" d="M1092 1578c-7,37 -14,74 -21,112l1 0 1 -2c-7,-3 -12,-10 -16,-17 -15,-20 -30,-40 -44,-60l-3 -1 0 3c14,20 29,40 43,61 5,6 11,14 19,18l1 0 1 -2c8,-37 15,-74 21,-112 0,-1 0,-2 -1,-2 -1,0 -2,1 -2,2z"/>
   <path class="fil1" d="M882 1846c10,20 16,42 18,64l2 0 0 -2c-1,0 -2,0 -3,0 -24,0 -48,-5 -70,-14 -1,0 -2,0 -3,1 0,1 0,2 1,3 23,9 47,14 72,14 1,0 2,0 3,0l1 -1 1 -1c-2,-23 -8,-46 -18,-66 -1,-1 -2,-1 -3,-1 -1,0 -1,2 -1,3z"/>
   <path class="fil1" d="M960 1894c15,32 23,68 23,103 0,2 0,3 0,5l1 0 1 -2c-37,-7 -74,-19 -108,-35 -1,0 -2,0 -3,1 0,1 0,2 1,3 35,16 72,27 109,35l2 -1 0 -1c0,-2 0,-3 0,-5 0,-36 -7,-72 -22,-105 -1,-1 -2,-1 -3,-1 -1,1 -1,2 -1,3z"/>
   <path class="fil1" d="M1038 1968c9,33 17,67 22,101l2 0 0 -2c-42,-5 -84,-12 -126,-21 -1,0 -2,1 -2,2 0,1 0,2 1,2 42,8 84,15 127,21l1 0 1 -2c-6,-35 -13,-69 -22,-102 -1,-1 -2,-2 -3,-2 -1,1 -1,2 -1,3z"/>
   <path class="fil1" d="M1116 2081l-1 0 0 0 1 0 -1 0 0 0 0 0 0 0 0 0 0 0 0 0 0 0 1 2c7,18 13,37 19,55l2 -1 -1 -2c-19,3 -39,6 -58,6 -14,0 -28,-1 -42,-6 -1,0 -2,1 -2,2 -1,1 0,2 1,2 14,5 28,6 43,6 20,0 39,-3 59,-6l1 -1 0 -1c-6,-19 -12,-37 -18,-55 0,-1 -1,-2 -1,-3 -1,-1 -2,-1 -4,-1l-2 0 0 3 3 0z"/>
   <path class="fil1" d="M1089 2192c35,15 72,23 110,23l2 0c1,0 2,-1 2,-2 0,-1 -1,-2 -2,-2l-2 0c-37,0 -74,-8 -109,-23 0,0 -2,0 -2,1 0,1 0,2 1,3z"/>
   <path class="fil1" d="M1228 2099c4,23 15,45 32,62l3 0c31,-20 57,-47 74,-80 1,-1 0,-2 -1,-2 -1,-1 -2,-1 -2,0 -17,32 -43,59 -73,79l1 1 1 -1c-17,-16 -28,-37 -31,-60 -1,-1 -2,-2 -3,-1 -1,0 -1,1 -1,2z"/>
   <path class="fil1" d="M1321 2133c-20,51 -42,100 -66,148l2 1 0 -2c-31,-8 -63,-19 -92,-33 -1,0 -2,0 -3,1 0,1 0,2 1,2 30,14 62,26 93,34l2 -1c24,-49 46,-98 66,-148 1,-1 0,-2 -1,-3 -1,0 -2,0 -2,1z"/>
   <path class="fil2" d="M654 1893c12,-17 37,-11 56,-3 132,58 254,143 354,247 -34,-35 -55,-87 -71,-133 -18,-50 -29,-102 -32,-154 -1,-10 -1,-20 2,-30 3,-9 10,-18 20,-20 11,-2 23,5 32,12 64,52 104,139 141,212 20,40 38,81 54,122 9,21 16,42 24,64 12,35 31,64 37,102 1,12 2,25 -4,36 -11,21 -38,25 -61,27 -153,10 -310,-14 -456,-63 -23,-8 -56,-16 -67,-41 -10,-21 -1,-38 17,-50 31,-20 78,-19 114,-18 55,2 109,17 162,32 -130,-66 -240,-169 -315,-295 -9,-14 -17,-34 -7,-47z"/>
   <path class="fil3" d="M998 1844c54,118 104,239 148,362 10,28 20,58 37,83 15,22 34,40 54,57l1 -2 0 -2c-49,-17 -100,-34 -152,-43 -75,-13 -152,-9 -226,-24 -36,-7 -72,-19 -108,-19 -9,0 -18,1 -27,3 -1,0 -2,1 -2,2 0,1 1,2 2,2 9,-2 18,-3 27,-3 35,0 71,12 107,19 75,15 152,11 227,24 51,9 101,26 151,43l2 -1 0 -2c-20,-17 -39,-35 -53,-56 -17,-25 -27,-54 -37,-82 -44,-123 -93,-244 -148,-363 0,-1 -1,-1 -2,-1 -1,1 -2,2 -1,3z"/>
   <path class="fil3" d="M676 1912c15,15 29,29 43,44 14,15 29,30 45,43 59,51 135,82 192,134 11,11 22,23 34,35 14,14 29,28 44,41 62,54 132,97 204,137 1,0 2,0 2,-1 1,-1 0,-2 -1,-3 -71,-39 -141,-82 -203,-136 -15,-13 -29,-27 -43,-41 -12,-11 -23,-23 -35,-34 -57,-54 -133,-84 -192,-135 -15,-13 -30,-28 -44,-43 -15,-14 -29,-29 -43,-44l-3 0 0 3z"/>
   <path class="fil3" d="M980 1897c16,15 34,31 56,40 1,1 2,1 3,1 1,0 3,0 4,-1l0 -1 1 -2 0 -1c3,-19 5,-38 5,-57 0,-2 0,-4 0,-6 0,-1 -1,-2 -2,-2 -1,0 -2,1 -2,2 0,2 0,4 0,6 0,19 -1,38 -5,57l2 0 -2 -1 -1 3 2 0 -1 -1 -1 0 -2 0c-21,-9 -38,-24 -55,-40l-3 0 1 3z"/>
   <path class="fil3" d="M1014 1993c15,16 31,31 49,44 5,4 11,8 19,8l0 0c1,0 3,0 5,-2 1,-2 1,-3 1,-4 5,-28 8,-56 10,-84 0,-1 -1,-2 -2,-2 -1,0 -2,1 -2,2 -1,28 -5,56 -9,84 -1,1 -1,1 -1,1 0,1 -1,1 -2,1l0 0c-6,0 -12,-4 -17,-7 -17,-13 -34,-28 -48,-44l-3 0 0 3z"/>
   <path class="fil3" d="M1054 2107c14,18 31,33 50,45 7,4 15,8 24,8l2 0 2 -1c7,-34 11,-70 11,-105l0 -2c0,-1 -1,-2 -2,-2 -1,0 -2,1 -2,2l0 2c0,35 -4,70 -11,104l2 0 0 -2 -2 1c-8,0 -15,-4 -22,-8 -19,-12 -36,-27 -49,-44l-3 -1 0 3z"/>
   <path class="fil3" d="M1057 2156c20,35 37,72 53,109l2 -1 0 -2 -2 0c-39,0 -76,-12 -115,-19 -1,0 -2,1 -2,2 0,1 1,2 2,2 38,7 75,19 115,19l2 0 1 -1 0 -1c-15,-38 -33,-75 -53,-110 -1,-1 -2,-2 -3,-1 -1,0 -1,2 0,3l0 0z"/>
   <path class="fil3" d="M980 2097c11,30 21,60 31,90l2 0 0 -2c-22,-2 -44,-5 -64,-11 -21,-6 -41,-17 -63,-20 -1,0 -2,0 -2,1 0,1 1,2 2,3 21,3 40,13 61,20 22,6 44,8 66,11l2 -1 0 -2c-10,-30 -20,-60 -31,-90 -1,-1 -2,-2 -3,-1 -1,0 -1,1 -1,2z"/>
   <path class="fil3" d="M851 1992c21,32 39,66 55,101l1 0 0 -2c-9,1 -18,2 -27,2 -31,0 -63,-8 -94,-15 -1,-1 -2,0 -2,1 -1,1 0,2 1,2 31,8 63,16 95,16 9,0 18,-1 28,-2l1 -1 0 -2c-15,-35 -34,-70 -55,-102 0,-1 -1,-1 -2,-1 -1,1 -1,2 -1,3z"/>
   <path class="fil3" d="M749 1931c15,30 29,59 43,89l2 -1 -1 -1c-1,0 -2,0 -3,0 -6,0 -11,-2 -17,-4 -20,-6 -41,-13 -62,-19 -1,-1 -2,0 -2,1 0,1 0,2 1,2 21,7 41,13 62,20 6,2 11,4 18,4 1,0 3,0 4,-1l1 -1 1 -1c-14,-30 -29,-60 -43,-89 -1,-1 -2,-2 -3,-1 -1,0 -1,1 -1,2z"/>
   <path class="fil3" d="M741 2226c17,9 33,21 45,36l2 -1 -1 -2c-18,14 -38,23 -59,28 -1,0 -1,2 -1,3 0,1 1,1 2,1 22,-5 42,-15 60,-29l1 -1 -1 -1c-13,-15 -29,-28 -47,-37 0,-1 -2,0 -2,1 -1,1 0,2 1,2z"/>
   <path class="fil3" d="M820 2220c28,15 53,38 71,64l2 -1 -1 -2c-30,14 -61,24 -93,31 -1,0 -2,1 -2,2 0,2 1,2 2,2 33,-7 64,-17 94,-32l1 -1 0 -1c-19,-27 -44,-50 -72,-66 -1,0 -2,0 -3,1 0,1 0,2 1,3z"/>
   <path class="fil3" d="M912 2231c24,19 47,39 68,60l1 -1 -1 -2c-32,18 -65,35 -98,50 -1,1 -2,2 -1,3 0,1 1,1 2,1 34,-16 67,-33 99,-50l1 -2 0 -1c-22,-22 -44,-42 -68,-61l-3 1 0 2z"/>
   <path class="fil3" d="M1025 2271l0 0 0 0 0 0 0 0 0 0 0 0 0 0 0 0 0 0 0 0 0 0 2 1c13,10 27,19 40,29l2 -2 -2 -1c-21,21 -42,42 -70,51 -1,1 -1,2 -1,3 1,1 2,1 3,1 28,-10 50,-32 71,-52l0 -2 0 -1c-14,-10 -28,-20 -41,-29 -1,-1 -2,-2 -4,-2l-2 1 -1 2c-1,1 0,2 1,2 1,0 2,0 2,-1z"/>
   <path class="fil3" d="M1063 2362c33,-7 64,-22 90,-42l1 -2 -3 -1c-26,20 -57,34 -89,41 -1,0 -1,1 -1,2 0,1 1,2 2,2z"/>
   <path class="fil3" d="M1112 2226c15,14 35,23 55,26l2 -1c9,-22 13,-45 13,-69 0,-8 -1,-17 -2,-25 0,-1 -1,-2 -2,-2 -1,0 -2,1 -2,2 2,9 2,17 2,25 0,23 -4,46 -13,68l2 0 0 -2c-19,-2 -38,-11 -52,-25l-3 0 0 3z"/>
   <path class="fil3" d="M1195 2202c12,45 22,91 30,137l2 0 -1 -2c-26,11 -54,19 -81,24 -1,0 -2,1 -2,2 0,1 1,2 3,2 27,-6 56,-14 81,-25l2 -2c-8,-46 -18,-92 -30,-137 0,-1 -1,-2 -3,-1 -1,0 -1,1 -1,2z"/>
   <path class="fil0" d="M3353 1659c-23,-3 -38,23 -46,44 -60,156 -88,324 -83,491 -2,-57 -27,-116 -52,-166 -27,-54 -61,-105 -101,-151 -8,-8 -16,-17 -26,-22 -10,-5 -23,-6 -33,0 -11,8 -15,23 -16,37 -9,95 30,198 61,286 17,49 36,97 57,144 11,24 22,47 33,70 19,38 28,79 55,113 8,11 19,22 32,26 26,8 51,-10 71,-28 132,-118 239,-267 316,-426 13,-26 32,-60 21,-89 -10,-24 -31,-32 -55,-26 -42,10 -79,49 -107,79 -43,47 -74,104 -104,160 50,-160 54,-335 11,-497 -5,-19 -14,-42 -34,-45z"/>
   <path class="fil1" d="M3032 1905c54,140 114,278 179,414 16,31 31,63 38,96 4,18 5,35 5,53 0,12 0,24 -1,36 0,1 0,2 1,2 1,0 2,0 3,-1 26,-55 52,-110 86,-159 49,-72 115,-133 163,-207 29,-44 52,-93 94,-123l1 -3 -3 0c-43,30 -67,81 -95,124 -48,74 -113,134 -163,206 -35,51 -61,106 -87,160l2 1 2 0c1,-12 1,-24 1,-36 0,-18 -1,-36 -5,-53 -7,-35 -23,-67 -38,-98 -66,-135 -126,-273 -179,-414 0,-1 -2,-1 -3,-1 -1,1 -1,2 -1,3z"/>
   <path class="fil1" d="M3347 1694c1,23 2,46 2,70 0,12 1,25 1,37 0,12 -1,23 -1,34 -6,90 -42,176 -45,267 0,4 0,7 0,11 0,15 1,30 1,45 0,5 0,11 0,16 0,18 0,35 -1,53 -6,94 -26,186 -52,277 0,1 0,2 1,2 1,1 3,0 3,-1 25,-91 46,-184 52,-278 1,-17 1,-35 1,-53 0,-5 0,-11 0,-16 0,-15 -1,-30 -1,-45 0,-4 0,-7 0,-11 3,-90 39,-176 45,-266 0,-12 1,-23 1,-35 0,-12 -1,-25 -1,-37 -1,-24 -1,-47 -2,-71 0,-1 -1,-1 -2,-1 -1,0 -2,0 -2,2l0 0z"/>
   <path class="fil1" d="M3090 1931c0,26 -1,53 -11,77l-1 2 -2 1 0 0 0 2 0 -2 -1 -1c-20,-14 -39,-29 -56,-46l-2 0 0 2c17,18 35,33 56,47 0,1 2,1 3,2l0 0 0 0c2,0 4,-1 4,-2 1,-1 2,-3 2,-4 11,-25 11,-52 12,-78 0,-1 -1,-2 -2,-2 -1,0 -2,1 -2,2z"/>
   <path class="fil1" d="M3142 2037c0,7 0,14 0,21 0,18 -1,36 -4,54 -1,7 -2,15 -7,19 -1,1 -2,2 -3,2l0 0 -2 -1c-26,-19 -52,-38 -76,-60l-3 1 0 2c25,22 50,42 77,60 1,1 2,1 4,2l0 0c3,0 5,-2 6,-3 6,-6 7,-14 8,-22 3,-18 4,-36 4,-54 0,-7 0,-14 0,-21 0,-1 -1,-2 -2,-2 -1,0 -2,1 -2,2z"/>
   <path class="fil1" d="M3204 2162c1,9 1,18 1,26 0,17 -1,34 -5,50 -2,10 -5,20 -12,26l1 1 1 -1c-35,-22 -67,-47 -96,-76l-3 0 0 3c29,28 62,54 97,76l2 0c8,-7 12,-18 14,-28 3,-17 5,-34 5,-51 0,-9 0,-18 -1,-27 0,-1 -1,-2 -2,-1 -2,0 -2,1 -2,2z"/>
   <path class="fil1" d="M3241 2204c14,45 29,89 48,133l1 1 2 -1c32,-32 53,-74 79,-111l-1 -3 -3 0c-25,38 -46,80 -78,111l2 2 1 -1c-18,-43 -34,-87 -47,-132 0,-1 -1,-2 -2,-1 -1,0 -2,1 -2,2z"/>
   <path class="fil1" d="M3255 2095c16,33 32,66 49,98l2 1 2 -1c16,-19 32,-39 43,-62 12,-23 19,-48 34,-67l-1 -3 -2 0c-15,21 -23,46 -34,68 -12,22 -27,42 -43,62l1 1 2 -1c-17,-32 -33,-65 -49,-98 0,-1 -2,-1 -3,-1 -1,0 -1,2 -1,3z"/>
   <path class="fil1" d="M3272 1902c10,44 24,87 40,128l1 1 2 0c39,-29 64,-71 88,-112 1,-1 0,-2 -1,-2 -1,-1 -2,-1 -2,0 -24,41 -49,83 -87,111l1 1 2 0c-17,-42 -30,-84 -40,-127 0,-1 -1,-2 -2,-2 -1,0 -2,1 -2,2z"/>
   <path class="fil1" d="M3305 1770c12,36 25,72 38,107l2 1 1 0c8,-5 12,-13 15,-21 11,-22 23,-44 34,-66 0,-1 0,-2 -1,-3 -1,0 -2,0 -3,1 -11,22 -22,44 -33,67 -4,7 -8,15 -14,19l1 2 2 -1c-13,-36 -26,-71 -39,-107 0,-1 -1,-2 -2,-1 -1,0 -2,1 -1,2z"/>
   <path class="fil1" d="M3554 1998c-5,17 -8,35 -8,53 0,5 1,10 1,16l1 1 1 0c26,-3 50,-12 72,-26 1,0 1,-2 0,-2 0,-1 -1,-2 -2,-1 -21,13 -45,22 -70,26l0 1 2 0c0,-5 -1,-10 -1,-15 0,-17 3,-35 8,-51 0,-1 0,-3 -1,-3 -1,0 -2,0 -3,1z"/>
   <path class="fil1" d="M3485 2059c-6,21 -9,44 -9,66 0,15 2,30 4,46l1 1 2 0c36,-13 70,-31 102,-52l0 -2 -2 -1c-32,21 -66,38 -101,51l0 2 2 0c-3,-15 -4,-30 -4,-45 0,-22 3,-44 9,-65 0,-1 -1,-2 -2,-3 -1,0 -2,1 -2,2z"/>
   <path class="fil1" d="M3420 2145c-3,31 -5,63 -5,95 0,3 0,6 0,9l1 2 1 0c41,-12 82,-26 121,-41 1,0 2,-1 2,-2 -1,-1 -2,-2 -3,-1 -40,14 -80,28 -121,40l1 2 2 0c0,-3 0,-6 0,-9 0,-32 1,-63 5,-95 0,-1 -1,-2 -2,-2 -1,0 -2,1 -2,2z"/>
   <path class="fil1" d="M3367 2266l-1 0c-2,0 -3,1 -3,2 -1,1 -1,2 -2,3 -3,19 -6,38 -9,57l1 2 1 0c34,0 70,0 101,-16 1,-1 1,-2 0,-3 0,-1 -1,-1 -2,0 -30,15 -65,15 -99,16l0 1 2 1c3,-19 6,-38 9,-57l1 -2 0 0 0 0 0 0 0 0 0 0 0 0 0 -1 0 1 0 0 0 -1 0 1 0 0 0 0 0 0 0 0 0 0c1,0 2,0 2,-1 1,-1 0,-2 -1,-3z"/>
   <path class="fil1" d="M3408 2371c-32,21 -68,35 -106,40 -1,1 -1,2 -1,3 0,1 1,1 2,1 38,-6 75,-20 107,-40l0 -3 -2 -1z"/>
   <path class="fil1" d="M3254 2305l0 1c0,22 -8,45 -21,63l1 1 1 -1c-33,-15 -63,-37 -85,-66l-3 0 0 3c23,29 53,52 87,66l2 -1c14,-18 22,-42 22,-65l0 -1c0,-1 -1,-2 -2,-2 -1,0 -2,1 -2,2z"/>
   <path class="fil1" d="M3168 2356c28,47 58,92 89,136l3 0c30,-12 59,-29 86,-48l0 -2 -2 -1c-27,19 -56,35 -86,48l1 2 2 -2c-32,-43 -62,-88 -89,-135 -1,0 -2,-1 -3,0 -1,0 -1,1 -1,2z"/>
   <path class="fil0" d="M3766 2192c-22,-7 -42,15 -53,35 -84,145 -139,306 -161,472 7,-57 -9,-119 -25,-172 -17,-59 -43,-114 -75,-166 -6,-9 -13,-19 -22,-26 -9,-6 -22,-9 -32,-5 -13,6 -19,20 -22,34 -24,92 -2,200 14,292 8,51 19,101 33,151 6,25 14,50 21,75 13,40 15,82 36,120 6,13 15,25 28,31 24,12 52,-2 74,-16 150,-96 279,-225 381,-370 17,-24 41,-54 35,-84 -6,-26 -25,-36 -50,-35 -43,3 -86,35 -119,61 -50,40 -89,91 -128,141 75,-150 107,-322 91,-489 -2,-20 -7,-43 -26,-49z"/>
   <path class="fil1" d="M3409 2382c31,147 67,293 110,437 10,34 21,68 22,102 1,3 1,6 1,9 0,27 -5,53 -12,79 0,1 1,2 1,2l3 0c34,-50 69,-100 111,-144 60,-63 135,-112 194,-177 35,-39 66,-84 113,-106 1,-1 2,-2 1,-3 0,-1 -2,-1 -2,-1 -48,23 -80,69 -115,108 -59,64 -133,113 -194,177 -42,44 -77,94 -111,144l1 1 2 0c6,-26 11,-53 11,-80 0,-3 0,-6 0,-9 -1,-35 -12,-69 -22,-103 -43,-144 -80,-289 -110,-437 0,-1 -1,-1 -2,-1 -1,0 -2,1 -2,2z"/>
   <path class="fil1" d="M3754 2225c-3,23 -6,46 -9,69 -4,24 -7,47 -12,71 -20,87 -70,167 -87,256 -3,18 -5,36 -8,55 -3,23 -8,45 -13,68 -20,92 -56,180 -95,265 -1,1 0,2 1,3 1,0 2,0 2,-1 40,-86 75,-174 96,-266 5,-23 9,-46 13,-69 2,-18 4,-37 8,-55 17,-88 66,-167 87,-255 5,-24 8,-48 12,-71 3,-24 6,-47 9,-70 0,-1 0,-2 -1,-2 -2,0 -2,0 -3,2z"/>
   <path class="fil1" d="M3463 2417c-5,26 -11,52 -24,74l-2 2 -1 1 0 0 -2 -1c-17,-17 -33,-35 -47,-55l-3 0 0 2c14,20 30,39 48,56 0,0 1,1 3,2l1 0c2,0 3,-1 4,-2 1,-1 1,-2 2,-3 14,-22 19,-49 24,-75 0,-1 0,-2 -1,-2 -1,-1 -2,0 -2,1z"/>
   <path class="fil1" d="M3496 2530c-3,25 -8,50 -15,73 -2,8 -5,15 -11,19 -1,0 -2,1 -2,1l-1 0 -1 -2c-24,-22 -46,-46 -67,-71l-2 0 0 3c20,25 43,49 66,71 1,1 2,2 3,3l2 0c2,0 3,-1 5,-2 6,-5 9,-13 11,-20 8,-24 13,-49 16,-74 0,-1 -1,-2 -2,-2 -1,0 -2,0 -2,1z"/>
   <path class="fil1" d="M3537 2663c-1,26 -6,51 -16,75 -4,10 -8,19 -16,24l1 1 1 -1c-31,-27 -58,-58 -83,-91l-2 0 -1 3c25,33 53,64 83,91l3 0c9,-6 14,-16 18,-25 9,-25 15,-50 16,-76 0,-1 -1,-2 -2,-2 -1,0 -2,0 -2,1l0 0z"/>
   <path class="fil1" d="M3568 2711c5,47 14,93 25,139l1 1 2 0c37,-27 64,-65 96,-98l-1 -2 -2 0c-32,33 -59,70 -95,97l1 1 2 0c-11,-46 -20,-92 -26,-138 0,-1 -1,-2 -2,-2 -1,0 -2,1 -1,2z"/>
   <path class="fil1" d="M3599 2606c10,35 21,70 32,105l2 1 2 -1c18,-17 38,-34 53,-54 15,-21 26,-44 43,-61l1 -3 -3 0c-18,18 -29,41 -44,61 -15,21 -34,38 -53,55l1 1 2 -1c-11,-34 -22,-69 -32,-105 -1,-1 -2,-1 -3,-1 -1,0 -1,1 -1,3z"/>
   <path class="fil1" d="M3647 2419c2,44 9,88 18,132l1 1 2 0c43,-22 75,-59 105,-96l0 -3 -3 1c-30,36 -62,73 -104,95l1 2 2 -1c-9,-43 -16,-87 -19,-132 0,-1 -1,-1 -2,-1 -1,0 -1,1 -1,2z"/>
   <path class="fil1" d="M3700 2293c6,38 13,75 21,112l1 2 2 0c8,-4 13,-12 18,-18 14,-21 29,-41 43,-61l0 -3 -3 1c-14,20 -29,40 -43,60 -5,7 -10,14 -17,17l1 2 2 0c-8,-38 -15,-75 -21,-112 -1,-1 -2,-2 -3,-2 -1,0 -1,1 -1,2z"/>
   <path class="fil1" d="M3910 2559c-11,20 -17,43 -19,66l1 1 1 1c1,0 2,0 3,0 25,0 49,-5 72,-14 1,-1 1,-2 1,-3 0,-1 -2,-1 -2,-1 -23,9 -47,14 -71,14 -1,0 -2,0 -3,0l0 2 2 0c2,-22 8,-44 18,-64 0,-1 0,-3 -1,-3 -1,-1 -2,0 -2,1z"/>
   <path class="fil1" d="M3831 2607c-15,33 -22,69 -22,105 0,2 0,3 0,5l1 1 1 1c38,-8 74,-19 109,-35 1,-1 1,-2 1,-3 -1,-1 -2,-1 -3,-1 -34,16 -71,28 -108,35l1 2 2 0c0,-2 0,-3 0,-5 0,-36 7,-71 22,-103 0,-1 0,-2 -1,-3 -1,0 -2,0 -3,1z"/>
   <path class="fil1" d="M3753 2682c-9,33 -16,67 -22,102l1 1 2 1c42,-6 84,-13 126,-21 1,0 1,-1 1,-2 0,-1 -1,-2 -2,-2 -42,9 -84,16 -126,21l0 2 2 0c5,-34 13,-68 22,-101 0,-1 0,-2 -1,-3 -1,0 -2,1 -3,2z"/>
   <path class="fil1" d="M3682 2793l-2 0c-2,0 -3,0 -3,1 -1,1 -2,2 -2,3 -6,18 -12,36 -18,55l0 1 1 1c20,3 40,6 59,6 15,0 29,-1 43,-6 1,0 2,-1 1,-2 0,-1 -1,-2 -2,-2 -13,5 -27,6 -42,6 -19,0 -39,-3 -58,-6l0 2 1 1c7,-18 13,-37 19,-55l0 -1 1 -1 0 0 0 0 0 0 0 0 0 0 0 0 0 0 0 0 0 0 0 0 0 0 2 0 0 -3z"/>
   <path class="fil1" d="M3705 2903c-34,15 -72,23 -109,23l-2 0c-1,0 -2,1 -2,2 0,1 1,2 2,2l2 0c38,0 76,-8 110,-23 1,-1 2,-2 1,-3 0,-1 -1,-1 -2,-1z"/>
   <path class="fil1" d="M3564 2813c-4,23 -15,44 -32,60l2 1 1 -1c-31,-20 -56,-47 -74,-79 0,-1 -1,-1 -2,0 -1,0 -1,1 -1,2 18,32 44,60 75,80l2 0c17,-17 29,-39 32,-62 1,-1 0,-2 -1,-2 -1,-1 -2,0 -2,1z"/>
   <path class="fil1" d="M3471 2850c20,50 42,99 66,148l2 1c32,-8 64,-20 93,-34 1,0 1,-1 1,-2 -1,-1 -2,-2 -3,-1 -29,14 -61,25 -92,33l1 2 1 -1c-24,-48 -46,-97 -66,-148 0,-1 -1,-1 -2,-1 -1,1 -2,2 -1,3z"/>
   <path class="fil2" d="M3788 2005c-14,-14 -38,-4 -55,7 -122,79 -228,181 -310,301 28,-41 40,-95 49,-143 10,-52 12,-105 7,-157 -1,-10 -2,-20 -7,-29 -4,-9 -13,-16 -23,-17 -12,-1 -22,8 -30,17 -55,62 -80,154 -104,232 -14,42 -25,86 -35,130 -4,22 -9,44 -12,66 -7,36 -21,69 -20,107 0,12 2,25 9,35 14,18 41,19 64,16 153,-14 305,-63 440,-135 22,-12 53,-25 60,-51 6,-22 -5,-38 -25,-47 -34,-14 -80,-7 -115,0 -55,11 -105,35 -155,59 117,-87 210,-207 263,-342 7,-16 11,-37 -1,-49z"/>
   <path class="fil3" d="M3438 2012c-35,126 -64,253 -88,381 -5,30 -11,60 -23,87 -11,24 -26,44 -43,64l0 2 2 1c47,-25 93,-50 143,-67 71,-25 148,-33 219,-60 42,-16 83,-38 126,-38 1,0 3,0 4,0 1,0 2,-1 2,-2 0,-1 -1,-2 -2,-2 -1,0 -3,0 -4,0 -45,0 -86,22 -127,38 -71,27 -148,35 -220,60 -50,18 -96,43 -143,68l1 1 2 2c17,-20 33,-41 43,-65 13,-28 18,-58 24,-88 23,-128 53,-256 87,-381 1,-1 0,-2 -1,-3 -1,0 -2,1 -2,2z"/>
   <path class="fil3" d="M3766 2026c-11,17 -23,33 -34,50 -12,17 -24,34 -38,50 -50,59 -119,101 -167,163 -10,13 -19,27 -29,40 -11,16 -23,32 -36,47 -52,63 -114,117 -179,168l0 2 3 1c64,-51 126,-105 179,-168 13,-16 25,-32 36,-48 10,-13 19,-27 29,-39 47,-62 117,-103 167,-164 14,-16 26,-33 38,-50 11,-16 23,-33 35,-50l-1 -2 -3 0z"/>
   <path class="fil3" d="M3465 2060c-14,18 -29,36 -48,48l-2 1 -1 -1 -1 2 2 -1 -1 -2 -2 1 2 -1c-7,-20 -12,-40 -15,-61 0,-1 -1,-1 -2,-1 -1,0 -2,1 -2,2 3,21 8,41 15,61l0 1 2 2 0 1 3 0c2,0 3,0 4,-1 20,-12 35,-31 49,-49l0 -3 -3 1z"/>
   <path class="fil3" d="M3446 2160c-12,19 -25,35 -40,51 -5,5 -10,9 -16,10l-1 0 -1 0 -1 1 1 -1 -1 -2 -2 1 2 -1c-9,-27 -17,-54 -23,-81 0,-1 -1,-2 -2,-2 -1,1 -2,2 -2,3 7,27 14,54 23,81l1 0 1 3 0 0c2,1 3,2 4,2l2 0c7,-2 13,-7 17,-11 16,-16 29,-33 41,-51l0 -3 -3 0z"/>
   <path class="fil3" d="M3425 2280c-11,19 -25,36 -41,51 -7,6 -14,11 -22,11l0 2 2 0c-13,-33 -23,-68 -28,-103 -1,-1 -2,-1 -3,-1 -1,0 -1,1 -1,2 5,35 15,70 28,103l2 1c10,0 17,-6 24,-12 17,-15 32,-33 43,-53 0,0 0,-2 -1,-2 -1,-1 -2,0 -3,1z"/>
   <path class="fil3" d="M3430 2329c-14,38 -26,77 -35,117l1 1 1 1c40,-6 76,-25 113,-38 1,0 1,-1 1,-2 -1,-1 -2,-2 -3,-1 -37,13 -73,31 -111,37l0 2 2 0c9,-39 21,-78 35,-116 0,-1 -1,-2 -2,-3 -1,0 -2,1 -2,2z"/>
   <path class="fil3" d="M3496 2259c-6,32 -12,63 -16,94l0 2 2 0c21,-5 43,-11 63,-21 20,-10 37,-23 58,-30 1,0 1,-1 1,-2 -1,-1 -2,-2 -3,-1 -21,6 -39,20 -58,30 -19,9 -41,15 -62,21l1 2 1 0c5,-31 11,-63 17,-94 0,-1 -1,-2 -2,-2 -1,0 -2,0 -2,1z"/>
   <path class="fil3" d="M3607 2134c-16,35 -28,72 -38,109l0 2 2 1c41,0 81,-17 119,-33 1,-1 1,-2 1,-3 -1,-1 -2,-1 -3,-1 -38,16 -77,33 -117,33l0 2 2 0c9,-37 22,-74 37,-109 0,-1 0,-2 -1,-2 -1,-1 -2,0 -2,1z"/>
   <path class="fil3" d="M3697 2058c-10,31 -19,63 -28,95l1 1 1 1 0 0c8,0 15,-4 21,-7 20,-10 39,-19 58,-29 1,-1 1,-2 1,-3 -1,-1 -2,-1 -3,-1 -19,10 -38,20 -57,30 -7,3 -13,6 -20,6l0 0 0 2 2 1c9,-32 18,-64 28,-95 0,-1 0,-2 -1,-2 -1,-1 -3,0 -3,1z"/>
   <path class="fil3" d="M3754 2346c-16,11 -29,26 -40,44l0 1 1 1c20,11 41,17 64,19 1,0 1,-1 2,-2 0,-1 -1,-2 -2,-2 -22,-2 -43,-8 -62,-18l-1 2 2 1c10,-17 23,-32 39,-43l0 -3 -3 0z"/>
   <path class="fil3" d="M3675 2352c-26,20 -46,47 -61,76l0 2 1 1c32,9 65,14 98,16 1,0 2,-1 2,-2 0,-1 -1,-2 -2,-2 -32,-2 -65,-7 -97,-16l0 2 2 1c14,-29 34,-55 59,-75l1 -3 -3 0z"/>
   <path class="fil3" d="M3585 2379c-20,22 -39,46 -57,70l0 2 1 1c35,12 70,24 106,34 1,0 2,-1 2,-2 0,-1 0,-2 -1,-2 -36,-10 -71,-21 -106,-33l0 1 1 1c18,-24 37,-47 57,-69l0 -3 -3 0z"/>
   <path class="fil3" d="M3486 2437c0,-1 -2,-2 -3,-2 -1,0 -3,1 -4,2 -12,12 -23,23 -35,35l-1 2 1 1c24,17 49,35 79,40 1,0 2,0 2,-1 0,-1 -1,-2 -2,-3 -28,-4 -53,-22 -77,-39l-1 2 1 1c12,-12 24,-23 36,-35l1 -1 0 -1 0 1 0 0 0 -1 0 1 1 -1 -1 1 0 0 1 -1 -1 1c1,1 2,1 3,0 1,0 1,-1 0,-2z"/>
   <path class="fil3" d="M3460 2531c-32,-2 -65,-11 -94,-26 -1,-1 -2,0 -2,1 -1,0 0,2 1,2 29,15 62,25 95,27 1,0 2,-1 2,-2 0,-1 0,-2 -2,-2z"/>
   <path class="fil3" d="M3387 2406c-12,16 -29,28 -48,33l1 2 1 -1c-16,-27 -25,-58 -25,-89 0,-1 -1,-2 -2,-2 -1,0 -2,1 -2,2 1,32 10,64 26,91l2 1c20,-6 38,-18 50,-35l-1 -3 -2 1z"/>
   <path class="fil3" d="M3301 2398c-5,46 -7,93 -8,140l2 2c27,6 56,10 85,11 1,0 2,-1 2,-2 0,-1 -1,-2 -2,-2 -28,-1 -57,-4 -84,-11l-1 2 2 0c1,-47 3,-94 7,-140 0,-1 0,-2 -1,-2 -1,0 -2,0 -2,2z"/>
   <path class="fil0" d="M1977 1175c-19,7 -21,33 -19,53 13,147 57,292 126,422 -24,-44 -67,-81 -106,-111 -43,-33 -90,-60 -140,-80 -9,-4 -19,-8 -29,-8 -10,0 -20,4 -25,13 -7,10 -3,24 1,35 30,79 101,145 160,204 32,32 66,62 101,92 18,14 36,28 54,42 30,23 53,52 87,69 12,5 24,10 37,8 23,-4 36,-29 45,-51 58,-145 85,-305 84,-461 0,-26 2,-60 -18,-78 -17,-16 -37,-14 -54,0 -29,25 -44,70 -54,105 -16,54 -18,111 -20,167 -23,-147 -88,-287 -185,-399 -12,-13 -28,-27 -45,-22z"/>
   <path class="fil1" d="M1818 1495c98,91 199,177 304,259 25,19 49,38 68,62 16,20 28,44 37,69 1,1 2,1 2,1 1,0 2,-1 2,-2 0,-15 0,-29 0,-44 0,-39 1,-78 6,-116 12,-77 40,-150 49,-227 6,-47 5,-95 27,-135 0,-1 0,-2 -1,-3 -1,0 -2,0 -2,1 -23,41 -22,90 -28,136 -9,77 -37,150 -48,227 -6,39 -7,78 -7,117 0,15 0,29 0,44l2 0 2 -1c-10,-24 -21,-48 -38,-70 -19,-24 -44,-43 -69,-62 -104,-82 -206,-168 -303,-258l-3 0 0 2z"/>
   <path class="fil1" d="M1986 1205c10,18 19,37 29,55 9,19 19,37 27,57 31,73 36,156 69,229 7,15 15,29 23,44 9,18 18,36 25,55 33,77 52,158 68,240 0,1 1,2 2,2 1,-1 2,-2 2,-3 -16,-82 -36,-163 -68,-241 -8,-18 -17,-37 -26,-55 -8,-15 -16,-29 -22,-44 -33,-72 -39,-154 -69,-229 -8,-19 -18,-38 -28,-57 -10,-18 -19,-36 -29,-55 0,-1 -1,-1 -2,-1 -1,1 -2,2 -1,3z"/>
   <path class="fil1" d="M1875 1493c9,22 19,43 21,66l0 1 -1 1 0 1 1 2 0 -2 -3 0 0 2 0 -2c-21,-3 -41,-8 -62,-15 -1,0 -2,0 -2,1 0,1 0,2 1,3 21,7 42,12 63,15l0 0 3 0 1 -1c1,0 2,-1 2,-2 0,-1 0,-2 0,-3l0 -1c-1,-24 -11,-46 -21,-67 0,-1 -1,-2 -2,-1 -1,0 -2,1 -1,2z"/>
   <path class="fil1" d="M1957 1558c11,19 20,39 26,60 2,4 3,9 3,13 0,2 0,4 -1,6 0,1 -1,2 -1,2l-1 0 -1 0c-28,-5 -56,-10 -84,-18 -1,0 -2,1 -3,2 0,1 1,2 2,2 28,7 56,13 84,17l2 1 2 -1c2,-1 3,-3 4,-4 1,-2 1,-5 1,-7 0,-5 -2,-10 -3,-14 -7,-21 -16,-42 -27,-61 0,-1 -1,-1 -2,-1 -1,1 -2,2 -1,3z"/>
   <path class="fil1" d="M2055 1632c12,19 21,40 27,62 1,5 2,10 2,15 0,4 -1,7 -2,11l2 0 0 -2c-36,-3 -72,-11 -106,-22 -1,-1 -2,0 -2,1 -1,1 0,2 1,2 34,12 70,20 106,23l2 -1c2,-4 3,-8 3,-12 0,-5 -2,-11 -3,-16 -5,-22 -14,-43 -27,-63l-3 0 0 2z"/>
   <path class="fil1" d="M2101 1651c28,31 58,60 90,87l1 0 2 -1c13,-38 13,-80 18,-119 1,-1 0,-2 -1,-2 -1,0 -2,0 -2,1 -6,40 -6,81 -19,119l2 0 1 -1c-31,-27 -61,-56 -89,-86l-3 0 0 2z"/>
   <path class="fil1" d="M2070 1559c25,20 51,40 77,59l2 0 1 -1c5,-22 10,-44 10,-67 0,-1 0,-2 0,-3 0,-14 -1,-28 -1,-42 0,-7 0,-14 1,-21 1,-1 0,-2 -1,-2 -1,-1 -2,0 -2,1 -2,8 -2,15 -2,22 0,14 1,28 1,42 0,1 0,2 0,3 0,22 -5,44 -10,66l2 1 1 -2c-26,-19 -52,-39 -77,-59l-3 0 1 3z"/>
   <path class="fil1" d="M2008 1400c25,31 52,59 81,86l2 0 1 -1c20,-38 23,-81 27,-123 0,-1 -1,-2 -2,-2 -1,0 -2,1 -2,2 -3,42 -7,85 -26,121l2 1 1 -1c-29,-26 -56,-55 -81,-85l-3 -1 0 3z"/>
   <path class="fil1" d="M1982 1282c24,24 48,47 73,70l1 1 2 -1c3,-7 3,-15 3,-23 1,-22 1,-44 1,-66 0,-1 -1,-2 -2,-2 -1,0 -2,1 -2,2 0,22 0,44 0,66 0,8 -1,15 -4,21l2 1 1 -1c-24,-23 -49,-47 -72,-70l-3 0 0 2z"/>
   <path class="fil1" d="M2269 1366c3,20 11,40 21,57l1 1 2 0c18,-13 34,-30 46,-49 1,-1 1,-2 0,-3 -1,0 -2,0 -3,1 -12,19 -27,35 -45,47l1 2 1 -1c-10,-17 -17,-36 -20,-56 0,-1 -1,-1 -2,-1 -1,0 -2,1 -2,2z"/>
   <path class="fil1" d="M2238 1441c6,33 20,64 40,90l1 1 2 0c23,-25 43,-52 60,-81 1,-1 0,-2 -1,-3 -1,0 -2,0 -2,1 -17,29 -37,56 -60,80l1 1 2 -1c-20,-26 -33,-57 -40,-89 0,-1 -1,-1 -2,-1 -1,0 -2,1 -1,2z"/>
   <path class="fil1" d="M2220 1535c10,29 23,57 36,84l2 1 1 0c28,-26 55,-52 81,-80l-1 -3 -2 1c-26,27 -53,53 -80,79l1 2 2 -1c-14,-28 -26,-56 -37,-85 0,-1 -1,-1 -2,-1 -1,0 -2,2 -1,3z"/>
   <path class="fil1" d="M2226 1651c-2,0 -3,1 -3,2l-1 3 1 2c5,16 9,32 14,48l2 2 1 0c27,-14 55,-28 74,-53l-1 -2 -3 0c-17,24 -45,38 -72,51l1 2 2 -1c-5,-16 -10,-32 -15,-48l0 0 0 -1 0 -1 0 0 0 0 0 0 0 0 0 0 0 0 0 0 0 0 0 0 0 0c1,0 2,-1 2,-2 0,-1 -1,-2 -2,-2z"/>
   <path class="fil1" d="M2298 1719c-17,28 -40,53 -67,73l-1 2 3 1c28,-20 51,-45 69,-74 0,-1 0,-2 -1,-3 -1,0 -2,0 -3,1z"/>
   <path class="fil1" d="M2151 1727c6,12 9,27 9,41 0,6 0,12 -1,17l2 1 -1 -2c-3,0 -6,0 -10,0 -28,0 -57,-6 -82,-19 -1,0 -2,0 -3,1 0,1 0,2 1,3 26,12 55,19 84,19 4,0 7,0 11,0l1 -2c2,-6 2,-12 2,-18 0,-15 -3,-30 -10,-43 0,-1 -2,-1 -3,-1 0,1 -1,2 0,3z"/>
   <path class="fil1" d="M2103 1801c40,26 81,50 123,72l3 0c18,-22 35,-47 49,-72 1,-1 0,-2 -1,-2 0,-1 -2,-1 -2,0 -14,25 -31,50 -49,71l1 2 1 -2c-42,-23 -83,-47 -123,-72l-3 0 1 3z"/>
   <path class="fil2" d="M2780 1257c-15,-14 -38,-3 -55,9 -119,82 -221,189 -300,311 27,-42 37,-97 44,-145 8,-52 9,-105 2,-157 -1,-10 -3,-20 -8,-29 -5,-8 -13,-16 -23,-16 -12,0 -22,9 -30,18 -52,64 -75,157 -96,235 -12,43 -22,87 -30,131 -4,22 -8,44 -11,67 -5,36 -18,69 -16,107 1,12 3,25 10,35 15,18 42,17 65,14 152,-19 302,-73 435,-150 22,-12 52,-27 58,-53 6,-22 -6,-38 -26,-46 -35,-13 -81,-4 -116,5 -53,12 -103,38 -152,63 114,-90 203,-213 252,-351 5,-16 10,-36 -3,-48z"/>
   <path class="fil3" d="M2430 1275c-31,127 -56,255 -75,384 -4,30 -9,61 -20,88 -10,24 -25,45 -41,65l0 3 2 0c46,-26 91,-53 140,-71 71,-28 148,-39 218,-68 42,-18 83,-42 128,-42 1,0 2,-1 2,-2 0,-1 -1,-2 -2,-2 -46,0 -88,25 -129,42 -70,29 -147,41 -218,68 -49,19 -95,46 -141,72l1 2 2 1c16,-20 31,-42 41,-66 12,-29 16,-59 21,-89 19,-129 44,-257 74,-384 1,-1 0,-2 -1,-2 -1,0 -2,0 -2,1z"/>
   <path class="fil3" d="M2759 1279c-11,17 -22,34 -33,51 -12,17 -23,34 -36,51 -48,61 -116,105 -162,169 -10,13 -18,27 -27,40 -11,17 -23,33 -35,49 -50,64 -110,120 -173,173l0 3 3 0c63,-53 123,-109 173,-174 13,-16 24,-32 35,-49 9,-13 18,-27 27,-40 46,-63 114,-107 162,-169 13,-16 25,-34 36,-51 11,-17 22,-34 33,-51l-1 -3 -2 1z"/>
   <path class="fil3" d="M2459 1322c-14,19 -28,37 -46,50l-3 1 0 0 -1 1 1 -1 -1 -2 -2 1 2 -1c-8,-19 -13,-39 -17,-60 0,-1 -1,-2 -2,-1 -1,0 -2,1 -2,2 4,21 10,41 17,61l1 0 1 2 1 1 2 1c2,0 3,-1 5,-2 19,-13 33,-32 47,-50l-1 -3 -2 0z"/>
   <path class="fil3" d="M2443 1424c-11,18 -24,35 -39,51 -4,5 -9,10 -15,11l-1 0 -1 0 -1 1 1 -1 -1 -2 -2 1 2 -1c-10,-26 -18,-53 -26,-80 0,-1 -1,-2 -2,-2 -1,1 -2,2 -1,3 7,27 16,54 26,80l0 1 1 2 1 1c1,0 2,1 3,1l2 0c7,-2 13,-7 17,-12 15,-16 28,-34 40,-52 0,-1 0,-3 -1,-3 -1,-1 -2,0 -3,1z"/>
   <path class="fil3" d="M2427 1543c-11,20 -24,38 -41,53 -6,6 -13,11 -21,12l0 2 2 -1c-14,-32 -25,-66 -32,-101 0,-1 -1,-2 -2,-1 -1,0 -1,1 -1,2 7,35 17,69 31,102l2 1c10,-1 18,-7 24,-13 17,-16 30,-34 41,-54 0,-1 0,-2 -1,-3 -1,0 -2,0 -2,1z"/>
   <path class="fil3" d="M2433 1592c-13,39 -23,78 -31,118l0 2 2 0c39,-7 74,-26 111,-41 1,0 1,-1 1,-2 0,-1 -1,-2 -2,-1 -37,14 -72,34 -111,41l1 2 2 0c7,-40 18,-79 30,-118 1,-1 0,-2 -1,-2 -1,0 -2,0 -2,1z"/>
   <path class="fil3" d="M2496 1521c-5,31 -9,63 -13,94l1 2 2 0c21,-6 42,-13 62,-23 19,-11 36,-25 56,-32 1,0 2,-1 2,-2 -1,-1 -2,-2 -3,-2 -21,8 -38,22 -57,32 -19,11 -40,17 -61,24l0 1 2 1c4,-32 8,-63 13,-95 0,-1 0,-2 -1,-2 -1,0 -2,1 -3,2z"/>
   <path class="fil3" d="M2603 1391c-15,36 -26,73 -34,111l0 2 2 1c41,-2 80,-20 117,-37 1,-1 2,-2 1,-3 0,-1 -1,-1 -2,-1 -38,18 -76,35 -117,37l1 2 1 0c9,-38 20,-74 34,-110 1,-1 0,-2 -1,-3 -1,0 -2,0 -2,1z"/>
   <path class="fil3" d="M2691 1312c-9,32 -17,64 -25,96l0 2 2 1c8,-1 14,-4 21,-8 19,-10 38,-21 56,-31 1,-1 2,-2 1,-3 0,-1 -1,-1 -2,-1 -19,11 -38,21 -57,32 -6,3 -13,7 -19,7l0 2 2 0c7,-32 16,-64 24,-95 1,-2 0,-3 -1,-3 -1,0 -2,0 -2,1z"/>
   <path class="fil3" d="M2758 1598c-16,13 -29,28 -39,45l0 2 1 1c20,10 42,16 64,16 1,1 2,0 2,-1 0,-1 -1,-2 -2,-2 -22,-1 -43,-7 -63,-16l0 1 1 1c10,-17 23,-32 38,-44l0 -3 -2 0z"/>
   <path class="fil3" d="M2678 1607c-24,22 -44,48 -58,78l0 2 1 1c33,8 66,12 99,13 1,0 2,-1 2,-2 0,-1 -1,-2 -2,-2 -33,-1 -66,-5 -98,-13l0 2 2 1c13,-30 32,-56 57,-77l0 -2 -3 -1z"/>
   <path class="fil3" d="M2590 1637c-20,23 -38,47 -55,72l0 2 1 1c35,11 71,21 107,30 1,1 2,0 2,-1 0,-1 -1,-2 -2,-2 -35,-9 -71,-19 -106,-30l-1 1 2 2c17,-25 35,-49 55,-72l-1 -3 -2 0z"/>
   <path class="fil3" d="M2493 1698c-1,-1 -2,-1 -3,-1 -2,0 -3,1 -4,2 -12,12 -23,24 -35,36l0 2 1 1c24,16 50,34 80,38 1,0 2,-1 2,-2 0,-1 -1,-2 -2,-2 -28,-4 -54,-21 -78,-37l-1 1 1 2c11,-12 23,-24 34,-36l1 -1 1 0 0 -1 0 1 0 0 0 -1 0 1 0 -1 -1 0 1 1 0 -1 -1 0c1,1 2,2 3,1 1,0 1,-2 1,-3z"/>
   <path class="fil3" d="M2470 1793c-33,-1 -65,-9 -95,-23 -1,0 -2,0 -2,1 -1,1 -1,2 0,3 30,14 64,22 97,23 1,0 2,-1 2,-2 0,-1 -1,-2 -2,-2z"/>
   <path class="fil3" d="M2392 1671c-11,16 -28,29 -46,35l0 2 2 -1c-17,-27 -27,-57 -29,-89 0,-1 -1,-2 -2,-1 -1,0 -2,0 -2,2 2,31 13,63 30,90l2 0c19,-6 37,-19 48,-36l0 -3 -3 1z"/>
   <path class="fil3" d="M2306 1665c-2,34 -3,67 -3,101 0,13 0,27 0,40l2 2c26,5 54,8 81,8 1,0 3,0 4,0 1,0 2,-1 2,-2 0,-1 -1,-2 -2,-2 -1,0 -3,0 -4,0 -27,0 -54,-3 -81,-8l0 2 2 0c0,-13 0,-27 0,-40 0,-34 1,-67 3,-100 0,-1 -1,-2 -2,-2 -1,0 -2,0 -2,1z"/>
   <path class="fil2" d="M4103 2555c-12,-16 -37,-10 -56,-2 -133,58 -254,142 -354,247 34,-36 55,-88 71,-133 18,-50 29,-102 32,-155 1,-10 1,-20 -2,-29 -3,-9 -10,-18 -20,-20 -11,-3 -23,4 -32,12 -64,52 -104,139 -141,211 -20,40 -38,81 -54,123 -9,21 -16,42 -24,63 -12,35 -31,65 -37,102 -1,13 -2,26 4,37 11,20 37,25 61,26 153,11 310,-13 456,-62 23,-8 56,-17 67,-41 10,-21 1,-39 -17,-50 -31,-20 -78,-20 -114,-18 -55,2 -109,17 -162,32 130,-66 240,-170 315,-295 9,-15 17,-34 7,-48z"/>
   <path class="fil3" d="M3756 2505c-55,118 -104,239 -148,362 -10,29 -20,58 -37,83 -14,21 -33,39 -53,55l0 3 2 1c50,-17 100,-34 151,-43 75,-13 152,-10 227,-25 36,-7 71,-18 107,-18 9,0 18,0 27,2 1,0 2,0 2,-1 0,-1 -1,-2 -2,-3 -9,-1 -18,-2 -27,-2 -36,0 -72,12 -108,19 -74,15 -151,11 -226,24 -53,9 -103,26 -152,43l0 2 1 1c20,-16 39,-35 54,-56 17,-26 27,-55 37,-83 44,-123 94,-244 148,-362 1,-1 0,-3 -1,-3 -1,0 -2,0 -2,1z"/>
   <path class="fil3" d="M4078 2572c-14,15 -28,29 -43,44 -14,15 -29,30 -44,43 -59,51 -135,81 -192,134 -12,11 -23,23 -35,35 -14,14 -28,28 -43,41 -62,53 -132,97 -203,136 -1,0 -2,2 -1,3 0,0 1,1 2,0 72,-39 142,-83 204,-136 15,-14 30,-27 44,-42 12,-11 22,-23 34,-34 57,-53 133,-83 192,-134 16,-14 31,-29 45,-44 14,-14 28,-29 43,-43l0 -3 -3 0z"/>
   <path class="fil3" d="M3775 2557c-17,15 -34,31 -55,39l-2 1 -1 0 -1 1 2 -1 -1 -2 -2 0 2 0c-4,-18 -5,-37 -5,-56 0,-2 0,-4 0,-6 0,-1 -1,-2 -2,-2 -1,0 -2,1 -2,2 0,2 0,4 0,6 0,19 2,38 5,57l0 0 1 3 0 0c1,1 3,2 4,2 1,0 2,-1 3,-1 22,-9 40,-25 56,-41l1 -2 -3 0z"/>
   <path class="fil3" d="M3740 2653c-14,16 -31,31 -48,43 -5,4 -11,8 -17,8 -1,0 -2,-1 -2,-1 0,0 0,-1 -1,-2 -4,-27 -8,-55 -9,-83 0,-2 -1,-2 -2,-2 -1,0 -2,1 -2,2 2,28 5,56 10,84 0,1 0,2 1,3 1,2 4,2 5,2 8,0 14,-4 19,-8 18,-13 34,-27 49,-43l0 -3 -3 0z"/>
   <path class="fil3" d="M3700 2767c-13,18 -30,32 -49,44 -7,4 -14,8 -22,8l-2 0 0 2 2 0c-7,-34 -11,-69 -11,-104l0 -2c0,-1 -1,-2 -2,-2 -1,0 -2,1 -2,2l0 2c0,35 4,70 11,104l2 2 2 0c9,0 17,-4 24,-9 19,-12 36,-27 50,-44l0 -3 -3 0z"/>
   <path class="fil3" d="M3697 2816c-20,36 -38,73 -53,110l0 2 1 1 2 0c39,0 77,-12 115,-19 1,0 2,-1 2,-2 0,-1 -1,-2 -2,-2 -39,7 -76,19 -115,19l-2 0 0 2 2 1c16,-38 33,-74 53,-110 1,-1 1,-2 0,-2 -1,-1 -2,-1 -3,0z"/>
   <path class="fil3" d="M3773 2759c-11,29 -21,60 -31,90l0 2 2 0c22,-2 44,-4 66,-11 21,-6 40,-17 61,-20 1,0 2,-1 2,-2 0,-1 -1,-2 -2,-2 -22,4 -42,14 -63,21 -20,6 -42,8 -64,10l0 2 2 1c9,-30 20,-60 31,-90 0,-1 0,-2 -1,-3 -1,0 -2,1 -3,2z"/>
   <path class="fil3" d="M3903 2652c-21,33 -40,67 -55,103l0 1 1 1c10,2 19,2 28,2 32,0 64,-7 95,-15 1,0 2,-1 1,-2 0,-1 -1,-2 -2,-2 -31,8 -63,16 -94,16 -9,0 -18,-1 -27,-3l0 2 1 1c16,-35 34,-69 55,-102 0,0 0,-2 -1,-2 -1,-1 -2,0 -2,0z"/>
   <path class="fil3" d="M4004 2592c-14,30 -29,59 -43,89l1 2 1 1c1,0 3,0 4,0 6,0 12,-2 18,-3 21,-7 41,-14 62,-20 1,-1 1,-2 1,-3 0,-1 -2,-1 -3,-1 -20,7 -41,13 -61,20 -6,2 -11,4 -17,3 -1,0 -2,0 -3,0l-1 2 2 1c14,-30 28,-60 43,-89 0,-1 0,-2 -1,-3 -1,0 -2,0 -3,1z"/>
   <path class="fil3" d="M4015 2885c-18,10 -34,22 -47,37l-1 2 1 1c18,14 38,23 60,29 1,0 2,-1 2,-2 0,-1 0,-2 -1,-2 -21,-5 -41,-15 -59,-28l-1 2 2 1c12,-15 28,-27 45,-36 1,-1 2,-2 1,-3 0,-1 -2,-1 -2,-1z"/>
   <path class="fil3" d="M3935 2879c-29,16 -53,38 -72,65l0 2 1 1c29,14 61,25 93,32 2,0 3,-1 3,-2 0,-1 -1,-2 -2,-2 -32,-7 -63,-17 -93,-31l-1 1 2 1c18,-26 43,-48 71,-64 1,0 1,-1 1,-2 -1,-1 -2,-1 -3,-1z"/>
   <path class="fil3" d="M3842 2891c-24,19 -46,39 -68,60l0 2 1 1c32,18 65,35 99,50 1,1 2,1 2,0 1,-1 0,-3 -1,-3 -33,-16 -66,-32 -98,-50l-1 2 1 1c21,-21 44,-41 68,-60l0 -3 -3 0z"/>
   <path class="fil3" d="M3735 2932l-1 -1 -2 -1c-2,0 -3,1 -4,1 -13,10 -27,20 -41,29l0 2 0 1c21,21 43,43 71,53 1,0 2,-1 3,-2 0,-1 0,-2 -1,-2 -28,-9 -49,-31 -70,-52l-2 2 2 1c13,-9 27,-19 40,-28l2 -1 0 0 0 -1 0 1 0 0 0 -1 0 1c0,1 1,1 2,1 1,-1 2,-2 1,-3z"/>
   <path class="fil3" d="M3694 3021c-31,-7 -62,-21 -88,-41l-3 0 1 3c26,20 57,34 90,42 1,0 2,-1 2,-2 0,-1 0,-2 -2,-2z"/>
   <path class="fil3" d="M3642 2885c-14,14 -33,23 -52,26l0 2 2 -1c-9,-21 -13,-44 -13,-67 0,-9 0,-17 2,-25 0,-1 -1,-2 -2,-2 -1,0 -2,0 -2,1 -1,9 -2,17 -2,26 0,23 4,47 13,69l2 1c20,-3 40,-12 55,-27l0 -3 -3 0z"/>
   <path class="fil3" d="M3558 2864c-12,45 -22,91 -30,137l2 2c25,11 54,19 81,24 2,0 3,0 3,-1 0,-1 -1,-2 -2,-2 -27,-6 -55,-14 -81,-25l-1 2 2 1c8,-47 18,-92 30,-138 0,-1 0,-2 -2,-2 -1,0 -2,0 -2,2z"/>
   <path class="fil0" d="M469 2192c22,-7 42,15 54,35 83,145 138,306 160,472 -7,-57 9,-119 25,-172 17,-59 43,-114 75,-166 6,-9 13,-19 22,-26 10,-6 22,-9 32,-5 13,6 19,20 22,34 24,92 2,200 -14,292 -8,51 -19,101 -33,151 -6,25 -13,50 -21,75 -13,40 -15,82 -36,120 -6,13 -15,25 -28,31 -24,12 -52,-2 -74,-16 -149,-96 -279,-225 -381,-370 -16,-24 -41,-54 -35,-84 6,-26 26,-36 50,-35 43,3 87,35 119,61 50,40 89,91 128,141 -75,-150 -107,-322 -91,-489 2,-20 8,-43 26,-49z"/>
   <path class="fil1" d="M822 2381c-30,148 -67,293 -110,437 -10,34 -21,68 -22,103 0,3 0,6 0,9 0,27 5,54 11,80l2 0 1 -1c-34,-50 -69,-100 -111,-144 -61,-64 -135,-113 -194,-177 -35,-39 -66,-85 -114,-108 -1,0 -2,0 -3,1 0,1 0,2 1,3 47,22 78,67 113,106 59,65 134,114 194,177 42,44 77,94 111,144l3 0c0,0 1,-1 1,-2 -7,-26 -11,-52 -11,-79 0,-3 0,-6 0,-9 1,-34 12,-68 22,-102 43,-144 80,-290 110,-437 0,-1 -1,-2 -2,-2 -1,0 -2,0 -2,1z"/>
   <path class="fil1" d="M477 2225c3,23 6,46 10,70 3,23 6,47 12,71 20,88 69,167 86,255 4,18 6,37 8,55 4,23 8,46 13,69 21,92 56,180 96,266 0,1 2,1 2,1 1,-1 2,-2 1,-3 -39,-85 -75,-173 -95,-265 -5,-23 -9,-45 -13,-68 -2,-19 -4,-37 -8,-55 -17,-89 -67,-169 -87,-256 -5,-24 -8,-47 -12,-71 -3,-23 -6,-46 -9,-69 0,-2 -1,-2 -2,-2 -1,0 -2,1 -2,2z"/>
   <path class="fil1" d="M769 2418c5,26 10,53 24,75 1,1 2,2 2,3 1,1 3,2 4,2l1 0 0 0c2,-1 3,-2 3,-2 18,-17 34,-36 48,-56l0 -2 -3 0c-14,20 -30,38 -47,55l-2 1 0 0 0 0 -1 -1 -1 -2c-14,-22 -19,-48 -24,-74 -1,-1 -2,-2 -3,-1 -1,0 -1,1 -1,2l0 0z"/>
   <path class="fil1" d="M735 2531c3,25 8,50 16,74 2,7 5,15 12,20 1,1 2,2 4,2l2 0c1,-1 2,-2 3,-3 24,-22 46,-46 67,-71l-1 -3 -2 0c-21,25 -43,49 -66,72l-2 1 -1 0c0,0 -1,-1 -2,-1 -6,-4 -8,-11 -11,-19 -7,-23 -12,-48 -15,-73 0,-1 -1,-1 -2,-1 -1,0 -2,1 -2,2z"/>
   <path class="fil1" d="M694 2664c1,26 7,51 16,76 4,9 9,19 18,25l3 0c31,-27 59,-58 83,-91l-1 -3 -2 0c-24,33 -52,64 -83,91l1 1 1 -1c-8,-5 -12,-14 -16,-24 -9,-24 -15,-49 -16,-75 0,-1 -1,-1 -2,-1 -1,0 -2,1 -2,2z"/>
   <path class="fil1" d="M664 2711c-6,46 -14,92 -26,138l2 0 1 -1c-36,-27 -63,-64 -95,-97l-2 0 0 2c31,33 58,71 95,98l2 0 1 -1c11,-46 20,-92 26,-139 0,-1 -1,-2 -2,-2 -1,0 -2,1 -2,2z"/>
   <path class="fil1" d="M632 2604c-10,36 -20,71 -32,105l2 1 1 -1c-19,-17 -38,-34 -53,-55 -14,-20 -25,-43 -44,-61l-2 0 0 3c17,17 28,40 43,61 16,20 35,37 54,54l1 1 2 -1c11,-35 22,-70 32,-105 0,-2 0,-3 -1,-3 -1,0 -2,0 -3,1z"/>
   <path class="fil1" d="M585 2418c-3,45 -9,89 -19,132l2 1 1 -2c-42,-22 -73,-59 -104,-95l-3 -1 0 3c31,37 62,74 105,96l2 0 1 -1c9,-44 16,-88 19,-132 0,-1 -1,-2 -2,-2 -1,0 -2,0 -2,1z"/>
   <path class="fil1" d="M532 2293c-7,37 -14,74 -22,112l2 0 1 -2c-7,-3 -12,-10 -17,-17 -14,-20 -29,-40 -43,-60l-3 -1 0 3c14,20 29,40 43,61 5,6 11,14 19,18l1 0 1 -2c8,-37 15,-74 21,-112 0,-1 0,-2 -1,-2 -1,0 -2,1 -2,2z"/>
   <path class="fil1" d="M322 2561c10,20 16,42 18,64l2 0 0 -2c-1,0 -2,0 -3,0 -24,0 -48,-5 -70,-14 -1,0 -2,0 -3,1 0,1 0,2 1,3 23,9 47,14 72,14 1,0 2,0 3,0l1 -1 1 -1c-2,-23 -8,-46 -18,-66 -1,-1 -2,-2 -3,-1 -1,0 -1,2 -1,3z"/>
   <path class="fil1" d="M400 2609c15,32 23,67 23,103 0,2 0,3 0,5l1 0 1 -2c-37,-7 -74,-19 -108,-35 -1,0 -2,0 -3,1 0,1 0,2 1,3 35,16 72,27 109,35l2 -1 0 -1c0,-2 0,-3 0,-5 0,-36 -7,-72 -22,-105 -1,-1 -2,-1 -3,-1 -1,1 -1,2 -1,3z"/>
   <path class="fil1" d="M478 2683c9,33 17,67 22,101l2 0 0 -2c-42,-5 -84,-12 -126,-21 -1,0 -2,1 -2,2 0,1 0,2 1,2 42,8 84,15 127,21l1 -1 1 -1c-6,-35 -13,-69 -22,-102 -1,-1 -2,-2 -3,-2 -1,1 -1,2 -1,3z"/>
   <path class="fil1" d="M556 2796l-1 0 0 0 1 0 -1 0 0 0 0 0 0 0 0 0 0 0 0 0 0 0 1 2c7,18 13,37 19,55l2 -1 -1 -2c-19,3 -39,6 -58,6 -14,0 -28,-1 -42,-6 -1,0 -2,1 -2,2 -1,1 0,2 1,2 14,5 28,6 43,6 19,0 39,-3 59,-6l1 -1 0 -1c-6,-19 -12,-37 -18,-55 0,-1 -1,-2 -1,-3 -1,-1 -2,-1 -4,-1l-2 0 0 3 3 0z"/>
   <path class="fil1" d="M529 2907c35,15 72,23 110,23l2 0c1,0 2,-1 2,-2 0,-1 -1,-2 -2,-2l-2 0c-37,0 -74,-8 -109,-23 0,0 -2,0 -2,1 0,1 0,2 1,3z"/>
   <path class="fil1" d="M668 2814c4,23 15,45 32,62l3 0c31,-20 57,-48 74,-80 1,-1 0,-2 -1,-2 -1,-1 -2,-1 -2,0 -18,32 -43,59 -74,79l2 1 1 -1c-17,-16 -28,-37 -31,-60 -1,-1 -2,-2 -3,-1 -1,0 -1,1 -1,2z"/>
   <path class="fil1" d="M761 2848c-20,51 -42,100 -66,148l1 1 1 -2c-31,-8 -63,-19 -92,-33 -1,-1 -2,0 -3,1 0,1 0,2 1,2 30,14 62,26 93,34l2 -1c24,-49 46,-98 66,-148 1,-1 0,-2 -1,-3 -1,0 -2,0 -2,1z"/>
   <path class="fil2" d="M132 2555c12,-16 37,-10 56,-2 133,58 254,142 354,247 -34,-36 -55,-88 -71,-133 -18,-50 -29,-102 -32,-155 -1,-10 -1,-20 2,-29 3,-9 10,-18 20,-20 11,-3 23,4 32,12 64,52 105,139 141,211 20,40 38,81 54,123 9,21 16,42 24,63 12,35 32,65 37,102 1,13 2,26 -4,37 -11,20 -37,25 -60,26 -154,11 -311,-13 -457,-62 -23,-8 -56,-17 -67,-41 -9,-21 -1,-39 17,-50 32,-20 78,-20 114,-18 55,2 109,17 162,32 -130,-66 -240,-170 -315,-295 -9,-15 -17,-34 -7,-48z"/>
   <path class="fil3" d="M476 2507c55,118 104,239 148,362 10,28 20,57 37,83 15,21 34,40 54,56l1 -1 1 -2c-50,-17 -100,-34 -152,-43 -76,-13 -153,-9 -227,-24 -35,-7 -72,-19 -108,-19 -9,0 -18,1 -27,2 -1,1 -2,2 -2,3 0,1 1,1 3,1 8,-2 17,-2 26,-2 36,0 72,11 107,18 75,15 152,12 227,25 52,9 102,26 151,43l3 -1 -1 -3c-20,-16 -38,-34 -53,-55 -16,-25 -26,-54 -37,-83 -44,-123 -93,-244 -148,-362 0,-1 -1,-1 -2,-1 -1,0 -1,2 -1,3z"/>
   <path class="fil3" d="M155 2575c14,14 28,29 42,43 14,15 29,30 45,44 60,51 135,81 192,134 12,11 23,23 34,34 14,15 29,28 44,42 62,53 132,97 204,136 1,1 2,0 2,0 1,-1 1,-3 0,-3 -72,-39 -142,-83 -204,-136 -15,-13 -29,-27 -43,-41 -12,-12 -23,-24 -35,-35 -57,-53 -133,-83 -192,-134 -15,-13 -30,-28 -44,-43 -14,-15 -29,-29 -43,-44l-2 0 0 3z"/>
   <path class="fil3" d="M458 2559c17,16 34,32 56,41 1,0 2,1 3,1 1,0 3,-1 4,-2l0 0 1 -3 0 0c4,-19 5,-38 5,-57 0,-2 0,-4 0,-6 0,-1 -1,-2 -2,-2 -1,0 -2,1 -2,2 0,2 0,4 0,6 0,19 -1,38 -5,56l2 0 -1 0 -1 2 1 1 -1 -1 -1 0 -2 -1c-21,-8 -38,-24 -55,-39l-2 0 0 2z"/>
   <path class="fil3" d="M492 2656c15,16 31,30 49,43 5,4 12,8 19,8l0 0c1,0 4,0 5,-2 1,-1 1,-2 2,-3 4,-28 8,-56 9,-84 0,-1 -1,-2 -2,-2 -1,0 -2,0 -2,2 -1,28 -4,56 -9,83 0,1 -1,2 -1,2 0,0 -1,1 -2,1l0 0c-6,0 -11,-4 -17,-8 -17,-12 -33,-27 -48,-43l-3 0 0 3z"/>
   <path class="fil3" d="M532 2770c14,17 31,32 50,44 7,5 15,9 24,9l2 0 2 -2c7,-34 11,-69 11,-104l0 -2c0,-1 -1,-2 -2,-2 -1,0 -2,1 -2,2l0 2c0,35 -4,70 -11,104l2 0 0 -2 -2 0c-8,0 -15,-4 -22,-8 -19,-12 -35,-26 -49,-44l-3 0 0 3z"/>
   <path class="fil3" d="M535 2818c20,36 37,72 53,110l2 -1 0 -2 -2 0c-39,0 -76,-12 -115,-19 -1,0 -2,1 -2,2 0,1 1,2 2,2 38,7 76,19 115,19l2 0 1 -1 0 -2c-15,-37 -33,-74 -53,-110 0,-1 -2,-1 -3,0 0,0 -1,1 0,2z"/>
   <path class="fil3" d="M458 2760c11,30 22,60 31,90l2 -1 0 -2c-21,-2 -43,-4 -64,-10 -21,-7 -41,-17 -63,-21 -1,0 -2,1 -2,2 0,1 1,2 2,2 21,3 41,14 62,20 21,7 43,9 65,11l2 0 0 -2c-10,-30 -20,-61 -31,-90 -1,-1 -2,-2 -3,-2 -1,1 -1,2 -1,3z"/>
   <path class="fil3" d="M329 2654c21,33 39,67 55,102l2 -1 -1 -2c-9,2 -18,3 -27,3 -31,0 -63,-8 -94,-16 -1,0 -2,1 -2,2 0,1 0,2 1,2 31,8 63,15 95,15 9,0 19,0 28,-2l1 -1 0 -1c-15,-36 -34,-70 -55,-103 0,0 -1,-1 -2,0 -1,0 -1,2 -1,2z"/>
   <path class="fil3" d="M227 2594c15,29 29,59 43,89l2 -1 0 -2c-2,0 -3,0 -4,0 -6,1 -11,-1 -17,-3 -20,-7 -41,-13 -61,-20 -1,0 -2,0 -3,1 0,1 0,2 1,3 21,6 42,13 62,20 6,1 12,3 18,3 1,0 3,0 4,0l2 -1 0 -2c-14,-30 -28,-59 -43,-89 -1,-1 -2,-1 -3,-1 -1,1 -1,2 -1,3z"/>
   <path class="fil3" d="M219 2889c17,9 33,21 45,36l2 -1 -1 -2c-18,13 -37,23 -59,28 -1,0 -1,1 -1,2 0,1 1,2 2,2 22,-6 42,-15 60,-29l1 -1 -1 -2c-13,-15 -29,-27 -46,-37 -1,0 -2,0 -3,1 0,1 0,2 1,3z"/>
   <path class="fil3" d="M298 2882c28,16 53,38 71,64l2 -1 -1 -1c-30,14 -61,24 -93,31 -1,0 -2,1 -2,2 1,1 2,2 3,2 32,-7 64,-18 94,-32l1 -1 -1 -2c-19,-27 -43,-49 -72,-65 -1,0 -2,0 -2,1 -1,1 -1,2 0,2z"/>
   <path class="fil3" d="M391 2894c23,19 46,39 67,60l1 -1 0 -2c-33,18 -66,34 -99,50 -1,0 -1,2 -1,3 0,1 2,1 3,0 33,-15 66,-32 98,-50l1 -1 0 -2c-22,-21 -44,-41 -68,-60l-3 0 1 3z"/>
   <path class="fil3" d="M504 2934l-1 -1 0 1 1 0 -1 -1 0 1 0 -1 0 1 0 0 0 -1 0 1 0 0 2 1c13,9 27,19 41,28l1 -1 -2 -2c-20,21 -42,43 -69,52 -1,0 -2,1 -2,2 1,1 2,2 3,2 28,-10 50,-32 71,-53l1 -1 -1 -2c-14,-9 -27,-19 -41,-29 -1,0 -2,-1 -4,-1l-2 1 -1 1c0,1 0,2 1,3 1,0 2,0 3,-1z"/>
   <path class="fil3" d="M541 3025c33,-8 64,-22 91,-42l0 -3 -3 0c-26,20 -56,34 -88,41 -1,0 -2,1 -2,2 0,1 1,2 2,2z"/>
   <path class="fil3" d="M591 2888c14,15 34,24 54,27l2 -1c9,-22 13,-46 13,-69 0,-9 -1,-17 -2,-26 0,-1 -1,-1 -2,-1 -1,0 -2,1 -1,2 1,8 1,16 1,25 0,23 -4,46 -12,67l1 1 1 -2c-20,-3 -39,-12 -53,-26l-3 0 1 3z"/>
   <path class="fil3" d="M673 2864c12,46 22,91 30,138l2 -1 -1 -2c-26,11 -54,19 -81,25 -1,0 -2,1 -2,2 1,1 2,1 3,1 27,-5 56,-13 82,-24l1 -2c-8,-46 -18,-92 -30,-137 0,-2 -1,-2 -2,-2 -1,0 -2,1 -2,2z"/>
   <path class="fil4" d="M675 2201c-34,0 -66,8 -94,22 -70,34 -118,107 -118,190 0,117 95,212 212,212l237 0 0 -424 -237 0z"/>
   <path class="fil5" d="M2024 2572c7,11 16,21 25,30l-1175 0c-38,0 -74,-11 -103,-30 -6,-4 -11,-8 -16,-12 -7,-6 -14,-12 -21,-19 -3,-4 -6,-8 -9,-12 -5,-6 -9,-12 -13,-19 -3,-3 -5,-7 -7,-11 -3,-6 -6,-13 -8,-19 -2,-4 -3,-8 -4,-12 -2,-6 -4,-12 -5,-19 -1,-4 -1,-7 -2,-11 -1,-7 -1,-13 -1,-19 0,-2 0,-4 0,-6 0,-2 0,-4 0,-6 0,-4 0,-8 0,-11 1,-3 1,-5 1,-8 1,-4 1,-8 2,-11 1,-7 3,-13 5,-20 1,-3 2,-7 4,-11 2,-7 5,-13 8,-19 2,-4 4,-8 7,-12 4,-6 8,-13 13,-19 3,-4 6,-8 9,-11 7,-7 14,-13 21,-19 5,-4 10,-8 16,-12 29,-19 65,-30 103,-30l1175 0c-9,9 -18,19 -25,30 -3,4 -5,8 -8,12 -4,6 -7,12 -10,19 -2,4 -4,7 -6,11 -2,7 -5,13 -7,19 -1,4 -3,8 -4,12 -2,6 -3,12 -5,19 -1,4 -2,8 -2,11 -1,7 -2,13 -3,20 -1,3 -1,7 -1,11 -1,3 -1,5 -1,8 0,3 0,7 0,11 0,2 0,4 0,6 0,2 0,4 0,6 0,6 0,12 1,19 0,4 0,7 1,11 1,7 2,13 3,19 0,4 1,8 2,12 2,6 3,13 5,19 1,4 3,8 4,11 2,7 5,13 7,19 2,4 4,8 6,12 3,7 6,13 10,19 3,4 5,8 8,12z"/>
   <path class="fil6" d="M2024 2254c-3,4 -5,8 -8,12l-1261 0c5,-4 10,-8 16,-12l1253 0z"/>
   <path class="fil6" d="M2006 2285c-2,4 -4,7 -6,11l-1275 0c3,-4 6,-8 9,-11l1272 0z"/>
   <path class="fil6" d="M1993 2315c-1,4 -3,8 -4,12l-1284 0c2,-4 4,-8 7,-12l1281 0z"/>
   <path class="fil6" d="M1984 2346c-1,4 -2,8 -2,11l-1289 0c1,-3 2,-7 4,-11l1287 0z"/>
   <path class="fil6" d="M1979 2377c-1,3 -1,7 -1,11l-1292 0c1,-4 1,-8 2,-11l1291 0z"/>
   <path class="fil6" d="M1977 2413c0,2 0,4 0,6l-1292 0c0,-2 0,-4 0,-6 0,-2 0,-4 0,-6l1292 0c0,2 0,4 0,6z"/>
   <path class="fil6" d="M1979 2449l-1291 0c-1,-4 -1,-7 -2,-11l1292 0c0,4 0,7 1,11z"/>
   <path class="fil6" d="M1984 2480l-1287 0c-2,-4 -3,-8 -4,-12l1289 0c0,4 1,8 2,12z"/>
   <path class="fil6" d="M1993 2510l-1281 0c-3,-3 -5,-7 -7,-11l1284 0c1,4 3,8 4,11z"/>
   <path class="fil6" d="M2006 2541l-1272 0c-3,-4 -6,-8 -9,-12l1275 0c2,4 4,8 6,12z"/>
   <path class="fil6" d="M2024 2572l-1253 0c-6,-4 -11,-8 -16,-12l1261 0c3,4 5,8 8,12z"/>
   <path class="fil7" d="M1216 2579l-203 0 0 -7 203 0 0 7zm-289 0l-53 0c-18,0 -34,-3 -50,-7 0,0 0,0 0,0l103 0 0 7zm289 -19l-203 0 0 -19 203 0 0 19zm-289 0l-131 0c-10,-5 -19,-12 -28,-19l159 0 0 19zm289 -31l-203 0 0 -19 202 0 1 19zm-289 0l-172 0c0,0 0,0 0,0 -6,-5 -11,-12 -16,-19 0,0 0,0 0,0l188 0 0 19zm288 -30l-202 0 0 -19 202 0 0 19zm-288 0l-196 0c0,0 0,0 0,0 -3,-6 -7,-13 -9,-19l54 0c7,2 14,3 18,4 1,0 1,0 2,0 3,0 6,-1 7,-4l124 0 0 19zm288 -31l-202 0 0 -19 201 0 1 19zm-288 0l-121 0c1,-3 1,-6 2,-12 0,-3 1,-5 1,-7l118 0 0 19zm-203 0l-7 0c0,0 -1,-1 -1,-1 3,0 6,1 8,1z"/>
   <path class="fil8" d="M1214 2449l-201 0 0 -9 -43 0 -43 0 0 9 -118 0c0,-2 0,-4 0,-5l0 -1c0,-1 -1,-2 -1,-3l406 0 0 9z"/>
   <path class="fil8" d="M1215 2480l-202 0 0 -12 202 0 0 12zm-288 0l-124 0c0,0 0,0 0,-1 1,0 1,-1 2,-3 1,-3 1,-5 1,-8l121 0 0 12zm-151 0l-54 0c-2,-4 -4,-8 -5,-12 0,0 0,0 0,0l7 0c18,4 37,9 52,12z"/>
   <path class="fil8" d="M1215 2510l-202 0 0 -11 202 0 0 11zm-288 0l-188 0c-3,-3 -5,-7 -8,-11l196 0 0 11z"/>
   <path class="fil8" d="M1216 2541l-203 0 0 -9 0 -3 203 0 0 12zm-289 0l-159 0c0,0 0,0 0,0 -5,-4 -9,-7 -13,-12l172 0 0 3 0 9z"/>
   <path class="fil8" d="M1216 2572l-203 0 0 -12 203 0 0 12zm-289 0l-103 0c-10,-3 -19,-7 -28,-12 0,0 0,0 0,0l131 0 0 12z"/>
   <path class="fil9" d="M708 2407c-1,2 -1,4 -1,6 0,2 0,4 1,6 0,6 0,12 1,19l1 2c0,3 1,6 1,9 2,7 4,13 6,19 1,4 3,8 5,12 2,6 6,13 9,19 3,4 5,8 8,11 5,7 10,14 16,19 4,5 8,8 13,12 9,7 18,14 28,19 9,5 18,9 28,12 16,4 32,7 50,7l1191 0 0 46 -1191 0c-117,0 -212,-95 -212,-212 0,-74 38,-139 95,-177 34,-22 74,-35 117,-35l1191 0 0 46 -1191 0c-18,0 -34,2 -50,7 -9,3 -19,7 -27,12 -11,5 -20,11 -29,19 -5,3 -9,7 -13,11 -5,6 -11,13 -16,19 -3,4 -5,8 -8,12 -3,6 -7,12 -9,19 -2,4 -4,8 -5,11 -2,7 -4,13 -6,20 0,3 -1,7 -2,11 -1,6 -1,13 -1,19z"/>
   <path class="fil10" d="M1013 2579l-86 0 0 -7 86 0 0 7zm0 -19l-86 0 0 -19 86 0 0 19zm0 -31l-86 0 0 -19 86 0 0 19zm0 -30l-86 0 0 -19 86 0 0 19zm0 -31l-86 0 0 -19 86 0 0 19z"/>
   <polygon class="fil11" points="1013,2449 927,2449 927,2440 970,2440 1013,2440 "/>
   <polygon class="fil11" points="1013,2480 927,2480 927,2468 1013,2468 "/>
   <polygon class="fil11" points="1013,2510 927,2510 927,2499 1013,2499 "/>
   <polygon class="fil11" points="1013,2541 927,2541 927,2532 927,2529 1013,2529 1013,2532 "/>
   <polygon class="fil11" points="1013,2572 927,2572 927,2560 1013,2560 "/>
   <polygon class="fil12" points="1013,2617 970,2602 927,2617 927,2579 1013,2579 "/>
   <polygon class="fil13" points="997,2617 953,2602 910,2617 910,2532 910,2440 953,2440 997,2440 997,2532 "/>
   <path class="fil5" d="M620 2299l-57 0c-21,33 -33,72 -33,114 0,42 12,81 33,114l57 0c-21,-33 -33,-72 -33,-114 0,-42 12,-81 33,-114z"/>
   <path class="fil14" d="M757 2236c-73,-3 -135,-7 -176,-13 14,-7 29,-13 44,-16 0,0 0,1 0,2 0,4 3,6 7,7 1,1 2,1 3,1 8,0 10,-1 21,-3 5,0 9,-1 12,-3 6,-2 12,-5 16,-8l110 -1 23 0 -2 7c-21,6 -40,15 -58,27l0 0z"/>
   <path class="fil15" d="M899 2238c-10,0 -19,0 -29,0l12 -36c0,0 7,2 19,3l0 0c10,2 23,4 38,5l0 0 0 -9 14 0 1 11c5,1 10,1 15,2 33,3 70,6 101,6 36,0 65,-4 74,-14 2,-1 3,-3 4,-5 1,0 1,0 1,0l62 0 0 22c-1,1 -1,1 -2,1 -64,8 -173,14 -297,14 -4,0 -9,0 -13,0zm-92 -1c-1,0 -2,0 -3,0 -16,0 -32,-1 -47,-1l0 0c18,-12 37,-21 58,-27l-8 28z"/>
   <path class="fil16" d="M1985 2625c-117,0 -212,95 -212,212 0,117 95,212 212,212l237 0 0 -9 0 -37 0 -332 0 -23 0 -23 -237 0z"/>
   <path class="fil5" d="M3334 2996c7,11 16,21 25,30l-1175 0c-38,0 -74,-11 -103,-30 -6,-4 -11,-8 -16,-12 -7,-6 -14,-12 -20,-19 -4,-4 -7,-8 -10,-11 -5,-7 -9,-13 -13,-20 -3,-3 -5,-7 -7,-11 -3,-6 -6,-13 -8,-19 -2,-4 -3,-8 -4,-12 -2,-6 -4,-12 -5,-19 -1,-4 -1,-7 -2,-11 -1,-6 -1,-13 -1,-19 0,-2 0,-4 0,-6 0,-2 0,-4 0,-6 0,-4 0,-7 0,-11 1,-3 1,-5 1,-8 1,-4 1,-8 2,-11 1,-7 3,-13 5,-19 1,-4 2,-8 4,-12 2,-7 5,-13 8,-19 2,-4 4,-8 7,-12 4,-6 8,-13 13,-19 3,-4 6,-7 10,-11 6,-7 13,-13 20,-19 5,-4 10,-8 16,-12 29,-19 65,-30 103,-30l1175 0c-9,9 -18,19 -25,30 -3,4 -5,8 -8,12 -3,6 -7,12 -10,19 -2,4 -4,7 -6,11 -2,7 -5,13 -7,19 -1,4 -3,8 -4,12 -2,6 -3,13 -5,19 -1,4 -1,8 -2,12 -1,6 -2,12 -3,19 -1,3 -1,7 -1,11 0,3 -1,5 -1,8 0,4 0,7 0,11 0,2 0,4 0,6 0,2 0,4 0,6 0,6 0,12 1,19 0,4 0,7 1,11 1,7 2,13 3,19 1,4 1,8 2,12 2,6 3,13 5,19 1,4 3,8 4,11 2,7 5,13 7,20 2,3 4,7 6,11 3,7 7,13 10,19 3,4 5,8 8,12z"/>
   <path class="fil6" d="M3334 2678c-3,4 -5,8 -8,12l-1261 0c5,-4 10,-8 16,-12l1253 0z"/>
   <path class="fil6" d="M3316 2709c-2,4 -4,7 -6,11l-1275 0c3,-4 6,-7 10,-11l1271 0z"/>
   <path class="fil6" d="M3303 2739c-1,4 -3,8 -4,12l-1284 0c2,-4 4,-8 7,-12l1281 0z"/>
   <path class="fil6" d="M3294 2770c-1,4 -1,8 -2,12l-1289 0c1,-4 2,-8 4,-12l1287 0z"/>
   <path class="fil6" d="M3289 2801c-1,3 -1,7 -1,11l-1292 0c1,-4 1,-8 2,-11l1291 0z"/>
   <path class="fil6" d="M3287 2837c0,2 0,4 0,6l-1292 0c0,-2 0,-4 0,-6 0,-2 0,-4 0,-6l1292 0c0,2 0,4 0,6z"/>
   <path class="fil6" d="M3289 2873l-1291 0c-1,-4 -1,-7 -2,-11l1292 0c0,4 0,7 1,11z"/>
   <path class="fil6" d="M3294 2904l-1287 0c-2,-4 -3,-8 -4,-12l1289 0c1,4 1,8 2,12z"/>
   <path class="fil6" d="M3303 2934l-1281 0c-3,-3 -5,-7 -7,-11l1284 0c1,4 3,8 4,11z"/>
   <path class="fil6" d="M3316 2965l-1271 0c-4,-4 -7,-8 -10,-11l1275 0c2,3 4,7 6,11z"/>
   <path class="fil6" d="M3334 2996l-1253 0c-6,-4 -11,-8 -16,-12l1261 0c3,4 5,8 8,12z"/>
   <path class="fil7" d="M2574 3003l-103 0 0 -7 103 0 0 7zm-117 0l-12 0 0 -7 11 0 1 7zm-29 0l-11 0 0 -7c1,0 2,0 3,0l8 0 0 7zm-28 0l-12 0 0 -2c4,-1 8,-2 11,-2l1 4zm174 -19l-60 0c19,-2 39,-3 60,-5l0 5z"/>
   <path class="fil8" d="M2574 2996l-103 0 0 -7c14,-2 28,-3 43,-5l60 0 0 12zm-118 0l-11 0 0 -4c4,0 8,-1 11,-1l0 5zm-28 0l-8 0c3,-1 5,-1 8,-1l0 1z"/>
   <path class="fil17" d="M3375 3049l-1191 0c-117,0 -212,-95 -212,-212 0,-117 95,-212 212,-212l1191 0 0 46 -1191 0c-92,0 -166,74 -166,166 0,92 74,166 166,166l1191 0 0 46z"/>
   <path class="fil18" d="M2317 3039l-10 -4 0 -18c3,-1 6,-2 10,-2l0 24zm-48 -9c1,0 2,-1 3,-1l0 0 -3 1z"/>
   <polygon class="fil19" points="2307,3041 2264,3026 2220,3041 2220,2956 2220,2864 2264,2864 2307,2864 2307,2956 "/>
   <path class="fil5" d="M1930 2723l-56 0c-21,33 -34,72 -34,114 0,42 13,81 34,114l56 0c-21,-33 -33,-72 -33,-114 0,-42 12,-81 33,-114z"/>
   <path class="fil20" d="M780 2625c-117,0 -212,95 -212,212 0,117 95,212 212,212l237 0 0 -9 0 -37 0 -332 0 -23 0 -23 -237 0z"/>
   <path class="fil5" d="M2129 2996c8,11 16,21 25,30l-1175 0c-38,0 -73,-11 -103,-30 -5,-4 -11,-8 -16,-12 -7,-6 -14,-12 -20,-19 -4,-4 -7,-8 -10,-11 -5,-7 -9,-13 -13,-20 -2,-3 -4,-7 -6,-11 -4,-6 -6,-13 -9,-19 -1,-4 -3,-8 -4,-12 -2,-6 -3,-12 -5,-19 0,-4 -1,-7 -1,-11 -1,-6 -2,-13 -2,-19 0,-2 0,-4 0,-6 0,-2 0,-4 0,-6 0,-4 0,-7 1,-11 0,-3 0,-5 1,-8 0,-4 1,-8 1,-11 2,-7 3,-13 5,-19 1,-4 3,-8 4,-12 3,-7 5,-13 9,-19 2,-4 4,-8 6,-12 4,-6 8,-13 13,-19 3,-4 6,-7 10,-11 6,-7 13,-13 20,-19 5,-4 11,-8 16,-12 30,-19 65,-30 103,-30l1175 0c-9,9 -17,19 -25,30 -3,4 -5,8 -7,12 -4,6 -8,12 -11,19 -2,4 -4,7 -5,11 -3,7 -5,13 -8,19 -1,4 -2,8 -3,12 -2,6 -4,13 -6,19 0,4 -1,8 -2,12 -1,6 -2,12 -3,19 0,3 -1,7 -1,11 0,3 0,5 0,8 -1,4 -1,7 -1,11 0,2 0,4 0,6 0,2 0,4 0,6 0,6 1,12 1,19 0,4 1,7 1,11 1,7 2,13 3,19 1,4 2,8 2,12 2,6 4,13 6,19 1,4 2,8 3,11 3,7 5,13 8,20 1,3 3,7 5,11 3,7 7,13 11,19 2,4 4,8 7,12z"/>
   <path class="fil6" d="M2129 2678c-3,4 -5,8 -7,12l-1262 0c5,-4 11,-8 16,-12l1253 0z"/>
   <path class="fil6" d="M2111 2709c-2,4 -4,7 -5,11l-1276 0c3,-4 6,-7 10,-11l1271 0z"/>
   <path class="fil6" d="M2098 2739c-1,4 -2,8 -3,12l-1284 0c2,-4 4,-8 6,-12l1281 0z"/>
   <path class="fil6" d="M2089 2770c0,4 -1,8 -2,12l-1289 0c1,-4 3,-8 4,-12l1287 0z"/>
   <path class="fil6" d="M2084 2801c0,3 -1,7 -1,11l-1291 0c0,-4 1,-8 1,-11l1291 0z"/>
   <path class="fil6" d="M2082 2837c0,2 0,4 0,6l-1292 0c0,-2 0,-4 0,-6 0,-2 0,-4 0,-6l1292 0c0,2 0,4 0,6z"/>
   <path class="fil6" d="M2084 2873l-1291 0c0,-4 -1,-7 -1,-11l1291 0c0,4 1,7 1,11z"/>
   <path class="fil6" d="M2089 2904l-1287 0c-1,-4 -3,-8 -4,-12l1289 0c1,4 2,8 2,12z"/>
   <path class="fil6" d="M2098 2934l-1281 0c-2,-3 -4,-7 -6,-11l1284 0c1,4 2,8 3,11z"/>
   <path class="fil6" d="M2111 2965l-1271 0c-4,-4 -7,-8 -10,-11l1276 0c1,3 3,7 5,11z"/>
   <path class="fil6" d="M2129 2996l-1253 0c-5,-4 -11,-8 -16,-12l1262 0c2,4 4,8 7,12z"/>
   <path class="fil7" d="M2018 3003l-258 0 -3 -7 215 0c16,2 32,5 46,7zm-313 0l-36 0 -2 -7 40 0 -2 7zm-90 0l-496 0 0 -7 137 0c8,3 16,5 25,5 3,0 6,0 9,-1 13,-1 25,-3 37,-4l290 0 -2 7zm-583 0l-53 0c-17,0 -34,-2 -50,-7l103 0 0 7zm846 -19l-107 0 0 -7c38,1 74,4 107,7zm-297 0l-145 0c50,-4 99,-7 144,-9l1 9zm-343 0l-119 0 0 -19 107 0c2,7 7,14 12,19zm-206 0l-130 0c-10,-5 -20,-12 -29,-19l159 0 0 19zm191 -30l-104 0 0 -20 103 0 0 13c0,2 0,5 1,7zm-191 0l-171 0c-6,-6 -12,-13 -17,-20l188 0 0 20zm190 -31l-103 0 0 -19 102 0 1 19zm-190 0l-195 0c-4,-6 -7,-13 -10,-19l205 0 0 19zm189 -31l-102 0 0 -19 102 0 0 19zm-189 0l-210 0c-2,-6 -4,-12 -5,-19l215 0 0 19z"/>
   <path class="fil8" d="M1221 2873l-102 0 0 -9 -44 0 -43 0 0 9 -215 0c-1,-3 -2,-6 -2,-9l406 0 0 9z"/>
   <path class="fil8" d="M1221 2904l-102 0 0 -12 102 0 0 12zm-189 0l-205 0c-2,-4 -3,-8 -5,-12l210 0 0 12z"/>
   <path class="fil8" d="M1222 2934l-103 0 0 -11 103 0 0 11zm-190 0l-188 0c-2,-3 -5,-7 -7,-11l195 0 0 11z"/>
   <path class="fil8" d="M1226 2965l-107 0 0 -9 0 -2 104 0c0,4 1,7 3,11zm-194 0l-159 0c-4,-4 -8,-7 -12,-11l171 0 0 2 0 9z"/>
   <path class="fil8" d="M1972 2996l-215 0 0 -2 14 0 0 -10 107 0c34,3 65,7 94,12zm-265 0l-40 0 0 -2 12 0 0 0 16 0 0 0 13 0 -1 2zm-90 0l-290 0c37,-5 74,-9 109,-12l145 0 0 10 23 0 0 0 14 0 -1 2zm-361 0l-137 0 0 -12 119 0c5,5 11,9 18,12zm-224 0l-103 0c-9,-3 -19,-7 -27,-12l130 0 0 12z"/>
   <path class="fil21" d="M2170 3049l-1191 0c-117,0 -212,-95 -212,-212 0,-117 95,-212 212,-212l1191 0 0 46 -1191 0c-92,0 -166,74 -166,166 0,92 74,166 166,166l1191 0 0 46z"/>
   <path class="fil10" d="M1119 3003l-87 0 0 -7 87 0 0 7zm0 -19l-87 0 0 -19 87 0 0 19zm0 -30l-87 0 0 -20 87 0 0 20zm0 -31l-87 0 0 -19 87 0 0 19zm0 -31l-87 0 0 -19 87 0 0 19z"/>
   <polygon class="fil11" points="1119,2873 1032,2873 1032,2864 1075,2864 1119,2864 "/>
   <polygon class="fil11" points="1119,2904 1032,2904 1032,2892 1119,2892 "/>
   <polygon class="fil11" points="1119,2934 1032,2934 1032,2923 1119,2923 "/>
   <polygon class="fil11" points="1119,2965 1032,2965 1032,2956 1032,2954 1119,2954 1119,2956 "/>
   <polygon class="fil11" points="1119,2996 1032,2996 1032,2984 1119,2984 "/>
   <polygon class="fil22" points="1119,3041 1075,3026 1032,3041 1032,3003 1119,3003 "/>
   <polygon class="fil21" points="1102,3041 1059,3026 1015,3041 1015,2956 1015,2864 1059,2864 1102,2864 1102,2956 "/>
   <path class="fil23" d="M3158 1576c-93,-6 -375,-84 -678,12 -82,26 -156,62 -223,112 -17,14 -38,21 -61,21 -23,0 -44,-7 -61,-21 -67,-50 -141,-86 -223,-112 -303,-96 -585,-18 -678,-12 -19,1 -33,15 -33,32l21 1339c1,33 33,58 68,53 369,-50 633,-18 778,13 24,5 47,13 69,23 17,7 36,12 56,12l0 1c0,0 1,0 3,-1 2,1 3,1 3,1l0 -1c20,0 39,-5 56,-12 22,-10 45,-18 69,-23 145,-31 409,-63 778,-13 35,5 67,-20 68,-53l21 -1339c0,-17 -14,-31 -33,-32z"/>
   <path class="fil24" d="M3180 1555c-94,-7 -375,-85 -678,12 -82,26 -157,61 -223,112 -18,13 -39,21 -62,21 -22,0 -43,-8 -61,-21 -66,-51 -141,-86 -223,-112 -303,-97 -584,-19 -678,-12 -18,1 -32,15 -32,32l21 1339c0,33 32,58 68,53 369,-50 632,-18 777,13 24,5 47,13 69,22 17,8 36,12 57,13l0 1c0,0 1,-1 2,-1 2,0 3,1 3,1l0 -1c20,-1 40,-5 57,-13 22,-9 45,-17 68,-22 146,-31 409,-63 778,-13 36,5 68,-20 68,-53l21 -1339c0,-17 -14,-31 -32,-32z"/>
   <path class="fil25" d="M3130 1711l0 1191c-418,-92 -839,36 -904,57 -6,2 -9,3 -9,3 0,0 -2,-1 -8,-3 -66,-19 -498,-138 -904,-42l0 -1206c133,-13 499,-197 912,219 414,-416 780,-232 913,-219z"/>
   <path class="fil26" d="M3130 2823l0 6c-36,-10 -108,-25 -212,-29 -144,-6 -382,7 -696,104l-1 1 -2 -1 -2 1 -1 -1c-313,-97 -551,-110 -695,-104 -108,4 -181,20 -216,30l0 -6c37,-10 109,-25 215,-30 145,-6 384,7 699,105l0 0 1 0c314,-98 553,-111 698,-105 103,4 174,19 212,29z"/>
   <path class="fil26" d="M3130 2844l0 6c-36,-9 -108,-24 -212,-28 -144,-7 -382,7 -696,104l-1 0 -2 0 -2 0 -1 0c-313,-97 -551,-111 -695,-104 -108,4 -181,20 -216,29l0 -6c37,-9 109,-25 215,-29 145,-6 384,7 699,105l0 0 1 0c314,-98 553,-111 698,-105 103,4 174,19 212,28z"/>
   <path class="fil26" d="M3130 2866l0 6c-36,-9 -108,-24 -212,-29 -144,-6 -382,7 -696,105l-1 0 -2 0 -2 0 -1 0c-313,-98 -551,-111 -695,-105 -108,5 -181,21 -216,30l0 -6c37,-9 109,-25 215,-29 145,-7 384,7 699,105l0 0 1 0c314,-98 553,-112 698,-105 103,4 174,19 212,28z"/>
   <path class="fil27" d="M2217 2962c0,0 -2,-1 -8,-3l0 -13c2,1 5,1 7,2l1 0 2 0 2 0 1 0c1,0 3,-1 4,-1l0 12c-6,2 -9,3 -9,3zm2 -19l0 0c-4,-1 -7,-2 -10,-3l0 -16c2,1 5,1 7,2l1 0 2 0 2 0 1 0c1,0 3,-1 4,-1l0 16c-2,0 -4,1 -6,2l-1 0zm0 -22l0 0c-4,-1 -7,-2 -10,-3l0 -16c2,1 5,2 7,2l1 1 2 -1 2 1 1 -1c1,0 3,0 4,-1l0 16c-2,1 -4,1 -6,2l-1 0zm0 -22l0 0c-4,-1 -7,-2 -10,-3l0 -34c6,2 8,3 8,3 0,0 3,-1 9,-3l0 35c-2,1 -4,1 -6,2l-1 0z"/>
   <path class="fil28" d="M2221 2905l-2 -1 -2 1 -1 -1c-2,0 -5,-1 -7,-2l0 -6c3,1 6,2 10,3l0 0 1 0c2,-1 4,-1 6,-2l0 6c-1,1 -3,1 -4,1l-1 1z"/>
   <path class="fil28" d="M2221 2926l-2 0 -2 0 -1 0c-2,-1 -5,-1 -7,-2l0 -6c3,1 6,2 10,3l0 0 1 0c2,-1 4,-1 6,-2l0 6c-1,0 -3,1 -4,1l-1 0z"/>
   <path class="fil28" d="M2221 2948l-2 0 -2 0 -1 0c-2,-1 -5,-1 -7,-2l0 -6c3,1 6,2 10,3l0 0 1 0c2,-1 4,-2 6,-2l0 6c-1,0 -3,1 -4,1l-1 0z"/>
   <path class="fil5" d="M3130 1614l0 1184c-310,-112 -831,42 -904,64 -6,2 -9,3 -9,3 0,0 -2,-1 -8,-3 -73,-22 -595,-176 -904,-64l0 -1184c0,0 620,-117 904,156 3,3 6,6 8,9 3,-3 6,-6 9,-9 284,-273 904,-156 904,-156z"/>
   <path class="fil25" d="M2226 1770l0 1092c-6,2 -9,3 -9,3 0,0 -2,-1 -8,-3l0 -1092c3,3 6,6 8,9 3,-3 6,-6 9,-9z"/>
   <path class="fil29" d="M2142 2774c-248,-98 -441,-119 -558,-120 -128,-1 -197,21 -198,21l-1 -3c1,0 71,-22 199,-21 118,1 310,22 559,120l-1 3z"/>
   <path class="fil29" d="M2142 2734c-248,-98 -441,-119 -558,-120 -128,-1 -197,21 -198,21l-1 -3c1,0 71,-22 199,-21 118,1 310,22 559,120l-1 3z"/>
   <path class="fil29" d="M2142 2694c-248,-98 -441,-119 -558,-120 -128,-1 -197,21 -198,21l-1 -3c1,0 68,-21 190,-21 3,0 6,0 9,0 118,1 310,22 559,120l-1 3z"/>
   <path class="fil29" d="M2142 2654c-248,-98 -441,-119 -558,-120 -128,-1 -197,21 -198,21l-1 -3c1,0 71,-22 199,-21 118,1 310,22 559,120l-1 3z"/>
   <path class="fil29" d="M2142 2614c-248,-97 -441,-119 -558,-120 -128,-1 -197,21 -198,21l-1 -3c1,0 71,-22 199,-21 118,1 310,22 559,120l-1 3z"/>
   <path class="fil29" d="M2141 2575c-248,-97 -440,-118 -557,-119 -127,-1 -197,21 -197,21l-2 -6c1,0 71,-23 199,-22 118,1 311,23 559,121l-2 5z"/>
   <path class="fil29" d="M2142 2454c-114,-45 -226,-77 -333,-97l0 -3c107,20 220,53 334,97l-1 3z"/>
   <path class="fil29" d="M2142 2414c-114,-44 -226,-77 -333,-97l0 -3c107,20 220,53 334,97l-1 3z"/>
   <path class="fil29" d="M2142 2374c-114,-44 -226,-77 -333,-97l0 -3c107,20 220,53 334,98l-1 2z"/>
   <path class="fil29" d="M2142 2334c-114,-44 -226,-77 -333,-97l0 -3c107,20 220,53 334,98l-1 2z"/>
   <path class="fil29" d="M2142 2294c-114,-44 -226,-77 -333,-97l0 -3c107,20 220,53 334,98l-1 2z"/>
   <path class="fil29" d="M2142 2255c-248,-98 -441,-120 -558,-121 -127,-1 -197,22 -198,22l-1 -3c1,0 71,-23 199,-22 118,1 310,23 559,121l-1 3z"/>
   <path class="fil29" d="M2142 2215c-248,-98 -441,-120 -558,-120 -128,-1 -197,21 -198,21l-1 -3c1,0 71,-23 199,-22 118,1 310,23 559,121l-1 3z"/>
   <path class="fil29" d="M2142 2175c-248,-98 -441,-119 -558,-120 -128,-1 -197,21 -198,21l-1 -3c1,0 71,-23 199,-21 118,0 310,22 559,120l-1 3z"/>
   <path class="fil29" d="M2142 2135c-248,-98 -441,-119 -558,-120 -128,-1 -197,21 -198,21l-1 -3c1,0 68,-21 190,-21 3,0 6,0 9,0 118,1 310,22 559,120l-1 3z"/>
   <path class="fil29" d="M2142 2095c-248,-98 -441,-119 -558,-120 -128,-1 -197,21 -198,21l-1 -3c1,0 71,-22 199,-21 118,1 310,22 559,120l-1 3z"/>
   <path class="fil29" d="M2142 2055c-248,-98 -441,-119 -558,-120 -128,-1 -197,21 -198,21l-1 -3c1,0 71,-22 199,-21 118,1 310,22 559,120l-1 3z"/>
   <path class="fil29" d="M2142 2015c-248,-98 -441,-119 -558,-120 -128,-1 -197,21 -198,21l-1 -3c1,0 71,-22 199,-21 118,1 310,22 559,120l-1 3z"/>
   <path class="fil29" d="M2142 1975c-248,-98 -441,-119 -558,-120 -128,-1 -197,21 -198,21l-1 -3c1,0 68,-21 190,-21 3,0 6,0 9,0 118,1 310,22 559,120l-1 3z"/>
   <path class="fil29" d="M2141 1936c-248,-97 -440,-119 -557,-120 -127,-1 -197,22 -197,22l-2 -6c1,0 71,-23 199,-22 118,1 311,23 559,121l-2 5z"/>
   <path class="fil29" d="M1387 1767l-3 -9c2,0 138,-43 381,-6l-2 9c-240,-37 -374,6 -376,6z"/>
   <path class="fil29" d="M1764 2348c-244,-37 -378,7 -378,7l0 -161c0,0 134,-43 378,-6l0 160z"/>
   <path class="fil29" d="M2293 2774l-1 -3c249,-98 441,-119 559,-120 128,-1 198,21 199,21l-1 3c-1,0 -71,-22 -198,-21 -118,1 -310,22 -558,120z"/>
   <path class="fil29" d="M2293 2734l-1 -3c249,-98 441,-119 559,-120 128,-1 198,21 199,21l-1 3c-1,0 -71,-22 -198,-21 -118,1 -310,22 -558,120z"/>
   <path class="fil29" d="M2293 2694l-1 -3c249,-98 441,-119 559,-120 128,-1 198,21 199,21l-1 3c-1,0 -71,-22 -198,-21 -118,1 -310,22 -558,120z"/>
   <path class="fil29" d="M2293 2654l-1 -3c249,-98 441,-119 559,-120 128,-1 198,21 199,21l-1 3c-1,0 -71,-22 -198,-21 -118,1 -310,23 -558,120z"/>
   <path class="fil29" d="M2293 2614l-1 -3c249,-98 441,-119 559,-120 128,-1 198,21 199,21l-1 3c-1,0 -71,-22 -198,-21 -118,1 -310,23 -558,120z"/>
   <path class="fil29" d="M2294 2575l-2 -5c248,-98 441,-120 559,-121 128,-1 198,22 199,22l-2 6c0,0 -70,-22 -197,-21 -118,1 -309,22 -557,119z"/>
   <path class="fil29" d="M2293 2255l-1 -3c249,-98 441,-120 559,-121 128,-1 198,22 199,22l-1 3c-1,0 -71,-23 -198,-22 -118,1 -310,23 -558,121z"/>
   <path class="fil29" d="M2293 2215l-1 -3c249,-98 441,-120 559,-121 128,-1 198,22 199,22l-1 3c-1,0 -71,-22 -198,-21 -118,1 -310,22 -558,120z"/>
   <path class="fil29" d="M2293 2175l-1 -3c249,-98 441,-120 559,-120 128,-1 198,21 199,21l-1 3c-1,0 -71,-22 -198,-21 -118,1 -310,22 -558,120z"/>
   <path class="fil29" d="M2293 2135l-1 -3c249,-98 441,-119 559,-120 128,-1 198,21 199,21l-1 3c-1,0 -71,-22 -198,-21 -118,1 -310,22 -558,120z"/>
   <path class="fil29" d="M2294 2479l-3 -9c249,-98 442,-119 560,-120 128,-1 197,21 200,21l-3 9c-1,0 -67,-21 -188,-21 -3,0 -6,0 -9,0 -118,1 -309,23 -557,120z"/>
   <path class="fil29" d="M2294 2439l-3 -9c249,-98 442,-119 560,-120 128,-1 197,21 200,22l-3 8c-1,0 -67,-21 -188,-21 -3,0 -6,0 -9,0 -118,1 -309,23 -557,120z"/>
   <path class="fil29" d="M2294 2399l-3 -9c249,-97 442,-119 560,-120 128,-1 197,21 200,22l-3 8c-1,0 -67,-21 -188,-21 -3,0 -6,0 -9,0 -118,1 -309,23 -557,120z"/>
   <path class="fil29" d="M2294 2359l-3 -9c249,-97 442,-119 560,-120 128,-1 197,21 200,22l-3 8c-1,0 -70,-22 -197,-21 -118,1 -309,23 -557,120z"/>
   <path class="fil29" d="M2293 2095l-1 -3c249,-98 441,-119 559,-120 128,-1 198,21 199,21l-1 3c-1,0 -71,-22 -198,-21 -118,1 -310,22 -558,120z"/>
   <path class="fil29" d="M2293 2055l-1 -3c249,-98 441,-119 559,-120 128,-1 198,21 199,21l-1 3c-1,0 -71,-22 -198,-21 -118,1 -310,22 -558,120z"/>
   <path class="fil29" d="M2293 2015l-1 -3c249,-98 441,-119 559,-120 128,-1 198,21 199,21l-1 3c-1,0 -71,-22 -198,-21 -118,1 -310,22 -558,120z"/>
   <path class="fil29" d="M2293 1975l-1 -3c249,-98 441,-119 559,-120 128,-1 198,21 199,21l-1 3c-1,0 -71,-22 -198,-21 -118,1 -310,22 -558,120z"/>
   <path class="fil29" d="M2294 1936l-2 -5c248,-98 441,-120 559,-121 128,-1 198,22 199,22l-2 6c0,0 -67,-22 -188,-22 -3,0 -6,0 -9,0 -118,1 -309,23 -557,120z"/>
   <path class="fil30" d="M1760 3003l-55 0 2 -7 50 0 3 7zm11 -19l-23 0 1 -8c7,0 15,0 22,1l0 7z"/>
   <polygon class="fil31" points="1757,2996 1707,2996 1708,2994 1695,2994 1695,2994 1748,2994 1748,2984 1771,2984 1771,2994 1757,2994 "/>
   <path class="fil32" d="M1765 3049l-64 0c-2,0 -5,-2 -5,-5l0 -12 0 -1 0 -1 6 -21 2 -1 0 -1 1 -4 55 0 1 4 0 0 2 1 7 21 0 2 0 0 0 13c0,3 -2,5 -5,5z"/>
   <path class="fil33" d="M1771 2977c-7,-1 -15,-1 -22,-1l1 -22c7,0 15,0 23,0l-2 23z"/>
   <path class="fil34" d="M1773 2954c-8,0 -16,0 -23,0l3 -71c8,1 16,1 23,2l-3 69z"/>
   <path class="fil35" d="M1776 2885c-7,-1 -15,-1 -23,-2l2 -32c7,1 15,2 23,3l-2 31zm2 -37c-8,-1 -15,-2 -23,-3l1 -16c8,1 15,2 23,3l-1 16zm1 -22c-8,-1 -15,-2 -23,-2l1 -16c8,0 15,1 23,2l-1 16zm1 -22c-8,0 -15,-1 -23,-2l2 -34c8,1 15,2 23,3l-2 33z"/>
   <path class="fil36" d="M1780 2810c-8,-1 -15,-2 -23,-2l0 -6c8,1 15,2 23,2l0 6z"/>
   <path class="fil36" d="M1779 2832c-8,-1 -15,-2 -23,-3l0 -5c8,0 15,1 23,2l0 6z"/>
   <path class="fil36" d="M1778 2854c-8,-1 -16,-2 -23,-3l0 -6c8,1 15,2 23,3l0 6z"/>
   <path class="fil37" d="M1782 2771c-8,-1 -15,-2 -23,-3l5 -99c8,1 15,2 23,4l-5 98zm5 -101c-8,-2 -15,-3 -23,-4l2 -37c8,2 15,3 23,4l-2 37zm2 -40c-8,-1 -15,-3 -23,-4l2 -36c8,1 15,2 23,4l-2 36zm2 -40c-8,-1 -15,-2 -23,-3l2 -37c8,1 15,3 23,4l-2 36zm2 -39c-8,-2 -15,-3 -23,-4l2 -36c8,1 15,2 23,3l-2 37zm2 -40c-8,-1 -15,-2 -23,-4l2 -28 0 -7c7,2 15,3 23,4l-2 35zm44 -35l-12 0c-18,-4 -36,-7 -53,-10l3 -49 -214 0 3 -84c3,0 6,0 9,0 53,0 116,4 189,15l0 -160c-73,-11 -136,-15 -189,-15 -21,0 -39,0 -57,1l1 -5c0,-11 2,-22 6,-33 0,0 0,0 0,0 15,-1 32,-2 50,-2 3,0 6,0 9,0 54,1 123,6 207,20 1,2 4,3 6,4 3,0 5,1 7,1 2,0 4,-1 6,-1 8,1 16,3 25,4 -9,7 -21,9 -33,10l5 123 32 0c6,0 11,6 11,12l0 15c-13,-3 -27,-6 -41,-8l0 3c13,3 27,5 41,8l0 37c-13,-3 -27,-6 -41,-8l0 3c13,2 27,5 41,8l0 99c0,7 -5,12 -11,12zm-1 -316c-8,-2 -16,-3 -24,-5 9,-7 11,-22 13,-32 0,-1 0,-1 0,-2 8,1 15,3 22,5 0,0 0,1 0,1 2,12 -1,23 -11,33zm-51 -10c-82,-14 -150,-18 -203,-19 -3,0 -6,0 -9,0 -17,0 -34,1 -49,2 6,-14 12,-27 21,-38 9,0 18,-1 28,-1 3,0 6,1 9,1 51,0 116,4 194,17 1,4 1,8 1,13 1,8 3,19 8,25z"/>
   <path class="fil38" d="M1787 2673c-8,-2 -15,-3 -23,-4l0 -3c8,1 15,2 23,4l0 3z"/>
   <path class="fil38" d="M1789 2633c-8,-1 -15,-2 -23,-4l0 -3c8,1 15,3 23,4l0 3z"/>
   <path class="fil38" d="M1791 2594c-8,-2 -15,-3 -23,-4l0 -3c8,1 15,2 23,3l0 4z"/>
   <path class="fil38" d="M1793 2554c-8,-1 -15,-3 -23,-4l0 -3c8,1 15,2 23,4l0 3z"/>
   <path class="fil38" d="M1795 2514c-8,-1 -15,-2 -23,-3l0 -4c8,2 15,3 23,4l0 3z"/>
   <path class="fil38" d="M1797 2476c-8,-1 -16,-2 -23,-4l0 -6c17,3 35,6 53,10l-30 0 0 0z"/>
   <path class="fil38" d="M1850 2365c-14,-3 -28,-6 -41,-8l0 -3c14,2 28,5 41,8l0 3z"/>
   <path class="fil38" d="M1850 2325c-14,-3 -28,-5 -41,-8l0 -3c14,2 28,5 41,8l0 3z"/>
   <path class="fil38" d="M1835 2162c-9,-1 -17,-3 -25,-4 2,-1 3,-2 4,-3 8,2 16,3 24,5 0,0 -1,0 -1,1 0,0 -1,1 -2,1zm-44 -8c-84,-14 -153,-19 -207,-20 -3,0 -6,0 -9,0 -18,0 -35,1 -50,2 0,-1 1,-2 1,-3 15,-1 32,-2 49,-2 3,0 6,0 9,0 53,1 121,5 203,19 1,2 2,3 4,4z"/>
   <path class="fil30" d="M1669 3003l-54 0 2 -7 50 0 2 7zm4 -19l-16 0 0 -10c2,0 4,0 6,0 3,0 6,0 10,0l0 10z"/>
   <polygon class="fil31" points="1667,2996 1617,2996 1618,2994 1604,2994 1604,2994 1657,2994 1657,2984 1673,2984 1673,2994 1679,2994 1679,2994 1667,2994 "/>
   <path class="fil32" d="M1673 3049l-64 0c-3,0 -5,-2 -5,-5l0 -13 0 0 0 -2 8 -21 2 -1 0 0 1 -4 54 0 1 4 0 1 2 1 6 21 0 1 0 1 0 12c0,3 -2,5 -5,5z"/>
   <path class="fil33" d="M1673 2974c-4,0 -7,0 -10,0 -2,0 -4,0 -6,0l0 -21c5,0 10,0 16,0l0 21z"/>
   <path class="fil34" d="M1657 2953l0 -73c5,0 10,0 16,0l0 73c-6,0 -11,0 -16,0z"/>
   <path class="fil35" d="M1673 2880c-6,0 -11,0 -16,0l0 -36c5,0 10,0 16,1l0 35zm0 -41c-6,0 -11,-1 -16,-1l0 -16c5,0 10,1 16,1l0 16zm0 -22c-6,0 -11,0 -16,-1l0 -16c5,0 10,1 16,1l0 16zm0 -22c-6,0 -11,0 -16,-1l0 -34c5,0 10,0 16,1l0 34z"/>
   <path class="fil36" d="M1673 2801c-6,0 -11,-1 -16,-1l0 -6c5,1 10,1 16,1l0 6z"/>
   <path class="fil36" d="M1673 2823c-6,0 -11,-1 -16,-1l0 -6c5,1 10,1 16,1l0 6z"/>
   <path class="fil36" d="M1673 2845c-6,-1 -11,-1 -16,-1l0 -6c5,0 10,1 16,1l0 6z"/>
   <path class="fil37" d="M1673 2761c-6,-1 -11,-1 -16,-1l0 -103c5,0 10,1 16,1l0 103zm0 -106c-6,-1 -11,-1 -16,-1l0 -37c5,0 10,1 16,1l0 37zm0 -40c-6,0 -11,-1 -16,-1l0 -37c5,0 10,1 16,1l0 37zm0 -40c-6,0 -11,-1 -16,-1l0 -37c5,0 10,1 16,1l0 37zm0 -40c-6,0 -11,-1 -16,-1l0 -24c0,-5 3,-8 8,-8 4,0 8,3 8,8l0 25z"/>
   <path class="fil38" d="M1673 2658c-6,0 -11,-1 -16,-1l0 -3c5,0 10,0 16,1l0 3z"/>
   <path class="fil38" d="M1673 2618c-6,0 -11,-1 -16,-1l0 -3c5,0 10,1 16,1l0 3z"/>
   <path class="fil38" d="M1673 2578c-6,0 -11,-1 -16,-1l0 -3c5,0 10,1 16,1l0 3z"/>
   <path class="fil38" d="M1673 2538c-6,0 -11,-1 -16,-1l0 -3c5,0 10,1 16,1l0 3z"/>
   <path class="fil37" d="M1850 2123c-7,-2 -15,-4 -22,-5 1,-3 1,-7 1,-10l0 0c2,-9 3,-17 4,-26 7,2 14,3 22,5 -1,12 -3,24 -5,36zm-72 -14c-78,-13 -143,-17 -194,-18 -3,0 -6,0 -9,0 -9,0 -18,1 -26,1 10,-13 22,-25 35,-34l5 -3c50,0 114,5 189,17 0,3 0,7 0,10 0,9 0,18 0,27zm77 -25c-7,-2 -15,-3 -22,-5 1,-12 2,-24 2,-36 8,1 15,3 23,4 -1,13 -2,25 -3,37zm-77 -15c-73,-12 -135,-16 -184,-17l17 -11c-2,-4 -1,-9 4,-12l12 -7c1,-1 3,-1 4,-1 1,0 2,0 3,0l-1 8 63 0 -1 -8c14,1 28,3 43,5 8,4 15,9 22,15 6,2 13,6 18,8 0,7 0,13 0,20zm80 -25c-8,-1 -15,-3 -23,-4 1,-13 1,-25 0,-37 8,1 15,3 23,5 0,12 0,24 0,36zm-130 -22c-11,-2 -22,-3 -33,-4l-1 -9 -2 -18c3,-3 7,-6 10,-9 7,1 13,1 20,2 -2,3 -5,5 -8,6l4 29c3,0 7,2 10,3zm130 -18c-8,-1 -15,-3 -23,-4 0,-7 0,-14 0,-21 -1,-6 -1,-11 -1,-16 7,1 15,3 23,4 0,4 0,8 0,12 1,8 1,17 1,25zm-133 -23c-7,0 -14,-1 -21,-2 8,-9 14,-20 17,-33 1,0 1,0 1,0 2,0 4,0 6,-1 5,1 10,1 16,2 -4,14 -11,26 -19,34zm132 -17c-8,-1 -16,-3 -23,-5 -1,-12 -1,-24 -2,-37 8,2 15,3 23,5 0,12 1,25 2,37zm-107 -19c-6,-1 -12,-2 -18,-3 3,-2 5,-5 6,-8l0 0c0,-2 1,-4 1,-6l0 0c0,-9 -6,-16 -14,-18 0,-2 -1,-4 -1,-5 11,1 21,2 32,4l0 1c0,1 0,3 -1,4 4,3 6,8 6,14 0,8 -4,14 -11,17zm105 -21c-8,-2 -16,-3 -23,-5 -1,-12 -1,-25 -2,-37 8,1 15,3 23,5 1,12 1,24 2,37zm-99 -18c-11,-2 -22,-3 -32,-5 -3,-14 -8,-28 -16,-38 13,1 26,3 39,5 2,5 3,10 4,15 3,2 5,4 5,8l0 15zm97 -23c-7,-1 -14,-2 -20,-4 7,-6 11,-15 11,-26 0,-3 0,-5 0,-7 7,2 15,4 23,5 0,1 0,1 0,2 0,12 -6,23 -14,28 0,1 0,2 0,2zm-107 -19c-14,-2 -28,-3 -41,-5 -5,-6 -10,-11 -17,-14 -7,-4 -15,-7 -23,-7 -9,0 -17,3 -24,7 -1,0 -2,1 -3,1 10,-13 22,-22 36,-25 12,1 24,2 37,4 15,7 28,21 35,39zm120 -19c-8,-2 -16,-4 -24,-5 -4,-11 -13,-19 -23,-20l0 -33c0,0 0,-11 4,-12 0,0 1,0 1,0 4,0 7,4 7,14 0,5 1,16 2,26 0,3 3,5 6,5 0,0 0,0 0,0 13,0 24,11 27,25z"/>
   <path class="fil38" d="M1849 2126c-7,-2 -14,-4 -22,-5 1,-1 1,-2 1,-3 7,1 15,3 22,5 0,0 0,0 0,0 0,1 0,2 -1,3zm-71 -14c-78,-13 -143,-17 -194,-17 -3,0 -6,-1 -9,-1 -10,0 -19,1 -28,1 1,-1 1,-2 2,-3 8,0 17,-1 26,-1 3,0 6,0 9,0 51,1 116,5 194,18 0,1 0,2 0,3z"/>
   <path class="fil38" d="M1855 2087c-8,-2 -15,-3 -22,-5 0,-1 0,-2 0,-3 7,2 15,3 22,5 0,1 0,2 0,3zm-77 -15c-75,-12 -139,-17 -189,-17l5 -3c49,1 111,5 184,17 0,1 0,2 0,3z"/>
   <path class="fil38" d="M1858 2047c-8,-1 -15,-3 -23,-4 0,-1 0,-2 0,-3 8,1 15,3 23,4 0,1 0,2 0,3zm-120 -21c-15,-2 -29,-4 -43,-5l0 -3c11,1 22,2 33,4 4,1 7,3 10,4z"/>
   <path class="fil38" d="M1858 2008c-8,-2 -15,-4 -23,-5 0,-1 0,-2 0,-3 8,1 15,3 23,4 0,1 0,3 0,4zm-136 -24c-7,-1 -13,-1 -20,-2 1,-1 2,-2 2,-3 7,1 14,2 21,2 -1,1 -2,2 -3,3z"/>
   <path class="fil38" d="M1857 1967c-8,-1 -16,-3 -23,-4 0,-2 0,-3 0,-4 7,2 15,4 23,5 0,1 0,2 0,3zm-113 -20c-6,-1 -11,-1 -16,-2 1,-1 3,-2 4,-3 6,1 12,2 18,3 -1,1 -3,1 -5,1l-1 0c0,0 0,1 0,1z"/>
   <path class="fil38" d="M1855 1927c-8,-2 -15,-3 -23,-5 0,-1 0,-2 0,-3 7,2 15,3 23,5 0,1 0,2 0,3zm-99 -18c-11,-2 -21,-3 -32,-4 0,-2 0,-3 0,-4 10,2 21,3 32,5l0 3z"/>
   <path class="fil38" d="M1853 1887c-8,-2 -15,-4 -23,-5 0,0 0,-1 0,-1 1,0 2,-1 3,-2 6,2 13,3 20,4 0,2 0,3 0,4zm-106 -19c-13,-2 -26,-4 -39,-5 -1,-1 -2,-3 -3,-4 13,2 27,3 41,5 1,2 1,3 1,4z"/>
   <path class="fil38" d="M1867 1851c-8,-1 -16,-3 -23,-5 -1,-2 -1,-4 -2,-6 8,1 16,3 24,5 1,2 1,4 1,6zm-156 -26c-13,-2 -25,-3 -37,-4 4,-1 9,-2 13,-2 9,0 16,2 24,6z"/>
   <path class="fil38" d="M1764 2348c-73,-11 -136,-15 -189,-15 -3,0 -6,0 -9,0l2 -39c-2,0 -4,0 -5,0 0,0 0,0 0,0 36,-31 83,-102 83,-102l-78 0 -50 1 0 -19c18,-1 36,-1 57,-1 53,0 116,4 189,15l0 160z"/>
   <polygon class="fil39" points="900,1921 799,1980 785,1828 888,1771 "/>
   <polygon class="fil40" points="885,1769 888,1771 785,1832 785,1828 "/>
   <path class="fil41" d="M928 1870l-15 -18c5,-11 -4,-44 -21,-37 -2,1 -4,2 -5,3 -4,1 -7,1 -10,1 -3,1 -7,4 -6,7 0,2 2,4 3,6 5,4 11,6 18,7 1,1 2,1 3,2 1,1 2,2 2,4 1,5 1,11 1,17 1,4 1,8 2,11 1,4 3,7 7,9 7,3 15,-8 21,-12z"/>
   <path class="fil42" d="M1130 1895l-1 -2c-5,-14 -21,-20 -34,-13l-97 47 -75 -71 -26 26 83 90c8,9 20,11 30,6l108 -50c12,-6 17,-20 12,-33z"/>
   <path class="fil41" d="M975 2201l-126 1 -55 0 -110 1c-4,3 -10,6 -16,8 -3,2 -7,3 -12,3 -11,2 -13,3 -21,3 -1,0 -2,0 -3,-1 -4,-1 -7,-3 -7,-7 -1,-22 -6,-99 -8,-120 -1,-9 1,-15 5,-18 7,-5 16,-1 18,6 2,7 18,38 30,60 3,3 4,7 6,9l1 1c2,3 4,6 5,8l144 -8 36 -2 95 -6 18 62z"/>
   <path class="fil43" d="M633 2220c-6,1 -11,-3 -12,-8 -1,-24 -6,-105 -8,-128 -3,-27 22,-25 25,-12 2,7 20,40 33,63 3,4 5,8 7,11 -3,1 -7,2 -10,0 -3,-1 -5,-3 -7,-4 -3,-1 -7,2 -8,5 -1,3 -1,6 -1,10 4,19 14,38 17,58 -4,1 -8,2 -13,3 -13,2 -15,2 -23,2z"/>
   <path class="fil6" d="M613 2221l-11 -155c0,-2 2,-4 4,-4l12 -1c2,0 4,2 4,4l10 155c1,2 -1,4 -3,4l-12 1c-2,0 -4,-2 -4,-4z"/>
   <path class="fil44" d="M794 2202c9,-22 24,-44 32,-55l9 -1c-3,5 -6,11 -7,16l-11 40 -23 0z"/>
   <polygon class="fil40" points="913,1979 799,1980 785,1828 898,1826 "/>
   <path class="fil45" d="M939 2210c-15,-1 -28,-3 -38,-5 -12,-1 -19,-3 -19,-3l-76 224c1,5 2,11 3,17l0 1c0,3 0,7 -1,12 -1,11 -1,13 -3,20 -1,2 -1,3 -2,3 -2,4 -5,6 -9,5 -21,-5 -96,-22 -117,-26 -9,-1 -14,-5 -16,-10 -3,-7 4,-16 11,-15 7,0 41,-7 66,-13 4,-1 7,-2 11,-2l0 -1c4,-1 7,-2 10,-3l69 -252c5,-18 18,-32 33,-36l54 -4 22 -1 2 89z"/>
   <path class="fil43" d="M807 2480c-1,6 -6,10 -11,8 -23,-5 -103,-23 -125,-27 -27,-5 -17,-28 -5,-28 8,0 44,-7 70,-14 5,-1 9,-3 13,-4 0,4 -1,8 -3,11 -2,2 -5,3 -6,5 -1,3 0,7 3,9 2,2 5,3 9,3 20,3 40,-2 60,1 0,4 0,8 -1,13 -1,13 -2,15 -4,23z"/>
   <path class="fil6" d="M803 2499l-152 -33c-3,-1 -4,-3 -3,-5l2 -11c1,-2 3,-4 5,-3l152 33c2,1 3,3 3,5l-3 11c0,3 -2,4 -4,3z"/>
   <path class="fil46" d="M939 2210c-15,-1 -28,-3 -38,-5 3,-31 10,-65 14,-83l22 -1 2 89z"/>
   <path class="fil47" d="M1168 2151c-4,28 -12,43 -20,50 -1,2 -2,4 -4,5 -18,19 -106,15 -175,8 -5,-1 -10,-1 -15,-2l-6 -92 15 -1 53 -3 5 -12 7 -18 139 9c3,22 2,41 1,56z"/>
   <path class="fil24" d="M963 2117l7 98c0,5 -4,9 -9,9l-31 -2c-4,0 -8,-3 -8,-8l1 -98c0,-5 4,-9 8,-8l24 2c4,0 7,3 8,7z"/>
   <path class="fil48" d="M1168 2151c-52,-10 -119,-36 -147,-47l1 -3c8,1 17,3 25,5 19,4 38,8 57,11 18,4 44,8 65,12 0,8 -1,15 -1,22l0 0z"/>
   <path class="fil49" d="M1066 1813c-4,10 -12,17 -17,26 -2,4 -4,9 -3,14 1,4 5,8 10,10 10,5 31,5 42,0 20,-8 24,-30 22,-51 -1,-12 -6,-23 -10,-34 -3,-11 -5,-24 -1,-35 4,-10 14,-18 16,-29 1,-10 -5,-21 -15,-24 -3,-1 -6,-1 -9,-1 -6,0 -11,2 -16,5 -3,2 -5,4 -7,7 -9,14 -14,31 -14,48 1,11 3,22 5,32 1,11 1,22 -3,32z"/>
   <path class="fil43" d="M1185 2131l21 -189c4,-25 -5,-43 -18,-62l-5 -8c-11,-17 -24,-30 -46,-27 -10,2 -19,5 -27,9 -9,4 -21,7 -30,12 -16,8 -28,18 -40,32 -28,33 -7,66 -6,103 0,30 -15,58 -25,86 -3,10 1,12 11,13 9,2 18,4 27,6 19,4 38,8 57,11 23,5 58,10 81,14z"/>
   <path class="fil41" d="M1155 1843c-1,0 -2,1 -3,2l-1 2 0 1c-20,39 -81,44 -81,44 7,-11 20,-27 30,-35l6 -18 3 -12 7 -29 11 1 16 1 11 1 -1 30c3,3 5,8 2,12z"/>
   <path class="fil44" d="M1151 1848c-18,-3 -32,-13 -42,-21l2 -7c3,2 7,3 11,3 1,0 3,1 5,1 9,0 18,-4 26,-10l0 17c2,2 4,4 4,7 0,1 -1,3 -2,5 -1,0 -2,1 -3,2l-1 2 0 1z"/>
   <path class="fil45" d="M1180 1764c-4,36 -30,63 -58,59 -28,-3 -48,-35 -45,-71 1,-7 3,-14 5,-20 6,-17 17,-29 30,-36 7,-3 15,-5 23,-4 2,0 4,1 6,1 15,4 28,17 34,34 4,11 6,24 5,37z"/>
   <path class="fil46" d="M1119 1746c-18,0 -30,-7 -37,-14 6,-17 17,-29 30,-36l29 -3c15,4 28,17 34,34 -4,4 -12,9 -24,13 -12,4 -23,6 -32,6z"/>
   <path class="fil50" d="M1151 1743c3,1 6,4 7,7 1,4 1,8 0,12 -1,4 -2,8 -4,11 -2,3 -6,5 -10,5l-1 0c-4,2 2,9 3,11 8,15 6,33 2,48 -2,5 -3,10 -3,16 0,11 9,22 20,26 6,1 12,-1 17,2 2,2 4,4 7,5 2,2 5,2 8,2 8,0 15,-6 18,-14 2,-7 2,-15 0,-23 -2,-8 -5,-15 -7,-23 -5,-17 -4,-33 1,-50 4,-16 11,-32 9,-49 -1,-4 -2,-8 -3,-12 -8,-25 -31,-46 -58,-52 -26,-6 -56,3 -73,23 -4,5 -8,11 -8,18 -1,9 7,18 16,22 8,4 19,4 28,3 5,-1 11,-2 15,1 5,4 0,14 4,17 3,-3 5,-6 8,-6 2,0 3,0 4,0z"/>
   <path class="fil41" d="M919 1917c0,0 -3,-23 -5,-32 -3,-9 -11,-11 -11,-11l2 28 14 15z"/>
   <path class="fil45" d="M943 1929l-15 29 -11 -7 -11 -7c-3,2 -7,4 -11,4 -7,2 -14,1 -19,-2l0 0c-3,-1 -6,-3 -8,-5 -9,-6 -25,-11 -21,-24 0,-1 1,-3 0,-4 0,-1 0,-2 -1,-3 -2,-4 -1,-10 1,-14 1,-1 2,-3 2,-4 0,-2 0,-3 0,-4 -1,-2 -1,-5 0,-8 2,-5 9,-8 14,-7 0,0 60,17 60,45l1 1 19 10z"/>
   <path class="fil46" d="M928 1958l-11 -7c2,-11 6,-25 7,-32l19 10 -1 2 -7 14 -2 4 -5 9z"/>
   <path class="fil5" d="M1170 1896l-2 -3c-10,-12 -29,-13 -41,-2l-86 82 -103 -51 -18 37 117 68c11,6 24,4 34,-4l97 -89c11,-10 12,-27 2,-38z"/>
   <polygon class="fil5" points="874,1854 813,1855 814,1872 876,1871 "/>
   <polygon class="fil51" points="2317,3049 2463,3049 2463,2795 2325,2795 "/>
   <path class="fil52" d="M2471 2809l0 240 -13 0 -8 -247 -6 247 -14 0 -8 -247 -7 247 -14 0 -8 -247 -6 247 -15 0 -7 -247 -7 247 -14 0 -8 -247 -6 247 -13 0 0 -240c0,-43 19,-81 46,-98 9,-6 20,-9 31,-9 16,0 31,7 43,19 21,19 34,51 34,88z"/>
   <path class="fil53" d="M2403 2737c-18,0 -33,-10 -40,-26 9,-6 20,-9 31,-9 16,0 31,7 43,19 -8,10 -20,16 -34,16z"/>
   <polygon class="fil52" points="2399,2672 2389,2672 2389,2518 2399,2518 "/>
   <path class="fil21" d="M2429 2684c0,20 -15,36 -35,36 -20,0 -35,-16 -35,-36 0,-19 15,-35 35,-35 20,0 35,16 35,35z"/>
   <polygon class="fil54" points="3547,3049 2574,3049 2574,2514 3547,2514 "/>
   <polygon class="fil55" points="3052,2602 2574,2602 2574,2541 3050,2541 "/>
   <polygon class="fil55" points="3547,3049 3138,3049 3138,2642 3138,2642 3139,2613 3140,2602 3215,2602 3215,2613 3217,2642 3301,2642 3302,2613 3302,2602 3547,2602 3547,3006 3547,3010 3547,3037 "/>
   <path class="fil56" d="M3547 2602l-245 0 3 -61 242 0 0 61zm-332 0l-75 0 2 -61 70 0 3 61z"/>
   <path class="fil57" d="M3913 2488l0 23c0,17 -14,30 -31,30l-1644 0c-17,0 -31,-13 -31,-30l0 -23c0,-17 14,-30 31,-30l1644 0c17,0 31,13 31,30z"/>
   <path class="fil58" d="M3913 2492l-606 0 1 -34 574 0c17,0 31,13 31,30l0 4zm-703 0l-66 0 2 -34 63 0 1 34zm-162 0l-841 0 0 -4c0,-17 14,-30 31,-30l809 0 1 34z"/>
   <path class="fil50" d="M3256 1964c3,-4 1,-10 -3,-14 -1,-1 -2,-1 -3,-3 -1,-2 1,-5 0,-8 0,-2 -3,-4 -5,-5 -10,-7 -23,-11 -35,-9 -4,0 -7,2 -11,2 -5,1 -11,0 -16,-1 -2,0 -4,1 -6,2 -1,-1 -3,-2 -5,-2 -6,1 -11,2 -16,1 -4,0 -8,-2 -11,-2 -12,-2 -25,2 -36,9 -2,1 -4,3 -5,5 0,3 1,6 0,8 0,2 -1,2 -2,3 -4,4 -7,10 -4,14 1,1 2,2 2,3 3,4 -1,9 -1,14 -1,4 1,9 5,11 2,1 4,2 6,3 3,5 -2,13 2,18 4,3 10,0 14,3 3,2 3,7 5,9 2,3 6,3 9,3 3,0 7,0 9,2 1,1 2,3 3,4 2,2 5,2 8,1 3,-1 5,-2 8,-2 2,0 3,0 4,1 2,0 4,0 5,0 2,0 4,0 5,0 2,-1 3,-1 4,-1 3,0 6,1 9,2 2,1 6,1 8,-1 1,-1 1,-3 3,-4 2,-2 5,-2 9,-2 3,0 6,0 8,-3 3,-2 3,-7 6,-9 3,-3 10,0 13,-3 5,-5 -1,-13 3,-18 1,-1 4,-2 6,-3 3,-2 5,-7 5,-11 -1,-5 -4,-10 -2,-14 1,-1 2,-2 2,-3z"/>
   <path class="fil20" d="M3143 2713l0 16c0,4 -3,7 -6,7l-81 0c-4,0 -7,-3 -7,-7l0 -17 0 -2 10 -27 7 -22 3 -38 55 0 6 38 6 23 7 28 0 1z"/>
   <path class="fil42" d="M3121 2697l-45 0c5,-16 9,-53 10,-74l22 0c0,7 2,16 3,24 4,21 10,50 10,50z"/>
   <path class="fil21" d="M3147 2717l0 17c0,4 -3,7 -7,7l-88 0c-3,0 -6,-3 -6,-7l0 -18 0 -2 4 -13c4,-12 14,-20 27,-23 6,-1 12,-1 19,-1 8,0 15,0 21,2 13,2 23,12 27,25l3 12 0 0 0 1z"/>
   <path class="fil5" d="M3150 2734c0,4 -3,7 -7,7l-93 0c-4,0 -7,-3 -7,-7l0 -16c0,-1 1,-2 2,-2l102 0c2,0 3,1 3,2 0,5 0,16 0,16z"/>
   <path class="fil20" d="M3211 2713l0 16c0,4 3,7 7,7l81 0c4,0 6,-3 6,-7l0 -17 0 -2 -9 -27 -8 -22 -2 -38 -55 0 -6 38 -6 23 -7 28 -1 1z"/>
   <path class="fil42" d="M3234 2697l45 0c-6,-16 -9,-53 -11,-74l-21 0c-1,7 -2,16 -4,24 -3,21 -9,50 -9,50z"/>
   <path class="fil21" d="M3208 2717l0 17c0,4 3,7 7,7l87 0c4,0 7,-3 7,-7l0 -18 0 -2 -4 -13c-4,-12 -15,-20 -27,-23 -6,-1 -13,-1 -20,-1 -7,0 -14,0 -21,2 -13,2 -23,12 -26,25l-3 12 0 0 0 1z"/>
   <path class="fil5" d="M3205 2734c0,4 3,7 7,7l93 0c4,0 7,-3 7,-7l0 -16c0,-1 -1,-2 -2,-2l-103 0c-1,0 -2,1 -2,2 0,5 0,16 0,16z"/>
   <path class="fil5" d="M3025 2192c0,0 -1,47 22,75 22,27 111,-75 111,-75l-133 0z"/>
   <path class="fil59" d="M3025 2192l-2 0 0 1c0,6 1,49 22,75 3,4 7,5 12,5 9,0 19,-5 30,-12 33,-23 72,-68 72,-68l3 -3 -139 0 0 2 2 0 0 2 133 0 0 -2 -2 -1c0,0 -4,5 -11,12 -10,11 -27,28 -44,42 -16,14 -33,25 -44,24 -4,0 -7,-1 -9,-4 -20,-24 -21,-66 -21,-72l0 -1 -2 0 0 2 0 -2z"/>
   <path class="fil42" d="M3107 2204l31 -180 -28 16c-35,19 -63,50 -78,88 -1,2 -2,4 -2,7 -4,11 -6,22 -6,34l-2 35 85 0z"/>
   <path class="fil42" d="M3248 2204l-32 -180 28 16c36,19 64,50 79,88 0,2 1,4 2,7 4,11 6,22 6,34l1 35 -84 0z"/>
   <path class="fil60" d="M3062 2357l-1 56c-1,28 16,52 37,52l159 0c21,0 38,-24 37,-52l-2 -56 -230 0z"/>
   <path class="fil21" d="M3299 2365l-8 -234c-1,-30 -12,-58 -32,-77l-8 -8c-20,-21 -47,-31 -74,-30 -27,-1 -53,9 -74,30l-8 8c-19,19 -31,47 -32,77l-8 234 244 0z"/>
   <path class="fil41" d="M3218 2036c0,4 -1,10 -3,15 -5,13 -13,26 -31,26l-14 0c-26,0 -32,-29 -33,-41 -1,-2 0,-5 2,-7 1,-1 3,-2 4,-2l1 -1 6 -43 55 0 5 43c2,0 4,1 6,3 2,2 2,5 2,7z"/>
   <path class="fil44" d="M3211 2051c-38,0 -58,-14 -68,-24l1 -1 2 -9c9,7 20,11 31,11 12,0 23,-4 32,-11l1 9c2,0 4,1 6,3 1,2 2,4 2,6 0,0 0,1 0,1 0,4 -1,10 -3,15l0 0c-2,0 -3,0 -4,0z"/>
   <path class="fil41" d="M3133 1952c0,10 -8,18 -18,18 -10,0 -18,-8 -18,-18 0,-3 1,-6 2,-8 3,-6 9,-9 16,-9 8,0 16,5 18,13 0,1 0,3 0,4z"/>
   <path class="fil41" d="M3258 1952c0,10 -8,18 -18,18 -10,0 -18,-7 -19,-16l0 -2c0,-9 8,-17 19,-17 9,0 17,7 18,16l0 1z"/>
   <path class="fil61" d="M3112 1945c-5,0 -10,-1 -13,-1 3,-5 7,-8 13,-9 -1,2 -1,4 -1,5l0 0c0,2 0,4 1,5z"/>
   <path class="fil62" d="M3242 1953c0,0 0,0 0,0l0 0c1,-4 1,-8 1,-13l0 0c0,-1 0,-3 0,-5 8,2 14,8 15,16 -5,1 -10,1 -16,2z"/>
   <path class="fil45" d="M3243 1940c0,5 0,9 -1,13 -4,42 -31,75 -65,75 -35,0 -63,-37 -65,-83 -1,-1 -1,-3 -1,-5 0,-17 4,-33 11,-46 11,-25 32,-41 55,-41 25,0 47,18 58,45 5,13 8,27 8,42z"/>
   <path class="fil46" d="M3218 1954c-38,0 -82,-5 -106,-9l0 0c-1,-1 -1,-3 -1,-5 0,-17 4,-33 11,-46l113 4c5,13 8,27 8,42 0,5 0,9 -1,13l0 0c-7,0 -15,1 -24,1z"/>
   <path class="fil24" d="M3149 2391l-10 222 -1 29 -84 0 -1 -29 -9 -222c0,-29 24,-53 52,-53 29,0 53,24 53,53z"/>
   <polygon class="fil63" points="3139,2613 3138,2642 3054,2642 3053,2613 "/>
   <path class="fil24" d="M3206 2391l9 222 2 29 84 0 1 -29 9 -222c0,-29 -24,-53 -53,-53 -29,0 -52,24 -52,53z"/>
   <polygon class="fil63" points="3215,2613 3217,2642 3301,2642 3302,2613 "/>
   <path class="fil57" d="M3314 2334l-273 0c-9,0 -16,-6 -17,-14l-10 -159c-1,-9 6,-17 15,-17l296 0c9,0 16,8 16,17l-11 159c0,8 -8,14 -16,14z"/>
   <path class="fil57" d="M3330 2339l0 0c0,5 -4,8 -8,8l-289 0c-5,0 -8,-3 -8,-8l0 0 0 -2c1,-3 4,-6 8,-6l289 0c3,0 7,3 7,6l1 2z"/>
   <path class="fil20" d="M3111 1922c0,0 -9,-70 39,-77l34 0 0 70 -41 5 -32 2z"/>
   <path class="fil20" d="M3244 1922c0,0 9,-70 -39,-77l-35 0 0 70 42 5 32 2z"/>
   <path class="fil21" d="M3187 1843l-7 0 -5 0 -7 0c-41,0 -44,30 -44,30l3 46 48 0 5 0 48 0 2 -46c0,0 -2,-30 -43,-30z"/>
   <path class="fil24" d="M3255 1937c0,-5 -5,-13 -9,-18 -4,-6 -14,-6 -14,-6l-50 -3 -10 0 -50 3c0,0 -9,0 -13,6 -4,5 -9,13 -9,18 0,0 29,-6 41,-6 7,0 19,0 29,1l0 0c0,0 3,0 7,0 5,0 7,0 7,0l0 0c10,-1 23,-1 30,-1 12,0 41,6 41,6z"/>
   <path class="fil64" d="M3251 1940c-49,-5 -99,-5 -148,0 -2,1 -4,-1 -4,-3 -1,-3 1,-5 3,-5 50,-6 100,-6 150,0 3,0 4,2 4,5 0,2 -2,4 -5,3z"/>
   <path class="fil5" d="M3169 2242l0 -9 8 -4 8 4 0 9 -8 5 -8 -5zm26 6l0 -21 -18 -10 -18 10 0 21 18 10 18 -10z"/>
   <path class="fil65" d="M3329 2337l-304 0c1,-3 4,-6 8,-6l289 0c3,0 7,3 7,6z"/>
   <path class="fil45" d="M1653 3029l0 11c0,3 -2,5 -5,5l-59 0c-3,0 -5,-2 -5,-5l0 -12 0 -2 7 -19 6 -17 46 0 4 17 6 21 0 1z"/>
   <path class="fil59" d="M1656 3032l0 12c0,3 -3,5 -5,5l-65 0c-2,0 -5,-2 -5,-5l0 -13 1 -2 7 -21c8,-4 19,-6 30,-6 11,0 22,2 31,7l5 21 0 1 1 1z"/>
   <path class="fil6" d="M1656 3032l0 12c0,3 -3,5 -5,5l-65 0c-2,0 -5,-2 -5,-5l0 -13 74 0 1 1z"/>
   <path class="fil45" d="M1676 3029l0 11c0,3 2,5 5,5l59 0c3,0 5,-2 5,-5l0 -12 0 -2 -7 -19 -5 -17 -47 0 -4 17 -6 21 0 1z"/>
   <path class="fil59" d="M1674 3032l0 12c0,3 2,5 5,5l64 0c2,0 5,-2 5,-5l0 -13 -1 -2 -7 -21c-8,-4 -18,-6 -29,-6 -12,0 -23,2 -32,7l-5 21 0 1 0 1z"/>
   <path class="fil6" d="M1674 3032l0 12c0,3 2,5 5,5l64 0c2,0 5,-2 5,-5l0 -13 -74 0 0 1z"/>
   <path class="fil45" d="M1830 1881c2,33 3,65 5,98 2,43 1,86 -6,129 0,5 -1,10 -2,15 -2,15 -7,41 -30,35 -13,-5 -17,-20 -18,-33 -2,-30 -2,-59 0,-88 3,-54 11,-107 18,-161 -3,-4 -6,-8 -7,-13 -1,-3 -2,-5 -3,-7 -4,-4 -7,-10 -7,-17 2,-12 16,-16 16,-16l0 -36c0,0 0,-11 4,-12 4,-1 8,3 9,14 0,5 0,16 1,26 0,3 3,5 6,5 16,0 28,15 28,33 0,12 -5,23 -14,28z"/>
   <path class="fil66" d="M1804 2159c-2,0 -4,-1 -7,-1 -13,-5 -17,-20 -18,-33 -1,-15 -1,-29 -1,-43 0,-15 0,-30 1,-45 12,10 37,35 50,71 0,3 0,7 -1,10 0,1 0,2 -1,3 0,1 0,1 0,2 -2,10 -4,25 -13,32 -1,1 -2,2 -4,3 -2,0 -4,1 -6,1z"/>
   <path class="fil45" d="M1646 2192c0,0 -96,146 -119,111 -16,-25 -22,-69 -24,-93 -1,-10 -1,-17 -1,-17l66 -1 78 0z"/>
   <path class="fil66" d="M1568 2220l-65 -10c-1,-10 -1,-17 -1,-17l66 -1 0 28z"/>
   <polygon class="fil41" points="1696,2029 1633,2029 1637,1995 1639,1979 1690,1979 1694,2009 "/>
   <path class="fil44" d="M1694 2009c-31,-1 -48,-9 -57,-14l1 -4c8,5 17,8 27,8 9,0 18,-3 27,-8l2 18z"/>
   <path class="fil59" d="M1583 2203l15 -167 -37 22c-26,19 -47,46 -59,78 -4,11 -6,22 -6,33l-1 34 88 0z"/>
   <path class="fil59" d="M1742 2172l-15 -136 37 17c28,17 89,73 51,107 -19,17 -50,12 -73,12z"/>
   <path class="fil67" d="M1777 2417l-3 62 -26 515 -75 0 0 -484c0,-5 -4,-8 -8,-8 -5,0 -8,3 -8,8l0 484 -76 0 -27 -540 -2 -37 225 0z"/>
   <polygon class="fil68" points="1774,2479 1554,2454 1552,2417 1777,2417 1774,2466 1774,2472 "/>
   <path class="fil42" d="M1746 2048l-8 -7c-20,-18 -47,-27 -73,-25l0 0c-27,-2 -53,7 -74,25l-7 7c-20,16 -31,40 -32,65l-13 327 91 0 70 0 90 0 -13 -327c-1,-25 -12,-49 -31,-65z"/>
   <path class="fil59" d="M1816 2476l-51 0c-7,0 -12,-5 -12,-12l0 -157c0,-6 5,-12 12,-12l51 0c6,0 12,6 12,12l0 157c0,7 -6,12 -12,12z"/>
   <path class="fil59" d="M1768 2341l-179 -300c-3,-4 -1,-9 3,-12l12 -7c4,-3 10,-1 12,3l179 300c3,4 2,10 -3,12l-12 7c-4,3 -10,2 -12,-3z"/>
   <path class="fil45" d="M1624 1928l0 1c0,9 -8,17 -17,17 -9,0 -16,-8 -16,-18 0,-2 0,-4 1,-6 2,-7 8,-12 15,-12 10,0 17,8 17,18z"/>
   <path class="fil45" d="M1739 1928c0,2 -1,4 -1,6 -2,7 -9,12 -16,12 -7,0 -13,-4 -15,-10 -1,-3 -2,-5 -2,-8 0,-10 8,-18 17,-18 9,0 17,8 17,18z"/>
   <path class="fil46" d="M1604 1925c-4,-1 -9,-2 -12,-3 2,-6 7,-11 12,-12 0,3 0,6 0,9l0 0c0,2 0,4 0,6l0 0c0,0 0,0 0,0z"/>
   <path class="fil46" d="M1724 1935c0,0 0,0 0,0l0 0c1,-5 1,-11 1,-16l0 0c0,-3 0,-6 0,-9 8,2 14,9 14,18 0,2 -1,4 -1,6l0 0c-5,0 -10,1 -14,1z"/>
   <path class="fil69" d="M1725 1919c0,5 0,11 -1,16 -6,36 -30,64 -59,64 -32,0 -58,-33 -61,-74 0,-2 0,-4 0,-6 0,-34 15,-62 37,-74 7,-4 15,-7 24,-7 8,0 16,3 23,7 22,12 37,40 37,74z"/>
   <path class="fil70" d="M1700 1936c-38,0 -73,-6 -96,-11l0 0c0,-2 0,-4 0,-6 0,-34 15,-62 37,-74l47 0c22,12 37,40 37,74 0,5 0,11 -1,16l0 0c-8,0 -16,1 -24,1z"/>
   <path class="fil59" d="M1730 1902c0,-1 0,-1 0,-2 0,-45 -29,-81 -65,-81 -37,0 -66,36 -66,81 0,1 0,1 0,2l131 0z"/>
   <path class="fil71" d="M1726 1917l-123 0c-4,0 -7,-3 -7,-7l0 -19c0,-5 3,-8 7,-8l123 0c4,0 7,3 7,8l0 19c0,4 -3,7 -7,7z"/>
   <path class="fil72" d="M44 3059l4146 0c5,0 9,-4 9,-10 0,-5 -4,-10 -9,-10l-4146 0c-6,0 -10,5 -10,10 0,6 4,10 10,10z"/>
  </g>
 </g>
</svg>
