<?xml version="1.0" encoding="UTF-8"?>
<!DOCTYPE svg PUBLIC "-//W3C//DTD SVG 1.1//EN" "http://www.w3.org/Graphics/SVG/1.1/DTD/svg11.dtd">
<!-- Creator: CorelDRAW X7 -->
<svg xmlns="http://www.w3.org/2000/svg" xml:space="preserve" width="42.3332mm" height="42.3332mm" version="1.1" style="shape-rendering:geometricPrecision; text-rendering:geometricPrecision; image-rendering:optimizeQuality; fill-rule:evenodd; clip-rule:evenodd"
viewBox="0 0 4233 4233"
 xmlns:xlink="http://www.w3.org/1999/xlink">
 <defs>
  <style type="text/css">
   <![CDATA[
    .fil9 {fill:#FEFEFE}
    .fil17 {fill:#FEFBF5}
    .fil62 {fill:#FDE9C4}
    .fil28 {fill:#FEE7AA}
    .fil55 {fill:#FDE3B3}
    .fil61 {fill:#FBE4D4}
    .fil58 {fill:#FDDF98}
    .fil27 {fill:#FBD28B}
    .fil42 {fill:#FAC871}
    .fil64 {fill:#F9C470}
    .fil31 {fill:#F8C06B}
    .fil41 {fill:#F7C2A9}
    .fil32 {fill:#F6B992}
    .fil63 {fill:#F4A873}
    .fil34 {fill:#F4A67B}
    .fil67 {fill:#F3A176}
    .fil16 {fill:#EE817E}
    .fil15 {fill:#EA5F5C}
    .fil65 {fill:#E94C46}
    .fil18 {fill:#E84944}
    .fil36 {fill:#E73A35}
    .fil30 {fill:#F7F9F8}
    .fil29 {fill:#F4FAFD}
    .fil8 {fill:#EFF8FC}
    .fil26 {fill:#EAF3F5}
    .fil0 {fill:#E8F5FA}
    .fil46 {fill:#E4EAEF}
    .fil56 {fill:#DFF1FA}
    .fil47 {fill:#DFE7F1}
    .fil45 {fill:#D8DFE6}
    .fil53 {fill:#D6EEFB}
    .fil51 {fill:#CCE9F9}
    .fil50 {fill:#CCE9F2}
    .fil2 {fill:#CCE0F1}
    .fil39 {fill:#AE4953}
    .fil38 {fill:#B4905F}
    .fil10 {fill:#C3D9E8}
    .fil43 {fill:#C1E5F9}
    .fil4 {fill:#C2D6E6}
    .fil66 {fill:#C0BABB}
    .fil59 {fill:#BC92A0}
    .fil1 {fill:#BED5EB}
    .fil49 {fill:#BCE2ED}
    .fil7 {fill:#B8CEE0}
    .fil6 {fill:#B6CBDE}
    .fil60 {fill:#AF8896}
    .fil3 {fill:#B3C9DD}
    .fil48 {fill:#B1D8DD}
    .fil13 {fill:#A2D8E8}
    .fil5 {fill:#A2BDD3}
    .fil57 {fill:#9BCDD8}
    .fil25 {fill:#80CCE2}
    .fil12 {fill:#7CCBE2}
    .fil54 {fill:#81C2CF}
    .fil20 {fill:#8797CB}
    .fil14 {fill:#6EC7E1}
    .fil21 {fill:#7B8EC7}
    .fil24 {fill:#5FC3E0}
    .fil11 {fill:#65BDD3}
    .fil35 {fill:#7789C3}
    .fil52 {fill:#63B2C4}
    .fil19 {fill:#6677B8}
    .fil23 {fill:#5E72B5}
    .fil44 {fill:#3F9FB7}
    .fil22 {fill:#4D62AB}
    .fil40 {fill:#435BA6}
    .fil37 {fill:#394E77}
    .fil33 {fill:#232F4F}
   ]]>
  </style>
 </defs>
 <g id="Layer_x0020_1">
  <metadata id="CorelCorpID_0Corel-Layer"/>
  <g id="_1729641470640">
   <path class="fil0" d="M3947 3451c69,-116 110,-252 141,-384 74,-314 106,-637 96,-959 -3,-88 -10,-178 -52,-255 -114,-209 -421,-219 -583,-393 -145,-154 -147,-408 -304,-551 -134,-123 -339,-124 -518,-95 -180,29 -364,81 -541,38 -114,-28 -214,-93 -316,-150 -196,-112 -430,-202 -644,-129 -211,73 -340,286 -427,492 -87,206 -157,430 -317,586 -70,67 -153,119 -225,183 -219,198 -310,526 -226,808 37,125 105,237 185,339 132,169 295,312 441,470l3290 0z"/>
   <path class="fil1" d="M3813 1520c-3,74 -15,193 -52,335 -2,9 -4,18 -7,27 -34,122 -86,261 -166,404 -5,8 -10,16 -14,24 -63,106 -141,215 -240,320 -9,10 -19,19 -28,29 -141,144 -321,280 -550,397 -21,10 -43,5 -57,-8 -6,-5 -10,-11 -13,-18 -5,-11 -5,-24 0,-38 39,-101 104,-258 192,-436 7,-14 14,-28 21,-42 69,-137 150,-283 243,-424 7,-11 14,-21 21,-32 79,-118 167,-232 262,-332 8,-8 15,-16 23,-24 91,-92 188,-171 290,-228 16,-9 34,-8 49,-1 6,4 11,8 16,14 7,9 11,20 10,33z"/>
   <path class="fil2" d="M3006 2613l-25 0 161 -227 0 -296c7,-11 14,-21 21,-32l0 204 -8 0 -8 94c0,17 7,31 19,41l-8 1 -152 215zm-107 0l-13 0 -8 -10 0 -47c7,-14 14,-28 21,-42l0 99zm363 -237l0 -21 89 -19c-11,9 -21,18 -31,28l-58 12zm-7 -114l-26 0 163 -230 33 -306c8,-8 15,-16 23,-24l-32 295 68 -96 2 34 -53 75 55 -26 1 22 -80 38 -154 218zm465 -364c0,0 0,0 0,0 1,-8 2,-16 4,-25l37 -18c-2,9 -4,18 -7,27l0 0 -34 16zm3 -299c-1,-10 -3,-19 -5,-28l69 -98c6,4 11,8 16,14l-80 112z"/>
   <path class="fil3" d="M4229 2263c-6,32 -16,62 -29,90 -4,7 -7,14 -10,20 -15,29 -32,56 -51,82 -28,40 -58,78 -91,115 -5,6 -11,12 -16,18 -5,4 -9,9 -14,14 -62,64 -130,122 -203,176 -7,5 -15,11 -23,16 -108,77 -225,143 -346,201 -9,5 -18,9 -27,14 -41,19 -82,37 -122,55 -80,35 -160,68 -241,100 -41,15 -164,85 -205,57l-1 -1c-5,-4 -9,-9 -12,-15 -25,-47 4,-148 16,-186 21,-69 56,-134 94,-196 50,-81 105,-159 165,-234 5,-8 11,-15 17,-22 76,-93 160,-180 251,-258 7,-5 13,-11 20,-16 57,-47 117,-91 180,-130 12,-7 25,-15 37,-22 7,-4 13,-8 20,-12 60,-34 123,-63 187,-88 9,-4 18,-7 26,-10 7,-3 14,-5 21,-7 44,-15 90,-25 136,-25 54,-1 111,15 153,49 6,4 11,9 16,14l2 2c49,52 63,129 50,199z"/>
   <path class="fil4" d="M3546 2613l-20 0 0 0 20 0 0 0zm486 -25l-346 -73 0 -21 362 76c-5,6 -11,12 -16,18l0 0zm-414 -38l-4 -7 -6 -12 5 -4 6 0 2 21 -3 2zm-217 -16l-20 -225c7,-5 13,-11 20,-16l20 231 -20 10zm285 -43l1 -29 164 -143 0 -288c7,-3 14,-5 21,-7l0 276 289 -252c6,4 11,9 16,14l-290 254 313 37c-4,7 -7,14 -10,20l0 0 -325 -39 -179 157z"/>
   <path class="fil5" d="M216 1079c53,26 136,71 228,142 6,5 11,9 17,14 79,63 163,144 242,247 4,6 9,12 13,18 58,79 113,169 158,274 4,10 9,20 13,30 60,147 103,321 117,524 1,18 -10,32 -24,39 -5,2 -11,4 -17,3 -9,0 -19,-3 -27,-11 -62,-60 -156,-157 -258,-276 -8,-9 -16,-19 -24,-29 -78,-92 -159,-197 -233,-309 -5,-8 -11,-16 -16,-25 -62,-95 -117,-194 -160,-294 -4,-8 -7,-17 -10,-25 -39,-95 -66,-190 -76,-282 -1,-15 5,-27 15,-35 4,-4 9,-7 15,-8 9,-2 18,-2 27,3z"/>
   <path class="fil6" d="M570 1698c-10,-6 -19,-11 -30,-17l-83 -135 -212 -120c-4,-8 -7,-17 -10,-25l205 116 -266 -433c4,-4 9,-7 15,-8l265 432 -10 -287c6,5 11,9 17,14l11 302 98 161z"/>
   <path class="fil3" d="M1070 1074c22,30 39,67 55,101 3,9 7,17 10,26 14,38 26,78 37,118 16,61 31,123 46,184 2,10 5,21 7,30 2,9 4,17 5,25 24,103 46,206 65,309 2,10 4,19 5,28 22,134 33,266 38,402 0,10 0,20 0,30 1,46 1,88 0,134 -1,91 -6,165 -10,263 -2,49 15,162 -33,205l-2 2c-6,2 -12,4 -19,3 -57,-2 -126,-60 -160,-91 -61,-58 -98,-109 -140,-170 -54,-80 -97,-156 -142,-239 -4,-8 -8,-16 -12,-24 -50,-102 -91,-204 -125,-313 -2,-8 -4,-14 -6,-24 -23,-88 -37,-176 -47,-269 -2,-18 -4,-45 -5,-66 0,-12 -1,-24 -1,-37 -4,-113 1,-228 15,-341 2,-15 4,-33 6,-46 2,-12 4,-25 6,-35 14,-63 32,-132 60,-186 33,-65 69,-104 134,-129 8,-3 13,-2 21,-4 1,0 1,0 3,0 84,7 137,48 189,114z"/>
   <path class="fil7" d="M637 1738c0,0 0,0 0,0 0,-3 0,-7 0,-10 0,3 0,7 0,10 0,0 0,0 0,0zm-1 -33c0,-2 0,-3 0,-4 0,0 0,0 0,0 0,1 0,2 0,4z"/>
   <path class="fil8" d="M1224 1528c-2,-7 -3,-14 -5,-21 2,7 3,14 5,21z"/>
   <path class="fil9" d="M657 1314c0,0 0,0 0,0 1,-3 1,-5 2,-7 -1,2 -1,4 -2,7zm6 -32c0,-1 0,-2 0,-3 0,0 0,0 0,0 0,0 0,0 0,0 0,1 0,2 0,3z"/>
   <path class="fil8" d="M1135 1201c-1,-2 -1,-3 -2,-4 1,1 1,2 2,4 0,0 0,0 0,0zm-10 -24c0,-1 0,-1 0,-2 0,0 0,0 0,0 0,0 0,0 0,0 0,1 0,1 0,2zm-268 -213c0,0 0,0 0,0 0,0 0,0 0,0 0,0 0,0 0,0zm12 -2c3,-1 6,-1 9,-1 -4,0 -6,0 -9,1z"/>
   <path class="fil10" d="M1078 2191c-13,-18 -25,-35 -38,-52 -24,-82 -49,-164 -70,-247 -118,-41 -226,-90 -333,-154 0,0 0,0 0,0 0,-3 0,-7 0,-10 -1,-8 -1,-16 -1,-23 0,-2 0,-3 0,-4 105,66 213,112 326,162 -25,-107 -45,-215 -59,-324 -85,-72 -165,-150 -246,-225 1,-3 1,-5 2,-7 1,-9 2,-17 4,-25 0,-1 0,-2 0,-3 0,0 0,0 0,0 80,71 156,146 234,219 -19,-178 -18,-357 -40,-534 0,0 0,0 0,0 4,-1 8,-2 12,-2 3,-1 5,-1 9,-1 0,0 0,0 0,0 22,175 22,354 40,530 60,-111 127,-218 207,-316 0,0 0,0 0,0 0,1 0,1 0,2 3,6 6,13 8,20 1,1 1,2 2,4 -80,105 -152,214 -212,331 14,109 34,216 59,322 20,-36 41,-71 62,-105 -2,17 -4,35 -5,52 -17,27 -33,55 -50,82 24,96 54,190 81,285 1,-1 1,-1 1,-2 2,6 4,13 5,19 1,2 1,4 2,6zm73 -99c-2,-10 -4,-19 -6,-28 23,-31 45,-61 68,-91 0,11 2,21 3,31 -22,29 -44,58 -65,88zm17 -482c7,-24 15,-49 23,-73 9,-11 18,-22 27,-34 0,2 1,3 1,4 2,7 3,14 5,21 0,2 1,4 1,5 -19,26 -38,52 -57,77z"/>
   <path class="fil1" d="M315 1605c32,1 63,8 94,17 7,2 14,5 21,7 30,11 59,25 87,40 44,22 85,48 126,75 6,5 13,10 20,14 5,4 10,8 15,12 72,53 139,113 201,178 7,7 13,14 19,20 91,98 171,206 245,318 6,8 11,17 17,25 24,38 48,76 71,114 45,74 88,149 130,226 20,38 106,151 83,195l-1 2c-3,5 -7,10 -13,13 -43,31 -147,16 -186,9 -72,-12 -141,-39 -207,-68 -87,-39 -172,-83 -254,-133 -8,-5 -16,-9 -24,-15 -102,-63 -199,-135 -288,-215 -6,-6 -12,-11 -18,-17 -55,-51 -106,-105 -152,-162 -10,-11 -19,-22 -28,-34 -4,-6 -9,-12 -14,-18 -41,-55 -79,-113 -112,-174 -4,-8 -9,-17 -13,-25 -3,-6 -7,-13 -10,-20 -20,-41 -36,-85 -42,-131 -8,-54 0,-112 28,-158 4,-6 8,-12 12,-17l2 -3c45,-55 120,-79 191,-75z"/>
   <path class="fil2" d="M882 2165l-21 0 18 -217c7,7 13,14 19,20l-16 197zm-211 0l-32 0 -19 -16 -74 16 -96 0 151 -34 -182 -159 -285 37c-3,-6 -7,-13 -10,-20l274 -36 -288 -253c4,-6 8,-12 12,-17l290 254 -3 -315c7,2 14,5 21,7l3 327 181 160 29 -372c6,5 13,10 20,14l-29 375 37 32z"/>
   <path class="fil11" d="M1932 3268l-1636 0c-29,0 -53,-24 -53,-53l0 -997c0,-29 24,-53 53,-53l614 0c19,0 37,11 47,29l58 110 917 0c30,0 53,24 53,53l0 858c0,29 -23,53 -53,53z"/>
   <polygon class="fil9" points="1957,3218 277,3218 277,2320 1957,2320 "/>
   <path class="fil12" d="M1985 2409l0 858c0,30 -23,53 -53,53l-1636 0c-29,0 -53,-23 -53,-53l0 -996c0,-30 24,-53 53,-53l614 0c19,0 37,10 47,28l58 110 917 0c30,0 53,24 53,53z"/>
   <path class="fil13" d="M1361 2401l-92 0c-9,-15 -17,-30 -25,-45l89 0c9,15 18,30 28,45zm-200 0l-146 0 -58 -110c-10,-18 -28,-29 -47,-29l-614 0c-29,0 -53,24 -53,53l0 -44c0,-30 24,-53 53,-53l614 0c19,0 37,10 47,28l58 110 124 0c7,15 15,30 22,45z"/>
   <path class="fil14" d="M1246 3320l-70 0c7,-32 5,-63 -6,-90 -20,-52 -69,-79 -110,-84 -3,-1 -7,-1 -10,-2 -15,-3 -30,-7 -45,-13 -3,-23 -22,-42 -46,-44l-48 -6c-16,-10 -33,-22 -49,-34l-13 -35c-3,-6 -8,-11 -14,-13l-18 -5 -1 0c-3,0 -11,-1 -23,-2 0,-1 -1,-1 -2,-2 2,-4 3,-6 3,-6l-12 -2c-57,-49 -115,-103 -170,-151 -1,-22 -2,-39 -3,-44 0,-3 -1,-6 -2,-9 -2,-10 -8,-20 -16,-26 -2,-1 -4,-2 -6,-3 -17,-13 -39,-21 -57,-27l5 -24c2,0 4,0 7,0 23,0 44,-15 51,-39l14 -91c11,4 21,9 31,15 141,88 335,420 490,420 3,0 6,0 9,0 4,-1 7,-1 10,-1 124,0 148,201 101,318zm-1003 -533l0 -163c55,-24 160,-66 258,-70l-9 35c-3,-3 -6,-5 -10,-5 -1,0 -2,0 -4,1 -9,3 -8,30 4,38l-1 1 -25 89c-26,-14 -50,-24 -73,-28 -7,-1 -14,-2 -21,-2 -24,0 -47,8 -66,26 -21,20 -38,47 -53,78z"/>
   <path class="fil15" d="M3241 3224l0 221 -831 0c-18,0 -33,-15 -33,-33l0 -155c0,-18 15,-33 33,-33l831 0z"/>
   <path class="fil16" d="M4072 3445l-875 0c-17,0 -30,-16 -30,-36l0 -148c0,-20 13,-37 30,-37l875 0 0 42 -42 0 0 138 42 0 0 41z"/>
   <polygon class="fil17" points="4030,3404 3217,3404 3217,3266 4030,3266 "/>
   <path class="fil18" d="M3090 3445l-262 0c0,0 0,0 0,0l0 0c0,0 -36,-92 -59,-140 93,52 211,111 321,140zm-446 -216c-7,-2 -13,-3 -20,-5l13 0c2,2 4,3 7,5z"/>
   <path class="fil8" d="M3322 3305l199 0 -118 28c-3,1 -7,1 -10,0l-71 -28z"/>
   <polygon class="fil8" points="3711,3319 3879,3319 3879,3309 3711,3309 "/>
   <polygon class="fil8" points="3513,3349 3694,3349 3694,3339 3513,3339 "/>
   <path class="fil19" d="M3690 2795l0 429 -1151 0c-20,0 -37,-16 -37,-37l0 -355c0,-21 17,-37 37,-37l1151 0z"/>
   <path class="fil20" d="M4109 3224l-872 0c-21,0 -37,-16 -37,-37l0 -355c0,-21 16,-37 37,-37l872 0 0 55 -70 0 0 319 70 0 0 55z"/>
   <path class="fil21" d="M2682 3103c-13,-9 -25,-18 -36,-27l0 -178c12,-6 24,-12 36,-18l0 70 -2 3 -24 36 8 14 18 0 0 100z"/>
   <path class="fil21" d="M2758 3147c-12,-6 -24,-13 -36,-19l0 -124 36 0 0 143zm-36 -256l0 -33c12,-7 24,-14 36,-21l0 35 -36 19z"/>
   <path class="fil21" d="M3065 3224l-32 0c-2,0 -3,0 -4,0l0 -350 36 -19 0 369z"/>
   <path class="fil22" d="M3033 3224l-396 0 -13 0c-34,-7 -74,-13 -117,-19 -3,-5 -5,-11 -5,-18l0 -233c6,-2 12,-4 18,-6 29,39 70,85 126,128l0 148 36 0 0 -121c13,8 26,16 40,25l0 96 36 0 0 -77c74,37 163,66 271,77l0 0 4 0c0,0 0,0 0,0z"/>
   <path class="fil23" d="M2682 3224l-36 0 0 -148c11,9 23,18 36,27l0 121z"/>
   <path class="fil23" d="M2758 3224l-36 0 0 -96c12,6 24,13 36,19l0 77z"/>
   <path class="fil23" d="M3033 3224l-4 0 0 0c1,0 2,0 4,0z"/>
   <polygon class="fil17" points="4060,3169 3262,3169 3262,2850 4060,2850 "/>
   <path class="fil8" d="M3777 2983l-373 0 240 66c6,2 14,1 20,-2l113 -64z"/>
   <polygon class="fil8" points="3805,2940 4021,2940 4021,2929 3805,2929 "/>
   <polygon class="fil8" points="3383,3092 3619,3092 3619,3081 3383,3081 "/>
   <path class="fil12" d="M4030 2634l0 140c0,11 -9,21 -21,21l-1253 0c-12,0 -21,-10 -21,-21l0 -140c0,-11 9,-21 21,-21l1253 0c12,0 21,10 21,21z"/>
   <path class="fil13" d="M3738 2754l0 -141 151 0 0 134c-47,4 -98,6 -151,7z"/>
   <path class="fil13" d="M3690 2754c-22,-1 -45,-1 -68,-2l0 -139 68 0 0 141z"/>
   <path class="fil24" d="M4009 2795l-667 0c-3,-5 -5,-8 -5,-8l-2 0c-9,-19 -17,-36 -22,-54 102,9 208,17 309,19l0 43 68 0 0 -41c8,0 16,0 24,0 8,0 16,0 24,0l0 41 151 0 0 -48c53,-4 100,-12 141,-22l0 49c0,11 -9,21 -21,21zm-1104 0l-85 0c33,-24 65,-50 95,-78 8,-7 13,-18 14,-28 36,5 74,10 114,15l-28 33 -110 58zm-170 -55l0 -80c18,3 45,7 78,12l4 6c-26,22 -54,43 -82,62z"/>
   <path class="fil25" d="M3889 2795l-151 0 0 -41c53,-1 104,-3 151,-7l0 48z"/>
   <path class="fil25" d="M3690 2795l-68 0 0 -43c23,1 46,1 68,2l0 41z"/>
   <path class="fil26" d="M1441 3462c0,46 85,181 -292,148 -556,-49 -1079,-102 -1079,-148 0,-46 307,-84 686,-84 378,0 685,38 685,84z"/>
   <path class="fil27" d="M1134 3404c-15,19 -38,41 -76,41 -210,4 -429,18 -641,16 -95,0 -147,-55 -182,-137 -73,-176 -54,-507 61,-615 25,-23 54,-30 87,-24 177,31 451,419 667,459 3,1 7,1 10,2 41,5 90,32 110,84 20,51 9,121 -36,174z"/>
   <path class="fil28" d="M454 3462c-12,0 -25,0 -37,-1 -95,0 -147,-55 -182,-137 -29,-69 -43,-162 -43,-256 0,-146 35,-293 104,-359 7,-6 14,-11 21,-15 -88,132 -98,420 -31,580 35,82 86,136 182,137 12,0 24,0 37,0 102,0 206,-3 310,-7l0 3 7 -1 8 46c-125,5 -252,10 -376,10zm434 -12l-3 -49c25,-1 50,-1 75,-2l8 48c-27,1 -53,2 -80,3z"/>
   <path class="fil29" d="M1143 3393c0,0 0,0 0,0 2,-2 3,-5 5,-7 -2,2 -3,5 -5,7z"/>
   <path class="fil30" d="M1026 3446l0 0c11,0 21,-1 32,-1 38,0 61,-22 76,-41 4,-3 7,-7 9,-11 0,0 0,0 0,0 -2,4 -5,8 -9,11 -15,19 -38,41 -76,41 -11,0 -21,1 -32,1z"/>
   <path class="fil28" d="M1026 3446l-3 -49c29,-1 57,-2 85,-2 16,-1 30,-5 41,-11 0,1 -1,2 -1,2 -2,2 -3,5 -5,7 -2,4 -5,8 -9,11 -15,19 -38,41 -76,41 -11,0 -21,1 -32,1z"/>
   <path class="fil31" d="M600 3224c-90,0 -165,-10 -198,-34 -106,-76 -22,-502 -22,-502 1,-1 2,-2 3,-3 23,4 47,14 73,28l0 3c-15,3 -27,9 -36,20 -39,49 8,288 -8,333l-1 0c0,4 0,7 0,11 0,60 47,110 108,113l257 12 1 8c-59,7 -121,11 -177,11zm273 -25l-3 -21 16 0 26 2 2 11c-13,3 -27,5 -41,8zm135 -35l-3 -32c0,0 0,-1 0,-1 15,6 30,10 45,13 -11,7 -25,14 -42,20zm-97 -83l-16 -1 -154 -16c4,-3 7,-6 9,-10 0,0 0,0 0,0 5,-3 9,-8 14,-14 3,-1 5,-1 7,-2 2,4 5,7 9,8l16 6c2,1 3,1 5,1 5,0 9,-1 12,-5l3 -2 22 8c0,0 0,1 1,1 2,0 4,-3 2,-5l-5 -8c0,0 0,0 1,-1l2 -1 20 14c0,0 1,0 1,0 2,0 4,-2 3,-4l-1 -3c16,12 33,24 49,34zm-486 -13c22,-2 44,-4 67,-6 0,0 0,0 0,0l-67 6zm67 -6c10,-1 20,-2 30,-3 2,0 4,0 6,0l-36 3zm301 -70c-1,-1 -1,-1 -2,-1 0,0 0,-1 0,-1 1,1 2,1 2,2zm-11 -10l-166 -20c-2,-45 -3,-96 -4,-131 55,48 113,102 170,151z"/>
   <path class="fil32" d="M506 2537l-14 52c-3,-3 -8,-7 -14,-4 -9,3 -8,30 4,38l-1 1 -31 109 72 21 11 -56c26,3 51,-13 58,-39l15 -94 -100 -28z"/>
   <path class="fil33" d="M473 2653l8 -29c-13,-16 -10,-37 -3,-39 7,-3 14,4 14,4 0,0 8,19 28,10 20,-8 22,-40 22,-40 19,7 36,16 55,17 3,0 5,0 7,-2l-2 15c18,-5 33,-19 38,-37 2,-5 2,-11 1,-17 -2,-3 -4,-7 -7,-10 -6,-6 -14,-10 -22,-14 -16,-6 -35,-8 -53,-8 -11,0 -23,1 -34,4 -11,3 -21,9 -29,17 0,0 -39,-8 -41,38 -3,47 18,91 18,91z"/>
   <path class="fil34" d="M529 2716c-34,-4 -32,-54 -32,-54 4,31 36,36 36,36l-4 18z"/>
   <polygon class="fil32" points="980,3525 1006,3534 1031,3520 1022,3377 957,3383 "/>
   <path class="fil19" d="M1110 3554l0 0c-1,2 -1,7 -5,7l-142 0c-3,0 -2,-3 -2,-5l1 -1 0 -1c3,-5 4,-11 5,-17 0,-5 -1,-11 1,-16 2,-4 6,-8 10,-7 5,0 9,5 13,9 2,1 4,2 6,3 5,2 11,0 14,-4 6,-6 15,-10 23,-8 7,2 12,8 18,13 15,13 33,20 53,20 2,0 4,3 5,7z"/>
   <path class="fil35" d="M963 3561c-1,0 -1,0 -1,0l5 0c4,0 5,-5 5,-7l0 0 138 0 0 0c-1,2 -1,7 -5,7l-142 0z"/>
   <path class="fil15" d="M1026 3385l-51 6 -25 3 -20 -115 0 0 -18 -99 -26 -2 -231 -10c-59,-3 -106,-51 -108,-109 0,-2 0,-3 0,-5 0,-3 0,-7 1,-11l347 37 64 7c24,2 43,21 46,45l5 52 14 169 2 30 0 2z"/>
   <path class="fil18" d="M886 3178l-16 0 -2 -21c-2,-24 -21,-42 -45,-45l-64 -7 -116 -31 179 27c29,5 52,27 59,55l5 22z"/>
   <path class="fil18" d="M912 3180c0,0 0,0 0,0 0,-1 16,-24 28,-26 0,0 -12,20 -28,26z"/>
   <path class="fil18" d="M912 3180c0,0 -2,-29 6,-37 0,0 3,23 -6,37 0,0 0,0 0,0l0 0z"/>
   <path class="fil36" d="M912 3180c0,0 0,0 0,0 0,0 0,0 0,0l0 0z"/>
   <path class="fil18" d="M950 3394l-20 -115 0 0c0,0 26,82 35,83 0,0 1,0 1,0 8,0 36,-5 58,-9l2 30 -51 8 -16 2 -9 1z"/>
   <path class="fil15" d="M945 3385l3 14c1,2 3,4 6,4l74 -10c3,-1 5,-3 5,-5l0 -21c0,-3 -3,-5 -6,-5l-74 11c-6,0 -10,6 -8,12z"/>
   <polygon class="fil32" points="842,3525 868,3534 892,3520 884,3377 819,3383 "/>
   <path class="fil19" d="M972 3554l0 0c0,2 -1,7 -5,7l-142 0c-3,0 -2,-3 -1,-5l0 -1 1 -1c2,-5 4,-11 4,-17 0,-5 0,-11 2,-16 1,-4 5,-8 9,-7 6,0 9,5 14,9 1,1 4,2 6,3 5,2 10,0 14,-4 5,-6 14,-10 22,-8 7,2 13,8 18,13 15,13 34,20 53,20 3,0 4,3 5,7z"/>
   <path class="fil35" d="M825 3561c-1,0 -2,-1 -2,-2 0,-1 0,-2 1,-3l0 -1 1 -1 147 0 0 0c0,2 -1,7 -5,7l-5 0 -137 0z"/>
   <path class="fil15" d="M891 3398l-76 9 -18 -90 0 0 -21 -112 -257 -12c-61,-3 -108,-53 -108,-113 0,-4 0,-7 0,-11l162 -14 186 50 64 7c24,3 43,21 45,45l6 53 15 159 2 29z"/>
   <path class="fil18" d="M776 3205c0,0 6,-19 18,-22l-18 22z"/>
   <path class="fil18" d="M776 3205c0,0 0,0 0,0 0,0 11,-9 23,-11 0,0 -12,11 -23,11z"/>
   <polygon class="fil18" points="815,3407 797,3317 823,3377 889,3369 891,3398 885,3399 822,3406 "/>
   <path class="fil15" d="M808 3400l4 14c0,2 3,4 5,4l75 -10c3,0 5,-2 5,-5l0 -20c0,-4 -3,-6 -6,-6l-74 11c-6,1 -10,7 -9,12z"/>
   <path class="fil9" d="M988 2892c-5,-3 -12,-1 -15,5l-87 164 -188 0c-6,0 -11,5 -11,11 0,6 5,11 11,11l192 0 2 0c4,0 8,-2 10,-6l91 -170c3,-5 1,-12 -5,-15z"/>
   <path class="fil32" d="M863 3050l-14 -38c-3,-6 -8,-11 -14,-13l-18 -5 -1 0c-15,-2 -132,-15 -209,-20 -1,0 -2,-1 -2,-3 2,-22 14,-210 -22,-221 -55,-17 -66,75 -59,191 1,10 2,26 3,43 3,31 28,56 59,57 10,0 20,1 30,1 61,1 140,0 185,-14 1,2 2,3 3,3l15 10c5,4 12,4 18,0l2 -1 20 14c2,1 5,-1 4,-4z"/>
   <path class="fil19" d="M522 2997c-4,-43 -13,-152 3,-212 4,-18 17,-33 35,-37 9,-3 21,-3 31,4 10,8 16,20 16,33l4 176 183 23c0,0 -24,58 -44,70 -15,10 -137,11 -195,-13 -19,-7 -31,-24 -33,-44z"/>
   <path class="fil19" d="M471 2714l0 0c-2,2 -37,39 -78,85 -43,48 -90,28 -117,-3 -22,-26 -5,-95 39,-118 8,-4 17,-6 27,-7 38,-2 76,14 101,26 2,1 3,2 5,3 14,8 23,14 23,14z"/>
   <path class="fil37" d="M471 2714l0 0c-4,1 -129,33 -153,2 -8,-12 -10,-27 -3,-38 8,-4 17,-6 27,-7 38,-2 76,14 101,26 2,1 3,2 5,3 7,4 15,9 23,14z"/>
   <path class="fil19" d="M624 3050c-9,-24 -11,-241 -15,-263 -8,-47 -70,-62 -100,-70 -30,-9 -70,-4 -89,19 -39,49 8,289 -8,333 70,-7 141,-12 212,-19z"/>
   <path class="fil32" d="M841 3050l-23 -33c-4,-6 -11,-9 -17,-9l-18 -1c-16,-3 -166,-34 -238,-44 -6,-52 -30,-234 -80,-237 -57,-2 -45,90 -9,200 6,19 21,58 31,82 5,11 15,18 26,20 16,2 39,6 66,9 63,7 147,13 192,1 2,4 5,7 9,8l16 6c6,3 13,1 17,-4l3 -2 22 8c2,1 5,-2 3,-4z"/>
   <path class="fil19" d="M762 3003l-1 2c0,16 -3,48 -20,59 -19,12 -168,-14 -228,-25 -16,-3 -30,-14 -36,-29 -18,-45 -55,-143 -61,-209 -2,-17 0,-35 7,-51 9,-22 34,-39 71,-14 20,13 33,41 43,73 5,17 8,34 11,52 9,49 9,93 9,93l143 28 58 11c2,0 3,2 3,4 0,1 1,3 1,6z"/>
   <path class="fil38" d="M492 3062c0,0 0,0 0,0 10,-1 20,-2 30,-3 -10,1 -20,2 -30,3l0 0z"/>
   <path class="fil39" d="M492 3062c0,0 0,0 0,0l0 0c0,0 0,0 0,0z"/>
   <path class="fil40" d="M492 3062c-7,-5 -12,-12 -15,-19 -18,-45 -55,-144 -61,-210 -1,-9 -1,-18 0,-26 4,31 14,68 25,104 6,18 12,37 18,53 7,18 13,34 18,46l0 0c6,15 20,26 36,29 20,3 49,9 80,14 -24,2 -47,4 -71,6 -10,1 -20,2 -30,3z"/>
   <path class="fil40" d="M477 3010c-5,-12 -11,-28 -18,-46 7,18 13,34 18,46zm-36 -99c-11,-36 -21,-73 -25,-104 0,-1 0,-1 0,-1 4,32 14,69 25,105z"/>
   <polygon class="fil41" points="770,3006 761,3005 762,3003 "/>
   <polygon class="fil35" points="562,2955 562,2955 562,2955 "/>
   <path class="fil35" d="M761 3005l-181 -32c-9,-1 -17,-5 -24,-11 -5,4 -12,8 -23,11 0,0 8,-8 17,-13 -4,0 -9,1 -15,1 -4,0 -8,0 -13,-1 0,0 13,-4 26,-5 -7,-9 -11,-20 -12,-32l1 -114c5,17 8,34 11,52 9,49 9,93 9,93l5 1 0 0 0 0 138 27 62 21 -1 2z"/>
   <path class="fil26" d="M2930 3511c0,58 -534,100 -986,162 -454,62 -717,-104 -717,-162 0,-58 417,-104 874,-104 458,0 829,47 829,104z"/>
   <path class="fil27" d="M2828 3445c0,1 0,2 0,4 0,48 -218,89 -519,102l0 0c-69,3 -141,5 -216,5 -21,0 -41,0 -61,-1 -378,-4 -675,-50 -675,-106 0,-2 1,-3 1,-4l-1 0c5,-33 70,-156 70,-156l4 0 7 0 421 -2 55 -1 369 -2 26 0 448 -2c19,30 71,163 71,163l0 0z"/>
   <path class="fil42" d="M2758 3289c0,59 -298,107 -665,107 -368,0 -666,-48 -666,-107 0,-59 298,-107 666,-107 367,0 665,48 665,107z"/>
   <path class="fil27" d="M2292 3279c-2,2 -6,5 -10,6 -160,50 -320,15 -378,-1 -14,-4 -22,-18 -18,-32 17,-54 57,-142 67,-164 1,-1 1,-3 1,-3 1,-2 1,-2 1,-2l275 0c21,36 51,120 67,165 0,1 1,3 2,4 3,10 0,20 -7,27z"/>
   <path class="fil42" d="M2230 3085c0,14 -61,25 -137,25 -76,0 -138,-11 -138,-25 0,-14 62,-26 138,-26 76,0 137,12 137,26z"/>
   <path class="fil43" d="M3102 1886c0,23 0,46 -2,69 -18,247 -131,468 -302,627 -119,109 -265,189 -428,226 -69,16 -141,25 -215,25 -284,0 -539,-125 -712,-324 -93,-105 -162,-231 -200,-370 -17,-60 -28,-122 -32,-186 -2,-22 -2,-45 -2,-67 0,-521 420,-944 941,-947 2,0 4,0 5,0 34,0 67,2 99,5 78,8 152,25 223,51 24,9 47,18 69,28 174,79 320,209 418,370 8,13 16,26 23,40 74,134 115,289 115,453z"/>
   <path class="fil44" d="M2040 1404c-23,100 68,195 62,297 -5,87 -78,153 -148,203 -22,15 -44,30 -59,52 -24,35 -24,81 -28,124 -7,85 -38,172 -104,227 -65,55 -170,67 -235,11 -48,-41 -69,-110 -125,-138 -35,-17 -77,-15 -115,-24 -16,-4 -31,-10 -45,-17 -23,-81 -34,-166 -34,-253 0,-521 420,-944 941,-947 40,97 26,242 -22,319 -30,48 -76,90 -88,146z"/>
   <path class="fil44" d="M2964 1393l-1 2c-18,25 -48,39 -77,50 -60,23 -124,39 -188,39 -59,1 -129,-20 -147,-77 -13,-43 10,-90 4,-135 -10,-87 -144,-186 -78,-277 204,74 376,216 487,398z"/>
   <path class="fil44" d="M1948 2362c12,37 50,58 84,76 35,17 73,34 112,30 41,-5 77,-33 103,-65 26,-32 45,-69 70,-102 34,-46 79,-83 113,-130 33,-46 56,-107 36,-161 -24,-68 -103,-98 -175,-108 -101,-14 -227,6 -260,116 -14,43 -15,90 -27,134 -17,62 -78,144 -56,210z"/>
   <path class="fil44" d="M3100 1955c-18,247 -131,468 -302,627 -18,-51 -16,-119 -3,-151 13,-32 37,-59 59,-86 55,-69 101,-146 135,-227 16,-40 30,-81 56,-116 15,-19 33,-36 55,-47z"/>
   <path class="fil27" d="M2155 3005c-502,0 -945,-337 -1079,-820 -27,-97 -40,-198 -40,-299 0,-438 258,-838 656,-1019 22,-10 47,-3 60,17l61 99 -79 50 -40 -63c-344,174 -564,529 -564,916 0,93 13,185 37,273 122,443 529,752 988,752 249,0 483,-82 662,-233l-45 -54 73 -60 74 88c16,20 14,48 -4,65 -201,186 -471,288 -760,288z"/>
   <path class="fil29" d="M2155 3005c-57,0 -114,-4 -170,-13l0 0c56,9 113,13 170,13 3,0 6,0 9,0 -3,0 -6,0 -9,0z"/>
   <path class="fil45" d="M1071 2166c-10,-39 -18,-78 -23,-118 5,40 13,79 23,118 0,0 0,0 0,0z"/>
   <path class="fil46" d="M1078 2191c0,0 0,0 0,0 -1,-2 -1,-4 -2,-6 -1,-6 -3,-13 -5,-19 0,0 0,0 0,0 2,6 4,12 5,19 1,2 1,4 2,6z"/>
   <path class="fil47" d="M1117 2304l-1 0c-14,-37 -27,-75 -38,-113 0,0 0,0 0,0 11,38 24,76 39,113z"/>
   <path class="fil48" d="M1985 2992l0 0 0 0 0 0zm-862 -672l0 0c-2,-5 -4,-11 -7,-16l1 0c2,5 4,11 6,16z"/>
   <path class="fil9" d="M1139 2356l0 0c-5,-12 -11,-24 -16,-36l0 0c5,12 11,24 16,36z"/>
   <path class="fil49" d="M1985 2992c-353,-54 -660,-276 -824,-591l0 0c164,315 471,537 824,591l0 0z"/>
   <path class="fil50" d="M1161 2401l0 0c-7,-15 -15,-30 -22,-45l0 0c7,15 15,30 22,45z"/>
   <path class="fil45" d="M1036 1891c0,0 0,0 0,0 0,0 0,0 0,0zm0 -1c0,0 0,-1 0,-2 0,1 0,2 0,2zm0 -2c0,-1 0,-1 0,-1 0,0 0,0 0,1zm0 -2c0,0 0,0 0,0l0 0c0,0 0,0 0,0z"/>
   <path class="fil29" d="M1226 1262c114,-169 274,-308 466,-395 2,-1 4,-2 6,-3 -2,1 -4,2 -6,3 -192,87 -352,226 -466,395z"/>
   <path class="fil28" d="M2155 3005c-57,0 -114,-4 -170,-13l0 0c-353,-54 -660,-276 -824,-591 -7,-15 -15,-30 -22,-45l0 0c-5,-12 -11,-24 -16,-36 -2,-5 -4,-11 -6,-16 -15,-37 -28,-75 -39,-113 -1,-2 -1,-4 -2,-6 -1,-7 -3,-13 -5,-19 -10,-39 -18,-78 -23,-118 -8,-52 -12,-104 -12,-157 0,0 0,0 0,0 0,0 0,-1 0,-1 0,0 0,-1 0,-2 0,0 0,0 0,0 0,-1 0,-1 0,-1 0,0 0,0 0,-1 0,0 0,0 0,0 0,-226 69,-442 190,-624 114,-169 274,-308 466,-395 2,-1 4,-2 6,-3 5,-1 9,-2 14,-2 8,0 17,3 24,7 -395,183 -650,581 -650,1017 0,101 13,202 40,299 131,475 562,809 1054,820 -6,0 -11,0 -16,0 -3,0 -6,0 -9,0z"/>
   <path class="fil27" d="M2667 2683c0,0 131,-91 220,-196 0,0 30,201 -220,196z"/>
   <path class="fil27" d="M1939 964c0,0 -153,42 -273,111 0,0 40,-200 273,-111z"/>
   <path class="fil51" d="M1853 2586c-145,0 -283,-28 -410,-77l0 0c-93,-105 -162,-231 -200,-370 14,7 29,13 45,17 38,9 80,7 115,24 56,28 77,97 125,138 29,25 66,36 104,36 47,0 95,-17 131,-47 15,-13 29,-27 40,-43 17,1 33,1 50,1 36,0 72,-2 108,-7 -14,36 -23,72 -13,104 12,37 50,58 84,76 32,16 65,31 100,31 4,0 8,-1 12,-1 41,-5 77,-33 103,-65 26,-32 45,-69 70,-102 34,-46 79,-83 113,-130 33,-46 56,-107 36,-161 -2,-5 -4,-11 -7,-16 117,-130 193,-298 206,-484 1,-9 1,-18 2,-27 9,1 19,1 28,1 1,0 2,0 3,0 64,0 128,-16 188,-39 29,-11 59,-25 77,-50l1 -2c6,10 12,20 18,30 1,6 3,13 5,18 0,3 0,6 0,10 0,28 -1,55 -3,82 -21,297 -156,562 -362,752 -142,131 -318,226 -512,271 -83,19 -169,30 -257,30z"/>
   <path class="fil51" d="M1212 1968c0,-5 -1,-10 -1,-15 0,0 0,0 0,0 0,5 1,10 1,15z"/>
   <path class="fil52" d="M1632 2354c-38,0 -75,-11 -104,-36 -48,-41 -69,-110 -125,-138 -35,-17 -77,-15 -115,-24 -16,-4 -31,-10 -45,-17l0 0c-15,-55 -26,-112 -31,-171l0 0c0,-5 -1,-10 -1,-15 139,178 352,297 592,311 -11,16 -25,30 -40,43 -36,30 -84,47 -131,47z"/>
   <path class="fil52" d="M2695 1484c-9,0 -19,0 -28,-1 0,-11 0,-22 0,-32 0,-155 -43,-301 -119,-424 0,-1 -1,-3 -2,-4 174,79 320,209 418,370l-1 2c-18,25 -48,39 -77,50 -60,23 -124,39 -188,39 -1,0 -2,0 -3,0z"/>
   <path class="fil52" d="M2132 2469c-35,0 -68,-15 -100,-31 -34,-18 -72,-39 -84,-76 -10,-32 -1,-68 13,-104 26,-3 51,-8 76,-14 140,-32 266,-101 368,-195 19,-17 37,-36 54,-55 3,5 5,11 7,16 20,54 -3,115 -36,161 -34,47 -79,84 -113,130 -25,33 -44,70 -70,102 -26,32 -62,60 -103,65 -4,0 -8,1 -12,1z"/>
   <path class="fil53" d="M1853 2265c-17,0 -33,0 -50,-1 39,-52 59,-119 64,-184 4,-43 4,-89 28,-124 15,-22 37,-37 59,-52 69,-49 141,-114 148,-199 60,-59 99,-139 106,-228 0,-9 1,-18 1,-26 0,-68 -19,-131 -52,-185 -6,-10 -12,-19 -18,-27 39,-80 48,-211 11,-300 2,0 4,0 5,0 34,0 67,2 99,5 78,8 152,25 223,51 -66,91 68,190 78,277 6,45 -17,92 -4,135 15,47 65,70 116,76 -1,9 -1,18 -2,27 -13,186 -89,354 -206,484 -30,-57 -102,-83 -168,-92 -18,-3 -37,-4 -55,-4 -88,0 -178,30 -205,120 -14,43 -15,90 -27,134 -8,32 -29,69 -43,106 -36,5 -72,7 -108,7z"/>
   <path class="fil53" d="M1211 1953c0,0 0,0 0,0l0 0c-2,-22 -2,-45 -2,-67l0 0c0,22 0,45 2,67z"/>
   <path class="fil54" d="M1803 2264c-240,-14 -453,-133 -592,-311 -2,-22 -2,-45 -2,-67 0,-350 189,-656 471,-819 115,-63 251,-101 259,-103 68,-16 138,-25 211,-25 37,89 28,220 -11,300 -42,-56 -99,-99 -166,-123 -26,-10 -54,-16 -83,-19 -13,-2 -25,-2 -37,-2l-3 0c-195,1 -353,160 -353,356 0,33 4,64 12,95 42,150 180,261 344,261 27,0 54,-3 80,-10 61,-14 116,-44 161,-85 3,-2 5,-5 8,-7 -7,85 -79,150 -148,199 -22,15 -44,30 -59,52 -24,35 -24,81 -28,124 -5,65 -25,132 -64,184z"/>
   <path class="fil54" d="M2667 1483c-51,-6 -101,-29 -116,-76 -13,-43 10,-90 4,-135 -10,-87 -144,-186 -78,-277 0,0 0,0 0,0 24,9 47,18 69,28l0 0c1,1 2,3 2,4 76,123 119,269 119,424 0,10 0,21 0,32z"/>
   <path class="fil54" d="M1961 2258c14,-37 35,-74 43,-106 12,-44 13,-91 27,-134 27,-90 117,-120 205,-120 18,0 37,1 55,4 66,9 138,35 168,92 -17,19 -35,38 -54,55 -102,94 -228,163 -368,195 -25,6 -50,11 -76,14z"/>
   <path class="fil55" d="M1680 1067c80,-47 167,-82 259,-103 -8,2 -144,40 -259,103z"/>
   <path class="fil56" d="M2102 1705c0,-1 0,-3 0,-4 6,-102 -85,-197 -62,-297 12,-56 58,-98 88,-146 4,-6 7,-12 11,-19 6,8 12,17 18,27 33,54 52,117 52,185 0,8 -1,17 -1,26 -7,89 -46,169 -106,228z"/>
   <path class="fil57" d="M1853 1807c-164,0 -302,-111 -344,-261 -8,-31 -12,-62 -12,-95 0,-196 158,-355 353,-356l3 0c12,0 24,0 37,2 29,3 57,9 83,19 67,24 124,67 166,123 -4,7 -7,13 -11,19 -30,48 -76,90 -88,146 -23,100 68,195 62,297 0,1 0,3 0,4 -3,2 -5,5 -8,7 -45,41 -100,71 -161,85 -26,7 -53,10 -80,10z"/>
   <path class="fil27" d="M2093 3105l0 0c-37,0 -67,-29 -67,-66l0 -114 133 0 0 114c0,37 -30,66 -66,66z"/>
   <path class="fil28" d="M2103 3311c-89,0 -163,-17 -199,-27 -11,-4 -19,-14 -19,-24 0,-3 1,-5 1,-8 17,-54 57,-142 67,-164 1,-1 1,-3 1,-3l1 0c0,0 -49,165 0,180 8,2 25,3 46,3 80,0 229,-14 296,-20 0,1 1,3 2,4 0,3 1,6 1,9 0,7 -3,13 -8,18 -2,2 -6,5 -10,6 -61,19 -123,26 -179,26z"/>
   <path class="fil28" d="M2093 3556c-21,0 -41,0 -61,-1 -378,-4 -675,-50 -675,-106 0,-2 1,-3 1,-4l0 0 -1 0c5,-33 70,-156 70,-156l0 0c0,0 0,0 0,0 0,3 1,6 2,9 -10,58 -18,137 12,147 41,14 646,87 868,106 -69,3 -141,5 -216,5z"/>
   <path class="fil58" d="M1429 3298c-1,-3 -2,-6 -2,-9 0,0 0,0 0,0l4 0c-1,3 -1,6 -2,9z"/>
   <polygon class="fil32" points="3583,2577 3558,2587 3533,2574 3527,2510 3588,2514 "/>
   <path class="fil9" d="M3601 2613l-141 0c-5,0 -5,-5 -6,-6 1,-4 2,-8 6,-8 19,0 37,-7 52,-20 5,-5 11,-11 18,-12 8,-3 17,1 23,7 3,4 9,6 14,4 2,-1 4,-2 6,-3 4,-4 7,-9 13,-9 4,-1 8,3 10,7 2,5 1,11 1,16 1,6 2,13 5,18l1 1c0,2 1,4 -2,5z"/>
   <polygon class="fil15" points="3479,1794 3515,2527 3592,2527 3598,1794 "/>
   <polygon class="fil59" points="3500,2217 3490,2017 "/>
   <polygon class="fil60" points="3513,2476 3500,2217 "/>
   <polygon class="fil18" points="3513,2476 3500,2217 3490,2017 3548,2458 "/>
   <polygon class="fil32" points="3673,2577 3648,2587 3623,2574 3617,2510 3678,2514 "/>
   <path class="fil9" d="M3693 2613l-141 0c-5,0 -5,-5 -6,-6 1,-4 2,-8 6,-8 19,0 37,-7 52,-20 5,-5 11,-11 18,-12 8,-3 17,1 23,7 3,4 9,6 14,4 2,-1 4,-2 6,-3 4,-4 7,-9 13,-9 4,-1 8,3 10,7 2,5 1,11 1,16 1,6 2,13 5,18l1 1c0,2 1,4 -2,5z"/>
   <path class="fil15" d="M3692 1794c0,0 40,87 26,156 -15,70 -25,290 -25,290l-8 287 -77 0 -16 -318 -47 -415 147 0z"/>
   <polygon class="fil18" points="3637,2527 3608,2527 3581,1907 "/>
   <path class="fil32" d="M3570 1482c-22,-54 -266,3 -266,3 -50,-13 -268,-35 -268,-35 0,0 -48,-76 -56,-70 -8,5 3,64 16,76 0,0 -15,1 -2,20 2,5 38,3 38,3 62,45 271,74 271,74 149,5 292,-6 267,-71z"/>
   <path class="fil27" d="M3312 1470c0,0 297,-35 297,18 0,66 -177,69 -256,76 -32,3 -65,1 -96,-6l-179 -44c0,0 -10,-64 -2,-77 7,-12 236,33 236,33z"/>
   <path class="fil31" d="M3321 1497l-9 -18 -15 18c-1,-17 15,-27 15,-27 21,17 9,27 9,27z"/>
   <path class="fil27" d="M3479 1794c6,-25 -10,-241 -8,-263 3,-31 29,-50 55,-63 15,-7 29,-12 39,-16 18,-6 41,-9 60,-4 12,3 22,8 30,16 43,45 10,155 6,207 -4,52 11,81 31,124 -71,-1 -142,0 -213,-1z"/>
   <path class="fil32" d="M3688 1989c34,-72 39,-272 39,-272 -13,-149 -42,-288 -104,-254 -51,27 36,261 36,261 -7,45 -4,226 -4,264l0 1c0,0 -12,67 2,82 14,15 22,-37 24,-43 0,0 8,6 11,5 4,-2 -4,-44 -4,-44l0 0z"/>
   <path class="fil27" d="M3643 1937l68 0c20,-72 33,-252 6,-373 -28,-120 -98,-114 -98,-114 -58,38 22,276 22,276l2 211z"/>
   <path class="fil31" d="M3642 1794l-32 0 12 -94 -19 -125c12,74 38,151 38,151l0 0 1 68z"/>
   <path class="fil31" d="M3641 1726c0,0 -26,-77 -38,-151l0 0 38 151z"/>
   <polygon class="fil32" points="3617,1446 3543,1469 3549,1392 3617,1356 "/>
   <path class="fil61" d="M3546 1432l0 0 1 -19c0,0 0,0 0,0l-1 19z"/>
   <path class="fil34" d="M3552 1432c-2,0 -4,0 -6,0l1 -19c1,0 7,1 15,1 10,0 22,-2 29,-9 0,0 -11,27 -39,27z"/>
   <path class="fil62" d="M3621 1447c0,0 0,0 0,0 0,0 0,0 0,0zm-1 0c0,0 0,0 0,0 0,0 0,0 0,0zm0 0c0,0 0,0 0,0 0,0 0,0 0,0zm0 0c-1,0 -2,0 -2,-1 0,1 1,1 2,1zm-2 -1c0,0 -1,0 -1,0 0,0 1,0 1,0zm-1 0c0,0 0,0 0,0 0,0 0,0 0,0z"/>
   <path class="fil31" d="M3526 1468c0,0 1,0 1,0 0,0 -1,0 -1,0z"/>
   <path class="fil31" d="M3565 1514c0,0 0,0 0,0 -12,-1 -21,-30 -21,-30l-27 24 5 -33c1,-2 2,-5 4,-7 0,0 1,0 1,0 1,-1 3,-1 4,-2 2,1 5,2 7,3 5,0 9,1 13,1 8,0 16,-2 24,-5 -2,1 -4,2 -6,2 6,-2 13,-5 20,-8 10,-4 19,-7 27,-12l1 -1 0 0c0,0 0,0 0,0 0,0 0,0 0,0 0,0 0,0 0,0 0,0 1,0 1,0 0,0 0,0 0,0 0,1 1,1 2,1 0,0 0,0 0,0 0,0 0,0 0,0 0,0 0,0 0,0 0,0 0,0 0,0 1,0 1,0 1,0 0,0 0,0 0,0 1,0 3,1 4,1 0,1 0,2 0,2 -2,0 -4,0 -5,0 -1,0 -1,0 -1,0 -10,7 -16,19 -19,35 -14,16 -29,29 -35,29z"/>
   <path class="fil31" d="M3600 1485c3,-16 9,-28 19,-35 0,0 0,0 1,0 1,0 3,0 5,0 -5,10 -14,23 -25,35z"/>
   <path class="fil63" d="M3616 1447c0,0 0,-1 0,-1l1 0 -1 1z"/>
   <path class="fil15" d="M3543 1469l22 31c2,3 6,3 8,1l44 -55 -74 23z"/>
   <path class="fil15" d="M3543 1469l-23 28 2 -22c0,-5 3,-9 7,-10l15 -5 -1 9z"/>
   <path class="fil32" d="M3631 1319c-5,-4 -11,-2 -14,0l0 -54 -105 0 -10 95c0,29 24,53 53,53l40 0c12,0 22,-10 22,-22l0 -36c13,-5 21,-30 14,-36z"/>
   <path class="fil33" d="M3509 1292c30,27 78,-9 78,-9 11,32 18,45 18,45 4,-4 11,-9 15,-10 5,-2 11,3 12,8 3,17 -17,29 -17,29l1 15c20,-6 35,-24 39,-45 4,-20 0,-41 -12,-58 1,-9 2,-18 -2,-26 -4,-10 -16,-15 -27,-16 -11,-1 -22,2 -32,5 -11,3 -22,6 -33,4 -18,-2 -34,-15 -52,-13 -9,1 -18,6 -23,13 -8,13 -6,30 -2,45 5,19 16,39 33,49l4 -36z"/>
   <path class="fil26" d="M3489 3615c0,23 -34,23 -177,23 -142,0 -339,0 -339,-23 0,-22 115,-40 258,-40 142,0 258,18 258,40z"/>
   <path class="fil32" d="M3363 2947c-6,29 -11,83 -15,137 -6,77 -9,153 -9,153l-26 332 -50 0 -25 -364 -5 -42 -6 -53 -36 -319 146 0c0,0 41,87 26,156z"/>
   <path class="fil34" d="M3313 3569l-23 0c17,-94 42,-371 40,-389 -1,-14 -49,-17 -81,-17 -2,0 -4,0 -6,0 0,-2 0,-5 0,-8l12 0 88 0c0,5 0,10 -1,14 -1,24 -2,43 -3,55 0,0 0,0 0,0 0,8 0,13 0,13l-6 68 0 4 -7 95 -3 41 -1 6 -9 118z"/>
   <path class="fil19" d="M3258 3557c13,1 28,19 55,-2 3,-2 7,-1 8,2 2,3 3,7 3,15 1,15 6,26 6,34 0,3 -2,5 -4,5l-154 0c-4,0 -6,-4 -4,-7 3,-5 11,-12 28,-14 28,-4 47,-11 54,-22 6,-11 4,-12 8,-11z"/>
   <path class="fil32" d="M3263 2947c-6,29 -11,83 -15,137 -5,77 -9,153 -9,153l-26 332 -50 0 -25 -364 -5 -42 -6 -53 -36 -319 146 0c0,0 41,87 26,156z"/>
   <path class="fil34" d="M3213 3569l-23 0c17,-94 42,-371 41,-389 -2,-14 -49,-17 -82,-17 -6,0 -11,0 -16,0l0 0 -1 -8 111 0c0,3 0,6 0,8 -2,32 -3,58 -4,69 0,3 0,5 0,5l-2 29 -11 138 -3 41 0 6 -10 118z"/>
   <path class="fil19" d="M3158 3557c14,1 29,19 55,-2 3,-2 7,-1 8,2 2,3 3,7 4,15 0,15 5,26 6,34 0,3 -2,5 -5,5l-154 0c-4,0 -6,-4 -4,-7 4,-5 12,-12 28,-14 29,-4 48,-11 54,-22 7,-11 5,-12 8,-11z"/>
   <path class="fil27" d="M3381 2932c-1,70 -15,223 -15,223l-250 0c0,0 -31,-253 8,-364l59 -1 154 -3c0,0 45,75 44,145z"/>
   <path class="fil64" d="M3366 3155l-23 0 -88 0c102,-60 92,-244 85,-307 -1,-7 -7,-12 -13,-12 -2,0 -5,1 -7,3 -30,19 -91,58 -117,60 -1,0 -1,0 -2,0 -34,0 -43,-79 -43,-79l20 -24 10 -5c49,0 99,0 149,1l0 0c-1,-2 -1,-3 -2,-5l2 0c0,0 44,74 44,143 0,0 0,1 0,2 -1,70 -15,223 -15,223z"/>
   <path class="fil32" d="M3068 2688c0,0 72,-238 129,-230 69,11 9,139 -71,266 0,0 -131,165 -201,195l-24 -18c0,0 130,-177 167,-213z"/>
   <path class="fil9" d="M3064 2679c0,0 54,-215 133,-221 79,-5 19,127 12,154 -7,27 -145,237 -183,244 -38,7 -77,-43 -77,-43l115 -134z"/>
   <path class="fil9" d="M3124 2791c7,-25 15,-61 21,-84 5,-22 3,-46 -2,-63 -9,-31 -29,-94 -27,-116 5,-48 65,-68 94,-79 29,-11 70,-10 90,11 43,46 11,155 7,208 -4,52 10,81 30,124 -71,-1 -142,-1 -213,-1z"/>
   <path class="fil27" d="M3620 2563l-65 34c-2,1 -5,1 -6,-1l-55 -105c-1,-2 0,-5 2,-6l16 -8 49 -26c2,-1 5,0 6,2l47 90 8 15c1,1 0,4 -2,5z"/>
   <path class="fil64" d="M3553 2598c-2,0 -3,-1 -4,-2l-55 -105c0,-1 0,-1 0,-2 0,-2 1,-3 2,-4l16 -8c10,19 38,71 80,71 7,0 15,-2 22,-5l8 15c0,0 0,1 0,1 0,1 0,2 0,2 -1,1 -1,2 -2,2l-65 34c-1,1 -2,1 -2,1z"/>
   <polygon class="fil32" points="2722,2891 2782,2859 2841,2973 2781,3004 2692,3004 2664,3003 2656,2989 2680,2953 "/>
   <path class="fil33" d="M2680 2953c3,13 9,36 12,51l-28 -1 -8 -14 24 -36z"/>
   <polygon class="fil15" points="3533,2610 3519,2617 2781,3005 2798,2961 2751,2948 2769,2905 2722,2891 2754,2874 3390,2540 3441,2513 3474,2496 "/>
   <path class="fil65" d="M2781 3005l17 -44 -47 -13 18 -43 -47 -14 32 -17c23,24 59,55 99,55 13,0 27,-4 41,-13 55,-35 282,-152 424,-225 56,-29 85,-91 72,-151l51 -27c28,35 78,104 78,104l-208 109 -123 65 -10 5 -64 34 -17 9 -32 16 -36 19 -248 131z"/>
   <path class="fil9" d="M3500 2484l58 111c1,2 0,5 -2,6l-65 34c-2,1 -4,0 -5,-2l-59 -111c-1,-2 0,-5 2,-6l65 -34c2,-1 4,0 6,2z"/>
   <path class="fil32" d="M3369 2705c-8,-52 -48,-279 -102,-249 -40,21 4,168 25,232 -52,38 -139,109 -171,135l0 0 -50 29c0,0 47,6 57,3 65,-10 199,-108 234,-133 5,-4 8,-11 7,-17z"/>
   <path class="fil9" d="M3242 2471c5,-18 25,-28 43,-22 17,6 40,19 52,43 22,41 76,214 60,252 -17,39 -160,134 -197,127 -38,-8 -51,-86 -51,-86l134 -100c0,0 -59,-147 -41,-214z"/>
   <path class="fil32" d="M3271 2320c-3,-2 -6,-3 -9,-2l0 -56 -107 0 -8 94c0,30 24,54 54,54l39 0c13,0 22,-10 22,-22l0 -36c10,-8 15,-27 9,-32z"/>
   <path class="fil32" d="M3262 2353l-67 36 -6 68c0,0 -33,24 -34,35 -2,10 80,-20 107,-50l0 -89z"/>
   <path class="fil66" d="M3193 2411l0 -2c0,0 0,0 0,0l0 2z"/>
   <path class="fil67" d="M3191 2431l2 -20 0 -2c0,0 30,-4 39,-19 0,0 -8,39 -41,41z"/>
   <path class="fil33" d="M3253 2321c-49,25 -62,-42 -62,-42 0,0 -29,4 -40,28l-3 40c-1,11 1,23 6,33 6,12 17,25 39,29l-4 48c0,0 -47,23 -86,-16 -3,-3 -3,-7 -2,-10 10,-20 42,-91 36,-126 -6,-41 6,-64 58,-66 52,-2 73,15 90,55 0,0 29,59 27,127 0,13 -10,25 -23,28 -16,4 -41,8 -65,1 -5,-1 -8,-7 -5,-12 9,-17 28,-55 34,-81 0,0 15,-4 19,-23 2,-10 -9,-18 -19,-14l0 1z"/>
  </g>
 </g>
</svg>
