<?xml version="1.0" encoding="UTF-8"?>
<!DOCTYPE svg PUBLIC "-//W3C//DTD SVG 1.1//EN" "http://www.w3.org/Graphics/SVG/1.1/DTD/svg11.dtd">
<!-- Creator: CorelDRAW X7 -->
<svg xmlns="http://www.w3.org/2000/svg" xml:space="preserve" width="42.3332mm" height="42.3332mm" version="1.1" style="shape-rendering:geometricPrecision; text-rendering:geometricPrecision; image-rendering:optimizeQuality; fill-rule:evenodd; clip-rule:evenodd"
viewBox="0 0 4233 4233"
 xmlns:xlink="http://www.w3.org/1999/xlink">
 <defs>
  <style type="text/css">
   <![CDATA[
    .fil0 {fill:#FBD7A3}
    .fil34 {fill:#F6AE45}
    .fil5 {fill:#F6AE45}
    .fil16 {fill:#EF8641}
    .fil15 {fill:#242440}
    .fil45 {fill:#292842}
    .fil41 {fill:#292945}
    .fil3 {fill:#292949}
    .fil20 {fill:#2F3476}
    .fil52 {fill:#31346A}
    .fil46 {fill:#323672}
    .fil43 {fill:#34387B}
    .fil37 {fill:#34387D}
    .fil2 {fill:#353A85}
    .fil11 {fill:#3B3387}
    .fil23 {fill:#3F46A6}
    .fil13 {fill:#474EBB}
    .fil53 {fill:#4E54A2}
    .fil49 {fill:#5259B0}
    .fil50 {fill:#575FC1}
    .fil38 {fill:#5961C5}
    .fil29 {fill:#5A63CA}
    .fil6 {fill:#5D66D3}
    .fil19 {fill:#6E7FDD}
    .fil39 {fill:#84A0DF}
    .fil10 {fill:#8CABEF}
    .fil8 {fill:#9EB79C}
    .fil21 {fill:#A6A7A9}
    .fil36 {fill:#AEB0B2}
    .fil9 {fill:#B0C0BA}
    .fil40 {fill:#B97262}
    .fil18 {fill:#BA6275}
    .fil48 {fill:#BAB4A7}
    .fil4 {fill:#BABCBE}
    .fil32 {fill:#BBB4A7}
    .fil26 {fill:#C1BBAC}
    .fil51 {fill:#C2C1C1}
    .fil31 {fill:#C3BCAE}
    .fil22 {fill:#C5C2CF}
    .fil27 {fill:#CBC4B5}
    .fil47 {fill:#CBCBCB}
    .fil17 {fill:#CFBAB9}
    .fil44 {fill:#D4D3D3}
    .fil30 {fill:#D6CFBF}
    .fil12 {fill:#DDDAE8}
    .fil14 {fill:#DEDEDE}
    .fil25 {fill:#DFD8C7}
    .fil42 {fill:#E9E9E9}
    .fil33 {fill:#EAE9E9}
    .fil7 {fill:#EED5D5}
    .fil35 {fill:#EEEEEE}
    .fil1 {fill:#EFBFA5}
    .fil28 {fill:#F4F4F4}
    .fil24 {fill:white}
   ]]>
  </style>
 </defs>
 <g id="Layer_x0020_1">
  <metadata id="CorelCorpID_0Corel-Layer"/>
  <g id="_1729580337968">
   <path class="fil0" d="M3639 3422c-26,0 -51,-1 -77,-3 -100,-10 -200,-14 -299,-28 -227,-30 -454,-32 -682,-32 -91,0 -182,-1 -272,-1 -132,0 -264,2 -396,11 -206,14 -412,16 -618,16 -31,0 -62,0 -93,0 -2,0 -4,0 -6,0 -114,0 -227,7 -341,12 -115,5 -226,13 -340,13 -10,0 -20,0 -30,0 -114,-2 -287,-35 -368,-119 -48,-50 -42,-171 7,-219 21,-21 55,-38 82,-48 79,-29 160,-29 242,-29 1,0 2,0 3,0 57,0 116,11 171,27 50,15 100,20 151,29 41,7 85,11 129,11 29,0 57,-2 84,-5 73,-8 147,-11 221,-17 15,-2 30,-3 46,-5 8,5 17,10 26,15 33,16 69,32 106,46 13,12 28,22 44,31 34,20 79,25 123,25 35,0 69,-3 98,-6 64,-7 126,-26 182,-56 36,-19 69,-41 64,-85 -1,-12 -4,-24 -8,-35 29,-1 58,-1 88,-1 10,0 19,0 29,0 58,0 115,0 173,0 47,0 93,0 140,0 160,0 320,2 479,16 49,5 98,2 147,13 49,10 98,20 149,22 24,1 49,2 74,2 0,0 0,0 0,0 1,0 1,0 1,0 18,0 36,0 54,0 76,0 153,-1 229,-2 8,0 18,0 32,0 18,0 41,0 68,1 3,26 7,52 13,77 30,0 59,0 89,1 6,-25 13,-50 19,-75 238,9 566,44 534,163 -17,61 -112,140 -166,166 -67,32 -141,51 -215,58 -63,5 -124,11 -186,11z"/>
   <path class="fil1" d="M219 1730c10,-6 26,-8 38,-14 7,-4 6,-18 19,-11 5,2 14,9 23,14 13,6 33,7 51,5 67,-9 135,-16 203,-17 4,0 8,0 12,-2 6,-3 7,-10 9,-17 10,-29 20,-58 35,-86 14,-25 29,-48 53,-64 23,-16 52,-23 78,-12 19,8 35,23 37,44 6,53 -45,87 -77,121 -29,32 -55,59 -86,87 -4,4 -7,7 -12,9 -5,2 -11,1 -16,1 -68,-7 -134,-15 -202,-7 -19,2 -35,-4 -53,1 -11,2 -18,13 -28,17 -11,4 -23,9 -35,9 -25,-1 -51,-24 -57,-49 -5,-16 0,-24 8,-29z"/>
   <path class="fil2" d="M701 1672c-37,-18 -76,-30 -112,-51 17,-31 67,-160 75,-175 31,-59 39,-84 77,-113 82,-61 168,-8 155,88 -13,105 -77,190 -145,266 -2,1 -3,2 -6,3 -2,1 -6,0 -8,-2 -12,-5 -24,-10 -36,-16z"/>
   <path class="fil1" d="M677 3127c-13,0 -26,-3 -39,-4 -7,-131 5,-269 11,-400 33,2 67,3 101,5 -24,71 -41,143 -50,217 -2,11 -21,181 -23,182z"/>
   <path class="fil3" d="M634 3097c-9,-1 -14,3 -19,8 -3,3 -6,7 -9,9 -4,2 -8,2 -13,3 -24,2 -80,1 -50,42 27,37 99,22 140,12 3,-1 6,-1 8,-3 2,-2 3,-5 4,-8 5,-18 11,-39 -10,-47 -9,-3 -17,3 -27,0 -8,-3 -16,-14 -24,-16z"/>
   <path class="fil3" d="M573 2802c69,-1 137,-3 206,-4 55,-264 104,-530 147,-797 3,-20 6,-42 0,-62 -11,-38 -52,-59 -91,-67 -60,-11 -171,5 -202,68 -33,66 -28,185 -36,258 -21,201 -29,402 -24,604z"/>
   <path class="fil1" d="M1070 3127c13,0 26,-3 39,-4 7,-131 -5,-269 -11,-400 -33,2 -67,3 -101,5 24,71 41,143 50,217 2,11 21,181 23,182z"/>
   <path class="fil3" d="M1113 3097c9,-1 14,3 19,8 3,3 5,7 9,9 4,2 8,2 13,3 24,2 80,1 50,42 -27,37 -99,22 -140,12 -3,-1 -6,-1 -8,-3 -2,-2 -3,-5 -4,-8 -5,-18 -11,-39 10,-47 9,-3 17,3 27,0 8,-3 16,-14 24,-16z"/>
   <path class="fil3" d="M1174 2802c-69,-1 -138,-3 -206,-4 -56,-264 -104,-530 -147,-797 -3,-20 -6,-42 0,-62 11,-38 52,-59 91,-67 60,-11 171,5 202,68 33,66 28,185 35,258 22,201 30,402 25,604z"/>
   <path class="fil2" d="M998 1353c55,52 96,120 121,189 44,124 45,255 45,384 0,43 0,86 0,129 1,43 -3,52 -49,46 -85,-10 -174,-28 -251,-66 -37,-18 -71,-40 -109,-55 -56,-20 -114,-11 -169,-24 24,-73 41,-135 54,-210 12,-77 24,-161 42,-237 12,-46 32,-88 53,-130 15,-28 30,-57 54,-78 73,-61 154,0 209,52z"/>
   <path class="fil1" d="M799 1172c11,23 28,42 42,62 13,21 18,39 21,62 3,17 9,31 29,33 39,6 28,-26 37,-49 10,-26 31,-47 46,-71 43,-68 31,-203 -59,-231 -98,-32 -147,125 -116,194z"/>
   <path class="fil3" d="M955 1106c11,1 23,1 32,9 8,7 7,24 -4,25 -10,2 -23,-8 -29,-1 -3,5 0,11 3,16 10,20 13,43 8,64 4,3 11,-1 14,-5 18,-19 32,-42 41,-66 3,6 8,11 14,14 -3,-9 -1,-19 1,-28 9,-35 14,-75 -10,-103 -13,-15 -32,-24 -52,-28 -19,-3 -40,-2 -59,-2 -9,1 -19,3 -21,11 18,7 38,22 47,39 3,6 14,55 15,55z"/>
   <path class="fil3" d="M916 1023c0,1 1,1 2,2 8,6 16,14 26,17 15,4 31,-3 45,2 16,6 27,25 39,36 19,19 43,33 69,41 13,4 27,6 41,7 6,0 14,2 21,0 8,-2 7,-6 -1,-9 -28,-8 -36,-47 -34,-72 2,-20 8,-41 1,-60 -6,-14 -19,-21 -31,-29 -13,-9 -28,-7 -43,-11 -16,-5 -28,-17 -45,-20 -17,-4 -34,4 -51,7 -14,3 -29,3 -43,0 -12,-3 -24,-8 -37,-8 -19,0 -37,12 -48,27 -15,22 -26,59 -20,88 -1,-4 14,-20 17,-24 7,-7 14,-14 24,-15 23,-3 50,8 68,21z"/>
   <path class="fil4" d="M168 1906c0,0 21,100 7,145l38 1 -12 -161 -33 15z"/>
   <path class="fil4" d="M211 2034c-11,2 -21,3 -32,4 -2,0 -1,3 0,3 11,-1 22,-2 32,-4 2,0 2,-3 0,-3z"/>
   <path class="fil4" d="M209 2019c-9,1 -18,3 -28,4 -2,0 -2,3 0,3 10,-1 19,-3 29,-4 1,0 1,-3 -1,-3z"/>
   <path class="fil4" d="M208 2006c-7,2 -11,3 -28,3 -1,0 -1,3 1,3 9,0 18,-1 27,-3 2,0 2,-3 0,-3z"/>
   <path class="fil4" d="M209 1988c-10,2 -19,4 -28,5 -2,0 -2,3 0,2 9,-1 19,-2 28,-4 2,-1 1,-4 0,-3z"/>
   <path class="fil4" d="M206 1971c-9,2 -18,3 -27,4 -2,0 -2,3 0,3 9,-1 18,-2 27,-4 2,0 2,-3 0,-3z"/>
   <path class="fil4" d="M204 1955c-9,2 -18,3 -27,4 -2,0 -2,3 0,3 9,-1 18,-2 27,-4 2,0 1,-3 0,-3z"/>
   <path class="fil4" d="M202 1937c-9,2 -19,3 -28,5l-1 0 0 0c0,1 0,2 0,2l1 1c9,-2 19,-3 28,-5 2,-1 2,-4 0,-3z"/>
   <path class="fil4" d="M201 1918c-9,2 -18,3 -28,4 -1,1 -1,4 1,3 9,-1 18,-2 28,-4 1,0 1,-3 -1,-3z"/>
   <path class="fil5" d="M841 2204l-682 58c-1,0 -2,-1 -2,-2l-10 -114c0,-1 1,-1 2,-2l682 -57c1,0 2,1 2,2l9 114c0,1 0,1 -1,1z"/>
   <polygon class="fil3" points="279,2252 207,2258 197,2140 269,2134 "/>
   <polygon class="fil3" points="311,2249 295,2250 286,2133 301,2132 "/>
   <path class="fil3" d="M367 2185c1,12 -7,22 -19,23 -11,1 -21,-8 -22,-19 -1,-12 8,-22 19,-23 11,-1 21,8 22,19z"/>
   <path class="fil6" d="M837 2088l-682 57c-1,0 -2,0 -2,-1l-8 -92c0,0 1,-1 1,-1l683 -57c1,-1 1,0 1,1l8 91c0,1 0,2 -1,2z"/>
   <polygon class="fil7" points="234,2070 238,2111 258,2091 "/>
   <polygon class="fil7" points="262,2072 265,2105 281,2089 "/>
   <polygon class="fil7" points="193,2142 190,2142 182,2048 185,2048 "/>
   <polygon class="fil7" points="208,2141 205,2141 196,2047 200,2046 "/>
   <path class="fil7" d="M325 996l-48 18 0 -12c2,-35 -4,-77 -14,-111l2 -2 45 -39 15 146z"/>
   <polygon class="fil8" points="603,977 321,989 276,1013 581,1001 "/>
   <path class="fil9" d="M275 1010c8,-2 16,-7 23,-12 8,-4 15,-8 22,-12 1,0 2,3 1,4 -8,4 -16,9 -23,13 -8,4 -15,9 -23,11 -1,0 -1,-4 0,-4z"/>
   <path class="fil9" d="M310 856c-17,10 -32,23 -48,39 -1,1 -3,-4 -2,-5 16,-16 32,-29 48,-40 2,-1 3,4 2,6z"/>
   <path class="fil10" d="M591 839l-284 11 5 32c3,25 6,50 7,76l2 31 282 -12 0 -2c2,-44 -2,-92 -12,-136z"/>
   <path class="fil6" d="M350 852c-1,-4 -7,-3 -6,1 9,41 12,84 9,127 0,4 6,5 6,1 3,-44 0,-87 -9,-129z"/>
   <path class="fil6" d="M557 845c0,-4 -7,-3 -6,1 9,42 13,84 10,127 0,4 6,5 7,1 2,-43 -1,-86 -11,-129z"/>
   <path class="fil1" d="M190 1183l-109 28 2 -16c7,-47 -3,-104 -23,-149l4 -3 102 -55 24 195z"/>
   <polygon class="fil3" points="807,1137 181,1175 78,1210 756,1171 "/>
   <path class="fil2" d="M77 1206c18,-3 36,-11 53,-18 17,-6 33,-12 49,-17 3,-1 5,4 2,5 -18,6 -35,12 -53,19 -17,6 -33,13 -51,17 -2,0 -3,-5 0,-6z"/>
   <path class="fil2" d="M166 995c-37,16 -73,35 -108,57 -4,2 -8,-5 -4,-7 35,-22 72,-42 109,-57 4,-2 6,6 3,7z"/>
   <path class="fil11" d="M791 953l-630 36 7 41c6,34 10,68 12,102l1 43 626 -38 0 -2c8,-60 3,-123 -16,-182z"/>
   <path class="fil12" d="M781 1997l-577 48 -12 -139 577 -48 1 2c17,43 21,91 11,137z"/>
   <polygon class="fil2" points="343,2033 263,2040 251,1901 331,1895 "/>
   <path class="fil1" d="M181 1759l-108 -6 5 12c15,35 15,80 3,117l5 2 106 30 -11 -155z"/>
   <polygon class="fil3" points="807,1709 174,1767 71,1753 748,1689 "/>
   <path class="fil2" d="M70 1757c18,0 36,4 53,6 17,3 34,5 50,8 3,0 4,-4 1,-4 -18,-3 -36,-6 -54,-8 -17,-3 -34,-6 -51,-6 -2,0 -2,4 1,4z"/>
   <path class="fil2" d="M190 1908c-37,-7 -75,-17 -111,-30 -4,-1 -7,5 -3,6 37,13 75,23 113,30 4,1 5,-5 1,-6z"/>
   <path class="fil13" d="M820 1861l-633 53 0 -33c0,-27 -2,-54 -7,-80l-6 -34 633 -58 1 2c18,48 22,100 12,150z"/>
   <path class="fil10" d="M745 1704l-600 51c-1,0 -2,-1 -2,-2l-12 -140c0,-1 1,-2 2,-2l600 -50c1,0 1,0 1,1l12 141c0,1 0,1 -1,1z"/>
   <path class="fil6" d="M807 1452l-742 62c0,0 -1,0 -1,-1l-9 -102c0,-1 1,-2 2,-2l741 -62c1,0 2,1 2,2l9 101c0,1 -1,2 -2,2z"/>
   <path class="fil5" d="M679 1359l-472 40 -18 -208 473 -39 2 11c15,60 20,123 16,184l-1 12z"/>
   <polygon class="fil7" points="353,1385 259,1393 241,1188 335,1181 "/>
   <polygon class="fil5" points="332,1387 279,1391 262,1187 314,1182 "/>
   <polygon class="fil14" points="190,1204 190,1204 190,1204 "/>
   <polygon class="fil15" points="190,1204 189,1193 "/>
   <polygon class="fil16" points="673,1206 672,1206 337,1204 335,1181 241,1188 243,1204 190,1204 190,1204 189,1193 662,1153 662,1153 "/>
   <polygon class="fil17" points="337,1204 316,1204 314,1182 262,1187 263,1204 243,1204 241,1188 335,1181 "/>
   <polygon class="fil18" points="316,1204 263,1204 262,1187 314,1182 "/>
   <path class="fil19" d="M403 945l-1 0c-16,0 -30,-13 -32,-30 0,-1 0,-2 0,-3l0 0c0,-17 13,-31 30,-33 0,0 1,0 2,0 17,0 31,13 32,30 0,1 0,2 0,3l0 0c0,17 -12,31 -29,33 -1,0 -2,0 -2,0z"/>
   <path class="fil12" d="M134 1454c-7,-7 -15,-13 -24,-18 -4,-3 -6,3 -3,5 8,5 14,10 21,16 -6,8 -12,15 -18,22 -3,3 2,7 5,4 7,-8 13,-16 19,-24 1,-2 1,-3 0,-5z"/>
   <path class="fil12" d="M170 1450c-5,-6 -14,-11 -20,-16 -3,-2 -7,2 -4,5 6,4 13,8 17,13 -2,3 -6,7 -8,9 -3,3 -6,7 -9,10 -3,3 2,7 5,4 3,-4 7,-8 11,-12 2,-3 6,-6 8,-10 0,-1 0,-2 0,-3z"/>
   <path class="fil12" d="M187 1424c-3,-3 -7,2 -4,5 2,2 6,7 2,8 -4,1 -2,7 2,6 4,-1 6,-5 5,-9 0,-4 -2,-7 -5,-10z"/>
   <path class="fil12" d="M218 1451c-2,3 -6,3 -8,1 -5,-5 1,-12 7,-10 1,0 1,0 2,0 1,3 2,7 -1,9zm5 -14c-1,-1 -2,-1 -4,-1 -5,-2 -12,0 -15,5 -3,5 -2,12 2,16 5,4 12,4 17,-1 5,-5 4,-13 0,-19z"/>
   <polygon class="fil12" points="665,1711 658,1712 646,1568 653,1567 "/>
   <polygon class="fil12" points="694,1709 687,1710 675,1565 682,1565 "/>
   <path class="fil20" d="M779 1888c-1,-3 -2,-6 -3,-9 1,3 2,6 3,9z"/>
   <path class="fil21" d="M193 1917l0 0 -1 -3c0,0 0,0 0,0l0 0 1 3z"/>
   <path class="fil22" d="M193 1917l-1 -3 36 -3 23 -2 1 5 -59 3zm140 -7l-1 -8 440 -37c0,0 2,6 4,14 1,3 2,6 3,9 0,0 0,0 0,0l0 0 -446 22z"/>
   <polygon class="fil20" points="252,1914 251,1909 332,1902 333,1910 "/>
   <path class="fil20" d="M192 1914l0 0 0 0c0,0 0,0 0,0z"/>
   <polygon class="fil23" points="192,1914 192,1914 228,1911 192,1914 192,1914 "/>
   <path class="fil3" d="M777 1558l-741 62c-1,0 -2,0 -2,-1l-9 -102c0,-1 1,-1 2,-1l741 -63c1,0 2,1 2,2l9 101c0,1 -1,2 -2,2z"/>
   <polygon class="fil12" points="129,1581 118,1582 114,1539 125,1538 "/>
   <polygon class="fil12" points="164,1578 153,1579 149,1536 160,1536 "/>
   <path class="fil7" d="M810 1450l-744 63c-2,0 -4,-2 -4,-4l745 -69 3 10z"/>
   <path class="fil12" d="M807 1446l-744 63c-2,0 -4,-2 -4,-4l745 -69 3 10z"/>
   <path class="fil4" d="M157 1211c0,0 33,130 11,186l39 2 -18 -206 -32 18z"/>
   <path class="fil1" d="M726 1884c1,-2 1,-3 2,-4 7,-10 17,-11 26,-18 5,-3 4,-17 14,-14 4,2 13,7 22,10 12,4 30,2 44,-2 19,-6 39,-12 57,-20 18,-9 36,-18 54,-28 15,-9 38,-19 49,-32 19,-22 -3,-76 -5,-103 -3,-29 0,-113 39,-116 63,-4 64,57 67,105 2,30 1,61 -1,92 -4,42 -32,66 -68,86 -38,22 -78,42 -120,55 -20,6 -41,8 -62,11 -20,4 -18,13 -35,20 -10,5 -19,11 -29,13 -19,4 -34,-9 -48,-19 -3,-2 -6,-4 -7,-7 -3,-6 -2,-12 -1,-19 0,-3 1,-7 2,-10z"/>
   <path class="fil2" d="M1094 1679c-36,7 -72,14 -108,20 2,0 -41,-160 -44,-170 -8,-37 -17,-75 -10,-112 16,-79 54,-99 102,-16 46,79 117,173 103,262 -1,2 -1,4 -2,6 -2,2 -5,2 -7,3l-34 7z"/>
   <path class="fil10" d="M1986 1408c52,32 110,53 170,63 11,-49 22,-99 34,-148 6,-21 11,-42 21,-62 6,-10 27,-29 20,-42 -11,-23 -60,3 -74,10 -37,21 -70,49 -99,79 -7,7 -79,96 -72,100z"/>
   <path class="fil1" d="M2488 2569l3 202c-1,56 4,112 7,168 3,52 -7,106 17,154 8,15 24,25 37,8 10,-14 5,-37 8,-52 17,-118 51,-232 67,-349 18,-123 -30,-120 -139,-131z"/>
   <polygon class="fil3" points="2499,3058 2486,3092 2550,3148 2609,3151 2627,3120 2549,3051 "/>
   <path class="fil1" d="M2344 2571l-36 199c-13,89 -42,175 -55,264 -3,21 -1,43 -10,62 -8,19 -25,20 -39,7 -19,-17 -11,-48 -10,-71 2,-156 -10,-310 -13,-466 0,-2 0,-4 2,-6 1,-1 3,-1 4,-1 16,1 157,17 157,12z"/>
   <polygon class="fil3" points="2193,3066 2173,3096 2223,3166 2279,3181 2305,3155 2243,3071 "/>
   <polygon class="fil3" points="2696,2698 2668,2409 2655,2221 2610,2068 2369,2031 2071,2082 2056,2140 2114,2676 2401,2698 2398,2364 2442,2571 2440,2698 "/>
   <path class="fil24" d="M2134 1504c0,10 -1,19 -1,29 -3,198 8,399 9,599 102,-16 206,-25 309,-27 9,0 28,2 50,4 40,4 88,8 98,-2 21,-19 -2,-15 0,-41 2,-32 -14,-59 -8,-98 7,-46 21,-91 29,-136 16,-92 25,-184 28,-277 3,-82 0,-167 -35,-242 -87,-183 -369,-180 -446,12 -23,56 -31,118 -33,179z"/>
   <path class="fil10" d="M2451 1247l-76 139c4,141 8,281 12,422 2,65 4,129 5,194 1,23 2,45 2,68 1,10 -2,27 4,35 9,14 38,14 60,14 7,0 13,0 18,0 31,2 62,5 92,16 19,7 38,18 58,21 5,0 10,0 14,-3 4,-3 4,-9 5,-14 7,-96 7,-196 12,-294 5,-76 15,-154 11,-230 -3,-80 -16,-158 -31,-236 -9,-46 -19,-92 -45,-132 -28,-44 -69,-62 -119,-72 -18,-4 -83,-29 -72,11 5,20 37,45 50,61z"/>
   <path class="fil10" d="M2285 1260l76 139c-1,0 -9,341 -10,364 -2,88 -5,176 -7,263 -1,24 2,53 -3,77 -6,33 -41,27 -71,29 -66,6 -135,18 -201,14 -19,-1 6,-396 6,-433 0,-133 -27,-281 40,-401 20,-35 55,-91 93,-108 35,-17 86,-19 125,-28l2 25 -50 59z"/>
   <path class="fil3" d="M2451 923c12,21 18,45 19,69 0,7 0,14 6,18 5,4 0,13 5,8 4,-6 18,-25 19,-32 1,-16 1,-32 0,-48 -2,-14 -4,-29 -14,-39 -5,-7 -12,-11 -19,-15 -11,-7 -21,-13 -33,-15 -21,-4 -33,3 -15,18 13,10 24,21 32,36z"/>
   <path class="fil1" d="M2323 1198c0,10 -2,20 7,28 4,3 10,5 15,6 14,2 29,1 43,-3 6,-2 11,-4 16,-9 5,-4 5,-9 5,-15 1,-8 2,-16 3,-23 2,-17 3,-33 4,-50 24,-4 53,-12 61,-38 3,-8 3,-17 3,-26 1,-35 1,-71 1,-107 0,-12 0,-25 -4,-36 -7,-20 -26,-32 -45,-40 -47,-19 -102,-18 -145,9 -12,8 -23,17 -29,30 -11,19 -9,43 -8,66 2,21 3,42 5,63 1,24 5,51 24,64 9,7 22,8 31,17 15,15 8,37 12,56 1,2 1,5 1,8z"/>
   <path class="fil3" d="M2400 1104c-13,9 -27,9 -41,5 -6,-2 -4,-12 2,-10 12,4 23,3 34,-4 5,-3 10,6 5,9zm89 -50c0,-6 -3,-26 -13,-14 -3,4 -4,8 -4,12 0,5 0,9 -1,13 -3,9 -13,13 -22,13 -4,0 -8,-1 -11,-2 -3,-2 -5,-5 -8,-8 -5,-6 -11,-13 -17,-20 -10,-11 -30,-6 -43,-4 -16,2 -31,6 -44,17 -1,1 -2,2 -4,3 -3,2 -6,5 -9,7 -12,5 -27,-1 -35,-11 -4,-5 -8,-12 -14,-13 -4,0 -9,3 -11,7 -3,5 -3,10 -4,15 -1,18 2,37 10,54 17,35 50,39 84,39 13,-1 27,-1 40,-1 24,-1 50,-2 70,-16 19,-12 29,-34 34,-56 2,-11 3,-23 2,-35z"/>
   <path class="fil3" d="M2494 861c2,-9 4,-17 5,-26 -8,3 -17,3 -26,2 0,-5 0,-10 0,-15 0,-5 -57,-8 -62,-8 -44,-4 -84,-7 -124,16 -34,21 -55,51 -61,90 -5,37 8,86 29,117 0,-10 -6,-34 -3,-43 1,-10 4,-19 9,-27 9,-17 23,-31 39,-41 26,-16 56,-25 86,-29 27,-4 60,-7 87,0 13,3 15,7 23,-6 2,-3 13,-30 12,-30 -5,0 -9,0 -14,0z"/>
   <path class="fil2" d="M3349 1523l-980 97 -980 -97c-27,-3 -51,20 -49,48l41 969c1,23 18,41 40,43 161,16 790,79 861,87 4,1 7,3 8,6 5,9 22,28 79,28 57,0 74,-19 79,-28 2,-3 5,-5 8,-6 71,-8 700,-71 861,-87 22,-2 39,-20 40,-43l41 -969c2,-28 -21,-51 -49,-48z"/>
   <path class="fil6" d="M3349 1507l-980 97 -980 -97c-27,-3 -51,20 -49,48l41 969c1,23 18,40 40,43 161,16 790,79 861,87 4,1 7,3 8,6 5,9 22,28 79,28 57,0 74,-19 79,-28 2,-3 5,-5 8,-6 71,-8 700,-71 861,-87 22,-3 39,-20 40,-43l41 -969c2,-28 -21,-51 -49,-48z"/>
   <path class="fil25" d="M2373 1597c-452,-302 -907,-165 -907,-165l0 1049c629,-128 903,136 903,136 0,0 274,-264 903,-136l0 -1049c0,0 -448,-137 -899,165z"/>
   <path class="fil26" d="M1466 1432c0,0 -20,80 -90,128l45 1002c0,0 45,-36 45,-81l0 -1049z"/>
   <path class="fil26" d="M3272 1432c0,0 20,80 90,128l-45 1002c0,0 -45,-36 -45,-81l0 -1049z"/>
   <path class="fil27" d="M1421 2562c0,0 628,-144 908,109l40 0 0 -54c0,0 -283,-269 -903,-136l-45 81z"/>
   <path class="fil27" d="M3317 2562c0,0 -627,-144 -908,109l-40 0 0 -54c0,0 283,-269 903,-136l45 81z"/>
   <path class="fil28" d="M1901 1368c-54,-5 -108,-8 -159,-8 -24,0 -219,7 -219,14l0 296 0 759c0,-7 195,-14 219,-14 168,2 356,32 505,114 25,14 125,68 125,106l0 -1027c0,-21 -8,-41 -22,-57 -113,-120 -283,-167 -449,-183z"/>
   <path class="fil24" d="M2843 1368c54,-5 108,-8 159,-8 24,0 219,7 219,14l0 296 0 759c0,-7 -195,-14 -219,-14 -168,2 -356,32 -505,114 -24,14 -125,68 -125,106l0 -1027c0,-21 8,-41 22,-57 113,-120 283,-167 449,-183z"/>
   <g>
    <path class="fil28" d="M2372 2635l0 -1027c0,-21 8,-41 22,-57 113,-120 283,-167 449,-183 54,-5 108,-8 159,-8l1 0 1 0c28,0 217,7 217,14l0 296 0 39c-27,159 -30,335 -2,478 0,0 1,1 2,1l0 241c0,-7 -189,-14 -218,-14 0,0 -1,0 -1,0 -33,0 -67,2 -102,5 -429,-187 -513,-643 -528,-761l0 976zm125 -106c1,0 1,0 1,0 0,0 0,0 -1,0l0 0zm1 0c1,0 1,0 1,0 0,0 0,0 -1,0l0 0zm1 -1c0,0 1,0 1,0 0,0 -1,0 -1,0zm1 0c0,0 1,0 1,0 0,0 -1,0 -1,0zm1 -1c0,0 0,0 1,0 -1,0 -1,0 -1,0l0 0zm1 0c0,0 0,0 0,0 0,0 0,0 0,0l0 0zm1 -1c0,0 0,0 0,0 0,0 0,0 0,0zm1 0c0,0 0,0 0,0 0,0 0,0 0,0l0 0zm1 -1c0,0 0,0 0,0 0,0 0,0 0,0l0 0zm1 0c0,0 0,0 0,0 0,0 0,0 0,0l0 0zm0 -1c0,0 1,0 1,0 0,0 -1,0 -1,0l0 0zm1 0c0,0 0,0 0,0 0,0 0,0 0,0z"/>
   </g>
   <path class="fil29" d="M2399 2594c0,0 0,-1 1,-1l0 0c-1,0 -1,1 -1,1 0,0 0,0 0,0z"/>
   <path class="fil30" d="M2400 2593c32,-28 81,-55 97,-64l0 0c-16,9 -65,36 -97,64l0 0zm98 -64c0,0 0,0 0,0 0,0 0,0 0,0zm1 0c0,-1 0,-1 0,-1 0,0 0,0 0,1zm1 -1c0,0 0,0 0,0 0,0 0,0 0,0zm1 0c0,0 0,-1 0,-1 0,0 0,1 0,1zm1 -1c0,0 0,0 0,0 0,0 0,0 0,0zm0 0c1,0 1,-1 1,-1 0,0 0,1 -1,1zm1 -1c0,0 0,0 1,0 -1,0 -1,0 -1,0zm1 0c0,0 1,-1 1,-1 0,0 -1,1 -1,1zm1 -1c0,0 0,0 1,0 -1,0 -1,0 -1,0zm1 0c0,0 0,0 0,-1 0,1 0,1 0,1zm1 -1c0,0 0,0 0,0 0,0 0,0 0,0zm0 0c117,-62 258,-93 393,-104 0,0 0,0 0,0l0 0 0 0c-135,11 -276,42 -393,104z"/>
   <path class="fil31" d="M2372 2635l0 0c0,-13 11,-27 27,-41 0,0 0,0 0,0 -16,14 -27,28 -27,41z"/>
   <path class="fil32" d="M2372 2635l0 0c0,-13 11,-27 27,-41l0 0c-16,14 -27,28 -27,41z"/>
   <path class="fil33" d="M2372 2635l0 -976c15,118 99,574 528,761 -135,11 -276,42 -393,104 0,0 0,0 0,0 0,0 0,0 0,0 0,0 -1,0 -1,0 0,1 0,1 0,1 0,0 0,0 0,0 -1,0 -1,0 -1,0 0,0 0,0 0,0 0,0 -1,1 -1,1 0,0 0,0 0,0 -1,0 -1,0 -1,0 0,0 0,0 0,0 0,0 0,1 -1,1 0,0 0,0 0,0 0,0 0,0 0,0 -1,0 -1,0 -1,0 0,0 0,1 0,1 0,0 -1,0 -1,0 0,0 0,0 0,0 0,0 -1,0 -1,0 0,0 0,0 0,1 0,0 0,0 -1,0 0,0 0,0 0,0 0,0 0,0 -1,0l0 0c-16,10 -67,37 -98,65 -16,14 -27,28 -27,41z"/>
   <path class="fil1" d="M4105 1618c-2,-1 -3,-2 -5,-2 -13,-2 -22,6 -36,8 -2,0 -5,-1 -8,-2 -5,-2 -11,-5 -14,3 -2,4 -5,16 -9,25 -6,14 -22,28 -37,36 -58,34 -123,52 -188,67 -4,0 -8,1 -12,0 -6,-1 -10,-8 -13,-14 -15,-28 -33,-55 -53,-79 -17,-22 -37,-43 -63,-56 -25,-12 -57,-14 -81,1 -18,11 -30,31 -31,52 -3,53 66,86 102,113 34,25 70,48 108,69 4,2 9,5 14,5 6,1 11,-1 17,-3 68,-23 134,-52 199,-83 18,-9 30,-25 46,-33 7,-3 13,-3 20,-3 5,0 9,1 14,0 11,-3 25,-9 34,-15 18,-12 19,-35 22,-55 1,-5 2,-8 0,-12 -3,-8 -9,-12 -15,-16 -3,-2 -7,-5 -11,-6z"/>
   <path class="fil12" d="M3652 1750c34,-24 69,-49 103,-74 -2,2 -102,-163 -109,-173 -24,-36 -49,-74 -86,-98 -79,-49 -180,22 -149,114 33,100 107,196 194,255 1,2 3,3 6,3 3,0 6,-1 8,-3 11,-8 22,-16 33,-24z"/>
   <polygon class="fil1" points="3573,3033 3571,3140 3634,3141 3636,3022 "/>
   <path class="fil3" d="M3629 3124l-55 18 -17 18 3 41 149 12c12,-18 4,-43 -17,-50l-7 -3 -56 -36z"/>
   <polygon class="fil1" points="3118,2931 3076,3029 3134,3054 3180,2945 "/>
   <path class="fil3" d="M3133 3056c-2,-3 -4,-5 -7,-7 -7,-5 -63,-35 -68,-21 -1,2 -1,4 -1,7 5,38 14,76 27,113 6,16 15,33 31,37 7,2 14,0 22,-1 10,-3 20,-6 30,-10 4,-1 8,-3 10,-6 4,-7 -3,-15 -10,-19 -7,-4 -15,-6 -19,-14 -1,-3 -1,-6 -2,-10 -1,-26 3,-51 -13,-69z"/>
   <path class="fil4" d="M3514 2540c-20,94 -80,162 -143,232 -72,80 -140,163 -204,250 -27,-11 -54,-23 -82,-34 23,-133 86,-255 135,-381 34,-87 62,-180 63,-274 1,-47 -10,-90 -17,-136 -7,-57 -8,-115 -14,-172 -3,-19 -4,-41 11,-54 6,-5 15,-8 23,-9 312,-60 268,398 228,578z"/>
   <path class="fil4" d="M3261 2043c-1,-57 6,-113 17,-155 89,-5 189,5 277,23 85,17 139,36 139,129 1,171 68,316 97,481 17,95 -12,180 -44,269 -37,101 -68,204 -94,309 -30,-1 -59,-1 -89,-1 -29,-132 -17,-269 -20,-404 -1,-93 -11,-189 -45,-277 -38,-97 -93,-59 -155,-115 -61,-54 -83,-160 -83,-259z"/>
   <path class="fil34" d="M3361 1386c-10,7 -18,16 -27,25 -7,8 -15,17 -22,25 -27,28 -40,69 -51,105 -60,189 -81,449 -42,646 146,13 316,-24 462,-44 14,-2 30,-5 37,-17 5,-8 5,-17 5,-26 0,-125 -26,-260 -51,-383 -11,-53 -24,-104 -40,-155 -18,-53 -38,-111 -79,-152 -44,-43 -128,-65 -183,-31 -3,2 -6,4 -9,7z"/>
   <path class="fil1" d="M3377 1412c-2,-17 -5,-34 -8,-51 -3,-2 -7,-4 -10,-6 -61,-39 -163,-248 -1,-295 148,-43 141,161 112,245 -5,15 -12,29 -22,41 -6,8 -8,6 -7,16 1,9 10,19 12,29 3,10 2,21 -4,30 -4,5 -9,9 -15,12 -9,5 -19,8 -29,6 -12,-3 -26,-15 -28,-27z"/>
   <path class="fil3" d="M3505 1229c-13,41 -23,57 -38,76 -31,40 -5,-100 -18,-148 -1,-4 -2,-8 0,-12 2,-3 6,-4 9,-4 62,-14 62,40 47,88z"/>
   <path class="fil3" d="M3341 1304c-10,14 -32,10 -47,3 -64,-32 -101,-109 -87,-178 12,-58 85,-102 100,-30 5,26 -10,61 -7,89 5,41 24,79 41,116z"/>
   <path class="fil3" d="M3504 1006c7,3 14,6 22,9 16,6 27,8 43,-1 5,-2 36,-32 28,-38 50,41 9,100 -9,141 -13,29 -16,68 -44,87 -31,20 -52,-6 -80,-17 -25,-10 -52,-16 -77,-25 -42,-15 -104,-41 -90,-97 16,-65 82,-81 141,-76 25,2 45,9 66,17z"/>
   <path class="fil2" d="M4167 2257l-154 -230 0 -784c0,-14 18,-19 26,-8l128 192 0 830z"/>
   <polygon class="fil24" points="4160,1435 4028,1240 3974,1251 4132,1449 4132,2264 4160,2257 "/>
   <polygon class="fil24" points="3539,1376 3632,1342 4132,1449 4132,2238 3539,2131 "/>
   <path class="fil2" d="M4090 2282l-582 -81c-13,-2 -23,-14 -23,-27l0 -773c0,-18 16,-31 33,-28l572 79 0 830z"/>
   <path class="fil6" d="M4167 1427c-2,6 -16,15 -35,22 -21,6 -39,8 -42,3l0 0 0 828c-1,0 -1,1 0,2l0 0 0 0c2,5 21,4 42,-3 21,-7 36,-17 35,-23l0 -829z"/>
   <polygon class="fil25" points="3974,1251 3974,1415 4132,1449 "/>
   <polygon class="fil27" points="4132,1449 3677,1330 3677,1352 "/>
   <polygon class="fil10" points="3554,2044 4034,2110 4034,2218 3554,2151 "/>
   <polygon class="fil35" points="4090,2282 4090,2282 3719,2231 3719,2231 "/>
   <polygon class="fil36" points="3719,2231 3508,2201 3719,2231 "/>
   <path class="fil37" d="M4090 2282l0 0 -371 -51 -211 -30c42,-10 81,-23 118,-40l408 57 0 -108 -267 -37c274,-223 323,-621 323,-621l0 828c-1,0 -1,1 0,2l0 0z"/>
   <path class="fil38" d="M4090 2282l0 0 0 0c-1,-1 -1,-2 0,-2l0 -828 0 830z"/>
   <path class="fil39" d="M4034 2218l-408 -57c53,-24 100,-54 141,-88l267 37 0 108z"/>
   <path class="fil1" d="M3849 1962c-1,-1 -2,-2 -3,-3 -12,-7 -23,-4 -36,-7 -7,-2 -12,-17 -21,-9 -4,4 -11,13 -19,20 -11,10 -31,16 -48,18 -67,8 -133,-2 -199,-14 -4,-1 -8,-2 -11,-4 -5,-4 -6,-12 -7,-19 -2,-31 -8,-63 -16,-93 -7,-27 -17,-55 -36,-76 -18,-21 -46,-36 -74,-32 -21,3 -40,17 -50,36 -23,47 27,105 49,144 21,37 45,72 71,106 4,4 7,8 12,11 4,2 10,3 16,3 72,6 144,6 216,4 20,-1 37,-12 55,-12 12,0 21,8 32,10 11,2 26,3 37,1 22,-4 32,-25 43,-42 2,-4 4,-7 5,-12 0,-7 -4,-13 -8,-20 -2,-3 -5,-7 -8,-10z"/>
   <path class="fil34" d="M3381 1903c41,-9 83,-18 124,-27 -2,1 -28,-191 -30,-202 -8,-43 -16,-88 -41,-124 -53,-77 -173,-52 -182,45 -9,105 20,222 76,311 1,2 2,4 4,5 3,1 7,1 10,0 13,-3 26,-5 39,-8z"/>
   <path class="fil3" d="M1896 3005c-5,-45 -28,-80 -69,-100 -34,-15 -72,-19 -108,-24 -82,-10 -161,-21 -244,-18 -66,3 -107,59 -138,115 -19,35 -14,52 11,81 22,27 50,51 81,68 61,35 154,26 221,19 64,-7 126,-26 182,-56 36,-19 69,-41 64,-85z"/>
   <path class="fil3" d="M1481 3127c-11,26 -20,52 -28,79 -5,14 -9,29 -8,43 1,35 40,60 65,28 11,-14 20,-30 26,-46 9,-25 -10,-11 -27,-18 -19,-9 -18,-16 -10,-34 10,-23 22,-37 21,-64 0,-7 -2,-16 -9,-18 -5,-3 -11,-1 -15,3 -4,4 -7,9 -9,14 -2,4 -4,9 -6,13z"/>
   <path class="fil40" d="M1610 2311c22,2 45,5 67,7 4,-20 6,-40 6,-60 20,-3 43,-10 49,-31 2,-6 2,-13 3,-20 0,-29 0,-58 0,-87 0,-10 0,-20 -3,-30 -6,-16 -21,-26 -35,-32 -38,-15 -81,-15 -116,7 -9,6 -18,14 -23,24 -8,16 -7,35 -6,54 1,17 2,34 4,50 1,20 4,42 18,53 8,5 18,6 25,13 12,13 7,35 11,52z"/>
   <path class="fil3" d="M1702 2089c1,1 1,3 2,5 3,9 1,19 5,28 5,14 21,22 24,37 2,12 -6,24 -6,36 -1,14 8,26 7,39 -1,12 -8,28 -15,38 2,-3 22,-3 27,-6 7,-5 8,-8 10,-16 2,-8 0,-15 4,-24 4,-10 13,-17 16,-28 4,-14 -4,-29 -4,-44 0,-23 20,-45 12,-67 -4,-12 -17,-20 -24,-32 -5,-8 -7,-19 -11,-28 -4,-9 -11,-19 -20,-21 -6,-2 -12,-1 -17,-2 -10,-2 -18,-8 -27,-11 -14,-4 -37,9 -44,21 -8,11 -4,20 4,30 14,16 45,26 57,45z"/>
   <path class="fil3" d="M1512 2026c-8,6 -18,11 -25,18 -14,13 -16,35 -17,54 0,17 -7,33 -5,51 2,12 7,24 17,31 12,8 32,10 37,24 7,15 -9,34 1,47 5,8 16,9 23,13 9,6 14,15 19,24 5,9 13,17 23,17 0,-15 1,-27 -6,-41 -4,-8 -16,-23 -7,-32 5,-8 18,-10 18,-20 0,-4 -3,-7 -5,-11 -10,-14 -11,-32 -5,-48 6,-15 19,-28 33,-36 18,-8 15,-13 20,-30 4,-15 13,-19 27,-25 12,-5 16,-8 21,-20 3,-9 7,-19 2,-29 -4,-7 -11,-13 -18,-18 -15,-10 -31,-21 -49,-20 -10,1 -19,6 -29,7 -6,0 -13,-1 -19,-1 -12,0 -24,3 -33,10 -9,7 -8,14 -13,24 -3,5 -6,8 -10,11z"/>
   <path class="fil3" d="M1550 1963c2,-11 0,-25 -10,-29 -5,-1 -12,1 -18,0 -12,-3 -17,-17 -23,-28 -1,-2 -2,-3 -4,-4 -3,-1 -5,0 -8,0 -12,2 -22,-10 -34,-14 -14,-6 -32,4 -36,19 -2,6 -2,12 -3,18 -6,25 -43,36 -43,62 0,17 17,34 11,50 -4,10 -17,17 -16,28 1,7 9,12 16,12 7,0 14,-4 19,-9 8,-8 15,-18 23,-26 8,-8 18,-14 30,-13 10,1 20,9 31,7 9,-1 15,-9 24,-11 7,-2 16,1 24,1 8,0 18,-4 18,-12 0,-2 0,-4 0,-6 2,-6 11,-6 13,-11 -5,-6 -11,-4 -14,-12 -3,-7 -1,-16 0,-22z"/>
   <path class="fil24" d="M1671 2290c31,-5 63,-10 89,1 22,10 22,38 26,59 17,70 29,141 39,212 4,34 12,70 12,105 0,27 -7,54 -5,82 2,22 11,45 31,54 10,4 21,5 31,9 10,4 19,16 14,26 -3,5 -7,7 -12,10 -25,14 -49,27 -74,41 -19,11 -38,21 -58,28 -29,11 -60,14 -90,16 -79,4 -158,-5 -235,-26 -41,-11 -80,-31 -70,-78 10,-47 30,-95 51,-139 26,-53 34,-116 52,-172 19,-57 38,-113 58,-169l0 -1c7,-20 10,-40 26,-57 22,-23 32,-5 57,0 18,3 38,1 58,-1z"/>
   <path class="fil40" d="M1747 3155c7,1 15,1 22,1 7,1 16,1 22,-4 7,-6 6,-18 0,-26 -5,-7 -15,-11 -24,-14 -21,-7 -44,-9 -67,-10 -2,0 -5,0 -7,0 -3,2 -5,6 -7,10 -13,39 34,42 61,43z"/>
   <path class="fil40" d="M1474 3222c-1,3 -1,7 0,10 1,2 3,3 5,4 15,10 35,0 46,-14 11,-13 19,-30 33,-39 33,-23 3,-64 -32,-55 -39,11 -48,59 -52,94z"/>
   <path class="fil3" d="M1915 3009c29,-20 57,-44 67,-79 11,-35 -4,-84 -40,-105 -45,-24 -89,6 -120,35 -65,58 -136,110 -205,163 -24,18 -105,85 -105,85 -2,9 41,94 53,91 126,-34 249,-115 350,-190z"/>
   <path class="fil3" d="M1279 3050c-27,-14 -55,-30 -66,-62 -11,-33 1,-86 36,-116 42,-36 84,-17 116,3 64,42 133,75 201,111 23,12 102,58 102,58 3,8 -36,105 -48,104 -121,0 -241,-50 -341,-98z"/>
   <path class="fil3" d="M1700 3172c25,13 51,24 78,33 14,6 29,10 44,10 35,1 62,-37 31,-64 -14,-12 -29,-21 -46,-29 -24,-10 -11,10 -19,27 -10,18 -17,17 -34,8 -23,-11 -38,-24 -64,-24 -8,0 -16,2 -20,8 -2,5 0,11 3,16 4,4 9,7 14,9 4,2 9,4 13,6z"/>
   <path class="fil40" d="M2065 2706c0,-2 -1,-4 0,-5 0,-16 10,-24 15,-38 2,-7 -9,-20 5,-24 15,-4 43,-1 52,-14 5,-6 10,-14 17,-12 2,0 4,2 6,4 59,57 2,126 -63,124 -5,0 -9,-1 -13,-3 -7,-4 -11,-12 -14,-19 -2,-4 -4,-9 -5,-13z"/>
   <path class="fil24" d="M2179 2716c14,6 32,0 42,-12 10,-13 13,-30 10,-46 -2,-15 -10,-30 -18,-43 -11,-16 -24,-31 -41,-37 -10,-4 -21,-5 -31,-5 -7,0 -15,0 -20,5 -4,3 -5,9 -6,14 -7,32 -2,36 19,58 19,19 33,42 45,66z"/>
   <path class="fil25" d="M1208 2364l0 -50c0,0 265,-24 424,82l-424 -32z"/>
   <path class="fil24" d="M1154 2358l35 -27c0,0 217,-41 443,65l0 589c0,0 -153,-111 -478,-67l0 -560z"/>
   <path class="fil25" d="M2057 2364l0 -50c0,0 -265,-24 -425,82l425 -32z"/>
   <path class="fil24" d="M2111 2358l-36 -27c0,0 -216,-41 -443,65l0 589c0,0 154,-111 479,-67l0 -560z"/>
   <path class="fil2" d="M1632 2395c25,-1 44,-7 45,-14l0 0 0 -1c0,0 1,0 1,0 7,-3 40,-10 50,-12 1,0 2,0 3,0l0 0c28,-7 56,-13 85,-17 109,-17 189,-14 234,-7 16,2 33,6 48,11 3,1 6,2 8,3l0 0 0 0c6,3 10,7 14,12 5,8 5,15 5,24l0 520c0,15 -12,29 -27,27 -89,-17 -161,-16 -217,-12 -58,4 -117,13 -174,28 -18,5 -41,9 -58,18 -2,1 -4,2 -5,2 -2,0 -3,1 -4,1 -1,0 -3,-1 -4,-1 -1,0 -3,-1 -4,-1 -6,-3 -11,-10 -11,-17l0 -551c0,-4 4,-9 11,-13z"/>
   <path class="fil2" d="M1633 2395c-25,-1 -44,-7 -45,-14l0 0 0 -1c0,0 -1,0 -1,0 -7,-3 -40,-10 -50,-12 -1,0 -2,0 -3,0l0 0c-28,-7 -56,-13 -85,-17 -109,-17 -189,-14 -234,-7 -16,2 -33,6 -48,11 -3,1 -6,2 -8,3l0 0 0 0c-6,3 -10,7 -14,12 -5,8 -5,15 -5,24l0 520c0,15 12,29 27,27 89,-17 161,-16 217,-12 58,4 117,13 174,28 18,5 41,9 58,18 2,1 4,2 5,2 2,0 3,1 4,1 1,0 3,-1 4,-1 1,0 3,-1 4,-1 6,-3 11,-10 11,-17l0 -551c0,-4 -4,-9 -11,-13z"/>
   <path class="fil41" d="M1588 2965c-3,-1 -7,-2 -10,-3 3,1 7,2 10,3l0 0z"/>
   <path class="fil42" d="M1208 2934l0 0c2,0 3,0 5,-1 0,0 0,0 0,0 -2,1 -3,1 -5,1z"/>
   <path class="fil41" d="M1500 2944c-8,-2 -16,-3 -24,-4l0 0c8,1 16,2 24,4z"/>
   <path class="fil41" d="M1476 2940c-30,-6 -61,-9 -92,-11 -20,-2 -41,-3 -64,-3 -32,0 -68,2 -107,7 0,0 0,0 0,0 39,-5 75,-7 107,-7 23,0 44,1 64,3 31,2 62,5 92,11l0 0z"/>
   <path class="fil43" d="M1588 2965c-3,-1 -7,-2 -10,-3 -7,-1 -14,-3 -20,-5 -19,-5 -38,-9 -58,-13 -8,-2 -16,-3 -24,-4 -30,-6 -61,-9 -92,-11 -20,-2 -41,-3 -64,-3 -32,0 -68,2 -107,7 -2,1 -3,1 -5,1 327,-105 380,-449 380,-449l0 0 0 480z"/>
   <path class="fil6" d="M1633 2394c-25,0 -45,-7 -45,-14l0 589c0,9 20,16 45,16 24,0 44,-7 44,-16l0 -588c-2,7 -20,13 -44,13z"/>
   <path class="fil44" d="M1628 2394c-4,0 -7,0 -11,-1 0,0 0,0 0,0 0,0 0,0 0,0 0,0 0,0 0,0 0,0 0,0 0,0 0,0 0,0 0,0 0,0 0,0 0,0 -16,-2 -28,-7 -29,-12 0,0 0,0 0,0l0 0c0,0 0,0 0,0l0 -1c0,0 0,0 0,0l0 0 0 0c0,0 -1,0 -1,0 -7,-3 -36,-9 -48,-11 12,2 41,8 48,11 0,0 1,0 1,0l0 0 0 1 0 0 0 0c1,6 19,12 40,13zm-40 -13l0 0 0 0 0 0z"/>
   <path class="fil45" d="M1141 2380c1,-3 2,-6 4,-10 -2,4 -3,7 -4,10z"/>
   <path class="fil44" d="M1537 2368c-1,0 -2,0 -3,0 1,0 2,0 3,0z"/>
   <path class="fil45" d="M1147 2368c2,-3 4,-5 7,-7l0 0c-3,2 -5,4 -7,7z"/>
   <path class="fil44" d="M1534 2368c-28,-7 -56,-13 -85,-17 29,4 57,10 85,17zm-380 -7l0 0c1,-1 3,-2 5,-3l0 0 0 0c-2,1 -4,2 -5,3zm5 -3l0 0c2,-1 5,-2 8,-3 5,-2 11,-4 17,-5 -6,1 -12,3 -17,5 -3,1 -6,2 -8,3l0 0zm288 -7c-59,-9 -109,-12 -150,-12l0 0c41,0 91,3 150,12z"/>
   <path class="fil46" d="M1140 2404l0 -10c0,-5 0,-9 1,-14 1,-3 2,-6 4,-10l0 0c1,0 1,-1 2,-2 2,-3 4,-5 7,-7 1,-1 3,-2 5,-3l0 0 0 0 0 0c2,-1 5,-2 8,-3 5,-2 11,-4 17,-5 10,-3 21,-5 31,-6 21,-3 48,-5 82,-5 41,0 91,3 150,12 1,0 1,0 2,0l0 0c29,4 57,10 85,17l0 0 0 0c1,0 2,0 3,0l0 0c0,0 1,0 2,1 12,2 41,8 48,11 0,0 1,0 1,0l0 0 0 1 0 0 0 0 0 9c0,0 -1,0 -1,0 -7,-3 -40,-10 -50,-12 -1,0 -2,0 -3,-1l0 0c-28,-7 -56,-12 -85,-16 -60,-9 -111,-12 -152,-12 -34,0 -61,2 -82,5 -16,2 -33,5 -48,11 -3,1 -6,2 -8,3l0 0 0 0c-6,3 -10,7 -14,12 -5,8 -5,15 -5,24zm448 -23c0,0 0,0 0,0l0 0c0,0 0,0 0,0z"/>
   <path class="fil47" d="M2119 2369c-2,-3 -5,-6 -8,-8l0 0c3,2 6,5 8,8z"/>
   <path class="fil48" d="M1635 2394c0,0 0,0 0,0l0 0c0,0 0,0 0,0z"/>
   <path class="fil44" d="M1635 2394l0 0c22,0 37,-5 41,-12 1,0 1,0 1,-1l0 0 0 -1 0 1 0 0c0,0 0,1 -1,1 -4,7 -19,12 -41,12zm42 -14c0,0 1,0 1,0 7,-3 40,-10 50,-12 1,0 2,0 2,0 0,0 -1,0 -2,0 -10,2 -43,9 -50,12 0,0 -1,0 -1,0zm54 -12c28,-7 56,-13 85,-17 60,-9 111,-12 152,-12l0 0c-41,0 -92,3 -152,12 -29,4 -57,10 -85,17zm380 -7c-2,-1 -3,-2 -5,-3l0 0 0 0c2,1 3,2 5,3l0 0zm-5 -3l0 0c-2,-1 -5,-2 -8,-3 3,1 6,2 8,3l0 0zm-8 -3c-11,-4 -22,-7 -33,-9 11,2 22,5 33,9z"/>
   <path class="fil46" d="M2125 2402c0,-8 -1,-15 -5,-22 -4,-5 -8,-9 -14,-12l0 0 0 0c-2,-1 -5,-2 -8,-3 -15,-6 -32,-9 -48,-11 -21,-3 -48,-5 -82,-5 -41,0 -92,3 -152,12 -29,4 -57,9 -85,16l0 0c-1,1 -2,1 -3,1 -10,2 -43,9 -50,12 0,0 0,0 -1,0l0 -9c0,0 0,1 -1,1 1,0 1,-1 1,-1l0 0 0 -1c0,0 1,0 1,0 7,-3 40,-10 50,-12 1,0 2,0 2,0 0,0 0,0 1,0l0 0c28,-7 56,-13 85,-17 60,-9 111,-12 152,-12 34,0 61,2 82,5 5,1 10,1 15,2 11,2 22,5 33,9 0,0 0,0 0,0l0 0c3,1 6,2 8,3l0 0 0 0c2,1 3,2 5,3 3,2 6,5 8,8 0,1 1,1 1,1 4,8 5,14 5,22l0 10z"/>
   <path class="fil44" d="M1633 2394c0,0 0,0 0,0 0,0 0,0 0,0zm-1 0c0,0 0,0 0,0 0,0 0,0 0,0zm1 0c0,0 0,0 0,0 0,0 0,0 0,0zm-1 0c0,0 0,0 0,0 0,0 0,0 0,0zm0 0c0,0 0,0 0,0 0,0 0,0 0,0zm1 0c0,0 0,0 0,0 0,0 0,0 0,0zm-1 0c0,0 0,0 0,0 0,0 0,0 0,0zm0 0c0,0 0,0 0,0 0,0 0,0 0,0zm1 0c1,0 1,0 1,0 0,0 0,0 -1,0zm-1 0c0,0 0,0 0,0 0,0 0,0 0,0zm2 0c0,0 0,0 0,0 0,0 0,0 0,0zm-2 0c0,0 0,0 0,0 0,0 0,0 0,0zm-1 0c0,0 0,0 0,0 0,0 0,0 0,0zm0 0c0,0 0,0 0,0 0,0 0,0 0,0zm0 0c0,0 0,0 0,0 0,0 0,0 0,0zm0 0c0,0 0,0 0,0 0,0 0,0 0,0zm0 0c0,0 0,0 0,0 0,0 0,0 0,0zm3 0c0,0 1,0 1,0l0 0c0,0 -1,0 -1,0z"/>
   <path class="fil48" d="M1635 2394l0 0c0,0 0,0 0,0 0,0 0,0 0,0z"/>
   <path class="fil44" d="M1631 2394c0,0 0,0 0,0 0,0 0,0 0,0z"/>
   <path class="fil48" d="M1635 2394c0,0 0,0 0,0 0,0 0,0 0,0z"/>
   <path class="fil44" d="M1631 2394c0,0 0,0 0,0 0,0 0,0 0,0zm0 0c-1,0 -1,0 -1,0 0,0 0,0 1,0zm-1 0c0,0 0,0 0,0 0,0 0,0 0,0zm0 0c0,0 0,0 0,0l0 0c0,0 0,0 0,0z"/>
   <path class="fil48" d="M1630 2394c0,0 0,0 0,0 0,0 0,0 0,0l0 0zm0 0c0,0 0,0 0,0 0,0 0,0 0,0zm0 0c0,0 0,0 0,0 0,0 0,0 0,0zm0 0c0,0 0,0 0,0 0,0 0,0 0,0zm0 0c-1,0 -1,0 -1,0l0 0c0,0 0,0 1,0z"/>
   <path class="fil44" d="M1629 2394c0,0 0,0 0,0 0,0 0,0 0,0l0 0zm0 0c0,0 0,0 0,0 0,0 0,0 0,0zm0 0c0,0 0,0 0,0 0,0 0,0 0,0zm0 0c0,0 0,0 -1,0 1,0 1,0 1,0zm-1 0c0,0 0,0 0,0 0,0 0,0 0,0z"/>
   <path class="fil49" d="M1633 2404l0 0 0 0c22,0 39,-5 43,-12 1,0 1,-1 1,-1l0 -1 0 0c0,0 0,0 0,0l0 -9c0,0 0,1 -1,1 -4,7 -19,12 -41,12 0,0 0,0 0,0l0 0c0,0 0,0 0,0 0,0 0,0 0,0 0,0 0,0 0,0 0,0 -1,0 -1,0 0,0 0,0 0,0 0,0 0,0 0,0 0,0 0,0 0,0 0,0 0,0 -1,0 0,0 0,0 0,0 0,0 0,0 0,0 0,0 0,0 0,0 0,0 0,0 0,0 0,0 0,0 0,0 0,0 0,0 0,0l0 0c0,0 0,0 -1,0 0,0 0,0 0,0 0,0 0,0 0,0 0,0 0,0 0,0 0,0 0,0 0,0 0,0 0,0 0,0 0,0 0,0 0,0 0,0 0,0 0,0 0,0 0,0 0,0 0,0 0,0 0,0 0,0 0,0 0,0 0,0 0,0 0,0 0,0 0,0 0,0 0,0 0,0 0,0 0,0 0,0 -1,0 0,0 0,0 0,0 0,0 0,0 0,0 0,0 0,0 0,0 0,0 0,0 0,0 0,0 0,0 0,0 0,0 0,0 0,0 0,0 0,0 0,0 0,0 0,0 0,0 0,0 0,0 0,0 0,0 0,0 0,0 0,0 0,0 0,0 0,0 0,0 0,0 0,0 0,0 0,0 0,0 0,0 0,0 -1,0 -1,0 -1,0 0,0 0,0 0,0 0,0 0,0 0,0 0,0 0,0 0,0 0,0 0,0 0,0 0,0 0,0 0,0 0,0 0,0 0,0 0,0 0,0 0,0 0,0 0,0 0,0 0,0 0,0 0,0 0,0 0,0 0,0 0,0 0,0 0,0l0 0c-1,0 -1,0 -1,0 0,0 0,0 0,0l0 0c0,0 0,0 0,0 0,0 0,0 0,0 0,0 0,0 0,0 0,0 0,0 0,0 0,0 0,0 -1,0 0,0 0,0 0,0 0,0 0,0 0,0 0,0 0,0 0,0 -4,0 -7,0 -11,-1 2,0 3,1 4,1l0 9c4,1 8,1 11,1l0 0 1 0zm-16 -11c0,0 0,0 0,0 0,0 0,0 0,0zm0 0c0,0 0,0 0,0 0,0 0,0 0,0zm0 0c0,0 0,0 0,0 0,0 0,0 0,0zm-29 -3l0 0 0 -9 0 0 0 9z"/>
   <path class="fil42" d="M1588 2381c0,0 0,0 0,-1l0 0c0,1 0,1 0,1l0 0z"/>
   <path class="fil50" d="M1621 2984c-19,-2 -33,-8 -33,-15l0 -579c0,0 0,0 0,0l0 1 0 0 0 0c1,5 15,11 33,12l0 581zm-33 -603l0 0 0 -1c0,1 0,1 0,1l0 0z"/>
   <path class="fil51" d="M1617 2393c0,0 0,0 0,0 0,0 0,0 0,0zm0 0c0,0 0,0 0,0 0,0 0,0 0,0zm0 0c0,0 0,0 0,0 0,0 0,0 0,0zm0 0c-16,-2 -28,-7 -29,-12 0,0 0,0 0,0 1,5 13,10 29,12zm-29 -12l0 0c0,0 0,0 0,0l0 0c0,0 0,0 0,0z"/>
   <path class="fil52" d="M1588 2381c0,0 0,0 0,0l0 0c0,0 0,0 0,0 0,0 0,0 0,0z"/>
   <path class="fil53" d="M1621 2403c-18,-1 -32,-7 -33,-12l0 0 0 0 0 -1c0,0 0,0 0,0l0 -9 0 0c0,0 0,0 0,0 0,0 0,0 0,0 1,5 13,10 29,12 0,0 0,0 0,0 0,0 0,0 0,0 0,0 0,0 0,0 0,0 0,0 0,0 0,0 0,0 0,0 0,0 0,0 0,0 2,0 3,1 4,1l0 9z"/>
   <path class="fil42" d="M1588 2380l0 0 0 0 0 0zm0 0c0,0 0,0 0,0 0,0 0,0 0,0zm0 0c0,0 0,0 0,0 0,0 0,0 0,0zm0 0c0,0 0,0 0,0l0 0c0,0 0,0 0,0z"/>
   <path class="fil50" d="M1588 2380c0,0 0,0 0,0 0,0 0,0 0,0 0,0 0,0 0,0 0,0 0,0 0,0 0,0 0,0 0,0 0,0 0,0 0,0l0 0 0 0z"/>
   <path class="fil51" d="M1588 2380c0,0 0,0 0,0l0 0zm0 0l0 0z"/>
   <path class="fil53" d="M1588 2380c0,0 0,0 0,0l0 0z"/>
   <path class="fil6" d="M2044 2409c-43,-6 -120,-9 -225,7 -20,3 -54,10 -72,14 -7,1 -12,7 -12,14l0 119c0,9 9,16 18,14 42,-9 88,-22 141,-25 45,-3 90,-4 157,5 9,1 17,-6 17,-15l0 -117c0,-7 -5,-13 -12,-14 -4,-1 -8,-2 -12,-2z"/>
   <path class="fil40" d="M1223 2649c1,-2 1,-4 1,-5 -1,-16 -10,-23 -15,-38 -3,-6 8,-20 -5,-24 -15,-3 -43,-1 -53,-14 -4,-6 -9,-14 -16,-12 -3,1 -5,2 -7,4 -59,57 -1,126 63,124 6,0 9,0 14,-3 7,-4 10,-12 14,-19 2,-4 3,-9 4,-13z"/>
   <path class="fil24" d="M1110 2659c-14,6 -32,0 -42,-12 -11,-13 -13,-30 -11,-45 3,-16 10,-30 19,-44 10,-15 23,-31 41,-37 10,-4 20,-5 31,-5 7,0 15,0 20,5 3,4 5,9 6,14 7,32 1,37 -20,58 -18,19 -32,42 -44,66z"/>
   <path class="fil1" d="M2671 1476c-1,0 -3,-1 -3,-2 -9,-10 -7,-19 -12,-29 -2,-5 -17,-8 -10,-17 3,-3 10,-10 16,-16 10,-12 1,-30 12,-43 9,-12 42,-23 54,-6 5,7 -2,17 -1,24 2,11 10,18 14,28 4,9 6,21 5,30 -1,18 -19,27 -34,37 -4,3 -6,4 -10,5 -8,1 -14,-2 -20,-5 -4,-2 -8,-3 -11,-6z"/>
   <path class="fil10" d="M2767 1425c14,-7 21,-24 18,-39 -2,-15 -13,-29 -26,-37 -13,-8 -29,-12 -44,-14 -18,-3 -38,-3 -54,5 -9,5 -17,12 -24,20 -4,5 -9,11 -9,18 0,5 3,9 6,13 19,26 26,25 56,24 26,-2 52,3 77,10z"/>
   <path class="fil1" d="M2027 1450c2,0 3,-1 4,-2 10,-8 9,-17 16,-27 3,-4 19,-5 13,-14 -2,-4 -9,-12 -13,-19 -8,-14 4,-29 -4,-44 -8,-13 -39,-29 -53,-15 -6,6 -2,17 -4,24 -3,10 -12,16 -18,25 -5,8 -9,20 -10,29 -2,18 15,30 28,42 3,3 5,5 10,7 6,2 13,0 20,-2 4,-1 8,-2 11,-4z"/>
   <path class="fil10" d="M1941 1384c-12,-9 -17,-27 -12,-42 5,-14 18,-26 32,-32 15,-6 31,-7 46,-7 19,1 38,4 53,15 8,6 14,14 20,23 3,6 7,12 6,19 -1,5 -5,9 -8,12 -23,23 -30,21 -59,14 -25,-5 -52,-4 -78,-2z"/>
  </g>
 </g>
</svg>
